G04*
G04 #@! TF.GenerationSoftware,Altium Limited,Altium Designer,24.4.1 (13)*
G04*
G04 Layer_Color=32896*
%FSLAX25Y25*%
%MOIN*%
G70*
G04*
G04 #@! TF.SameCoordinates,9BA34CE2-F453-49C1-9203-2D8BC28E9390*
G04*
G04*
G04 #@! TF.FilePolarity,Positive*
G04*
G01*
G75*
%ADD10C,0.01181*%
%ADD11C,0.00591*%
%ADD12C,0.00787*%
%ADD13C,0.00500*%
%ADD51C,0.00984*%
%ADD54C,0.01575*%
%ADD57C,0.02362*%
%ADD127C,0.03937*%
%ADD128C,0.01378*%
%ADD129C,0.01968*%
%ADD130C,0.00472*%
%ADD131C,0.00394*%
G36*
X418314Y394715D02*
X418513Y394661D01*
X418700Y394574D01*
X418868Y394457D01*
X419014Y394311D01*
X419132Y394143D01*
X419219Y393956D01*
X419272Y393758D01*
X419290Y393552D01*
X419272Y393347D01*
X419219Y393149D01*
X419132Y392962D01*
X419014Y392794D01*
X418868Y392648D01*
X418700Y392530D01*
X418513Y392443D01*
X418314Y392390D01*
X418109Y392372D01*
X417904Y392390D01*
X417705Y392443D01*
X417519Y392530D01*
X417350Y392648D01*
X417204Y392794D01*
X417086Y392962D01*
X416999Y393149D01*
X416946Y393347D01*
X416928Y393552D01*
X416946Y393758D01*
X416999Y393956D01*
X417086Y394143D01*
X417204Y394311D01*
X417350Y394457D01*
X417519Y394574D01*
X417705Y394661D01*
X417904Y394715D01*
X418109Y394733D01*
X418314Y394715D01*
D02*
G37*
G36*
X99917Y388792D02*
X91437D01*
Y403137D01*
X99917D01*
Y388792D01*
D02*
G37*
G36*
X406899Y367551D02*
X407098Y367498D01*
X407285Y367411D01*
X407453Y367293D01*
X407599Y367147D01*
X407717Y366979D01*
X407804Y366792D01*
X407857Y366594D01*
X407875Y366389D01*
X407857Y366183D01*
X407804Y365985D01*
X407717Y365798D01*
X407599Y365630D01*
X407453Y365484D01*
X407285Y365367D01*
X407098Y365280D01*
X406899Y365226D01*
X406694Y365208D01*
X406489Y365226D01*
X406290Y365280D01*
X406104Y365367D01*
X405935Y365484D01*
X405789Y365630D01*
X405671Y365798D01*
X405584Y365985D01*
X405531Y366183D01*
X405513Y366389D01*
X405531Y366594D01*
X405584Y366792D01*
X405671Y366979D01*
X405789Y367147D01*
X405935Y367293D01*
X406104Y367411D01*
X406290Y367498D01*
X406489Y367551D01*
X406694Y367569D01*
X406899Y367551D01*
D02*
G37*
G36*
X379537D02*
X379736Y367498D01*
X379922Y367411D01*
X380091Y367293D01*
X380237Y367147D01*
X380355Y366979D01*
X380442Y366792D01*
X380495Y366594D01*
X380513Y366389D01*
X380495Y366183D01*
X380442Y365985D01*
X380355Y365798D01*
X380237Y365630D01*
X380091Y365484D01*
X379922Y365367D01*
X379736Y365280D01*
X379537Y365226D01*
X379332Y365208D01*
X379127Y365226D01*
X378928Y365280D01*
X378741Y365367D01*
X378573Y365484D01*
X378427Y365630D01*
X378309Y365798D01*
X378222Y365985D01*
X378169Y366183D01*
X378151Y366389D01*
X378169Y366594D01*
X378222Y366792D01*
X378309Y366979D01*
X378427Y367147D01*
X378573Y367293D01*
X378741Y367411D01*
X378928Y367498D01*
X379127Y367551D01*
X379332Y367569D01*
X379537Y367551D01*
D02*
G37*
G36*
X352175D02*
X352374Y367498D01*
X352560Y367411D01*
X352729Y367293D01*
X352874Y367147D01*
X352993Y366979D01*
X353080Y366792D01*
X353133Y366594D01*
X353151Y366389D01*
X353133Y366183D01*
X353080Y365985D01*
X352993Y365798D01*
X352874Y365630D01*
X352729Y365484D01*
X352560Y365367D01*
X352374Y365280D01*
X352175Y365226D01*
X351970Y365208D01*
X351765Y365226D01*
X351566Y365280D01*
X351379Y365367D01*
X351211Y365484D01*
X351065Y365630D01*
X350947Y365798D01*
X350860Y365985D01*
X350807Y366183D01*
X350789Y366389D01*
X350807Y366594D01*
X350860Y366792D01*
X350947Y366979D01*
X351065Y367147D01*
X351211Y367293D01*
X351379Y367411D01*
X351566Y367498D01*
X351765Y367551D01*
X351970Y367569D01*
X352175Y367551D01*
D02*
G37*
G36*
X324911D02*
X325110Y367498D01*
X325296Y367411D01*
X325465Y367293D01*
X325611Y367147D01*
X325729Y366979D01*
X325816Y366792D01*
X325869Y366594D01*
X325887Y366389D01*
X325869Y366183D01*
X325816Y365985D01*
X325729Y365798D01*
X325611Y365630D01*
X325465Y365484D01*
X325296Y365367D01*
X325110Y365280D01*
X324911Y365226D01*
X324706Y365208D01*
X324501Y365226D01*
X324302Y365280D01*
X324115Y365367D01*
X323947Y365484D01*
X323801Y365630D01*
X323683Y365798D01*
X323596Y365985D01*
X323543Y366183D01*
X323525Y366389D01*
X323543Y366594D01*
X323596Y366792D01*
X323683Y366979D01*
X323801Y367147D01*
X323947Y367293D01*
X324115Y367411D01*
X324302Y367498D01*
X324501Y367551D01*
X324706Y367569D01*
X324911Y367551D01*
D02*
G37*
G36*
X476483Y336644D02*
X476682Y336591D01*
X476869Y336504D01*
X477037Y336386D01*
X477183Y336240D01*
X477301Y336072D01*
X477388Y335885D01*
X477441Y335687D01*
X477459Y335482D01*
X477441Y335276D01*
X477388Y335078D01*
X477301Y334891D01*
X477183Y334723D01*
X477037Y334577D01*
X476869Y334459D01*
X476682Y334372D01*
X476483Y334319D01*
X476278Y334301D01*
X476073Y334319D01*
X475874Y334372D01*
X475688Y334459D01*
X475519Y334577D01*
X475374Y334723D01*
X475255Y334891D01*
X475169Y335078D01*
X475115Y335276D01*
X475097Y335482D01*
X475115Y335687D01*
X475169Y335885D01*
X475255Y336072D01*
X475374Y336240D01*
X475519Y336386D01*
X475688Y336504D01*
X475874Y336591D01*
X476073Y336644D01*
X476278Y336662D01*
X476483Y336644D01*
D02*
G37*
G36*
X449318D02*
X449517Y336591D01*
X449704Y336504D01*
X449872Y336386D01*
X450018Y336240D01*
X450136Y336072D01*
X450223Y335885D01*
X450276Y335687D01*
X450294Y335482D01*
X450276Y335276D01*
X450223Y335078D01*
X450136Y334891D01*
X450018Y334723D01*
X449872Y334577D01*
X449704Y334459D01*
X449517Y334372D01*
X449318Y334319D01*
X449113Y334301D01*
X448908Y334319D01*
X448709Y334372D01*
X448523Y334459D01*
X448354Y334577D01*
X448208Y334723D01*
X448090Y334891D01*
X448003Y335078D01*
X447950Y335276D01*
X447932Y335482D01*
X447950Y335687D01*
X448003Y335885D01*
X448090Y336072D01*
X448208Y336240D01*
X448354Y336386D01*
X448523Y336504D01*
X448709Y336591D01*
X448908Y336644D01*
X449113Y336662D01*
X449318Y336644D01*
D02*
G37*
G36*
X305036Y292798D02*
X296457D01*
Y341634D01*
X305036D01*
Y292798D01*
D02*
G37*
G36*
X100021Y291844D02*
X91743D01*
Y306188D01*
X100021D01*
Y291844D01*
D02*
G37*
G36*
X286712Y274606D02*
X209547D01*
Y282893D01*
X286712D01*
Y274606D01*
D02*
G37*
G36*
X99657Y209512D02*
X91601D01*
Y226236D01*
X99657D01*
Y209512D01*
D02*
G37*
G36*
X245963Y74459D02*
X236910D01*
Y170563D01*
X245963D01*
Y74459D01*
D02*
G37*
G36*
X557293Y38811D02*
X557492Y38758D01*
X557678Y38671D01*
X557847Y38553D01*
X557993Y38407D01*
X558111Y38239D01*
X558198Y38052D01*
X558251Y37854D01*
X558269Y37648D01*
X558251Y37443D01*
X558198Y37245D01*
X558111Y37058D01*
X557993Y36890D01*
X557847Y36744D01*
X557678Y36626D01*
X557492Y36539D01*
X557293Y36486D01*
X557088Y36468D01*
X556883Y36486D01*
X556684Y36539D01*
X556497Y36626D01*
X556329Y36744D01*
X556183Y36890D01*
X556065Y37058D01*
X555978Y37245D01*
X555925Y37443D01*
X555907Y37648D01*
X555925Y37854D01*
X555978Y38052D01*
X556065Y38239D01*
X556183Y38407D01*
X556329Y38553D01*
X556497Y38671D01*
X556684Y38758D01*
X556883Y38811D01*
X557088Y38829D01*
X557293Y38811D01*
D02*
G37*
G36*
X530128Y38744D02*
X530326Y38691D01*
X530513Y38603D01*
X530682Y38486D01*
X530827Y38340D01*
X530945Y38172D01*
X531032Y37985D01*
X531085Y37787D01*
X531104Y37582D01*
X531085Y37376D01*
X531032Y37178D01*
X530945Y36991D01*
X530827Y36823D01*
X530682Y36677D01*
X530513Y36559D01*
X530326Y36472D01*
X530128Y36419D01*
X529922Y36401D01*
X529717Y36419D01*
X529519Y36472D01*
X529332Y36559D01*
X529163Y36677D01*
X529018Y36823D01*
X528900Y36991D01*
X528813Y37178D01*
X528759Y37376D01*
X528741Y37582D01*
X528759Y37787D01*
X528813Y37985D01*
X528900Y38172D01*
X529018Y38340D01*
X529163Y38486D01*
X529332Y38603D01*
X529519Y38691D01*
X529717Y38744D01*
X529922Y38762D01*
X530128Y38744D01*
D02*
G37*
G36*
X500196Y235236D02*
X500197D01*
Y226183D01*
X500196D01*
Y32174D01*
X500197D01*
Y23120D01*
X288110D01*
Y32174D01*
X288114D01*
Y235236D01*
X491143D01*
Y235237D01*
X500196D01*
Y235236D01*
D02*
G37*
G36*
X506988Y16339D02*
X500096Y16339D01*
X506988Y23231D01*
Y16339D01*
D02*
G37*
G36*
X171070Y10396D02*
X171269Y10343D01*
X171456Y10255D01*
X171624Y10138D01*
X171770Y9992D01*
X171888Y9824D01*
X171975Y9637D01*
X172028Y9439D01*
X172046Y9234D01*
X172028Y9028D01*
X171975Y8830D01*
X171888Y8643D01*
X171770Y8475D01*
X171624Y8329D01*
X171456Y8211D01*
X171269Y8124D01*
X171070Y8071D01*
X170865Y8053D01*
X170660Y8071D01*
X170461Y8124D01*
X170274Y8211D01*
X170106Y8329D01*
X169960Y8475D01*
X169842Y8643D01*
X169755Y8830D01*
X169702Y9028D01*
X169684Y9234D01*
X169702Y9439D01*
X169755Y9637D01*
X169842Y9824D01*
X169960Y9992D01*
X170106Y10138D01*
X170274Y10255D01*
X170461Y10343D01*
X170660Y10396D01*
X170865Y10414D01*
X171070Y10396D01*
D02*
G37*
G36*
X143905D02*
X144104Y10343D01*
X144290Y10255D01*
X144459Y10138D01*
X144604Y9992D01*
X144722Y9824D01*
X144809Y9637D01*
X144863Y9439D01*
X144881Y9234D01*
X144863Y9028D01*
X144809Y8830D01*
X144722Y8643D01*
X144604Y8475D01*
X144459Y8329D01*
X144290Y8211D01*
X144104Y8124D01*
X143905Y8071D01*
X143700Y8053D01*
X143494Y8071D01*
X143296Y8124D01*
X143109Y8211D01*
X142941Y8329D01*
X142795Y8475D01*
X142677Y8643D01*
X142590Y8830D01*
X142537Y9028D01*
X142518Y9234D01*
X142537Y9439D01*
X142590Y9637D01*
X142677Y9824D01*
X142795Y9992D01*
X142941Y10138D01*
X143109Y10255D01*
X143296Y10343D01*
X143494Y10396D01*
X143700Y10414D01*
X143905Y10396D01*
D02*
G37*
%LPC*%
G36*
X491143Y226183D02*
X297168D01*
Y32174D01*
X491143D01*
Y226183D01*
D02*
G37*
%LPD*%
D10*
X550163Y124902D02*
G03*
X550163Y124902I-557J0D01*
G01*
X635728Y363779D02*
G03*
X635728Y363779I-591J0D01*
G01*
X32677Y120453D02*
G03*
X32677Y120453I-591J0D01*
G01*
X218676Y32381D02*
G03*
X218676Y32381I-591J0D01*
G01*
X154084Y93897D02*
G03*
X154084Y93897I-591J0D01*
G01*
X658465Y413434D02*
G03*
X658465Y413434I-591J0D01*
G01*
D11*
X523883Y372318D02*
G03*
X567411Y391516I14699J25616D01*
G01*
X567411Y404350D02*
G03*
X523883Y423549I-28828J-6417D01*
G01*
X297601Y263595D02*
G03*
X297601Y263595I-220J0D01*
G01*
X301008Y258661D02*
G03*
X301008Y258661I-220J0D01*
G01*
Y261024D02*
G03*
X301008Y261024I-220J0D01*
G01*
X297381Y263595D02*
G03*
X299714Y262552I2333J2089D01*
G01*
X302658Y262992D02*
G03*
X302658Y256728I-1037J-3132D01*
G01*
X299714Y257168D02*
G03*
X297381Y256125I0J-3132D01*
G01*
X297601D02*
G03*
X297601Y256125I-220J0D01*
G01*
X322601Y263595D02*
G03*
X322601Y263595I-220J0D01*
G01*
X326008Y258661D02*
G03*
X326008Y258661I-220J0D01*
G01*
Y261024D02*
G03*
X326008Y261024I-220J0D01*
G01*
X322381Y263595D02*
G03*
X324714Y262552I2333J2089D01*
G01*
X327658Y262992D02*
G03*
X327658Y256728I-1037J-3132D01*
G01*
X324714Y257168D02*
G03*
X322381Y256125I0J-3132D01*
G01*
X322601D02*
G03*
X322601Y256125I-220J0D01*
G01*
X347601Y263595D02*
G03*
X347601Y263595I-220J0D01*
G01*
X351008Y258661D02*
G03*
X351008Y258661I-220J0D01*
G01*
Y261024D02*
G03*
X351008Y261024I-220J0D01*
G01*
X347381Y263595D02*
G03*
X349714Y262552I2333J2089D01*
G01*
X352658Y262992D02*
G03*
X352658Y256728I-1037J-3132D01*
G01*
X349714Y257168D02*
G03*
X347381Y256125I0J-3132D01*
G01*
X347601D02*
G03*
X347601Y256125I-220J0D01*
G01*
X372601D02*
G03*
X372601Y256125I-220J0D01*
G01*
X374714Y257168D02*
G03*
X372381Y256125I0J-3132D01*
G01*
X390846Y257480D02*
G03*
X390846Y262205I0J2362D01*
G01*
X365846Y257480D02*
G03*
X365846Y262205I0J2362D01*
G01*
X340846Y257480D02*
G03*
X340846Y262205I0J2362D01*
G01*
X377658Y262992D02*
G03*
X377658Y256728I-1037J-3132D01*
G01*
X372381Y263595D02*
G03*
X374714Y262552I2333J2089D01*
G01*
X376008Y261024D02*
G03*
X376008Y261024I-220J0D01*
G01*
Y258661D02*
G03*
X376008Y258661I-220J0D01*
G01*
X372601Y263595D02*
G03*
X372601Y263595I-220J0D01*
G01*
X315846Y257480D02*
G03*
X315846Y262205I0J2362D01*
G01*
X587072Y415204D02*
G03*
X587072Y422197I4759J3497D01*
G01*
X19454Y13236D02*
G03*
X19454Y20229I4759J3497D01*
G01*
X243849Y54216D02*
Y58316D01*
X239863Y54216D02*
X243849D01*
X95900Y54232D02*
X100001D01*
X95900D02*
Y58218D01*
X95916Y257135D02*
Y261236D01*
X99902D01*
X239764Y261220D02*
X243865D01*
Y257234D02*
Y261220D01*
X243898Y69340D02*
Y246013D01*
X95866Y69340D02*
Y246014D01*
X111319Y261195D02*
X228660Y261195D01*
X111319Y54256D02*
X228660Y54256D01*
X299213Y425639D02*
X303314D01*
Y421654D02*
Y425639D01*
X303297Y277690D02*
Y281791D01*
X299311Y277690D02*
X303297D01*
X96293Y277707D02*
X100394D01*
X96293D02*
Y281693D01*
X96310Y421555D02*
Y425656D01*
X100295D01*
X111516Y425689D02*
X288189D01*
X111515Y277657D02*
X288189D01*
X96334Y410451D02*
X96334Y293110D01*
X303273D02*
X303273Y410451D01*
X702854Y262264D02*
Y310295D01*
X754035Y262264D02*
Y310295D01*
X702854D02*
X724508D01*
X736319D02*
X754035D01*
X702854Y262264D02*
X724508D01*
X736319D02*
X754035D01*
X501870Y342421D02*
Y346358D01*
Y342421D02*
X505020D01*
X513681D02*
Y346358D01*
X510532Y342421D02*
X513681D01*
X526378Y263917D02*
X550787D01*
Y287854D01*
X526378D02*
X550787D01*
X526378Y263917D02*
Y287854D01*
X127067Y410532D02*
X153858D01*
Y381398D02*
Y410532D01*
X127067Y381398D02*
X153858D01*
X127067D02*
Y410532D01*
X551759Y145685D02*
Y148446D01*
X584469D01*
Y145618D02*
Y148446D01*
X551759Y123601D02*
Y126362D01*
Y123601D02*
X584469D01*
Y126430D01*
X628543Y380413D02*
Y381594D01*
X615945Y380413D02*
Y381594D01*
X621063Y376083D02*
X623425D01*
X621063Y385925D02*
X623425D01*
X129332Y11599D02*
X133071D01*
X125000Y15928D02*
X129332Y11599D01*
X125000Y15928D02*
Y37579D01*
X133071Y37582D01*
X142913Y11599D02*
X146653D01*
X150984Y15928D01*
Y37579D01*
X142913Y37582D02*
X150984Y37579D01*
X523873Y372318D02*
X523883D01*
X521142Y369587D02*
X523873Y372318D01*
X509055Y369587D02*
X521142D01*
X509055D02*
X509055D01*
Y391535D01*
X509055Y404331D02*
Y426280D01*
X509055D02*
X509055D01*
X509055D02*
X521142D01*
X523873Y423549D01*
X523883D01*
X27087Y123524D02*
Y125492D01*
Y123524D02*
X29055D01*
X35118D02*
X37087D01*
Y125492D01*
X221850Y209154D02*
X224016Y211319D01*
X227658Y209252D02*
X229823Y211417D01*
X211959Y10335D02*
Y14469D01*
X212156Y12303D02*
X214616Y10335D01*
X212156Y12303D02*
X214616Y14272D01*
Y10335D02*
Y14272D01*
X630776Y387362D02*
Y389469D01*
X643147Y387362D02*
Y389469D01*
X618405D02*
X643147D01*
X696063Y400295D02*
X696555D01*
X680177D02*
X680254D01*
X686378Y398583D02*
Y400295D01*
X686405D01*
X667776Y398583D02*
Y400295D01*
X696063D01*
X170079Y37582D02*
X178150Y37579D01*
Y15928D02*
Y37579D01*
X173818Y11599D02*
X178150Y15928D01*
X170079Y11599D02*
X173818D01*
X152165Y37579D02*
X160236Y37582D01*
X152165Y15928D02*
Y37579D01*
Y15928D02*
X156497Y11599D01*
X160236D01*
X23839Y188524D02*
X27756D01*
X20768Y191595D02*
X23839Y188524D01*
X1201Y191595D02*
X20768D01*
X1201Y185607D02*
Y191595D01*
Y185607D02*
X20922D01*
X23839Y188524D01*
X26102D01*
X23839Y298524D02*
X27756D01*
X20768Y301594D02*
X23839Y298524D01*
X1201Y301594D02*
X20768D01*
X1201Y295607D02*
Y301594D01*
Y295607D02*
X20922D01*
X23839Y298524D01*
X26102D01*
X23839Y288524D02*
X27756D01*
X20768Y291595D02*
X23839Y288524D01*
X1201Y291595D02*
X20768D01*
X1201Y285607D02*
Y291595D01*
Y285607D02*
X20922D01*
X23839Y288524D01*
X26102D01*
X23839Y278524D02*
X27756D01*
X20768Y281594D02*
X23839Y278524D01*
X1201Y281594D02*
X20768D01*
X1201Y275607D02*
Y281594D01*
Y275607D02*
X20922D01*
X23839Y278524D01*
X26102D01*
X23839Y268524D02*
X27756D01*
X20768Y271595D02*
X23839Y268524D01*
X1201Y271595D02*
X20768D01*
X1201Y265607D02*
Y271595D01*
Y265607D02*
X20922D01*
X23839Y268524D01*
X26102D01*
X23839Y258524D02*
X27756D01*
X20768Y261595D02*
X23839Y258524D01*
X1201Y261595D02*
X20768D01*
X1201Y255607D02*
Y261595D01*
Y255607D02*
X20922D01*
X23839Y258524D01*
X26102D01*
X23839Y248524D02*
X27756D01*
X20768Y251594D02*
X23839Y248524D01*
X1201Y251594D02*
X20768D01*
X1201Y245607D02*
Y251594D01*
Y245607D02*
X20922D01*
X23839Y248524D01*
X26102D01*
X23839Y238524D02*
X27756D01*
X20768Y241595D02*
X23839Y238524D01*
X1201Y241595D02*
X20768D01*
X1201Y235607D02*
Y241595D01*
Y235607D02*
X20922D01*
X23839Y238524D01*
X26102D01*
X23839Y228524D02*
X27756D01*
X20768Y231594D02*
X23839Y228524D01*
X1201Y231594D02*
X20768D01*
X1201Y225607D02*
Y231594D01*
Y225607D02*
X20922D01*
X23839Y228524D01*
X26102D01*
X23839Y218524D02*
X27756D01*
X20768Y221595D02*
X23839Y218524D01*
X1201Y221595D02*
X20768D01*
X1201Y215607D02*
Y221595D01*
Y215607D02*
X20922D01*
X23839Y218524D01*
X26102D01*
X23839Y208524D02*
X27756D01*
X20768Y211595D02*
X23839Y208524D01*
X1201Y211595D02*
X20768D01*
X1201Y205607D02*
Y211595D01*
Y205607D02*
X20922D01*
X23839Y208524D01*
X26102D01*
X23839Y198524D02*
X27756D01*
X20768Y201594D02*
X23839Y198524D01*
X1201Y201594D02*
X20768D01*
X1201Y195607D02*
Y201594D01*
Y195607D02*
X20922D01*
X23839Y198524D01*
X26102D01*
X23839Y178524D02*
X27756D01*
X20768Y181595D02*
X23839Y178524D01*
X1201Y181595D02*
X20768D01*
X1201Y175607D02*
Y181595D01*
Y175607D02*
X20922D01*
X23839Y178524D01*
X26102D01*
X23839Y168524D02*
X27756D01*
X20768Y171595D02*
X23839Y168524D01*
X1201Y171595D02*
X20768D01*
X1201Y165607D02*
Y171595D01*
Y165607D02*
X20922D01*
X23839Y168524D01*
X26102D01*
X23839Y158524D02*
X27756D01*
X20768Y161594D02*
X23839Y158524D01*
X1201Y161594D02*
X20768D01*
X1201Y155607D02*
Y161594D01*
Y155607D02*
X20922D01*
X23839Y158524D01*
X26102D01*
X23839Y148524D02*
X27756D01*
X20768Y151594D02*
X23839Y148524D01*
X1201Y151594D02*
X20768D01*
X1201Y145607D02*
Y151594D01*
Y145607D02*
X20922D01*
X23839Y148524D01*
X26102D01*
X23839Y138524D02*
X27756D01*
X20768Y141595D02*
X23839Y138524D01*
X1201Y141595D02*
X20768D01*
X1201Y135607D02*
Y141595D01*
Y135607D02*
X20922D01*
X23839Y138524D01*
X26102D01*
X23839Y128524D02*
X26102D01*
X20922Y125607D02*
X23839Y128524D01*
X1201Y125607D02*
X20922D01*
X1201D02*
Y131595D01*
X20768D01*
X23839Y128524D01*
X27756D01*
X96063Y24606D02*
Y31496D01*
X76575Y24606D02*
Y31496D01*
X115551D01*
Y24606D02*
Y31496D01*
X573327Y422197D02*
X587072D01*
X573327Y415204D02*
Y422197D01*
Y415204D02*
X587072D01*
X5315Y13236D02*
X19454D01*
X5315D02*
Y20229D01*
X19454D01*
X27087Y303524D02*
X29055D01*
X27087Y301555D02*
Y303524D01*
X35118D02*
X37087D01*
Y301555D02*
Y303524D01*
X521850Y234793D02*
X554921D01*
X521850Y241388D02*
X554921D01*
X521850Y234793D02*
Y261319D01*
X530217Y234842D02*
Y261319D01*
X521850Y254724D02*
X554921D01*
Y261319D02*
X554921Y234793D01*
X538878Y261319D02*
X538878Y234842D01*
X521850Y248130D02*
X554921D01*
X521850Y261319D02*
X554921D01*
X508071Y275886D02*
X516929D01*
Y263917D02*
Y287894D01*
X508071Y263917D02*
Y287854D01*
Y263917D02*
X526378D01*
X508071Y287854D02*
X526378D01*
X538583D02*
Y294882D01*
X526378Y287854D02*
Y294882D01*
X550787D01*
Y287854D02*
Y294882D01*
X115748Y151673D02*
X118898D01*
X115748Y147736D02*
Y151673D01*
X124409D02*
X127559D01*
X127559Y147736D01*
X124606Y171555D02*
Y174705D01*
X120669D02*
X124606D01*
Y162894D02*
Y166043D01*
X120669Y162894D02*
X124606D01*
X344685Y338043D02*
X352756Y338040D01*
X344685Y338043D02*
Y359694D01*
X349016Y364023D01*
X352756D01*
X362598Y338040D02*
X370669Y338043D01*
Y359694D01*
X366338Y364023D02*
X370669Y359694D01*
X362598Y364023D02*
X366338D01*
X417323D02*
X421062D01*
X425394Y359694D01*
Y338043D02*
Y359694D01*
X417323Y338040D02*
X425394Y338043D01*
X403741Y364023D02*
X407480D01*
X399410Y359694D02*
X403741Y364023D01*
X399410Y338043D02*
Y359694D01*
Y338043D02*
X407480Y338040D01*
X389961Y364023D02*
X393700D01*
X398031Y359694D01*
Y338043D02*
Y359694D01*
X389961Y338040D02*
X398031Y338043D01*
X376379Y364023D02*
X380118D01*
X372047Y359694D02*
X376379Y364023D01*
X372047Y338043D02*
Y359694D01*
Y338043D02*
X380118Y338040D01*
X317421Y338043D02*
X325492Y338040D01*
X317421Y338043D02*
Y359694D01*
X321753Y364023D01*
X325492D01*
X335335Y338040D02*
X343406Y338043D01*
Y359694D01*
X339074Y364023D02*
X343406Y359694D01*
X335335Y364023D02*
X339074D01*
X403741Y395918D02*
X407480D01*
X399409Y400247D02*
X403741Y395918D01*
X399409Y400247D02*
Y421898D01*
X407480Y421901D01*
X417323Y395918D02*
X421062D01*
X425394Y400247D01*
Y421898D01*
X417323Y421901D02*
X425394Y421898D01*
X475492Y363830D02*
X483563Y363827D01*
Y342176D02*
Y363827D01*
X479232Y337847D02*
X483563Y342176D01*
X475492Y337847D02*
X479232D01*
X457579Y363827D02*
X465650Y363830D01*
X457579Y342176D02*
Y363827D01*
Y342176D02*
X461910Y337847D01*
X465650D01*
X448327Y363830D02*
X456398Y363827D01*
Y342176D02*
Y363827D01*
X452066Y337847D02*
X456398Y342176D01*
X448327Y337847D02*
X452066D01*
X430413Y363827D02*
X438484Y363830D01*
X430413Y342176D02*
Y363827D01*
Y342176D02*
X434745Y337847D01*
X438484D01*
X540551Y35216D02*
X544290D01*
X548622Y30887D01*
Y9236D02*
Y30887D01*
X540551Y9233D02*
X548622Y9236D01*
X526969Y35216D02*
X530709D01*
X522638Y30887D02*
X526969Y35216D01*
X522638Y9236D02*
Y30887D01*
Y9236D02*
X530709Y9233D01*
X567717Y35283D02*
X571456D01*
X575787Y30953D01*
Y9303D02*
Y30953D01*
X567717Y9300D02*
X575787Y9303D01*
X554135Y35283D02*
X557874D01*
X549803Y30953D02*
X554135Y35283D01*
X549803Y9303D02*
Y30953D01*
Y9303D02*
X557874Y9300D01*
X540415Y363722D02*
X541071Y364378D01*
X542382D01*
X543039Y363722D01*
Y361098D01*
X542382Y360442D01*
X541071D01*
X540415Y361098D01*
X539103Y360442D02*
Y364378D01*
X537135D01*
X536479Y363722D01*
Y362410D01*
X537135Y361754D01*
X539103D01*
X537791D02*
X536479Y360442D01*
X535167D02*
X533855D01*
X534511D01*
Y364378D01*
X535167Y363722D01*
X529263Y360442D02*
X531887D01*
X529263Y363066D01*
Y363722D01*
X529919Y364378D01*
X531231D01*
X531887Y363722D01*
X525328Y360442D02*
X527951D01*
X525328Y363066D01*
Y363722D01*
X525984Y364378D01*
X527295D01*
X527951Y363722D01*
X524016D02*
X523360Y364378D01*
X522048D01*
X521392Y363722D01*
Y361098D01*
X522048Y360442D01*
X523360D01*
X524016Y361098D01*
Y363722D01*
X417061Y95570D02*
X418373D01*
X417717D01*
Y92290D01*
X418373Y91634D01*
X419029D01*
X419685Y92290D01*
X415749Y95570D02*
Y91634D01*
X413126D01*
X409190Y94914D02*
X409846Y95570D01*
X411158D01*
X411814Y94914D01*
Y92290D01*
X411158Y91634D01*
X409846D01*
X409190Y92290D01*
X407878Y94914D02*
X407222Y95570D01*
X405910D01*
X405254Y94914D01*
Y92290D01*
X405910Y91634D01*
X407222D01*
X407878Y92290D01*
Y94914D01*
X401974Y91634D02*
Y95570D01*
X403942Y93602D01*
X401318D01*
X400006Y91634D02*
X398694D01*
X399350D01*
Y95570D01*
X400006Y94914D01*
X394103Y95570D02*
X395415Y94914D01*
X396727Y93602D01*
Y92290D01*
X396071Y91634D01*
X394759D01*
X394103Y92290D01*
Y92946D01*
X394759Y93602D01*
X396727D01*
X392791Y91634D02*
X391479D01*
X392135D01*
Y95570D01*
X392791Y94914D01*
X389511Y95570D02*
Y91634D01*
Y93602D01*
X386887D01*
Y95570D01*
Y91634D01*
X385575Y93602D02*
X382951D01*
X381640Y95570D02*
X379016D01*
Y94914D01*
X381640Y92290D01*
Y91634D01*
X375080Y95570D02*
X376392Y94914D01*
X377704Y93602D01*
Y92290D01*
X377048Y91634D01*
X375736D01*
X375080Y92290D01*
Y92946D01*
X375736Y93602D01*
X377704D01*
X371144Y91634D02*
X373768D01*
X371144Y94258D01*
Y94914D01*
X371800Y95570D01*
X373112D01*
X373768Y94914D01*
X369832D02*
X369176Y95570D01*
X367864D01*
X367209Y94914D01*
Y94258D01*
X367864Y93602D01*
X367209Y92946D01*
Y92290D01*
X367864Y91634D01*
X369176D01*
X369832Y92290D01*
Y92946D01*
X369176Y93602D01*
X369832Y94258D01*
Y94914D01*
X369176Y93602D02*
X367864D01*
X414994Y88286D02*
X416306D01*
X415650D01*
Y85006D01*
X416306Y84350D01*
X416962D01*
X417618Y85006D01*
X413682Y88286D02*
Y84350D01*
X411059D01*
X407123Y87630D02*
X407779Y88286D01*
X409091D01*
X409747Y87630D01*
Y85006D01*
X409091Y84350D01*
X407779D01*
X407123Y85006D01*
X403187Y88286D02*
X404499D01*
X403843D01*
Y85006D01*
X404499Y84350D01*
X405155D01*
X405811Y85006D01*
X401875Y88286D02*
Y84350D01*
X399251D01*
X395316Y87630D02*
X395972Y88286D01*
X397284D01*
X397939Y87630D01*
Y85006D01*
X397284Y84350D01*
X395972D01*
X395316Y85006D01*
X391380Y88286D02*
X392692D01*
X392036D01*
Y85006D01*
X392692Y84350D01*
X393348D01*
X394004Y85006D01*
X390068Y88286D02*
Y84350D01*
X387444D01*
X383508Y87630D02*
X384164Y88286D01*
X385476D01*
X386132Y87630D01*
Y85006D01*
X385476Y84350D01*
X384164D01*
X383508Y85006D01*
X379573Y88286D02*
X380885D01*
X380229D01*
Y85006D01*
X380885Y84350D01*
X381540D01*
X382196Y85006D01*
X378261Y88286D02*
Y84350D01*
X375637D01*
X371701Y87630D02*
X372357Y88286D01*
X373669D01*
X374325Y87630D01*
Y85006D01*
X373669Y84350D01*
X372357D01*
X371701Y85006D01*
X14699Y18044D02*
X15355Y18699D01*
X16667D01*
X17323Y18044D01*
Y15420D01*
X16667Y14764D01*
X15355D01*
X14699Y15420D01*
Y16732D01*
X16011D01*
X13387Y14764D02*
Y18699D01*
X10763Y14764D01*
Y18699D01*
X9451D02*
Y14764D01*
X7484D01*
X6827Y15420D01*
Y18044D01*
X7484Y18699D01*
X9451D01*
X616264Y298685D02*
Y295143D01*
X614493D01*
X613903Y295733D01*
Y298095D01*
X614493Y298685D01*
X616264D01*
X612722Y295143D02*
Y298685D01*
X610361Y295143D01*
Y298685D01*
X606240Y298719D02*
Y295177D01*
X604469D01*
X603879Y295767D01*
Y298129D01*
X604469Y298719D01*
X606240D01*
X602698Y295177D02*
Y298719D01*
X600927D01*
X600337Y298129D01*
Y296948D01*
X600927Y296358D01*
X602698D01*
X594921Y296752D02*
X592560D01*
X593741Y297932D02*
Y295571D01*
X625138Y297047D02*
X622776D01*
X676772D02*
X674410D01*
X646555Y296752D02*
X644194D01*
X645374Y297932D02*
Y295571D01*
X657874Y298719D02*
Y295177D01*
X656103D01*
X655513Y295767D01*
Y298129D01*
X656103Y298719D01*
X657874D01*
X654332Y295177D02*
Y298719D01*
X652561D01*
X651970Y298129D01*
Y296948D01*
X652561Y296358D01*
X654332D01*
X667898Y298685D02*
Y295143D01*
X666127D01*
X665537Y295733D01*
Y298095D01*
X666127Y298685D01*
X667898D01*
X664356Y295143D02*
Y298685D01*
X661995Y295143D01*
Y298685D01*
X107034Y28017D02*
X103885D01*
X105459Y29591D02*
Y26442D01*
X87697Y28150D02*
X84548D01*
X582711Y420012D02*
X583367Y420668D01*
X584679D01*
X585335Y420012D01*
Y417388D01*
X584679Y416732D01*
X583367D01*
X582711Y417388D01*
Y418700D01*
X584023D01*
X581399Y416732D02*
Y420668D01*
X578775Y416732D01*
Y420668D01*
X577463D02*
Y416732D01*
X575495D01*
X574839Y417388D01*
Y420012D01*
X575495Y420668D01*
X577463D01*
X64038Y394390D02*
X62726D01*
X63382D01*
Y398325D01*
X64038Y397670D01*
X58135Y394390D02*
X60758D01*
X58135Y397014D01*
Y397670D01*
X58790Y398325D01*
X60102D01*
X60758Y397670D01*
X54199Y394390D02*
X56823D01*
X54199Y397014D01*
Y397670D01*
X54855Y398325D01*
X56167D01*
X56823Y397670D01*
X52887Y394390D02*
Y395046D01*
X52231D01*
Y394390D01*
X52887D01*
X49607Y397670D02*
X48951Y398325D01*
X47639D01*
X46983Y397670D01*
Y397014D01*
X47639Y396358D01*
X46983Y395702D01*
Y395046D01*
X47639Y394390D01*
X48951D01*
X49607Y395046D01*
Y395702D01*
X48951Y396358D01*
X49607Y397014D01*
Y397670D01*
X48951Y396358D02*
X47639D01*
X45671Y397670D02*
X45015Y398325D01*
X43703D01*
X43047Y397670D01*
Y397014D01*
X43703Y396358D01*
X43047Y395702D01*
Y395046D01*
X43703Y394390D01*
X45015D01*
X45671Y395046D01*
Y395702D01*
X45015Y396358D01*
X45671Y397014D01*
Y397670D01*
X45015Y396358D02*
X43703D01*
X534842Y236270D02*
X533662D01*
X534252D01*
Y239812D01*
X534842Y239222D01*
X526476Y236270D02*
X525296D01*
X525886D01*
Y239812D01*
X526476Y239222D01*
Y243012D02*
X525296D01*
X525886D01*
Y246554D01*
X526476Y245964D01*
X535630D02*
X535040Y246554D01*
X533859D01*
X533268Y245964D01*
Y243602D01*
X533859Y243012D01*
X535040D01*
X535630Y243602D01*
Y245964D01*
X527264Y252558D02*
X526673Y253149D01*
X525493D01*
X524902Y252558D01*
Y250197D01*
X525493Y249606D01*
X526673D01*
X527264Y250197D01*
Y252558D01*
X535630D02*
X535040Y253149D01*
X533859D01*
X533268Y252558D01*
Y250197D01*
X533859Y249606D01*
X535040D01*
X535630Y250197D01*
Y252558D01*
X528248Y256299D02*
Y259841D01*
X527067Y258661D01*
X525887Y259841D01*
Y256299D01*
X524706D02*
X523525D01*
X524116D01*
Y259841D01*
X524706Y259251D01*
X537500Y256299D02*
Y259841D01*
X536319Y258661D01*
X535139Y259841D01*
Y256299D01*
X533958Y259251D02*
X533367Y259841D01*
X532187D01*
X531596Y259251D01*
Y256890D01*
X532187Y256299D01*
X533367D01*
X533958Y256890D01*
Y259251D01*
X547245Y239271D02*
X547835Y239861D01*
X549016D01*
X549606Y239271D01*
Y238680D01*
X549016Y238090D01*
X547835D01*
X547245Y237500D01*
Y236909D01*
X547835Y236319D01*
X549016D01*
X549606Y236909D01*
X546064Y239861D02*
Y236319D01*
X544293D01*
X543703Y236909D01*
Y239271D01*
X544293Y239861D01*
X546064D01*
X550296Y243504D02*
Y245865D01*
X550886Y246456D01*
X552067D01*
X552658Y245865D01*
Y243504D01*
X552067Y242913D01*
X550886D01*
X551477Y244094D02*
X550296Y242913D01*
X550886D02*
X550296Y243504D01*
X546754Y245865D02*
X547344Y246456D01*
X548525D01*
X549115Y245865D01*
Y245275D01*
X548525Y244685D01*
X547344D01*
X546754Y244094D01*
Y243504D01*
X547344Y242913D01*
X548525D01*
X549115Y243504D01*
X545573Y242913D02*
Y246456D01*
X543802D01*
X543212Y245865D01*
Y244685D01*
X543802Y244094D01*
X545573D01*
X542031Y246456D02*
X540850D01*
X541441D01*
Y242913D01*
X542031D01*
X540850D01*
X550985Y253247D02*
X552166D01*
X551575D01*
Y250295D01*
X552166Y249705D01*
X552756D01*
X553346Y250295D01*
X549804Y253247D02*
X547443D01*
X548624D01*
Y249705D01*
X546262D02*
Y252066D01*
X545081Y253247D01*
X543901Y252066D01*
Y249705D01*
Y251476D01*
X546262D01*
X540359Y252657D02*
X540949Y253247D01*
X542130D01*
X542720Y252657D01*
Y250295D01*
X542130Y249705D01*
X540949D01*
X540359Y250295D01*
Y251476D01*
X541539D01*
X65129Y220113D02*
X62505D01*
X63817D01*
Y216177D01*
X61193Y220113D02*
X58569Y216177D01*
Y220113D02*
X61193Y216177D01*
X65051Y297236D02*
Y301172D01*
X63083D01*
X62427Y300516D01*
Y299204D01*
X63083Y298548D01*
X65051D01*
X63739D02*
X62427Y297236D01*
X61115Y301172D02*
X58491Y297236D01*
Y301172D02*
X61115Y297236D01*
X13715Y179767D02*
X14305Y180357D01*
X15486D01*
X16076Y179767D01*
Y177405D01*
X15486Y176815D01*
X14305D01*
X13715Y177405D01*
Y178586D01*
X14895D01*
X12534Y176815D02*
Y180357D01*
X10173Y176815D01*
Y180357D01*
X8992D02*
Y176815D01*
X7221D01*
X6630Y177405D01*
Y179767D01*
X7221Y180357D01*
X8992D01*
X19062Y186759D02*
Y190301D01*
X17291D01*
X16701Y189711D01*
Y188530D01*
X17291Y187940D01*
X19062D01*
X15520Y190301D02*
X14339D01*
X14930D01*
Y186759D01*
X15520D01*
X14339D01*
X12568D02*
Y190301D01*
X10207Y186759D01*
Y190301D01*
X5484Y186759D02*
X4303D01*
X4893D01*
Y190301D01*
X5484Y189711D01*
X13780Y299802D02*
X14371Y300393D01*
X15551D01*
X16142Y299802D01*
Y297441D01*
X15551Y296850D01*
X14371D01*
X13780Y297441D01*
Y298622D01*
X14961D01*
X12600Y296850D02*
Y300393D01*
X10238Y296850D01*
Y300393D01*
X9057D02*
Y296850D01*
X7286D01*
X6696Y297441D01*
Y299802D01*
X7286Y300393D01*
X9057D01*
X19094Y286811D02*
Y290353D01*
X17323D01*
X16733Y289763D01*
Y288582D01*
X17323Y287992D01*
X19094D01*
X15552Y290353D02*
X14372D01*
X14962D01*
Y286811D01*
X15552D01*
X14372D01*
X12600D02*
Y290353D01*
X10239Y286811D01*
Y290353D01*
X5516Y289763D02*
X4926Y290353D01*
X3745D01*
X3155Y289763D01*
Y289172D01*
X3745Y288582D01*
X3155Y287992D01*
Y287401D01*
X3745Y286811D01*
X4926D01*
X5516Y287401D01*
Y287992D01*
X4926Y288582D01*
X5516Y289172D01*
Y289763D01*
X4926Y288582D02*
X3745D01*
X19094Y276772D02*
Y280314D01*
X17323D01*
X16733Y279723D01*
Y278543D01*
X17323Y277952D01*
X19094D01*
X15552Y280314D02*
X14372D01*
X14962D01*
Y276772D01*
X15552D01*
X14372D01*
X12600D02*
Y280314D01*
X10239Y276772D01*
Y280314D01*
X5516D02*
X3155D01*
Y279723D01*
X5516Y277362D01*
Y276772D01*
X19094Y266831D02*
Y270373D01*
X17323D01*
X16733Y269782D01*
Y268602D01*
X17323Y268011D01*
X19094D01*
X15552Y270373D02*
X14372D01*
X14962D01*
Y266831D01*
X15552D01*
X14372D01*
X12600D02*
Y270373D01*
X10239Y266831D01*
Y270373D01*
X3155D02*
X4335Y269782D01*
X5516Y268602D01*
Y267421D01*
X4926Y266831D01*
X3745D01*
X3155Y267421D01*
Y268011D01*
X3745Y268602D01*
X5516D01*
X19094Y256791D02*
Y260333D01*
X17323D01*
X16733Y259743D01*
Y258562D01*
X17323Y257972D01*
X19094D01*
X15552Y260333D02*
X14372D01*
X14962D01*
Y256791D01*
X15552D01*
X14372D01*
X12600D02*
Y260333D01*
X10239Y256791D01*
Y260333D01*
X3155D02*
X5516D01*
Y258562D01*
X4335Y259153D01*
X3745D01*
X3155Y258562D01*
Y257382D01*
X3745Y256791D01*
X4926D01*
X5516Y257382D01*
X19094Y246850D02*
Y250393D01*
X17323D01*
X16733Y249802D01*
Y248622D01*
X17323Y248031D01*
X19094D01*
X15552Y250393D02*
X14372D01*
X14962D01*
Y246850D01*
X15552D01*
X14372D01*
X12600D02*
Y250393D01*
X10239Y246850D01*
Y250393D01*
X3745Y246850D02*
Y250393D01*
X5516Y248622D01*
X3155D01*
X19116Y236797D02*
Y240339D01*
X17345D01*
X16754Y239749D01*
Y238568D01*
X17345Y237978D01*
X19116D01*
X15573Y240339D02*
X14393D01*
X14983D01*
Y236797D01*
X15573D01*
X14393D01*
X12622D02*
Y240339D01*
X10260Y236797D01*
Y240339D01*
X5537Y239749D02*
X4947Y240339D01*
X3766D01*
X3176Y239749D01*
Y239159D01*
X3766Y238568D01*
X4357D01*
X3766D01*
X3176Y237978D01*
Y237388D01*
X3766Y236797D01*
X4947D01*
X5537Y237388D01*
X19053Y226927D02*
Y230469D01*
X17282D01*
X16691Y229878D01*
Y228698D01*
X17282Y228108D01*
X19053D01*
X15511Y230469D02*
X14330D01*
X14920D01*
Y226927D01*
X15511D01*
X14330D01*
X12559D02*
Y230469D01*
X10197Y226927D01*
Y230469D01*
X3113Y226927D02*
X5474D01*
X3113Y229288D01*
Y229878D01*
X3703Y230469D01*
X4884D01*
X5474Y229878D01*
X17327Y220383D02*
Y217431D01*
X16736Y216841D01*
X15556D01*
X14965Y217431D01*
Y220383D01*
X13785Y218612D02*
X11423D01*
X10243Y216841D02*
Y220383D01*
X8471D01*
X7881Y219792D01*
Y218612D01*
X8471Y218021D01*
X10243D01*
X9062D02*
X7881Y216841D01*
X6700Y220383D02*
X4339Y216841D01*
Y220383D02*
X6700Y216841D01*
X17352Y210393D02*
Y207441D01*
X16761Y206851D01*
X15581D01*
X14990Y207441D01*
Y210393D01*
X13810Y208622D02*
X11448D01*
X10268Y210393D02*
X7906D01*
X9087D01*
Y206851D01*
X6725Y210393D02*
X4364Y206851D01*
Y210393D02*
X6725Y206851D01*
X13759Y199755D02*
X14349Y200345D01*
X15530D01*
X16121Y199755D01*
Y197393D01*
X15530Y196803D01*
X14349D01*
X13759Y197393D01*
Y198574D01*
X14940D01*
X12578Y196803D02*
Y200345D01*
X10217Y196803D01*
Y200345D01*
X9036D02*
Y196803D01*
X7265D01*
X6675Y197393D01*
Y199755D01*
X7265Y200345D01*
X9036D01*
X16129Y170396D02*
X13767D01*
X14948D01*
Y166854D01*
X12587Y170396D02*
Y166854D01*
X10815D01*
X10225Y167444D01*
Y169806D01*
X10815Y170396D01*
X12587D01*
X9044D02*
X7864D01*
X8454D01*
Y166854D01*
X9044D01*
X7864D01*
X18037Y128610D02*
X15676D01*
X16857Y129791D02*
Y127429D01*
X14495Y129791D02*
X13905Y130381D01*
X12724D01*
X12134Y129791D01*
Y129200D01*
X12724Y128610D01*
X13315D01*
X12724D01*
X12134Y128020D01*
Y127429D01*
X12724Y126839D01*
X13905D01*
X14495Y127429D01*
X10953Y130381D02*
Y128020D01*
X9772Y126839D01*
X8592Y128020D01*
Y130381D01*
X7411Y129791D02*
X6821Y130381D01*
X5640D01*
X5050Y129791D01*
Y129200D01*
X5640Y128610D01*
X6230D01*
X5640D01*
X5050Y128020D01*
Y127429D01*
X5640Y126839D01*
X6821D01*
X7411Y127429D01*
X16129Y150386D02*
X13767D01*
X14948D01*
Y146844D01*
X10225Y149795D02*
X10815Y150386D01*
X11996D01*
X12587Y149795D01*
Y147434D01*
X11996Y146844D01*
X10815D01*
X10225Y147434D01*
X9044Y150386D02*
Y146844D01*
Y148024D01*
X6683Y150386D01*
X8454Y148615D01*
X6683Y146844D01*
X16096Y140315D02*
X13735D01*
X14915D01*
Y136773D01*
X12554D02*
Y140315D01*
X11373Y139134D01*
X10193Y140315D01*
Y136773D01*
X6650Y139725D02*
X7241Y140315D01*
X8422D01*
X9012Y139725D01*
Y139134D01*
X8422Y138544D01*
X7241D01*
X6650Y137953D01*
Y137363D01*
X7241Y136773D01*
X8422D01*
X9012Y137363D01*
X16146Y160364D02*
X13785D01*
X14966D01*
Y156822D01*
X12604Y160364D02*
Y156822D01*
X10833D01*
X10243Y157413D01*
Y159774D01*
X10833Y160364D01*
X12604D01*
X7291D02*
X8472D01*
X9062Y159774D01*
Y157413D01*
X8472Y156822D01*
X7291D01*
X6701Y157413D01*
Y159774D01*
X7291Y160364D01*
X532874Y289665D02*
X531693D01*
X532284D01*
Y293208D01*
X532874Y292617D01*
X545866Y292519D02*
X545276Y293109D01*
X544095D01*
X543505Y292519D01*
Y290157D01*
X544095Y289567D01*
X545276D01*
X545866Y290157D01*
Y292519D01*
X514663Y269066D02*
Y272608D01*
X513483Y271427D01*
X512302Y272608D01*
Y269066D01*
X511121D02*
X509940D01*
X510531D01*
Y272608D01*
X511121Y272018D01*
X515453Y279232D02*
Y282774D01*
X514272Y281594D01*
X513091Y282774D01*
Y279232D01*
X511911Y282184D02*
X511320Y282774D01*
X510140D01*
X509549Y282184D01*
Y279823D01*
X510140Y279232D01*
X511320D01*
X511911Y279823D01*
Y282184D01*
X696949Y277953D02*
X700885D01*
X699573Y279265D01*
X700885Y280576D01*
X696949D01*
X700885Y281889D02*
X696949D01*
X698917D01*
Y284512D01*
X700885D01*
X696949D01*
X698917Y285824D02*
Y288448D01*
X696949Y291728D02*
X700885D01*
X698917Y289760D01*
Y292384D01*
X700229Y293696D02*
X700885Y294352D01*
Y295664D01*
X700229Y296320D01*
X699573D01*
X698917Y295664D01*
X698261Y296320D01*
X697605D01*
X696949Y295664D01*
Y294352D01*
X697605Y293696D01*
X698261D01*
X698917Y294352D01*
X699573Y293696D01*
X700229D01*
X698917Y294352D02*
Y295664D01*
X663807Y170606D02*
Y171918D01*
Y171262D01*
X667742D01*
X667086Y170606D01*
Y173886D02*
X667742Y174542D01*
Y175854D01*
X667086Y176510D01*
X664463D01*
X663807Y175854D01*
Y174542D01*
X664463Y173886D01*
X667086D01*
Y177822D02*
X667742Y178478D01*
Y179790D01*
X667086Y180446D01*
X664463D01*
X663807Y179790D01*
Y178478D01*
X664463Y177822D01*
X667086D01*
Y181758D02*
X667742Y182414D01*
Y183726D01*
X667086Y184381D01*
X664463D01*
X663807Y183726D01*
Y182414D01*
X664463Y181758D01*
X667086D01*
X667742Y185693D02*
X663807D01*
Y187661D01*
X664463Y188317D01*
X665119D01*
X665774Y187661D01*
Y185693D01*
Y187661D01*
X666430Y188317D01*
X667086D01*
X667742Y187661D01*
Y185693D01*
X666430Y190285D02*
Y191597D01*
X665774Y192253D01*
X663807D01*
Y190285D01*
X664463Y189629D01*
X665119Y190285D01*
Y192253D01*
X663807Y193565D02*
Y195533D01*
X664463Y196189D01*
X665119Y195533D01*
Y194221D01*
X665774Y193565D01*
X666430Y194221D01*
Y196189D01*
X663807Y199469D02*
Y198157D01*
X664463Y197501D01*
X665774D01*
X666430Y198157D01*
Y199469D01*
X665774Y200125D01*
X665119D01*
Y197501D01*
X665774Y201436D02*
Y204060D01*
X667742Y205372D02*
Y207996D01*
Y206684D01*
X663807D01*
X148586Y223076D02*
Y219796D01*
X147930Y219140D01*
X146618D01*
X145962Y219796D01*
Y223076D01*
X144650Y219140D02*
X143339D01*
X143994D01*
Y223076D01*
X144650Y222420D01*
X141371D02*
X140715Y223076D01*
X139403D01*
X138747Y222420D01*
Y221764D01*
X139403Y221108D01*
X140059D01*
X139403D01*
X138747Y220452D01*
Y219796D01*
X139403Y219140D01*
X140715D01*
X141371Y219796D01*
X746096Y316004D02*
X743472Y312068D01*
Y316004D02*
X746096Y312068D01*
X742160D02*
X740848D01*
X741504D01*
Y316004D01*
X742160Y315348D01*
X736256Y316004D02*
X738880D01*
Y314036D01*
X737568Y314692D01*
X736912D01*
X736256Y314036D01*
Y312724D01*
X736912Y312068D01*
X738224D01*
X738880Y312724D01*
X677071Y8394D02*
X674447Y4458D01*
Y8394D02*
X677071Y4458D01*
X670511Y8394D02*
X671823Y7738D01*
X673135Y6426D01*
Y5114D01*
X672479Y4458D01*
X671167D01*
X670511Y5114D01*
Y5770D01*
X671167Y6426D01*
X673135D01*
X114899Y135232D02*
Y139168D01*
X112931D01*
X112275Y138512D01*
Y137200D01*
X112931Y136544D01*
X114899D01*
X113587D02*
X112275Y135232D01*
X110963Y135888D02*
X110308Y135232D01*
X108996D01*
X108340Y135888D01*
Y138512D01*
X108996Y139168D01*
X110308D01*
X110963Y138512D01*
Y137856D01*
X110308Y137200D01*
X108340D01*
X107028Y135888D02*
X106372Y135232D01*
X105060D01*
X104404Y135888D01*
Y138512D01*
X105060Y139168D01*
X106372D01*
X107028Y138512D01*
Y137856D01*
X106372Y137200D01*
X104404D01*
X114796Y128819D02*
Y132755D01*
X112829D01*
X112173Y132099D01*
Y130787D01*
X112829Y130131D01*
X114796D01*
X113485D02*
X112173Y128819D01*
X110861Y129475D02*
X110205Y128819D01*
X108893D01*
X108237Y129475D01*
Y132099D01*
X108893Y132755D01*
X110205D01*
X110861Y132099D01*
Y131443D01*
X110205Y130787D01*
X108237D01*
X106925Y132099D02*
X106269Y132755D01*
X104957D01*
X104301Y132099D01*
Y131443D01*
X104957Y130787D01*
X104301Y130131D01*
Y129475D01*
X104957Y128819D01*
X106269D01*
X106925Y129475D01*
Y130131D01*
X106269Y130787D01*
X106925Y131443D01*
Y132099D01*
X106269Y130787D02*
X104957D01*
X103174Y150841D02*
X107110D01*
Y152808D01*
X106454Y153464D01*
X105142D01*
X104486Y152808D01*
Y150841D01*
Y152153D02*
X103174Y153464D01*
X103830Y154776D02*
X103174Y155432D01*
Y156744D01*
X103830Y157400D01*
X106454D01*
X107110Y156744D01*
Y155432D01*
X106454Y154776D01*
X105798D01*
X105142Y155432D01*
Y157400D01*
X107110Y158712D02*
Y161336D01*
X106454D01*
X103830Y158712D01*
X103174D01*
X235580Y198724D02*
X239515D01*
Y200692D01*
X238859Y201348D01*
X237547D01*
X236892Y200692D01*
Y198724D01*
Y200036D02*
X235580Y201348D01*
Y204628D02*
X239515D01*
X237547Y202660D01*
Y205284D01*
X239515Y209219D02*
Y206596D01*
X237547D01*
X238203Y207908D01*
Y208563D01*
X237547Y209219D01*
X236235D01*
X235580Y208563D01*
Y207252D01*
X236235Y206596D01*
X234054Y167352D02*
X230119D01*
Y169976D01*
Y171288D02*
Y172600D01*
Y171944D01*
X234054D01*
X233399Y171288D01*
X230119Y174568D02*
Y175880D01*
Y175224D01*
X234054D01*
X233399Y174568D01*
X221456Y166879D02*
X217520D01*
Y169503D01*
Y170815D02*
Y172127D01*
Y171471D01*
X221456D01*
X220800Y170815D01*
Y174095D02*
X221456Y174750D01*
Y176062D01*
X220800Y176718D01*
X218176D01*
X217520Y176062D01*
Y174750D01*
X218176Y174095D01*
X220800D01*
X233313Y214930D02*
X233969Y214274D01*
Y212962D01*
X233313Y212306D01*
X230689D01*
X230033Y212962D01*
Y214274D01*
X230689Y214930D01*
X230033Y216242D02*
Y217554D01*
Y216898D01*
X233969D01*
X233313Y216242D01*
X233969Y222146D02*
Y219522D01*
X232001D01*
X232657Y220834D01*
Y221490D01*
X232001Y222146D01*
X230689D01*
X230033Y221490D01*
Y220178D01*
X230689Y219522D01*
X230033Y223458D02*
Y224770D01*
Y224114D01*
X233969D01*
X233313Y223458D01*
X227503Y214832D02*
X228159Y214176D01*
Y212864D01*
X227503Y212208D01*
X224880D01*
X224224Y212864D01*
Y214176D01*
X224880Y214832D01*
X224224Y216144D02*
Y217456D01*
Y216800D01*
X228159D01*
X227503Y216144D01*
X228159Y222047D02*
Y219424D01*
X226192D01*
X226848Y220735D01*
Y221391D01*
X226192Y222047D01*
X224880D01*
X224224Y221391D01*
Y220079D01*
X224880Y219424D01*
X227503Y223359D02*
X228159Y224015D01*
Y225327D01*
X227503Y225983D01*
X224880D01*
X224224Y225327D01*
Y224015D01*
X224880Y223359D01*
X227503D01*
X168370Y235448D02*
X169298D01*
X170226Y234520D01*
Y233592D01*
X168370Y231737D01*
X167443D01*
X166515Y232665D01*
Y233592D01*
X163268Y235911D02*
X165123Y234056D01*
Y237767D01*
X165587Y238230D01*
X166515Y238231D01*
X167443Y237303D01*
Y236375D01*
X164660Y239158D02*
Y240086D01*
X163732Y241014D01*
X162804Y241014D01*
X162340Y240550D01*
Y239622D01*
X161413Y239622D01*
X160949Y239158D01*
X160949Y238231D01*
X161877Y237303D01*
X162804D01*
X163268Y237767D01*
Y238694D01*
X164196D01*
X164660Y239158D01*
X163268Y238694D02*
X162340Y239622D01*
X190819Y235563D02*
X191747D01*
X192675Y234636D01*
Y233708D01*
X190819Y231853D01*
X189892D01*
X188964Y232780D01*
Y233708D01*
X185717Y236027D02*
X187573Y234172D01*
Y237882D01*
X188036Y238346D01*
X188964Y238346D01*
X189892Y237419D01*
Y236491D01*
X187573Y239738D02*
X185717Y241593D01*
X185253Y241129D01*
Y237419D01*
X184790Y236955D01*
X200651Y13877D02*
Y10597D01*
X199995Y9941D01*
X198683D01*
X198027Y10597D01*
Y13877D01*
X196715Y9941D02*
X195403D01*
X196059D01*
Y13877D01*
X196715Y13221D01*
X193435D02*
X192779Y13877D01*
X191467D01*
X190812Y13221D01*
Y10597D01*
X191467Y9941D01*
X192779D01*
X193435Y10597D01*
Y13221D01*
X217286Y44407D02*
X217942Y45063D01*
X219254D01*
X219910Y44407D01*
Y41783D01*
X219254Y41127D01*
X217942D01*
X217286Y41783D01*
X215974Y41127D02*
X214662D01*
X215318D01*
Y45063D01*
X215974Y44407D01*
X210726Y41127D02*
Y45063D01*
X212694Y43095D01*
X210070D01*
X208758Y41783D02*
X208102Y41127D01*
X206790D01*
X206135Y41783D01*
Y44407D01*
X206790Y45063D01*
X208102D01*
X208758Y44407D01*
Y43751D01*
X208102Y43095D01*
X206135D01*
X75622Y409153D02*
X72998Y405217D01*
Y409153D02*
X75622Y405217D01*
X69063D02*
X71687D01*
X69063Y407841D01*
Y408497D01*
X69719Y409153D01*
X71031D01*
X71687Y408497D01*
X124048Y406530D02*
X124704Y405874D01*
Y404562D01*
X124048Y403906D01*
X121424D01*
X120768Y404562D01*
Y405874D01*
X121424Y406530D01*
X124048Y407842D02*
X124704Y408498D01*
Y409809D01*
X124048Y410465D01*
X123392D01*
X122736Y409809D01*
Y409154D01*
Y409809D01*
X122080Y410465D01*
X121424D01*
X120768Y409809D01*
Y408498D01*
X121424Y407842D01*
X124704Y414401D02*
X124048Y413089D01*
X122736Y411777D01*
X121424D01*
X120768Y412433D01*
Y413745D01*
X121424Y414401D01*
X122080D01*
X122736Y413745D01*
Y411777D01*
X745406Y131102D02*
X742782Y127166D01*
Y131102D02*
X745406Y127166D01*
X741470Y127822D02*
X740814Y127166D01*
X739502D01*
X738846Y127822D01*
Y130446D01*
X739502Y131102D01*
X740814D01*
X741470Y130446D01*
Y129790D01*
X740814Y129134D01*
X738846D01*
X746390Y226333D02*
X743766Y222397D01*
Y226333D02*
X746390Y222397D01*
X742454D02*
X741142D01*
X741798D01*
Y226333D01*
X742454Y225677D01*
X736550Y226333D02*
X737862Y225677D01*
X739174Y224365D01*
Y223054D01*
X738518Y222397D01*
X737206D01*
X736550Y223054D01*
Y223709D01*
X737206Y224365D01*
X739174D01*
X595504Y282906D02*
X596160Y283562D01*
X597472D01*
X598128Y282906D01*
Y280283D01*
X597472Y279627D01*
X596160D01*
X595504Y280283D01*
X594192Y279627D02*
X592880D01*
X593536D01*
Y283562D01*
X594192Y282906D01*
X588944Y279627D02*
Y283562D01*
X590912Y281594D01*
X588288D01*
X586976Y282906D02*
X586320Y283562D01*
X585009D01*
X584353Y282906D01*
Y282250D01*
X585009Y281594D01*
X585665D01*
X585009D01*
X584353Y280939D01*
Y280283D01*
X585009Y279627D01*
X586320D01*
X586976Y280283D01*
X595504Y276706D02*
X596160Y277362D01*
X597472D01*
X598128Y276706D01*
Y274082D01*
X597472Y273426D01*
X596160D01*
X595504Y274082D01*
X594192Y273426D02*
X592880D01*
X593536D01*
Y277362D01*
X594192Y276706D01*
X588944Y273426D02*
Y277362D01*
X590912Y275394D01*
X588288D01*
X584353Y273426D02*
X586976D01*
X584353Y276050D01*
Y276706D01*
X585009Y277362D01*
X586320D01*
X586976Y276706D01*
X246128Y317224D02*
Y313944D01*
X245472Y313288D01*
X244160D01*
X243504Y313944D01*
Y317224D01*
X242192Y313288D02*
X240880D01*
X241536D01*
Y317224D01*
X242192Y316568D01*
X495122Y402607D02*
X492498Y398671D01*
Y402607D02*
X495122Y398671D01*
X491186D02*
X489874D01*
X490530D01*
Y402607D01*
X491186Y401951D01*
X485282Y398671D02*
X487906D01*
X485282Y401295D01*
Y401951D01*
X485938Y402607D01*
X487250D01*
X487906Y401951D01*
X35465Y118306D02*
X32841Y114371D01*
Y118306D02*
X35465Y114371D01*
X31529Y117650D02*
X30873Y118306D01*
X29561D01*
X28905Y117650D01*
Y116995D01*
X29561Y116339D01*
X30217D01*
X29561D01*
X28905Y115683D01*
Y115027D01*
X29561Y114371D01*
X30873D01*
X31529Y115027D01*
X545773Y282688D02*
X546953D01*
X546363D01*
Y279736D01*
X546953Y279146D01*
X547544D01*
X548134Y279736D01*
X542821Y279146D02*
Y282688D01*
X544592Y280917D01*
X542230D01*
X545709Y272614D02*
X546890D01*
X546300D01*
Y269663D01*
X546890Y269072D01*
X547480D01*
X548071Y269663D01*
X544528Y272024D02*
X543938Y272614D01*
X542757D01*
X542167Y272024D01*
Y271434D01*
X542757Y270843D01*
X543348D01*
X542757D01*
X542167Y270253D01*
Y269663D01*
X542757Y269072D01*
X543938D01*
X544528Y269663D01*
X172605Y387598D02*
X173917D01*
X173261D01*
Y384318D01*
X173917Y383662D01*
X174573D01*
X175229Y384318D01*
X168669Y383662D02*
X171293D01*
X168669Y386286D01*
Y386942D01*
X169325Y387598D01*
X170637D01*
X171293Y386942D01*
X160548Y387644D02*
X161860D01*
X161204D01*
Y384364D01*
X161860Y383708D01*
X162515D01*
X163171Y384364D01*
X159236Y383708D02*
X157924D01*
X158580D01*
Y387644D01*
X159236Y386988D01*
X168667Y409186D02*
X169323Y409842D01*
X170635D01*
X171291Y409186D01*
Y406562D01*
X170635Y405906D01*
X169323D01*
X168667Y406562D01*
X167355Y409186D02*
X166699Y409842D01*
X165387D01*
X164731Y409186D01*
Y408530D01*
X165387Y407874D01*
X166043D01*
X165387D01*
X164731Y407218D01*
Y406562D01*
X165387Y405906D01*
X166699D01*
X167355Y406562D01*
X161452Y405906D02*
Y409842D01*
X163419Y407874D01*
X160796D01*
X211055Y409645D02*
Y406365D01*
X210399Y405709D01*
X209087D01*
X208432Y406365D01*
Y409645D01*
X207120Y408989D02*
X206464Y409645D01*
X205152D01*
X204496Y408989D01*
Y408333D01*
X205152Y407677D01*
X205808D01*
X205152D01*
X204496Y407021D01*
Y406365D01*
X205152Y405709D01*
X206464D01*
X207120Y406365D01*
X562598Y374540D02*
X563254Y375196D01*
X564566D01*
X565222Y374540D01*
Y371916D01*
X564566Y371260D01*
X563254D01*
X562598Y371916D01*
Y373228D01*
X563910D01*
X561286Y371260D02*
X559975D01*
X560631D01*
Y375196D01*
X561286Y374540D01*
X700720Y426279D02*
X698096D01*
X699408D01*
Y422343D01*
X696784D02*
Y426279D01*
X694816D01*
X694161Y425623D01*
Y424311D01*
X694816Y423655D01*
X696784D01*
X692849Y422999D02*
X692193Y422343D01*
X690881D01*
X690225Y422999D01*
Y425623D01*
X690881Y426279D01*
X692193D01*
X692849Y425623D01*
Y424967D01*
X692193Y424311D01*
X690225D01*
X538614Y97440D02*
X535990D01*
X537302D01*
Y93505D01*
X534678D02*
Y97440D01*
X532710D01*
X532054Y96784D01*
Y95472D01*
X532710Y94816D01*
X534678D01*
X530742Y96784D02*
X530086Y97440D01*
X528774D01*
X528119Y96784D01*
Y96128D01*
X528774Y95472D01*
X528119Y94816D01*
Y94160D01*
X528774Y93505D01*
X530086D01*
X530742Y94160D01*
Y94816D01*
X530086Y95472D01*
X530742Y96128D01*
Y96784D01*
X530086Y95472D02*
X528774D01*
X139559Y114173D02*
X136935D01*
X138247D01*
Y110237D01*
X135623D02*
Y114173D01*
X133655D01*
X132999Y113517D01*
Y112205D01*
X133655Y111549D01*
X135623D01*
X131687Y114173D02*
X129063D01*
Y113517D01*
X131687Y110893D01*
Y110237D01*
X341051Y377022D02*
X338427D01*
X339739D01*
Y373086D01*
X337115D02*
Y377022D01*
X335147D01*
X334491Y376365D01*
Y375054D01*
X335147Y374398D01*
X337115D01*
X330556Y377022D02*
X333179D01*
Y375054D01*
X331868Y375710D01*
X331211D01*
X330556Y375054D01*
Y373742D01*
X331211Y373086D01*
X332523D01*
X333179Y373742D01*
X115581Y41399D02*
X112958D01*
X114269D01*
Y37463D01*
X111646D02*
Y41399D01*
X109678D01*
X109022Y40743D01*
Y39431D01*
X109678Y38775D01*
X111646D01*
X105742Y37463D02*
Y41399D01*
X107710Y39431D01*
X105086D01*
X199871Y299490D02*
X197247D01*
X198559D01*
Y295554D01*
X195935D02*
Y299490D01*
X193967D01*
X193311Y298834D01*
Y297522D01*
X193967Y296866D01*
X195935D01*
X191999Y298834D02*
X191343Y299490D01*
X190032D01*
X189376Y298834D01*
Y298178D01*
X190032Y297522D01*
X190688D01*
X190032D01*
X189376Y296866D01*
Y296210D01*
X190032Y295554D01*
X191343D01*
X191999Y296210D01*
X217932Y417619D02*
X215308D01*
X216620D01*
Y413683D01*
X213997D02*
Y417619D01*
X212029D01*
X211373Y416963D01*
Y415651D01*
X212029Y414995D01*
X213997D01*
X207437Y413683D02*
X210061D01*
X207437Y416307D01*
Y416963D01*
X208093Y417619D01*
X209405D01*
X210061Y416963D01*
X615222Y242460D02*
X612598D01*
X613910D01*
Y238524D01*
X611286D02*
Y242460D01*
X609318D01*
X608662Y241804D01*
Y240492D01*
X609318Y239836D01*
X611286D01*
X607350Y238524D02*
X606038D01*
X606694D01*
Y242460D01*
X607350Y241804D01*
X524145Y55216D02*
X521522D01*
X522833D01*
Y51280D01*
X520210D02*
Y55216D01*
X518242D01*
X517586Y54560D01*
Y53248D01*
X518242Y52592D01*
X520210D01*
X513650Y55216D02*
X514962Y54560D01*
X516274Y53248D01*
Y51936D01*
X515618Y51280D01*
X514306D01*
X513650Y51936D01*
Y52592D01*
X514306Y53248D01*
X516274D01*
X140673Y45909D02*
X141329Y46565D01*
X142641D01*
X143297Y45909D01*
Y43285D01*
X142641Y42629D01*
X141329D01*
X140673Y43285D01*
X136737Y46565D02*
X138049Y45909D01*
X139361Y44597D01*
Y43285D01*
X138705Y42629D01*
X137393D01*
X136737Y43285D01*
Y43941D01*
X137393Y44597D01*
X139361D01*
X132801Y42629D02*
X135425D01*
X132801Y45253D01*
Y45909D01*
X133458Y46565D01*
X134769D01*
X135425Y45909D01*
X167528Y46010D02*
X168184Y46666D01*
X169496D01*
X170152Y46010D01*
Y43386D01*
X169496Y42730D01*
X168184D01*
X167528Y43386D01*
X163592Y46666D02*
X164904Y46010D01*
X166216Y44698D01*
Y43386D01*
X165560Y42730D01*
X164248D01*
X163592Y43386D01*
Y44042D01*
X164248Y44698D01*
X166216D01*
X162280Y42730D02*
X160968D01*
X161624D01*
Y46666D01*
X162280Y46010D01*
X66960Y186615D02*
Y190550D01*
X64992D01*
X64336Y189895D01*
Y188583D01*
X64992Y187927D01*
X66960D01*
X65648D02*
X64336Y186615D01*
X60401D02*
X63024D01*
X60401Y189239D01*
Y189895D01*
X61057Y190550D01*
X62369D01*
X63024Y189895D01*
X56465Y190550D02*
X59089D01*
Y188583D01*
X57777Y189239D01*
X57121D01*
X56465Y188583D01*
Y187271D01*
X57121Y186615D01*
X58433D01*
X59089Y187271D01*
X223654Y379626D02*
X224310Y378970D01*
Y377658D01*
X223654Y377002D01*
X221031D01*
X220375Y377658D01*
Y378970D01*
X221031Y379626D01*
X220375Y380938D02*
Y382250D01*
Y381594D01*
X224310D01*
X223654Y380938D01*
X213319Y301410D02*
X213975Y302066D01*
X215287D01*
X215943Y301410D01*
Y298786D01*
X215287Y298130D01*
X213975D01*
X213319Y298786D01*
X212007Y298130D02*
X210696D01*
X211352D01*
Y302066D01*
X212007Y301410D01*
X208728D02*
X208072Y302066D01*
X206760D01*
X206104Y301410D01*
Y298786D01*
X206760Y298130D01*
X208072D01*
X208728Y298786D01*
Y301410D01*
X211975Y295899D02*
X212631Y296554D01*
X213943D01*
X214599Y295899D01*
Y293275D01*
X213943Y292619D01*
X212631D01*
X211975Y293275D01*
X210663D02*
X210007Y292619D01*
X208695D01*
X208039Y293275D01*
Y295899D01*
X208695Y296554D01*
X210007D01*
X210663Y295899D01*
Y295243D01*
X210007Y294587D01*
X208039D01*
X267847Y319653D02*
X268503Y318997D01*
Y317685D01*
X267847Y317029D01*
X265224D01*
X264568Y317685D01*
Y318997D01*
X265224Y319653D01*
X264568Y320965D02*
Y322277D01*
Y321621D01*
X268503D01*
X267847Y320965D01*
X265224Y324245D02*
X264568Y324901D01*
Y326213D01*
X265224Y326869D01*
X267847D01*
X268503Y326213D01*
Y324901D01*
X267847Y324245D01*
X267191D01*
X266535Y324901D01*
Y326869D01*
X710528Y240941D02*
Y244877D01*
X708560D01*
X707904Y244221D01*
Y242909D01*
X708560Y242253D01*
X710528D01*
X709216D02*
X707904Y240941D01*
X706593Y241597D02*
X705937Y240941D01*
X704625D01*
X703969Y241597D01*
Y244221D01*
X704625Y244877D01*
X705937D01*
X706593Y244221D01*
Y243565D01*
X705937Y242909D01*
X703969D01*
X700033Y244877D02*
X701345Y244221D01*
X702657Y242909D01*
Y241597D01*
X702001Y240941D01*
X700689D01*
X700033Y241597D01*
Y242253D01*
X700689Y242909D01*
X702657D01*
X271279Y200171D02*
X271869Y200762D01*
X273050D01*
X273640Y200171D01*
Y197810D01*
X273050Y197219D01*
X271869D01*
X271279Y197810D01*
X267737Y200762D02*
X268917Y200171D01*
X270098Y198990D01*
Y197810D01*
X269508Y197219D01*
X268327D01*
X267737Y197810D01*
Y198400D01*
X268327Y198990D01*
X270098D01*
X264195Y200762D02*
X266556D01*
Y198990D01*
X265375Y199581D01*
X264785D01*
X264195Y198990D01*
Y197810D01*
X264785Y197219D01*
X265966D01*
X266556Y197810D01*
X415321Y389698D02*
X415977Y390354D01*
X417288D01*
X417944Y389698D01*
Y387074D01*
X417288Y386418D01*
X415977D01*
X415321Y387074D01*
X411385Y390354D02*
X412697Y389698D01*
X414009Y388386D01*
Y387074D01*
X413353Y386418D01*
X412041D01*
X411385Y387074D01*
Y387730D01*
X412041Y388386D01*
X414009D01*
X410073Y389698D02*
X409417Y390354D01*
X408105D01*
X407449Y389698D01*
Y387074D01*
X408105Y386418D01*
X409417D01*
X410073Y387074D01*
Y389698D01*
X360301Y332611D02*
X360957Y333267D01*
X362269D01*
X362925Y332611D01*
Y329987D01*
X362269Y329331D01*
X360957D01*
X360301Y329987D01*
X356365Y333267D02*
X358989D01*
Y331299D01*
X357677Y331955D01*
X357021D01*
X356365Y331299D01*
Y329987D01*
X357021Y329331D01*
X358333D01*
X358989Y329987D01*
X352430Y333267D02*
X353741Y332611D01*
X355053Y331299D01*
Y329987D01*
X354397Y329331D01*
X353085D01*
X352430Y329987D01*
Y330643D01*
X353085Y331299D01*
X355053D01*
X333136Y332611D02*
X333792Y333267D01*
X335104D01*
X335759Y332611D01*
Y329987D01*
X335104Y329331D01*
X333792D01*
X333136Y329987D01*
X329200Y333267D02*
X331824D01*
Y331299D01*
X330512Y331955D01*
X329856D01*
X329200Y331299D01*
Y329987D01*
X329856Y329331D01*
X331168D01*
X331824Y329987D01*
X325264Y333267D02*
X327888D01*
Y331299D01*
X326576Y331955D01*
X325920D01*
X325264Y331299D01*
Y329987D01*
X325920Y329331D01*
X327232D01*
X327888Y329987D01*
X174147Y366208D02*
X174802Y365552D01*
Y364240D01*
X174147Y363584D01*
X171523D01*
X170867Y364240D01*
Y365552D01*
X171523Y366208D01*
X170867Y367520D02*
Y368832D01*
Y368176D01*
X174802D01*
X174147Y367520D01*
X174802Y373424D02*
X174147Y372112D01*
X172835Y370800D01*
X171523D01*
X170867Y371456D01*
Y372768D01*
X171523Y373424D01*
X172179D01*
X172835Y372768D01*
Y370800D01*
X173129Y315946D02*
X173720Y315355D01*
Y314175D01*
X173129Y313584D01*
X170768D01*
X170178Y314175D01*
Y315355D01*
X170768Y315946D01*
X170178Y317126D02*
Y318307D01*
Y317717D01*
X173720D01*
X173129Y317126D01*
X173720Y322440D02*
Y320078D01*
X171949D01*
X172539Y321259D01*
Y321849D01*
X171949Y322440D01*
X170768D01*
X170178Y321849D01*
Y320668D01*
X170768Y320078D01*
X123917Y377493D02*
X124573Y378149D01*
X125884D01*
X126541Y377493D01*
Y374869D01*
X125884Y374213D01*
X124573D01*
X123917Y374869D01*
X122605Y377493D02*
X121949Y378149D01*
X120637D01*
X119981Y377493D01*
Y376837D01*
X120637Y376181D01*
X121293D01*
X120637D01*
X119981Y375525D01*
Y374869D01*
X120637Y374213D01*
X121949D01*
X122605Y374869D01*
X118669Y374213D02*
X117357D01*
X118013D01*
Y378149D01*
X118669Y377493D01*
X496291Y294914D02*
X496947Y295570D01*
X498259D01*
X498915Y294914D01*
Y292290D01*
X498259Y291634D01*
X496947D01*
X496291Y292290D01*
X494979Y291634D02*
X493668D01*
X494323D01*
Y295570D01*
X494979Y294914D01*
X491700D02*
X491044Y295570D01*
X489732D01*
X489076Y294914D01*
Y292290D01*
X489732Y291634D01*
X491044D01*
X491700Y292290D01*
Y294914D01*
X487764Y295570D02*
X485140D01*
Y294914D01*
X487764Y292290D01*
Y291634D01*
X234382Y294848D02*
X235038Y294192D01*
Y292880D01*
X234382Y292224D01*
X231758D01*
X231102Y292880D01*
Y294192D01*
X231758Y294848D01*
X231102Y298128D02*
X235038D01*
X233070Y296160D01*
Y298784D01*
X461291Y329174D02*
X462218D01*
X463146Y328247D01*
Y327319D01*
X461291Y325464D01*
X460363D01*
X459435Y326392D01*
Y327319D01*
X458044Y327783D02*
X457116Y328711D01*
X457580Y328247D01*
X460363Y331030D01*
Y330102D01*
X458044Y332421D02*
Y333349D01*
X457116Y334277D01*
X456188Y334277D01*
X454333Y332421D01*
X454333Y331494D01*
X455261Y330566D01*
X456188D01*
X458044Y332421D01*
X455261Y335204D02*
Y336132D01*
X454333Y337060D01*
X453406D01*
X452942Y336596D01*
Y335668D01*
X453406Y335204D01*
X452942Y335668D01*
X452014Y335668D01*
X451550Y335204D01*
X451550Y334277D01*
X452478Y333349D01*
X453406D01*
X448260Y254396D02*
X448916Y253740D01*
Y252428D01*
X448260Y251772D01*
X445636D01*
X444980Y252428D01*
Y253740D01*
X445636Y254396D01*
X444980Y255707D02*
Y257019D01*
Y256363D01*
X448916D01*
X448260Y255707D01*
Y258987D02*
X448916Y259643D01*
Y260955D01*
X448260Y261611D01*
X445636D01*
X444980Y260955D01*
Y259643D01*
X445636Y258987D01*
X448260D01*
X444980Y264891D02*
X448916D01*
X446948Y262923D01*
Y265547D01*
X454756Y254396D02*
X455412Y253740D01*
Y252428D01*
X454756Y251772D01*
X452132D01*
X451476Y252428D01*
Y253740D01*
X452132Y254396D01*
X451476Y255707D02*
Y257019D01*
Y256363D01*
X455412D01*
X454756Y255707D01*
Y258987D02*
X455412Y259643D01*
Y260955D01*
X454756Y261611D01*
X452132D01*
X451476Y260955D01*
Y259643D01*
X452132Y258987D01*
X454756D01*
X455412Y265547D02*
Y262923D01*
X453444D01*
X454100Y264235D01*
Y264891D01*
X453444Y265547D01*
X452132D01*
X451476Y264891D01*
Y263579D01*
X452132Y262923D01*
X427793Y316086D02*
X428449Y315430D01*
Y314118D01*
X427793Y313462D01*
X425169D01*
X424513Y314118D01*
Y315430D01*
X425169Y316086D01*
X424513Y317398D02*
Y318710D01*
Y318054D01*
X428449D01*
X427793Y317398D01*
Y320677D02*
X428449Y321334D01*
Y322645D01*
X427793Y323301D01*
X425169D01*
X424513Y322645D01*
Y321334D01*
X425169Y320677D01*
X427793D01*
X428449Y327237D02*
X427793Y325925D01*
X426481Y324613D01*
X425169D01*
X424513Y325269D01*
Y326581D01*
X425169Y327237D01*
X425825D01*
X426481Y326581D01*
Y324613D01*
X486848Y368774D02*
X487504Y369430D01*
X488816D01*
X489472Y368774D01*
Y366150D01*
X488816Y365494D01*
X487504D01*
X486848Y366150D01*
X485536Y365494D02*
X484225D01*
X484881D01*
Y369430D01*
X485536Y368774D01*
X482257D02*
X481601Y369430D01*
X480289D01*
X479633Y368774D01*
Y366150D01*
X480289Y365494D01*
X481601D01*
X482257Y366150D01*
Y368774D01*
X478321D02*
X477665Y369430D01*
X476353D01*
X475697Y368774D01*
Y368118D01*
X476353Y367462D01*
X475697Y366806D01*
Y366150D01*
X476353Y365494D01*
X477665D01*
X478321Y366150D01*
Y366806D01*
X477665Y367462D01*
X478321Y368118D01*
Y368774D01*
X477665Y367462D02*
X476353D01*
X496293Y301213D02*
X496949Y301869D01*
X498261D01*
X498917Y301213D01*
Y298589D01*
X498261Y297933D01*
X496949D01*
X496293Y298589D01*
X494982Y297933D02*
X493670D01*
X494326D01*
Y301869D01*
X494982Y301213D01*
X491702D02*
X491046Y301869D01*
X489734D01*
X489078Y301213D01*
Y298589D01*
X489734Y297933D01*
X491046D01*
X491702Y298589D01*
Y301213D01*
X487766Y298589D02*
X487110Y297933D01*
X485798D01*
X485142Y298589D01*
Y301213D01*
X485798Y301869D01*
X487110D01*
X487766Y301213D01*
Y300557D01*
X487110Y299901D01*
X485142D01*
X436056Y368733D02*
X436712Y369389D01*
X438024D01*
X438680Y368733D01*
Y366109D01*
X438024Y365453D01*
X436712D01*
X436056Y366109D01*
X434744Y365453D02*
X433432D01*
X434088D01*
Y369389D01*
X434744Y368733D01*
X431464Y365453D02*
X430152D01*
X430808D01*
Y369389D01*
X431464Y368733D01*
X428184D02*
X427528Y369389D01*
X426216D01*
X425561Y368733D01*
Y366109D01*
X426216Y365453D01*
X427528D01*
X428184Y366109D01*
Y368733D01*
X461433Y389632D02*
X462089Y388976D01*
Y387664D01*
X461433Y387008D01*
X458810D01*
X458153Y387664D01*
Y388976D01*
X458810Y389632D01*
X458153Y390944D02*
Y392255D01*
Y391600D01*
X462089D01*
X461433Y390944D01*
X458153Y394223D02*
Y395535D01*
Y394879D01*
X462089D01*
X461433Y394223D01*
X458153Y397503D02*
Y398815D01*
Y398159D01*
X462089D01*
X461433Y397503D01*
X455232Y389632D02*
X455889Y388976D01*
Y387664D01*
X455232Y387008D01*
X452609D01*
X451953Y387664D01*
Y388976D01*
X452609Y389632D01*
X451953Y390944D02*
Y392255D01*
Y391600D01*
X455889D01*
X455232Y390944D01*
X451953Y394223D02*
Y395535D01*
Y394879D01*
X455889D01*
X455232Y394223D01*
X451953Y400127D02*
Y397503D01*
X454577Y400127D01*
X455232D01*
X455889Y399471D01*
Y398159D01*
X455232Y397503D01*
X495703Y313614D02*
X496359Y314270D01*
X497671D01*
X498327Y313614D01*
Y310991D01*
X497671Y310335D01*
X496359D01*
X495703Y310991D01*
X494391Y310335D02*
X493079D01*
X493735D01*
Y314270D01*
X494391Y313614D01*
X491111Y310335D02*
X489799D01*
X490455D01*
Y314270D01*
X491111Y313614D01*
X485864Y310335D02*
Y314270D01*
X487831Y312302D01*
X485208D01*
X495703Y319815D02*
X496359Y320471D01*
X497671D01*
X498327Y319815D01*
Y317191D01*
X497671Y316535D01*
X496359D01*
X495703Y317191D01*
X494391Y316535D02*
X493079D01*
X493735D01*
Y320471D01*
X494391Y319815D01*
X491111Y316535D02*
X489799D01*
X490455D01*
Y320471D01*
X491111Y319815D01*
X485208Y320471D02*
X487831D01*
Y318503D01*
X486520Y319159D01*
X485864D01*
X485208Y318503D01*
Y317191D01*
X485864Y316535D01*
X487176D01*
X487831Y317191D01*
X442715Y256265D02*
Y253642D01*
X440747D01*
Y254954D01*
Y253642D01*
X438779D01*
X442715Y257577D02*
X438779D01*
Y259545D01*
X439435Y260201D01*
X440091D01*
X440747Y259545D01*
Y257577D01*
Y259545D01*
X441403Y260201D01*
X442059D01*
X442715Y259545D01*
Y257577D01*
Y261513D02*
Y264137D01*
X442059D01*
X439435Y261513D01*
X438779D01*
X422432Y317507D02*
Y314883D01*
X420464D01*
Y316195D01*
Y314883D01*
X418497D01*
X422432Y318818D02*
X418497D01*
Y320786D01*
X419152Y321442D01*
X419808D01*
X420464Y320786D01*
Y318818D01*
Y320786D01*
X421120Y321442D01*
X421776D01*
X422432Y320786D01*
Y318818D01*
X421776Y322754D02*
X422432Y323410D01*
Y324722D01*
X421776Y325378D01*
X421120D01*
X420464Y324722D01*
X419808Y325378D01*
X419152D01*
X418497Y324722D01*
Y323410D01*
X419152Y322754D01*
X419808D01*
X420464Y323410D01*
X421120Y322754D01*
X421776D01*
X420464Y323410D02*
Y324722D01*
X472030Y390354D02*
X468094D01*
Y392978D01*
X471374Y394290D02*
X472030Y394946D01*
Y396258D01*
X471374Y396914D01*
X470718D01*
X470062Y396258D01*
X469406Y396914D01*
X468750D01*
X468094Y396258D01*
Y394946D01*
X468750Y394290D01*
X469406D01*
X470062Y394946D01*
X470718Y394290D01*
X471374D01*
X470062Y394946D02*
Y396258D01*
X446090Y390441D02*
X442154D01*
Y393064D01*
X442810Y394376D02*
X442154Y395032D01*
Y396344D01*
X442810Y397000D01*
X445434D01*
X446090Y396344D01*
Y395032D01*
X445434Y394376D01*
X444778D01*
X444122Y395032D01*
Y397000D01*
X66929Y146850D02*
Y150786D01*
X64961D01*
X64305Y150130D01*
Y148818D01*
X64961Y148162D01*
X66929D01*
X65617D02*
X64305Y146850D01*
X60370D02*
X62993D01*
X60370Y149474D01*
Y150130D01*
X61026Y150786D01*
X62337D01*
X62993Y150130D01*
X56434Y150786D02*
X57746Y150130D01*
X59058Y148818D01*
Y147506D01*
X58402Y146850D01*
X57090D01*
X56434Y147506D01*
Y148162D01*
X57090Y148818D01*
X59058D01*
X66929Y156595D02*
Y160530D01*
X64961D01*
X64305Y159874D01*
Y158562D01*
X64961Y157906D01*
X66929D01*
X65617D02*
X64305Y156595D01*
X60370D02*
X62993D01*
X60370Y159218D01*
Y159874D01*
X61026Y160530D01*
X62337D01*
X62993Y159874D01*
X59058Y160530D02*
X56434D01*
Y159874D01*
X59058Y157250D01*
Y156595D01*
X66929Y136811D02*
Y140747D01*
X64961D01*
X64305Y140091D01*
Y138779D01*
X64961Y138123D01*
X66929D01*
X65617D02*
X64305Y136811D01*
X60370D02*
X62993D01*
X60370Y139435D01*
Y140091D01*
X61026Y140747D01*
X62337D01*
X62993Y140091D01*
X59058D02*
X58402Y140747D01*
X57090D01*
X56434Y140091D01*
Y139435D01*
X57090Y138779D01*
X56434Y138123D01*
Y137467D01*
X57090Y136811D01*
X58402D01*
X59058Y137467D01*
Y138123D01*
X58402Y138779D01*
X59058Y139435D01*
Y140091D01*
X58402Y138779D02*
X57090D01*
X67028Y166732D02*
Y170668D01*
X65060D01*
X64404Y170012D01*
Y168700D01*
X65060Y168044D01*
X67028D01*
X65716D02*
X64404Y166732D01*
X60468D02*
X63092D01*
X60468Y169356D01*
Y170012D01*
X61124Y170668D01*
X62436D01*
X63092Y170012D01*
X59156Y167388D02*
X58500Y166732D01*
X57188D01*
X56532Y167388D01*
Y170012D01*
X57188Y170668D01*
X58500D01*
X59156Y170012D01*
Y169356D01*
X58500Y168700D01*
X56532D01*
X617273Y47744D02*
Y51679D01*
X615305D01*
X614649Y51024D01*
Y49712D01*
X615305Y49056D01*
X617273D01*
X615961D02*
X614649Y47744D01*
X610713Y51679D02*
X613337D01*
Y49712D01*
X612025Y50368D01*
X611369D01*
X610713Y49712D01*
Y48400D01*
X611369Y47744D01*
X612681D01*
X613337Y48400D01*
X606777Y51679D02*
X609401D01*
Y49712D01*
X608089Y50368D01*
X607433D01*
X606777Y49712D01*
Y48400D01*
X607433Y47744D01*
X608745D01*
X609401Y48400D01*
X610236Y38583D02*
Y42518D01*
X608268D01*
X607612Y41862D01*
Y40551D01*
X608268Y39895D01*
X610236D01*
X608924D02*
X607612Y38583D01*
X603677Y42518D02*
X606300D01*
Y40551D01*
X604989Y41206D01*
X604333D01*
X603677Y40551D01*
Y39239D01*
X604333Y38583D01*
X605645D01*
X606300Y39239D01*
X599741Y42518D02*
X601053Y41862D01*
X602365Y40551D01*
Y39239D01*
X601709Y38583D01*
X600397D01*
X599741Y39239D01*
Y39895D01*
X600397Y40551D01*
X602365D01*
X610431Y66142D02*
Y70078D01*
X608464D01*
X607808Y69422D01*
Y68110D01*
X608464Y67454D01*
X610431D01*
X609120D02*
X607808Y66142D01*
X603872Y70078D02*
X606496D01*
Y68110D01*
X605184Y68766D01*
X604528D01*
X603872Y68110D01*
Y66798D01*
X604528Y66142D01*
X605840D01*
X606496Y66798D01*
X602560Y70078D02*
X599936D01*
Y69422D01*
X602560Y66798D01*
Y66142D01*
X659743Y43997D02*
Y47932D01*
X657775D01*
X657119Y47276D01*
Y45965D01*
X657775Y45309D01*
X659743D01*
X658431D02*
X657119Y43997D01*
X653183Y47932D02*
X655807D01*
Y45965D01*
X654495Y46621D01*
X653839D01*
X653183Y45965D01*
Y44653D01*
X653839Y43997D01*
X655151D01*
X655807Y44653D01*
X651871Y47276D02*
X651215Y47932D01*
X649903D01*
X649247Y47276D01*
Y46621D01*
X649903Y45965D01*
X649247Y45309D01*
Y44653D01*
X649903Y43997D01*
X651215D01*
X651871Y44653D01*
Y45309D01*
X651215Y45965D01*
X651871Y46621D01*
Y47276D01*
X651215Y45965D02*
X649903D01*
X659743Y25099D02*
Y29035D01*
X657775D01*
X657119Y28379D01*
Y27067D01*
X657775Y26411D01*
X659743D01*
X658431D02*
X657119Y25099D01*
X653183Y29035D02*
X655807D01*
Y27067D01*
X654495Y27723D01*
X653839D01*
X653183Y27067D01*
Y25755D01*
X653839Y25099D01*
X655151D01*
X655807Y25755D01*
X651871D02*
X651215Y25099D01*
X649903D01*
X649247Y25755D01*
Y28379D01*
X649903Y29035D01*
X651215D01*
X651871Y28379D01*
Y27723D01*
X651215Y27067D01*
X649247D01*
X659644Y37796D02*
Y41732D01*
X657677D01*
X657021Y41076D01*
Y39764D01*
X657677Y39108D01*
X659644D01*
X658332D02*
X657021Y37796D01*
X653085Y41732D02*
X654397Y41076D01*
X655709Y39764D01*
Y38452D01*
X655053Y37796D01*
X653741D01*
X653085Y38452D01*
Y39108D01*
X653741Y39764D01*
X655709D01*
X651773Y41076D02*
X651117Y41732D01*
X649805D01*
X649149Y41076D01*
Y38452D01*
X649805Y37796D01*
X651117D01*
X651773Y38452D01*
Y41076D01*
X552418Y50764D02*
Y54700D01*
X550450D01*
X549794Y54044D01*
Y52732D01*
X550450Y52076D01*
X552418D01*
X551106D02*
X549794Y50764D01*
X545858Y54700D02*
X547170Y54044D01*
X548482Y52732D01*
Y51420D01*
X547826Y50764D01*
X546515D01*
X545858Y51420D01*
Y52076D01*
X546515Y52732D01*
X548482D01*
X544547Y50764D02*
X543235D01*
X543891D01*
Y54700D01*
X544547Y54044D01*
X556988Y85335D02*
X560924D01*
Y87303D01*
X560268Y87959D01*
X558956D01*
X558300Y87303D01*
Y85335D01*
Y86647D02*
X556988Y87959D01*
X560924Y91894D02*
X560268Y90582D01*
X558956Y89270D01*
X557644D01*
X556988Y89926D01*
Y91238D01*
X557644Y91894D01*
X558300D01*
X558956Y91238D01*
Y89270D01*
X556988Y95830D02*
Y93206D01*
X559612Y95830D01*
X560268D01*
X560924Y95174D01*
Y93862D01*
X560268Y93206D01*
X550787Y85335D02*
X554723D01*
Y87303D01*
X554067Y87959D01*
X552755D01*
X552099Y87303D01*
Y85335D01*
Y86647D02*
X550787Y87959D01*
X554723Y91894D02*
X554067Y90582D01*
X552755Y89270D01*
X551443D01*
X550787Y89926D01*
Y91238D01*
X551443Y91894D01*
X552099D01*
X552755Y91238D01*
Y89270D01*
X554067Y93206D02*
X554723Y93862D01*
Y95174D01*
X554067Y95830D01*
X553411D01*
X552755Y95174D01*
Y94518D01*
Y95174D01*
X552099Y95830D01*
X551443D01*
X550787Y95174D01*
Y93862D01*
X551443Y93206D01*
X581890Y85336D02*
X585826D01*
Y87304D01*
X585170Y87960D01*
X583858D01*
X583202Y87304D01*
Y85336D01*
Y86648D02*
X581890Y87960D01*
X585826Y91896D02*
X585170Y90584D01*
X583858Y89272D01*
X582546D01*
X581890Y89928D01*
Y91240D01*
X582546Y91896D01*
X583202D01*
X583858Y91240D01*
Y89272D01*
X581890Y95175D02*
X585826D01*
X583858Y93208D01*
Y95832D01*
X575591Y85335D02*
X579526D01*
Y87303D01*
X578870Y87959D01*
X577558D01*
X576902Y87303D01*
Y85335D01*
Y86647D02*
X575591Y87959D01*
X579526Y91894D02*
X578870Y90582D01*
X577558Y89270D01*
X576247D01*
X575591Y89926D01*
Y91238D01*
X576247Y91894D01*
X576902D01*
X577558Y91238D01*
Y89270D01*
X579526Y95830D02*
Y93206D01*
X577558D01*
X578214Y94518D01*
Y95174D01*
X577558Y95830D01*
X576247D01*
X575591Y95174D01*
Y93862D01*
X576247Y93206D01*
X569390Y85335D02*
X573325D01*
Y87303D01*
X572670Y87959D01*
X571358D01*
X570702Y87303D01*
Y85335D01*
Y86647D02*
X569390Y87959D01*
X573325Y91894D02*
X572670Y90582D01*
X571358Y89270D01*
X570046D01*
X569390Y89926D01*
Y91238D01*
X570046Y91894D01*
X570702D01*
X571358Y91238D01*
Y89270D01*
X573325Y95830D02*
X572670Y94518D01*
X571358Y93206D01*
X570046D01*
X569390Y93862D01*
Y95174D01*
X570046Y95830D01*
X570702D01*
X571358Y95174D01*
Y93206D01*
X563189Y85335D02*
X567125D01*
Y87303D01*
X566469Y87959D01*
X565157D01*
X564501Y87303D01*
Y85335D01*
Y86647D02*
X563189Y87959D01*
X567125Y91894D02*
X566469Y90582D01*
X565157Y89270D01*
X563845D01*
X563189Y89926D01*
Y91238D01*
X563845Y91894D01*
X564501D01*
X565157Y91238D01*
Y89270D01*
X567125Y93206D02*
Y95830D01*
X566469D01*
X563845Y93206D01*
X563189D01*
X477839Y387106D02*
X481774D01*
Y389074D01*
X481118Y389730D01*
X479806D01*
X479150Y389074D01*
Y387106D01*
Y388418D02*
X477839Y389730D01*
X481774Y391042D02*
Y393666D01*
X481118D01*
X478495Y391042D01*
X477839D01*
X481118Y394978D02*
X481774Y395634D01*
Y396946D01*
X481118Y397602D01*
X478495D01*
X477839Y396946D01*
Y395634D01*
X478495Y394978D01*
X481118D01*
X432366Y387008D02*
X436302D01*
Y388976D01*
X435646Y389632D01*
X434334D01*
X433678Y388976D01*
Y387008D01*
Y388320D02*
X432366Y389632D01*
X436302Y390944D02*
Y393567D01*
X435646D01*
X433022Y390944D01*
X432366D01*
Y394879D02*
Y396191D01*
Y395535D01*
X436302D01*
X435646Y394879D01*
X468325Y325694D02*
X471108Y328477D01*
X469717Y329868D01*
X468789D01*
X467861Y328941D01*
Y328013D01*
X469253Y326621D01*
X468325Y327549D02*
X466470D01*
X468325Y331260D02*
X466470Y333115D01*
X466006Y332651D01*
Y328941D01*
X465542Y328477D01*
X460904Y333115D02*
X462759Y331260D01*
Y334970D01*
X463223Y335434D01*
X464151Y335434D01*
X465078Y334506D01*
Y333579D01*
X497047Y303937D02*
Y307873D01*
X495079D01*
X494423Y307217D01*
Y305905D01*
X495079Y305249D01*
X497047D01*
X495735D02*
X494423Y303937D01*
X493112Y307873D02*
X490488D01*
Y307217D01*
X493112Y304593D01*
Y303937D01*
X489176Y307217D02*
X488520Y307873D01*
X487208D01*
X486552Y307217D01*
Y306561D01*
X487208Y305905D01*
X487864D01*
X487208D01*
X486552Y305249D01*
Y304593D01*
X487208Y303937D01*
X488520D01*
X489176Y304593D01*
X496949Y322835D02*
Y326770D01*
X494981D01*
X494325Y326114D01*
Y324802D01*
X494981Y324147D01*
X496949D01*
X495637D02*
X494325Y322835D01*
X493013Y326770D02*
X490389D01*
Y326114D01*
X493013Y323491D01*
Y322835D01*
X487110D02*
Y326770D01*
X489077Y324802D01*
X486453D01*
X459154Y312302D02*
Y309022D01*
X458498Y308366D01*
X457186D01*
X456530Y309022D01*
Y312302D01*
X455218Y308366D02*
X453906D01*
X454562D01*
Y312302D01*
X455218Y311646D01*
X451938Y309022D02*
X451282Y308366D01*
X449970D01*
X449314Y309022D01*
Y311646D01*
X449970Y312302D01*
X451282D01*
X451938Y311646D01*
Y310990D01*
X451282Y310334D01*
X449314D01*
X503149Y14862D02*
Y11582D01*
X502493Y10926D01*
X501181D01*
X500525Y11582D01*
Y14862D01*
X499213Y11582D02*
X498557Y10926D01*
X497245D01*
X496589Y11582D01*
Y14206D01*
X497245Y14862D01*
X498557D01*
X499213Y14206D01*
Y13550D01*
X498557Y12894D01*
X496589D01*
X200884Y161791D02*
Y158511D01*
X200228Y157855D01*
X198916D01*
X198260Y158511D01*
Y161791D01*
X196948Y157855D02*
X195636D01*
X196292D01*
Y161791D01*
X196948Y161135D01*
X191045Y157855D02*
X193669D01*
X191045Y160479D01*
Y161135D01*
X191701Y161791D01*
X193013D01*
X193669Y161135D01*
X625715Y338842D02*
Y335563D01*
X625059Y334907D01*
X623747D01*
X623092Y335563D01*
Y338842D01*
X619156Y334907D02*
X621779D01*
X619156Y337530D01*
Y338186D01*
X619812Y338842D01*
X621124D01*
X621779Y338186D01*
X617844D02*
X617188Y338842D01*
X615876D01*
X615220Y338186D01*
Y335563D01*
X615876Y334907D01*
X617188D01*
X617844Y335563D01*
Y338186D01*
X572258Y55156D02*
Y51876D01*
X571602Y51220D01*
X570290D01*
X569634Y51876D01*
Y55156D01*
X568322Y51220D02*
X567010D01*
X567666D01*
Y55156D01*
X568322Y54500D01*
X562419Y55156D02*
X563730Y54500D01*
X565042Y53188D01*
Y51876D01*
X564386Y51220D01*
X563074D01*
X562419Y51876D01*
Y52532D01*
X563074Y53188D01*
X565042D01*
X228083Y294947D02*
X228739Y294291D01*
Y292979D01*
X228083Y292323D01*
X225459D01*
X224803Y292979D01*
Y294291D01*
X225459Y294947D01*
X224803Y298882D02*
Y296259D01*
X227427Y298882D01*
X228083D01*
X228739Y298226D01*
Y296915D01*
X228083Y296259D01*
X229953Y378805D02*
X230609Y378149D01*
Y376837D01*
X229953Y376181D01*
X227329D01*
X226673Y376837D01*
Y378149D01*
X227329Y378805D01*
X229953Y380117D02*
X230609Y380773D01*
Y382085D01*
X229953Y382741D01*
X229297D01*
X228641Y382085D01*
Y381429D01*
Y382085D01*
X227985Y382741D01*
X227329D01*
X226673Y382085D01*
Y380773D01*
X227329Y380117D01*
X125327Y205380D02*
X125983Y204724D01*
Y203412D01*
X125327Y202756D01*
X122703D01*
X122047Y203412D01*
Y204724D01*
X122703Y205380D01*
X125983Y206692D02*
Y209315D01*
X125327D01*
X122703Y206692D01*
X122047D01*
X125983Y213251D02*
X125327Y211939D01*
X124015Y210627D01*
X122703D01*
X122047Y211283D01*
Y212595D01*
X122703Y213251D01*
X123359D01*
X124015Y212595D01*
Y210627D01*
X556201Y305707D02*
Y302428D01*
X555545Y301772D01*
X554233D01*
X553577Y302428D01*
Y305707D01*
X552265Y301772D02*
X550953D01*
X551609D01*
Y305707D01*
X552265Y305051D01*
X548985Y301772D02*
X547673D01*
X548329D01*
Y305707D01*
X548985Y305051D01*
X586516Y353543D02*
Y357479D01*
X584548D01*
X583892Y356823D01*
Y355511D01*
X584548Y354855D01*
X586516D01*
X585204D02*
X583892Y353543D01*
X582580Y356823D02*
X581924Y357479D01*
X580612D01*
X579956Y356823D01*
Y356167D01*
X580612Y355511D01*
X579956Y354855D01*
Y354199D01*
X580612Y353543D01*
X581924D01*
X582580Y354199D01*
Y354855D01*
X581924Y355511D01*
X582580Y356167D01*
Y356823D01*
X581924Y355511D02*
X580612D01*
X576020Y357479D02*
X577332Y356823D01*
X578644Y355511D01*
Y354199D01*
X577988Y353543D01*
X576676D01*
X576020Y354199D01*
Y354855D01*
X576676Y355511D01*
X578644D01*
X586516Y359744D02*
Y363680D01*
X584548D01*
X583892Y363024D01*
Y361712D01*
X584548Y361056D01*
X586516D01*
X585204D02*
X583892Y359744D01*
X582580Y363024D02*
X581924Y363680D01*
X580612D01*
X579956Y363024D01*
Y362368D01*
X580612Y361712D01*
X579956Y361056D01*
Y360400D01*
X580612Y359744D01*
X581924D01*
X582580Y360400D01*
Y361056D01*
X581924Y361712D01*
X582580Y362368D01*
Y363024D01*
X581924Y361712D02*
X580612D01*
X578644Y363680D02*
X576020D01*
Y363024D01*
X578644Y360400D01*
Y359744D01*
X161744Y366207D02*
X162400Y365551D01*
Y364239D01*
X161744Y363583D01*
X159121D01*
X158465Y364239D01*
Y365551D01*
X159121Y366207D01*
X158465Y370142D02*
Y367518D01*
X161088Y370142D01*
X161744D01*
X162400Y369486D01*
Y368174D01*
X161744Y367518D01*
X158465Y371454D02*
Y372766D01*
Y372110D01*
X162400D01*
X161744Y371454D01*
X197376Y315878D02*
X198032Y316534D01*
X199344D01*
X200000Y315878D01*
Y313254D01*
X199344Y312598D01*
X198032D01*
X197376Y313254D01*
X193440Y312598D02*
X196064D01*
X193440Y315222D01*
Y315878D01*
X194096Y316534D01*
X195408D01*
X196064Y315878D01*
X189505Y312598D02*
X192129D01*
X189505Y315222D01*
Y315878D01*
X190161Y316534D01*
X191473D01*
X192129Y315878D01*
X123592Y320244D02*
X124183Y319653D01*
Y318472D01*
X123592Y317882D01*
X121231D01*
X120641Y318472D01*
Y319653D01*
X121231Y320244D01*
X120641Y323786D02*
Y321424D01*
X123002Y323786D01*
X123592D01*
X124183Y323195D01*
Y322015D01*
X123592Y321424D01*
X120641Y326737D02*
X124183D01*
X122412Y324966D01*
Y327328D01*
X196488Y335006D02*
X197144Y334350D01*
Y333038D01*
X196488Y332382D01*
X193865D01*
X193209Y333038D01*
Y334350D01*
X193865Y335006D01*
X193209Y338941D02*
Y336318D01*
X195833Y338941D01*
X196488D01*
X197144Y338285D01*
Y336974D01*
X196488Y336318D01*
Y340253D02*
X197144Y340909D01*
Y342221D01*
X196488Y342877D01*
X195833D01*
X195176Y342221D01*
Y341565D01*
Y342221D01*
X194521Y342877D01*
X193865D01*
X193209Y342221D01*
Y340909D01*
X193865Y340253D01*
X136711Y364797D02*
X137367Y365453D01*
X138679D01*
X139335Y364797D01*
Y362173D01*
X138679Y361517D01*
X137367D01*
X136711Y362173D01*
X132775Y361517D02*
X135399D01*
X132775Y364141D01*
Y364797D01*
X133431Y365453D01*
X134743D01*
X135399Y364797D01*
X128840Y365453D02*
X131464D01*
Y363485D01*
X130152Y364141D01*
X129496D01*
X128840Y363485D01*
Y362173D01*
X129496Y361517D01*
X130808D01*
X131464Y362173D01*
X124737Y352985D02*
X125393Y353641D01*
X126705D01*
X127361Y352985D01*
Y350361D01*
X126705Y349705D01*
X125393D01*
X124737Y350361D01*
X120802Y349705D02*
X123425D01*
X120802Y352329D01*
Y352985D01*
X121458Y353641D01*
X122770D01*
X123425Y352985D01*
X116866Y353641D02*
X118178Y352985D01*
X119490Y351673D01*
Y350361D01*
X118834Y349705D01*
X117522D01*
X116866Y350361D01*
Y351017D01*
X117522Y351673D01*
X119490D01*
X211845Y343831D02*
X212501Y344487D01*
X213812D01*
X214469Y343831D01*
Y341207D01*
X213812Y340551D01*
X212501D01*
X211845Y341207D01*
X207909Y344487D02*
X210533D01*
Y342519D01*
X209221Y343175D01*
X208565D01*
X207909Y342519D01*
Y341207D01*
X208565Y340551D01*
X209877D01*
X210533Y341207D01*
X211845Y338221D02*
X212501Y338877D01*
X213812D01*
X214469Y338221D01*
Y335597D01*
X213812Y334941D01*
X212501D01*
X211845Y335597D01*
X207909Y338877D02*
X209221Y338221D01*
X210533Y336909D01*
Y335597D01*
X209877Y334941D01*
X208565D01*
X207909Y335597D01*
Y336253D01*
X208565Y336909D01*
X210533D01*
X202002Y352689D02*
X202658Y353345D01*
X203970D01*
X204626Y352689D01*
Y350065D01*
X203970Y349410D01*
X202658D01*
X202002Y350065D01*
X200690Y353345D02*
X198066D01*
Y352689D01*
X200690Y350065D01*
Y349410D01*
X202002Y358890D02*
X202658Y359546D01*
X203970D01*
X204626Y358890D01*
Y356266D01*
X203970Y355610D01*
X202658D01*
X202002Y356266D01*
X200690Y358890D02*
X200034Y359546D01*
X198722D01*
X198066Y358890D01*
Y358234D01*
X198722Y357578D01*
X198066Y356922D01*
Y356266D01*
X198722Y355610D01*
X200034D01*
X200690Y356266D01*
Y356922D01*
X200034Y357578D01*
X200690Y358234D01*
Y358890D01*
X200034Y357578D02*
X198722D01*
X259382Y378608D02*
X260038Y377952D01*
Y376640D01*
X259382Y375984D01*
X256758D01*
X256102Y376640D01*
Y377952D01*
X256758Y378608D01*
X256102Y379920D02*
Y381232D01*
Y380576D01*
X260038D01*
X259382Y379920D01*
Y383200D02*
X260038Y383856D01*
Y385168D01*
X259382Y385824D01*
X258726D01*
X258070Y385168D01*
X257414Y385824D01*
X256758D01*
X256102Y385168D01*
Y383856D01*
X256758Y383200D01*
X257414D01*
X258070Y383856D01*
X258726Y383200D01*
X259382D01*
X258070Y383856D02*
Y385168D01*
X274244Y319651D02*
X274900Y318995D01*
Y317684D01*
X274244Y317028D01*
X271620D01*
X270965Y317684D01*
Y318995D01*
X271620Y319651D01*
X270965Y320963D02*
Y322275D01*
Y321619D01*
X274900D01*
X274244Y320963D01*
X274900Y324243D02*
Y326867D01*
X274244D01*
X271620Y324243D01*
X270965D01*
X265681Y378608D02*
X266337Y377952D01*
Y376640D01*
X265681Y375984D01*
X263057D01*
X262402Y376640D01*
Y377952D01*
X263057Y378608D01*
X262402Y382544D02*
Y379920D01*
X265025Y382544D01*
X265681D01*
X266337Y381888D01*
Y380576D01*
X265681Y379920D01*
Y383856D02*
X266337Y384512D01*
Y385824D01*
X265681Y386480D01*
X263057D01*
X262402Y385824D01*
Y384512D01*
X263057Y383856D01*
X265681D01*
X167945Y366207D02*
X168601Y365551D01*
Y364239D01*
X167945Y363583D01*
X165321D01*
X164665Y364239D01*
Y365551D01*
X165321Y366207D01*
X164665Y367518D02*
Y368830D01*
Y368174D01*
X168601D01*
X167945Y367518D01*
X164665Y370798D02*
Y372110D01*
Y371454D01*
X168601D01*
X167945Y370798D01*
X149343Y366207D02*
X149999Y365551D01*
Y364239D01*
X149343Y363583D01*
X146719D01*
X146063Y364239D01*
Y365551D01*
X146719Y366207D01*
X146063Y367518D02*
Y368830D01*
Y368174D01*
X149999D01*
X149343Y367518D01*
X146063Y373422D02*
Y370798D01*
X148687Y373422D01*
X149343D01*
X149999Y372766D01*
Y371454D01*
X149343Y370798D01*
X162337Y377689D02*
X162993Y378345D01*
X164305D01*
X164961Y377689D01*
Y375065D01*
X164305Y374410D01*
X162993D01*
X162337Y375065D01*
X158401Y374410D02*
X161025D01*
X158401Y377033D01*
Y377689D01*
X159057Y378345D01*
X160369D01*
X161025Y377689D01*
X157089Y375065D02*
X156433Y374410D01*
X155121D01*
X154465Y375065D01*
Y377689D01*
X155121Y378345D01*
X156433D01*
X157089Y377689D01*
Y377033D01*
X156433Y376377D01*
X154465D01*
X193341Y415977D02*
X193997Y416633D01*
X195309D01*
X195965Y415977D01*
Y413353D01*
X195309Y412697D01*
X193997D01*
X193341Y413353D01*
X192029Y415977D02*
X191373Y416633D01*
X190061D01*
X189405Y415977D01*
Y415321D01*
X190061Y414665D01*
X190717D01*
X190061D01*
X189405Y414009D01*
Y413353D01*
X190061Y412697D01*
X191373D01*
X192029Y413353D01*
X188093Y415977D02*
X187437Y416633D01*
X186125D01*
X185469Y415977D01*
Y413353D01*
X186125Y412697D01*
X187437D01*
X188093Y413353D01*
Y415977D01*
X271125Y231470D02*
X271716Y232060D01*
X272896D01*
X273487Y231470D01*
Y229108D01*
X272896Y228518D01*
X271716D01*
X271125Y229108D01*
X269945Y231470D02*
X269354Y232060D01*
X268174D01*
X267583Y231470D01*
Y230879D01*
X268174Y230289D01*
X268764D01*
X268174D01*
X267583Y229699D01*
Y229108D01*
X268174Y228518D01*
X269354D01*
X269945Y229108D01*
X264041Y228518D02*
X266402D01*
X264041Y230879D01*
Y231470D01*
X264631Y232060D01*
X265812D01*
X266402Y231470D01*
X271198Y237602D02*
X271788Y238192D01*
X272969D01*
X273559Y237602D01*
Y235240D01*
X272969Y234650D01*
X271788D01*
X271198Y235240D01*
X270017Y237602D02*
X269427Y238192D01*
X268246D01*
X267655Y237602D01*
Y237011D01*
X268246Y236421D01*
X268836D01*
X268246D01*
X267655Y235831D01*
Y235240D01*
X268246Y234650D01*
X269427D01*
X270017Y235240D01*
X266475Y237602D02*
X265884Y238192D01*
X264704D01*
X264113Y237602D01*
Y237011D01*
X264704Y236421D01*
X265294D01*
X264704D01*
X264113Y235831D01*
Y235240D01*
X264704Y234650D01*
X265884D01*
X266475Y235240D01*
X271152Y212609D02*
X271742Y213199D01*
X272923D01*
X273513Y212609D01*
Y210247D01*
X272923Y209657D01*
X271742D01*
X271152Y210247D01*
X269971Y212609D02*
X269381Y213199D01*
X268200D01*
X267610Y212609D01*
Y212018D01*
X268200Y211428D01*
X268790D01*
X268200D01*
X267610Y210838D01*
Y210247D01*
X268200Y209657D01*
X269381D01*
X269971Y210247D01*
X264067Y213199D02*
X266429D01*
Y211428D01*
X265248Y212018D01*
X264658D01*
X264067Y211428D01*
Y210247D01*
X264658Y209657D01*
X265838D01*
X266429Y210247D01*
X230150Y414041D02*
X230806Y413385D01*
Y412073D01*
X230150Y411417D01*
X227526D01*
X226870Y412073D01*
Y413385D01*
X227526Y414041D01*
X226870Y417321D02*
X230806D01*
X228838Y415353D01*
Y417977D01*
X230806Y421913D02*
X230150Y420601D01*
X228838Y419289D01*
X227526D01*
X226870Y419945D01*
Y421257D01*
X227526Y421913D01*
X228182D01*
X228838Y421257D01*
Y419289D01*
X236744Y414041D02*
X237400Y413385D01*
Y412073D01*
X236744Y411417D01*
X234120D01*
X233465Y412073D01*
Y413385D01*
X234120Y414041D01*
X233465Y417321D02*
X237400D01*
X235432Y415353D01*
Y417977D01*
X237400Y419289D02*
Y421913D01*
X236744D01*
X234120Y419289D01*
X233465D01*
X267650Y413746D02*
X268306Y413090D01*
Y411778D01*
X267650Y411122D01*
X265026D01*
X264370Y411778D01*
Y413090D01*
X265026Y413746D01*
X264370Y417026D02*
X268306D01*
X266338Y415058D01*
Y417682D01*
X267650Y418994D02*
X268306Y419650D01*
Y420961D01*
X267650Y421617D01*
X266994D01*
X266338Y420961D01*
X265682Y421617D01*
X265026D01*
X264370Y420961D01*
Y419650D01*
X265026Y418994D01*
X265682D01*
X266338Y419650D01*
X266994Y418994D01*
X267650D01*
X266338Y419650D02*
Y420961D01*
X261449Y413746D02*
X262105Y413090D01*
Y411778D01*
X261449Y411122D01*
X258825D01*
X258169Y411778D01*
Y413090D01*
X258825Y413746D01*
X258169Y417026D02*
X262105D01*
X260137Y415058D01*
Y417682D01*
X258825Y418994D02*
X258169Y419650D01*
Y420961D01*
X258825Y421617D01*
X261449D01*
X262105Y420961D01*
Y419650D01*
X261449Y418994D01*
X260793D01*
X260137Y419650D01*
Y421617D01*
X178544Y157676D02*
X179134Y158267D01*
X180315D01*
X180905Y157676D01*
Y155315D01*
X180315Y154724D01*
X179134D01*
X178544Y155315D01*
X177363Y158267D02*
X175002D01*
Y157676D01*
X177363Y155315D01*
Y154724D01*
X171460D02*
X173821D01*
X171460Y157086D01*
Y157676D01*
X172050Y158267D01*
X173231D01*
X173821Y157676D01*
X404461Y259514D02*
X405117Y258858D01*
Y257546D01*
X404461Y256890D01*
X401837D01*
X401181Y257546D01*
Y258858D01*
X401837Y259514D01*
X404461Y260825D02*
X405117Y261481D01*
Y262793D01*
X404461Y263449D01*
X403805D01*
X403149Y262793D01*
Y262137D01*
Y262793D01*
X402493Y263449D01*
X401837D01*
X401181Y262793D01*
Y261481D01*
X401837Y260825D01*
X405117Y264761D02*
Y267385D01*
X404461D01*
X401837Y264761D01*
X401181D01*
X612042Y252984D02*
X612698Y253641D01*
X614009D01*
X614665Y252984D01*
Y250361D01*
X614009Y249705D01*
X612698D01*
X612042Y250361D01*
X610730Y249705D02*
X609418D01*
X610074D01*
Y253641D01*
X610730Y252984D01*
X605482Y249705D02*
Y253641D01*
X607450Y251673D01*
X604826D01*
X603514Y249705D02*
X602202D01*
X602858D01*
Y253641D01*
X603514Y252984D01*
X271208Y193904D02*
X271798Y194494D01*
X272979D01*
X273569Y193904D01*
Y191542D01*
X272979Y190952D01*
X271798D01*
X271208Y191542D01*
X270027Y193904D02*
X269437Y194494D01*
X268256D01*
X267666Y193904D01*
Y193314D01*
X268256Y192723D01*
X268846D01*
X268256D01*
X267666Y192133D01*
Y191542D01*
X268256Y190952D01*
X269437D01*
X270027Y191542D01*
X266485Y193904D02*
X265894Y194494D01*
X264714D01*
X264123Y193904D01*
Y193314D01*
X264714Y192723D01*
X264123Y192133D01*
Y191542D01*
X264714Y190952D01*
X265894D01*
X266485Y191542D01*
Y192133D01*
X265894Y192723D01*
X266485Y193314D01*
Y193904D01*
X265894Y192723D02*
X264714D01*
X271208Y175054D02*
X271798Y175645D01*
X272979D01*
X273569Y175054D01*
Y172693D01*
X272979Y172102D01*
X271798D01*
X271208Y172693D01*
X270027Y175054D02*
X269437Y175645D01*
X268256D01*
X267665Y175054D01*
Y174464D01*
X268256Y173873D01*
X268846D01*
X268256D01*
X267665Y173283D01*
Y172693D01*
X268256Y172102D01*
X269437D01*
X270027Y172693D01*
X266485D02*
X265894Y172102D01*
X264714D01*
X264123Y172693D01*
Y175054D01*
X264714Y175645D01*
X265894D01*
X266485Y175054D01*
Y174464D01*
X265894Y173873D01*
X264123D01*
X253534Y9218D02*
X254190Y8562D01*
Y7250D01*
X253534Y6594D01*
X250910D01*
X250254Y7250D01*
Y8562D01*
X250910Y9218D01*
X254190Y13154D02*
X253534Y11842D01*
X252222Y10530D01*
X250910D01*
X250254Y11186D01*
Y12498D01*
X250910Y13154D01*
X251566D01*
X252222Y12498D01*
Y10530D01*
X254190Y17090D02*
X253534Y15778D01*
X252222Y14466D01*
X250910D01*
X250254Y15122D01*
Y16434D01*
X250910Y17090D01*
X251566D01*
X252222Y16434D01*
Y14466D01*
X187500Y26838D02*
X188156Y27494D01*
X189468D01*
X190124Y26838D01*
Y24214D01*
X189468Y23558D01*
X188156D01*
X187500Y24214D01*
X183564Y27494D02*
X184876Y26838D01*
X186188Y25526D01*
Y24214D01*
X185532Y23558D01*
X184220D01*
X183564Y24214D01*
Y24870D01*
X184220Y25526D01*
X186188D01*
X182252Y26838D02*
X181596Y27494D01*
X180284D01*
X179629Y26838D01*
Y26182D01*
X180284Y25526D01*
X179629Y24870D01*
Y24214D01*
X180284Y23558D01*
X181596D01*
X182252Y24214D01*
Y24870D01*
X181596Y25526D01*
X182252Y26182D01*
Y26838D01*
X181596Y25526D02*
X180284D01*
X187500Y20529D02*
X188156Y21185D01*
X189468D01*
X190124Y20529D01*
Y17905D01*
X189468Y17249D01*
X188156D01*
X187500Y17905D01*
X183564Y21185D02*
X184876Y20529D01*
X186188Y19217D01*
Y17905D01*
X185532Y17249D01*
X184220D01*
X183564Y17905D01*
Y18561D01*
X184220Y19217D01*
X186188D01*
X182252Y17905D02*
X181596Y17249D01*
X180284D01*
X179629Y17905D01*
Y20529D01*
X180284Y21185D01*
X181596D01*
X182252Y20529D01*
Y19873D01*
X181596Y19217D01*
X179629D01*
X509284Y314632D02*
X509940Y313976D01*
Y312664D01*
X509284Y312008D01*
X506660D01*
X506004Y312664D01*
Y313976D01*
X506660Y314632D01*
X509940Y315944D02*
Y318567D01*
X509284D01*
X506660Y315944D01*
X506004D01*
X509284Y319879D02*
X509940Y320535D01*
Y321847D01*
X509284Y322503D01*
X506660D01*
X506004Y321847D01*
Y320535D01*
X506660Y319879D01*
X509284D01*
X570366Y327649D02*
X571022Y326994D01*
Y325682D01*
X570366Y325026D01*
X567743D01*
X567087Y325682D01*
Y326994D01*
X567743Y327649D01*
X571022Y328961D02*
Y331585D01*
X570366D01*
X567743Y328961D01*
X567087D01*
Y332897D02*
Y334209D01*
Y333553D01*
X571022D01*
X570366Y332897D01*
X178603Y151451D02*
X179193Y152041D01*
X180374D01*
X180965Y151451D01*
Y149090D01*
X180374Y148499D01*
X179193D01*
X178603Y149090D01*
X177422Y152041D02*
X175061D01*
Y151451D01*
X177422Y149090D01*
Y148499D01*
X172109D02*
Y152041D01*
X173880Y150270D01*
X171519D01*
X178544Y145275D02*
X179134Y145865D01*
X180315D01*
X180905Y145275D01*
Y142913D01*
X180315Y142323D01*
X179134D01*
X178544Y142913D01*
X177363Y145865D02*
X175002D01*
Y145275D01*
X177363Y142913D01*
Y142323D01*
X171460Y145865D02*
X173821D01*
Y144094D01*
X172641Y144684D01*
X172050D01*
X171460Y144094D01*
Y142913D01*
X172050Y142323D01*
X173231D01*
X173821Y142913D01*
X178544Y126672D02*
X179134Y127263D01*
X180315D01*
X180905Y126672D01*
Y124311D01*
X180315Y123721D01*
X179134D01*
X178544Y124311D01*
X177363Y126672D02*
X176773Y127263D01*
X175592D01*
X175002Y126672D01*
Y126082D01*
X175592Y125492D01*
X175002Y124901D01*
Y124311D01*
X175592Y123721D01*
X176773D01*
X177363Y124311D01*
Y124901D01*
X176773Y125492D01*
X177363Y126082D01*
Y126672D01*
X176773Y125492D02*
X175592D01*
X171460Y123721D02*
X173821D01*
X171460Y126082D01*
Y126672D01*
X172050Y127263D01*
X173231D01*
X173821Y126672D01*
X178544Y132972D02*
X179134Y133562D01*
X180315D01*
X180905Y132972D01*
Y130610D01*
X180315Y130020D01*
X179134D01*
X178544Y130610D01*
X177363Y132972D02*
X176773Y133562D01*
X175592D01*
X175002Y132972D01*
Y132381D01*
X175592Y131791D01*
X175002Y131200D01*
Y130610D01*
X175592Y130020D01*
X176773D01*
X177363Y130610D01*
Y131200D01*
X176773Y131791D01*
X177363Y132381D01*
Y132972D01*
X176773Y131791D02*
X175592D01*
X171460Y133562D02*
X173821D01*
Y131791D01*
X172641Y132381D01*
X172050D01*
X171460Y131791D01*
Y130610D01*
X172050Y130020D01*
X173231D01*
X173821Y130610D01*
X139109Y77788D02*
X139764Y78444D01*
X141076D01*
X141732Y77788D01*
Y75164D01*
X141076Y74508D01*
X139764D01*
X139109Y75164D01*
X137796Y77788D02*
X137141Y78444D01*
X135829D01*
X135173Y77788D01*
Y77132D01*
X135829Y76476D01*
X135173Y75820D01*
Y75164D01*
X135829Y74508D01*
X137141D01*
X137796Y75164D01*
Y75820D01*
X137141Y76476D01*
X137796Y77132D01*
Y77788D01*
X137141Y76476D02*
X135829D01*
X131237Y78444D02*
X132549Y77788D01*
X133861Y76476D01*
Y75164D01*
X133205Y74508D01*
X131893D01*
X131237Y75164D01*
Y75820D01*
X131893Y76476D01*
X133861D01*
X178544Y120668D02*
X179134Y121259D01*
X180315D01*
X180905Y120668D01*
Y118307D01*
X180315Y117717D01*
X179134D01*
X178544Y118307D01*
X177363Y120668D02*
X176773Y121259D01*
X175592D01*
X175002Y120668D01*
Y120078D01*
X175592Y119488D01*
X175002Y118897D01*
Y118307D01*
X175592Y117717D01*
X176773D01*
X177363Y118307D01*
Y118897D01*
X176773Y119488D01*
X177363Y120078D01*
Y120668D01*
X176773Y119488D02*
X175592D01*
X173821Y121259D02*
X171460D01*
Y120668D01*
X173821Y118307D01*
Y117717D01*
X175395Y105064D02*
X176051Y104408D01*
Y103096D01*
X175395Y102440D01*
X172772D01*
X172116Y103096D01*
Y104408D01*
X172772Y105064D01*
X175395Y106376D02*
X176051Y107032D01*
Y108344D01*
X175395Y109000D01*
X174740D01*
X174083Y108344D01*
X173427Y109000D01*
X172772D01*
X172116Y108344D01*
Y107032D01*
X172772Y106376D01*
X173427D01*
X174083Y107032D01*
X174740Y106376D01*
X175395D01*
X174083Y107032D02*
Y108344D01*
X175395Y110312D02*
X176051Y110968D01*
Y112280D01*
X175395Y112936D01*
X174740D01*
X174083Y112280D01*
X173427Y112936D01*
X172772D01*
X172116Y112280D01*
Y110968D01*
X172772Y110312D01*
X173427D01*
X174083Y110968D01*
X174740Y110312D01*
X175395D01*
X174083Y110968D02*
Y112280D01*
X136549Y120307D02*
X137205Y120963D01*
X138517D01*
X139173Y120307D01*
Y117683D01*
X138517Y117028D01*
X137205D01*
X136549Y117683D01*
X135238Y120307D02*
X134581Y120963D01*
X133270D01*
X132614Y120307D01*
Y119651D01*
X133270Y118995D01*
X132614Y118340D01*
Y117683D01*
X133270Y117028D01*
X134581D01*
X135238Y117683D01*
Y118340D01*
X134581Y118995D01*
X135238Y119651D01*
Y120307D01*
X134581Y118995D02*
X133270D01*
X131302Y117683D02*
X130646Y117028D01*
X129334D01*
X128678Y117683D01*
Y120307D01*
X129334Y120963D01*
X130646D01*
X131302Y120307D01*
Y119651D01*
X130646Y118995D01*
X128678D01*
X136549Y126902D02*
X137205Y127558D01*
X138517D01*
X139173Y126902D01*
Y124278D01*
X138517Y123622D01*
X137205D01*
X136549Y124278D01*
X135238D02*
X134581Y123622D01*
X133270D01*
X132614Y124278D01*
Y126902D01*
X133270Y127558D01*
X134581D01*
X135238Y126902D01*
Y126246D01*
X134581Y125590D01*
X132614D01*
X131302Y126902D02*
X130646Y127558D01*
X129334D01*
X128678Y126902D01*
Y124278D01*
X129334Y123622D01*
X130646D01*
X131302Y124278D01*
Y126902D01*
X136845Y157807D02*
X137501Y158463D01*
X138812D01*
X139469Y157807D01*
Y155183D01*
X138812Y154528D01*
X137501D01*
X136845Y155183D01*
X135533D02*
X134877Y154528D01*
X133565D01*
X132909Y155183D01*
Y157807D01*
X133565Y158463D01*
X134877D01*
X135533Y157807D01*
Y157151D01*
X134877Y156495D01*
X132909D01*
X131597Y154528D02*
X130285D01*
X130941D01*
Y158463D01*
X131597Y157807D01*
X136845Y151508D02*
X137501Y152164D01*
X138812D01*
X139469Y151508D01*
Y148884D01*
X138812Y148228D01*
X137501D01*
X136845Y148884D01*
X135533D02*
X134877Y148228D01*
X133565D01*
X132909Y148884D01*
Y151508D01*
X133565Y152164D01*
X134877D01*
X135533Y151508D01*
Y150852D01*
X134877Y150196D01*
X132909D01*
X128973Y148228D02*
X131597D01*
X128973Y150852D01*
Y151508D01*
X129629Y152164D01*
X130941D01*
X131597Y151508D01*
X181429Y282053D02*
X182085Y281397D01*
Y280085D01*
X181429Y279429D01*
X178806D01*
X178150Y280085D01*
Y281397D01*
X178806Y282053D01*
X182085Y285989D02*
Y283365D01*
X180117D01*
X180773Y284677D01*
Y285333D01*
X180117Y285989D01*
X178806D01*
X178150Y285333D01*
Y284021D01*
X178806Y283365D01*
X181429Y287301D02*
X182085Y287957D01*
Y289268D01*
X181429Y289924D01*
X178806D01*
X178150Y289268D01*
Y287957D01*
X178806Y287301D01*
X181429D01*
X549935Y76410D02*
X550591Y77066D01*
X551903D01*
X552559Y76410D01*
Y73786D01*
X551903Y73130D01*
X550591D01*
X549935Y73786D01*
X548623D02*
X547967Y73130D01*
X546656D01*
X545999Y73786D01*
Y76410D01*
X546656Y77066D01*
X547967D01*
X548623Y76410D01*
Y75754D01*
X547967Y75098D01*
X545999D01*
X544688Y76410D02*
X544032Y77066D01*
X542720D01*
X542064Y76410D01*
Y75754D01*
X542720Y75098D01*
X543376D01*
X542720D01*
X542064Y74442D01*
Y73786D01*
X542720Y73130D01*
X544032D01*
X544688Y73786D01*
X599084Y137101D02*
X599740Y136445D01*
Y135133D01*
X599084Y134477D01*
X596460D01*
X595804Y135133D01*
Y136445D01*
X596460Y137101D01*
Y138413D02*
X595804Y139069D01*
Y140381D01*
X596460Y141037D01*
X599084D01*
X599740Y140381D01*
Y139069D01*
X599084Y138413D01*
X598428D01*
X597772Y139069D01*
Y141037D01*
X595804Y144317D02*
X599740D01*
X597772Y142349D01*
Y144973D01*
X599029Y122719D02*
X599685Y122063D01*
Y120751D01*
X599029Y120095D01*
X596406D01*
X595750Y120751D01*
Y122063D01*
X596406Y122719D01*
Y124031D02*
X595750Y124687D01*
Y125999D01*
X596406Y126655D01*
X599029D01*
X599685Y125999D01*
Y124687D01*
X599029Y124031D01*
X598373D01*
X597717Y124687D01*
Y126655D01*
X599685Y130590D02*
Y127966D01*
X597717D01*
X598373Y129278D01*
Y129934D01*
X597717Y130590D01*
X596406D01*
X595750Y129934D01*
Y128622D01*
X596406Y127966D01*
X657119Y34580D02*
X657775Y35236D01*
X659087D01*
X659743Y34580D01*
Y31956D01*
X659087Y31300D01*
X657775D01*
X657119Y31956D01*
X655807D02*
X655151Y31300D01*
X653839D01*
X653183Y31956D01*
Y34580D01*
X653839Y35236D01*
X655151D01*
X655807Y34580D01*
Y33924D01*
X655151Y33268D01*
X653183D01*
X649247Y35236D02*
X650559Y34580D01*
X651871Y33268D01*
Y31956D01*
X651215Y31300D01*
X649903D01*
X649247Y31956D01*
Y32612D01*
X649903Y33268D01*
X651871D01*
X607809Y63221D02*
X608465Y63877D01*
X609777D01*
X610433Y63221D01*
Y60597D01*
X609777Y59941D01*
X608465D01*
X607809Y60597D01*
X606497D02*
X605841Y59941D01*
X604529D01*
X603873Y60597D01*
Y63221D01*
X604529Y63877D01*
X605841D01*
X606497Y63221D01*
Y62565D01*
X605841Y61909D01*
X603873D01*
X602562Y63877D02*
X599938D01*
Y63221D01*
X602562Y60597D01*
Y59941D01*
X585221Y56172D02*
X585877Y56828D01*
X587189D01*
X587845Y56172D01*
Y53548D01*
X587189Y52892D01*
X585877D01*
X585221Y53548D01*
X583909D02*
X583253Y52892D01*
X581941D01*
X581285Y53548D01*
Y56172D01*
X581941Y56828D01*
X583253D01*
X583909Y56172D01*
Y55516D01*
X583253Y54860D01*
X581285D01*
X579973Y56172D02*
X579317Y56828D01*
X578005D01*
X577349Y56172D01*
Y55516D01*
X578005Y54860D01*
X577349Y54204D01*
Y53548D01*
X578005Y52892D01*
X579317D01*
X579973Y53548D01*
Y54204D01*
X579317Y54860D01*
X579973Y55516D01*
Y56172D01*
X579317Y54860D02*
X578005D01*
X433784Y316017D02*
X434440Y315361D01*
Y314049D01*
X433784Y313393D01*
X431160D01*
X430504Y314049D01*
Y315361D01*
X431160Y316017D01*
X430504Y317329D02*
Y318641D01*
Y317985D01*
X434440D01*
X433784Y317329D01*
X430504Y320609D02*
Y321921D01*
Y321265D01*
X434440D01*
X433784Y320609D01*
Y323889D02*
X434440Y324545D01*
Y325857D01*
X433784Y326513D01*
X433128D01*
X432472Y325857D01*
Y325201D01*
Y325857D01*
X431816Y326513D01*
X431160D01*
X430504Y325857D01*
Y324545D01*
X431160Y323889D01*
X610038Y311220D02*
X610629Y310629D01*
Y309449D01*
X610038Y308858D01*
X607677D01*
X607087Y309449D01*
Y310629D01*
X607677Y311220D01*
X607087Y312400D02*
Y313581D01*
Y312991D01*
X610629D01*
X610038Y312400D01*
X607087Y315352D02*
Y316533D01*
Y315943D01*
X610629D01*
X610038Y315352D01*
X610629Y318304D02*
Y320666D01*
X610038D01*
X607677Y318304D01*
X607087D01*
X627985Y393470D02*
X628641Y392814D01*
Y391502D01*
X627985Y390846D01*
X625361D01*
X624705Y391502D01*
Y392814D01*
X625361Y393470D01*
X624705Y394782D02*
Y396094D01*
Y395438D01*
X628641D01*
X627985Y394782D01*
X624705Y398062D02*
Y399374D01*
Y398718D01*
X628641D01*
X627985Y398062D01*
X625361Y401342D02*
X624705Y401998D01*
Y403310D01*
X625361Y403966D01*
X627985D01*
X628641Y403310D01*
Y401998D01*
X627985Y401342D01*
X627328D01*
X626673Y401998D01*
Y403966D01*
X624187Y311257D02*
X624777Y310666D01*
Y309486D01*
X624187Y308895D01*
X621825D01*
X621235Y309486D01*
Y310666D01*
X621825Y311257D01*
X621235Y312438D02*
Y313618D01*
Y313028D01*
X624777D01*
X624187Y312438D01*
X621235Y317751D02*
Y315389D01*
X623596Y317751D01*
X624187D01*
X624777Y317161D01*
Y315980D01*
X624187Y315389D01*
Y318932D02*
X624777Y319522D01*
Y320703D01*
X624187Y321293D01*
X621825D01*
X621235Y320703D01*
Y319522D01*
X621825Y318932D01*
X624187D01*
X611944Y390260D02*
X612600Y389604D01*
Y388292D01*
X611944Y387636D01*
X609320D01*
X608665Y388292D01*
Y389604D01*
X609320Y390260D01*
X608665Y391572D02*
Y392884D01*
Y392228D01*
X612600D01*
X611944Y391572D01*
X608665Y397476D02*
Y394852D01*
X611288Y397476D01*
X611944D01*
X612600Y396820D01*
Y395508D01*
X611944Y394852D01*
X608665Y398788D02*
Y400100D01*
Y399444D01*
X612600D01*
X611944Y398788D01*
X622177Y393470D02*
X622833Y392814D01*
Y391502D01*
X622177Y390846D01*
X619554D01*
X618898Y391502D01*
Y392814D01*
X619554Y393470D01*
X618898Y394782D02*
Y396094D01*
Y395438D01*
X622833D01*
X622177Y394782D01*
X618898Y400686D02*
Y398062D01*
X621522Y400686D01*
X622177D01*
X622833Y400030D01*
Y398718D01*
X622177Y398062D01*
X618898Y404622D02*
Y401998D01*
X621522Y404622D01*
X622177D01*
X622833Y403966D01*
Y402654D01*
X622177Y401998D01*
X618011Y311220D02*
X618601Y310629D01*
Y309449D01*
X618011Y308858D01*
X615649D01*
X615059Y309449D01*
Y310629D01*
X615649Y311220D01*
X615059Y312400D02*
Y313581D01*
Y312991D01*
X618601D01*
X618011Y312400D01*
X615059Y317714D02*
Y315352D01*
X617420Y317714D01*
X618011D01*
X618601Y317123D01*
Y315943D01*
X618011Y315352D01*
Y318894D02*
X618601Y319485D01*
Y320666D01*
X618011Y321256D01*
X617420D01*
X616830Y320666D01*
Y320075D01*
Y320666D01*
X616240Y321256D01*
X615649D01*
X615059Y320666D01*
Y319485D01*
X615649Y318894D01*
X630314Y311220D02*
X630904Y310629D01*
Y309449D01*
X630314Y308858D01*
X627953D01*
X627362Y309449D01*
Y310629D01*
X627953Y311220D01*
X627362Y312400D02*
Y313581D01*
Y312991D01*
X630904D01*
X630314Y312400D01*
X627362Y317714D02*
Y315352D01*
X629724Y317714D01*
X630314D01*
X630904Y317123D01*
Y315943D01*
X630314Y315352D01*
X627362Y320666D02*
X630904D01*
X629133Y318894D01*
Y321256D01*
X652306Y346174D02*
X652962Y346830D01*
X654274D01*
X654930Y346174D01*
Y343550D01*
X654274Y342894D01*
X652962D01*
X652306Y343550D01*
X650994Y342894D02*
X649683D01*
X650339D01*
Y346830D01*
X650994Y346174D01*
X645091Y342894D02*
X647715D01*
X645091Y345518D01*
Y346174D01*
X645747Y346830D01*
X647059D01*
X647715Y346174D01*
X641155Y346830D02*
X643779D01*
Y344862D01*
X642467Y345518D01*
X641811D01*
X641155Y344862D01*
Y343550D01*
X641811Y342894D01*
X643123D01*
X643779Y343550D01*
X585368Y350721D02*
X586024Y351377D01*
X587336D01*
X587992Y350721D01*
Y348097D01*
X587336Y347441D01*
X586024D01*
X585368Y348097D01*
X584056Y347441D02*
X582745D01*
X583400D01*
Y351377D01*
X584056Y350721D01*
X578153Y347441D02*
X580777D01*
X578153Y350065D01*
Y350721D01*
X578809Y351377D01*
X580121D01*
X580777Y350721D01*
X574217Y351377D02*
X575529Y350721D01*
X576841Y349409D01*
Y348097D01*
X576185Y347441D01*
X574873D01*
X574217Y348097D01*
Y348753D01*
X574873Y349409D01*
X576841D01*
X652076Y364291D02*
X652732Y364947D01*
X654044D01*
X654700Y364291D01*
Y361667D01*
X654044Y361011D01*
X652732D01*
X652076Y361667D01*
X650764Y361011D02*
X649452D01*
X650108D01*
Y364947D01*
X650764Y364291D01*
X644860Y361011D02*
X647484D01*
X644860Y363635D01*
Y364291D01*
X645516Y364947D01*
X646828D01*
X647484Y364291D01*
X643548Y364947D02*
X640925D01*
Y364291D01*
X643548Y361667D01*
Y361011D01*
X585368Y381823D02*
X586024Y382479D01*
X587336D01*
X587992Y381823D01*
Y379199D01*
X587336Y378543D01*
X586024D01*
X585368Y379199D01*
X584056Y378543D02*
X582745D01*
X583400D01*
Y382479D01*
X584056Y381823D01*
X578153Y378543D02*
X580777D01*
X578153Y381167D01*
Y381823D01*
X578809Y382479D01*
X580121D01*
X580777Y381823D01*
X576841D02*
X576185Y382479D01*
X574873D01*
X574217Y381823D01*
Y381167D01*
X574873Y380511D01*
X574217Y379855D01*
Y379199D01*
X574873Y378543D01*
X576185D01*
X576841Y379199D01*
Y379855D01*
X576185Y380511D01*
X576841Y381167D01*
Y381823D01*
X576185Y380511D02*
X574873D01*
X724999Y146259D02*
X725589Y145669D01*
Y144488D01*
X724999Y143898D01*
X722638D01*
X722047Y144488D01*
Y145669D01*
X722638Y146259D01*
X722047Y147440D02*
Y148620D01*
Y148030D01*
X725589D01*
X724999Y147440D01*
X722047Y152753D02*
Y150392D01*
X724409Y152753D01*
X724999D01*
X725589Y152163D01*
Y150982D01*
X724999Y150392D01*
X722638Y153934D02*
X722047Y154524D01*
Y155705D01*
X722638Y156295D01*
X724999D01*
X725589Y155705D01*
Y154524D01*
X724999Y153934D01*
X724409D01*
X723818Y154524D01*
Y156295D01*
X718700Y146358D02*
X719290Y145767D01*
Y144586D01*
X718700Y143996D01*
X716338D01*
X715748Y144586D01*
Y145767D01*
X716338Y146358D01*
X715748Y147538D02*
Y148719D01*
Y148129D01*
X719290D01*
X718700Y147538D01*
Y150490D02*
X719290Y151080D01*
Y152261D01*
X718700Y152851D01*
X718110D01*
X717519Y152261D01*
Y151671D01*
Y152261D01*
X716929Y152851D01*
X716338D01*
X715748Y152261D01*
Y151080D01*
X716338Y150490D01*
X718700Y154032D02*
X719290Y154622D01*
Y155803D01*
X718700Y156394D01*
X716338D01*
X715748Y155803D01*
Y154622D01*
X716338Y154032D01*
X718700D01*
X652442Y421309D02*
X653098Y421965D01*
X654410D01*
X655066Y421309D01*
Y418685D01*
X654410Y418029D01*
X653098D01*
X652442Y418685D01*
X651130Y418029D02*
X649818D01*
X650474D01*
Y421965D01*
X651130Y421309D01*
X647851D02*
X647194Y421965D01*
X645883D01*
X645227Y421309D01*
Y420653D01*
X645883Y419997D01*
X646539D01*
X645883D01*
X645227Y419341D01*
Y418685D01*
X645883Y418029D01*
X647194D01*
X647851Y418685D01*
X641291Y421965D02*
X643915D01*
Y419997D01*
X642603Y420653D01*
X641947D01*
X641291Y419997D01*
Y418685D01*
X641947Y418029D01*
X643259D01*
X643915Y418685D01*
X652442Y426952D02*
X653098Y427608D01*
X654410D01*
X655066Y426952D01*
Y424329D01*
X654410Y423673D01*
X653098D01*
X652442Y424329D01*
X651130Y423673D02*
X649818D01*
X650474D01*
Y427608D01*
X651130Y426952D01*
X647851D02*
X647194Y427608D01*
X645883D01*
X645227Y426952D01*
Y426296D01*
X645883Y425640D01*
X646539D01*
X645883D01*
X645227Y424985D01*
Y424329D01*
X645883Y423673D01*
X647194D01*
X647851Y424329D01*
X641291Y427608D02*
X642603Y426952D01*
X643915Y425640D01*
Y424329D01*
X643259Y423673D01*
X641947D01*
X641291Y424329D01*
Y424985D01*
X641947Y425640D01*
X643915D01*
X663680Y375590D02*
X664270Y374999D01*
Y373819D01*
X663680Y373228D01*
X661319D01*
X660728Y373819D01*
Y374999D01*
X661319Y375590D01*
X660728Y376770D02*
Y377951D01*
Y377361D01*
X664270D01*
X663680Y376770D01*
Y379722D02*
X664270Y380313D01*
Y381493D01*
X663680Y382084D01*
X663090D01*
X662499Y381493D01*
Y380903D01*
Y381493D01*
X661909Y382084D01*
X661319D01*
X660728Y381493D01*
Y380313D01*
X661319Y379722D01*
X664270Y383264D02*
Y385626D01*
X663680D01*
X661319Y383264D01*
X660728D01*
X658400Y375602D02*
X658990Y375011D01*
Y373831D01*
X658400Y373240D01*
X656038D01*
X655448Y373831D01*
Y375011D01*
X656038Y375602D01*
X655448Y376782D02*
Y377963D01*
Y377373D01*
X658990D01*
X658400Y376782D01*
Y379734D02*
X658990Y380325D01*
Y381505D01*
X658400Y382096D01*
X657809D01*
X657219Y381505D01*
Y380915D01*
Y381505D01*
X656629Y382096D01*
X656038D01*
X655448Y381505D01*
Y380325D01*
X656038Y379734D01*
X658400Y383276D02*
X658990Y383867D01*
Y385047D01*
X658400Y385638D01*
X657809D01*
X657219Y385047D01*
X656629Y385638D01*
X656038D01*
X655448Y385047D01*
Y383867D01*
X656038Y383276D01*
X656629D01*
X657219Y383867D01*
X657809Y383276D01*
X658400D01*
X657219Y383867D02*
Y385047D01*
X689894Y404495D02*
X690551Y403839D01*
Y402528D01*
X689894Y401872D01*
X687271D01*
X686615Y402528D01*
Y403839D01*
X687271Y404495D01*
X686615Y405807D02*
Y407119D01*
Y406463D01*
X690551D01*
X689894Y405807D01*
Y409087D02*
X690551Y409743D01*
Y411055D01*
X689894Y411711D01*
X689239D01*
X688583Y411055D01*
Y410399D01*
Y411055D01*
X687927Y411711D01*
X687271D01*
X686615Y411055D01*
Y409743D01*
X687271Y409087D01*
X686615Y413023D02*
Y414335D01*
Y413679D01*
X690551D01*
X689894Y413023D01*
X695308Y404495D02*
X695964Y403839D01*
Y402528D01*
X695308Y401872D01*
X692684D01*
X692028Y402528D01*
Y403839D01*
X692684Y404495D01*
X692028Y405807D02*
Y407119D01*
Y406463D01*
X695964D01*
X695308Y405807D01*
Y409087D02*
X695964Y409743D01*
Y411055D01*
X695308Y411711D01*
X694652D01*
X693996Y411055D01*
Y410399D01*
Y411055D01*
X693340Y411711D01*
X692684D01*
X692028Y411055D01*
Y409743D01*
X692684Y409087D01*
X692028Y415647D02*
Y413023D01*
X694652Y415647D01*
X695308D01*
X695964Y414991D01*
Y413679D01*
X695308Y413023D01*
X271983Y52197D02*
X272638Y52853D01*
X273950D01*
X274606Y52197D01*
Y49573D01*
X273950Y48917D01*
X272638D01*
X271983Y49573D01*
X268703Y48917D02*
Y52853D01*
X270671Y50885D01*
X268047D01*
X266735Y52197D02*
X266079Y52853D01*
X264767D01*
X264111Y52197D01*
Y49573D01*
X264767Y48917D01*
X266079D01*
X266735Y49573D01*
Y52197D01*
X271293Y39402D02*
X271949Y40058D01*
X273261D01*
X273917Y39402D01*
Y36778D01*
X273261Y36122D01*
X271949D01*
X271293Y36778D01*
X268014Y36122D02*
Y40058D01*
X269982Y38090D01*
X267358D01*
X266046Y36122D02*
X264734D01*
X265390D01*
Y40058D01*
X266046Y39402D01*
X661281Y267096D02*
X661937Y267753D01*
X663249D01*
X663905Y267096D01*
Y264473D01*
X663249Y263817D01*
X661937D01*
X661281Y264473D01*
X659969Y263817D02*
X658657D01*
X659313D01*
Y267753D01*
X659969Y267096D01*
X654721Y263817D02*
Y267753D01*
X656689Y265785D01*
X654066D01*
X650786Y263817D02*
Y267753D01*
X652754Y265785D01*
X650130D01*
X661451Y288024D02*
X662107Y288680D01*
X663419D01*
X664075Y288024D01*
Y285400D01*
X663419Y284744D01*
X662107D01*
X661451Y285400D01*
X660139Y284744D02*
X658827D01*
X659483D01*
Y288680D01*
X660139Y288024D01*
X654891Y284744D02*
Y288680D01*
X656859Y286712D01*
X654236D01*
X650300Y288680D02*
X652923D01*
Y286712D01*
X651612Y287368D01*
X650956D01*
X650300Y286712D01*
Y285400D01*
X650956Y284744D01*
X652268D01*
X652923Y285400D01*
X527297Y227886D02*
X527953Y228542D01*
X529265D01*
X529921Y227886D01*
Y225262D01*
X529265Y224606D01*
X527953D01*
X527297Y225262D01*
X525985Y224606D02*
X524674D01*
X525330D01*
Y228542D01*
X525985Y227886D01*
X520738Y224606D02*
Y228542D01*
X522706Y226574D01*
X520082D01*
X516146Y228542D02*
X517458Y227886D01*
X518770Y226574D01*
Y225262D01*
X518114Y224606D01*
X516802D01*
X516146Y225262D01*
Y225918D01*
X516802Y226574D01*
X518770D01*
X274507Y413746D02*
Y411122D01*
X272539D01*
Y412434D01*
Y411122D01*
X270571D01*
X274507Y415058D02*
X270571D01*
Y417026D01*
X271227Y417682D01*
X271883D01*
X272539Y417026D01*
Y415058D01*
Y417026D01*
X273195Y417682D01*
X273851D01*
X274507Y417026D01*
Y415058D01*
X270571Y421617D02*
Y418994D01*
X273195Y421617D01*
X273851D01*
X274507Y420961D01*
Y419650D01*
X273851Y418994D01*
X731790Y147637D02*
Y145276D01*
X730019D01*
Y146456D01*
Y145276D01*
X728248D01*
X731790Y148818D02*
X728248D01*
Y150589D01*
X728838Y151179D01*
X729429D01*
X730019Y150589D01*
Y148818D01*
Y150589D01*
X730610Y151179D01*
X731200D01*
X731790Y150589D01*
Y148818D01*
X728838Y152360D02*
X728248Y152950D01*
Y154131D01*
X728838Y154721D01*
X731200D01*
X731790Y154131D01*
Y152950D01*
X731200Y152360D01*
X730610D01*
X730019Y152950D01*
Y154721D01*
X685039Y404495D02*
Y401872D01*
X683071D01*
Y403184D01*
Y401872D01*
X681103D01*
X685039Y405807D02*
X681103D01*
Y407775D01*
X681759Y408431D01*
X682415D01*
X683071Y407775D01*
Y405807D01*
Y407775D01*
X683727Y408431D01*
X684383D01*
X685039Y407775D01*
Y405807D01*
X681103Y409743D02*
Y411055D01*
Y410399D01*
X685039D01*
X684383Y409743D01*
Y413023D02*
X685039Y413679D01*
Y414991D01*
X684383Y415647D01*
X681759D01*
X681103Y414991D01*
Y413679D01*
X681759Y413023D01*
X684383D01*
X74705Y312794D02*
X72081Y308858D01*
Y312794D02*
X74705Y308858D01*
X70769D02*
X69457D01*
X70113D01*
Y312794D01*
X70769Y312138D01*
X181298Y348044D02*
Y344108D01*
X178675D01*
X177363D02*
X176051D01*
X176707D01*
Y348044D01*
X177363Y347388D01*
X181791Y331003D02*
Y327067D01*
X179167D01*
X175232D02*
X177856D01*
X175232Y329691D01*
Y330347D01*
X175888Y331003D01*
X177200D01*
X177856Y330347D01*
X236281Y41534D02*
Y37598D01*
X233657D01*
X232345Y40878D02*
X231689Y41534D01*
X230377D01*
X229721Y40878D01*
Y40222D01*
X230377Y39566D01*
X231033D01*
X230377D01*
X229721Y38910D01*
Y38254D01*
X230377Y37598D01*
X231689D01*
X232345Y38254D01*
X198031Y306890D02*
Y310825D01*
X196064D01*
X195408Y310170D01*
Y308858D01*
X196064Y308202D01*
X198031D01*
X196720D02*
X195408Y306890D01*
X194096Y310170D02*
X193440Y310825D01*
X192128D01*
X191472Y310170D01*
Y309514D01*
X192128Y308858D01*
X192784D01*
X192128D01*
X191472Y308202D01*
Y307546D01*
X192128Y306890D01*
X193440D01*
X194096Y307546D01*
X142126Y314272D02*
X145668D01*
Y316043D01*
X145078Y316633D01*
X143897D01*
X143307Y316043D01*
Y314272D01*
Y315452D02*
X142126Y316633D01*
X145668Y320175D02*
X145078Y318994D01*
X143897Y317814D01*
X142716D01*
X142126Y318404D01*
Y319585D01*
X142716Y320175D01*
X143307D01*
X143897Y319585D01*
Y317814D01*
X188484Y365748D02*
Y369684D01*
X186516D01*
X185860Y369028D01*
Y367716D01*
X186516Y367060D01*
X188484D01*
X187172D02*
X185860Y365748D01*
X184548D02*
X183237D01*
X183893D01*
Y369684D01*
X184548Y369028D01*
X181269Y365748D02*
X179957D01*
X180613D01*
Y369684D01*
X181269Y369028D01*
X202165Y365748D02*
Y369684D01*
X200198D01*
X199541Y369028D01*
Y367716D01*
X200198Y367060D01*
X202165D01*
X200853D02*
X199541Y365748D01*
X198230D02*
X196918D01*
X197574D01*
Y369684D01*
X198230Y369028D01*
X192326Y365748D02*
X194950D01*
X192326Y368372D01*
Y369028D01*
X192982Y369684D01*
X194294D01*
X194950Y369028D01*
X273228Y222047D02*
Y225589D01*
X271457D01*
X270867Y224999D01*
Y223818D01*
X271457Y223228D01*
X273228D01*
X272048D02*
X270867Y222047D01*
X269686D02*
X268506D01*
X269096D01*
Y225589D01*
X269686Y224999D01*
X266734D02*
X266144Y225589D01*
X264963D01*
X264373Y224999D01*
Y224409D01*
X264963Y223818D01*
X265554D01*
X264963D01*
X264373Y223228D01*
Y222638D01*
X264963Y222047D01*
X266144D01*
X266734Y222638D01*
X273228Y215945D02*
Y219487D01*
X271457D01*
X270867Y218897D01*
Y217716D01*
X271457Y217126D01*
X273228D01*
X272048D02*
X270867Y215945D01*
X269686D02*
X268506D01*
X269096D01*
Y219487D01*
X269686Y218897D01*
X264963Y215945D02*
Y219487D01*
X266734Y217716D01*
X264373D01*
X120669Y391339D02*
X124605D01*
Y393306D01*
X123949Y393962D01*
X122637D01*
X121981Y393306D01*
Y391339D01*
Y392651D02*
X120669Y393962D01*
Y395274D02*
Y396586D01*
Y395930D01*
X124605D01*
X123949Y395274D01*
Y398554D02*
X124605Y399210D01*
Y400522D01*
X123949Y401178D01*
X121325D01*
X120669Y400522D01*
Y399210D01*
X121325Y398554D01*
X123949D01*
X407677Y257087D02*
X411613D01*
Y259054D01*
X410957Y259710D01*
X409645D01*
X408989Y259054D01*
Y257087D01*
Y258399D02*
X407677Y259710D01*
Y261022D02*
Y262334D01*
Y261678D01*
X411613D01*
X410957Y261022D01*
X411613Y264302D02*
Y266926D01*
X410957D01*
X408333Y264302D01*
X407677D01*
X273327Y184547D02*
Y188089D01*
X271556D01*
X270965Y187499D01*
Y186318D01*
X271556Y185728D01*
X273327D01*
X272146D02*
X270965Y184547D01*
X269785D02*
X268604D01*
X269194D01*
Y188089D01*
X269785Y187499D01*
X266833D02*
X266243Y188089D01*
X265062D01*
X264471Y187499D01*
Y186909D01*
X265062Y186318D01*
X264471Y185728D01*
Y185138D01*
X265062Y184547D01*
X266243D01*
X266833Y185138D01*
Y185728D01*
X266243Y186318D01*
X266833Y186909D01*
Y187499D01*
X266243Y186318D02*
X265062D01*
X273327Y178445D02*
Y181987D01*
X271556D01*
X270965Y181397D01*
Y180216D01*
X271556Y179626D01*
X273327D01*
X272146D02*
X270965Y178445D01*
X269785D02*
X268604D01*
X269194D01*
Y181987D01*
X269785Y181397D01*
X266833Y179035D02*
X266243Y178445D01*
X265062D01*
X264471Y179035D01*
Y181397D01*
X265062Y181987D01*
X266243D01*
X266833Y181397D01*
Y180806D01*
X266243Y180216D01*
X264471D01*
X274606Y55315D02*
Y59251D01*
X272638D01*
X271983Y58595D01*
Y57283D01*
X272638Y56627D01*
X274606D01*
X273294D02*
X271983Y55315D01*
X268047D02*
X270671D01*
X268047Y57939D01*
Y58595D01*
X268703Y59251D01*
X270015D01*
X270671Y58595D01*
X266735D02*
X266079Y59251D01*
X264767D01*
X264111Y58595D01*
Y55971D01*
X264767Y55315D01*
X266079D01*
X266735Y55971D01*
Y58595D01*
X273917Y42421D02*
Y46357D01*
X271949D01*
X271293Y45701D01*
Y44389D01*
X271949Y43733D01*
X273917D01*
X272605D02*
X271293Y42421D01*
X267358D02*
X269982D01*
X267358Y45045D01*
Y45701D01*
X268014Y46357D01*
X269326D01*
X269982Y45701D01*
X266046Y42421D02*
X264734D01*
X265390D01*
Y46357D01*
X266046Y45701D01*
X614664Y285848D02*
Y289783D01*
X612696D01*
X612040Y289127D01*
Y287815D01*
X612696Y287159D01*
X614664D01*
X613352D02*
X612040Y285848D01*
X610728Y289127D02*
X610072Y289783D01*
X608760D01*
X608104Y289127D01*
Y288471D01*
X608760Y287815D01*
X608104Y287159D01*
Y286504D01*
X608760Y285848D01*
X610072D01*
X610728Y286504D01*
Y287159D01*
X610072Y287815D01*
X610728Y288471D01*
Y289127D01*
X610072Y287815D02*
X608760D01*
X606792Y289127D02*
X606136Y289783D01*
X604824D01*
X604168Y289127D01*
Y288471D01*
X604824Y287815D01*
X604168Y287159D01*
Y286504D01*
X604824Y285848D01*
X606136D01*
X606792Y286504D01*
Y287159D01*
X606136Y287815D01*
X606792Y288471D01*
Y289127D01*
X606136Y287815D02*
X604824D01*
X680847Y275767D02*
X684782D01*
Y277735D01*
X684126Y278391D01*
X682815D01*
X682159Y277735D01*
Y275767D01*
Y277079D02*
X680847Y278391D01*
X681503Y279703D02*
X680847Y280359D01*
Y281671D01*
X681503Y282327D01*
X684126D01*
X684782Y281671D01*
Y280359D01*
X684126Y279703D01*
X683470D01*
X682815Y280359D01*
Y282327D01*
X680847Y286263D02*
Y283639D01*
X683470Y286263D01*
X684126D01*
X684782Y285607D01*
Y284295D01*
X684126Y283639D01*
X659842Y250197D02*
X663778D01*
Y252165D01*
X663122Y252821D01*
X661810D01*
X661154Y252165D01*
Y250197D01*
Y251509D02*
X659842Y252821D01*
X663122Y254133D02*
X663778Y254788D01*
Y256101D01*
X663122Y256756D01*
X662466D01*
X661810Y256101D01*
X661154Y256756D01*
X660499D01*
X659842Y256101D01*
Y254788D01*
X660499Y254133D01*
X661154D01*
X661810Y254788D01*
X662466Y254133D01*
X663122D01*
X661810Y254788D02*
Y256101D01*
X660499Y258068D02*
X659842Y258724D01*
Y260036D01*
X660499Y260692D01*
X663122D01*
X663778Y260036D01*
Y258724D01*
X663122Y258068D01*
X662466D01*
X661810Y258724D01*
Y260692D01*
X190124Y29749D02*
Y33685D01*
X188156D01*
X187500Y33029D01*
Y31717D01*
X188156Y31061D01*
X190124D01*
X188812D02*
X187500Y29749D01*
X186188Y33029D02*
X185532Y33685D01*
X184220D01*
X183564Y33029D01*
Y32373D01*
X184220Y31717D01*
X184876D01*
X184220D01*
X183564Y31061D01*
Y30405D01*
X184220Y29749D01*
X185532D01*
X186188Y30405D01*
X180284Y29749D02*
Y33685D01*
X182252Y31717D01*
X179629D01*
X598130Y261811D02*
Y265747D01*
X596162D01*
X595506Y265091D01*
Y263779D01*
X596162Y263123D01*
X598130D01*
X596818D02*
X595506Y261811D01*
X594194Y265091D02*
X593538Y265747D01*
X592226D01*
X591570Y265091D01*
Y264435D01*
X592226Y263779D01*
X592882D01*
X592226D01*
X591570Y263123D01*
Y262467D01*
X592226Y261811D01*
X593538D01*
X594194Y262467D01*
X590258Y265091D02*
X589603Y265747D01*
X588291D01*
X587635Y265091D01*
Y264435D01*
X588291Y263779D01*
X587635Y263123D01*
Y262467D01*
X588291Y261811D01*
X589603D01*
X590258Y262467D01*
Y263123D01*
X589603Y263779D01*
X590258Y264435D01*
Y265091D01*
X589603Y263779D02*
X588291D01*
X598130Y255610D02*
Y259546D01*
X596162D01*
X595506Y258890D01*
Y257578D01*
X596162Y256922D01*
X598130D01*
X596818D02*
X595506Y255610D01*
X594194Y258890D02*
X593538Y259546D01*
X592226D01*
X591570Y258890D01*
Y258234D01*
X592226Y257578D01*
X592882D01*
X592226D01*
X591570Y256922D01*
Y256266D01*
X592226Y255610D01*
X593538D01*
X594194Y256266D01*
X590258D02*
X589603Y255610D01*
X588291D01*
X587635Y256266D01*
Y258890D01*
X588291Y259546D01*
X589603D01*
X590258Y258890D01*
Y258234D01*
X589603Y257578D01*
X587635D01*
X200394Y90159D02*
X204330D01*
Y92127D01*
X203674Y92783D01*
X202362D01*
X201706Y92127D01*
Y90159D01*
Y91471D02*
X200394Y92783D01*
Y96063D02*
X204330D01*
X202362Y94095D01*
Y96719D01*
X204330Y100654D02*
X203674Y99342D01*
X202362Y98031D01*
X201050D01*
X200394Y98686D01*
Y99998D01*
X201050Y100654D01*
X201706D01*
X202362Y99998D01*
Y98031D01*
X187500Y90158D02*
X191436D01*
Y92125D01*
X190780Y92781D01*
X189468D01*
X188812Y92125D01*
Y90158D01*
Y91469D02*
X187500Y92781D01*
Y96061D02*
X191436D01*
X189468Y94093D01*
Y96717D01*
X191436Y98029D02*
Y100653D01*
X190780D01*
X188156Y98029D01*
X187500D01*
X193996Y90059D02*
X197932D01*
Y92027D01*
X197276Y92683D01*
X195964D01*
X195308Y92027D01*
Y90059D01*
Y91371D02*
X193996Y92683D01*
X197932Y96619D02*
Y93995D01*
X195964D01*
X196620Y95307D01*
Y95963D01*
X195964Y96619D01*
X194652D01*
X193996Y95963D01*
Y94651D01*
X194652Y93995D01*
X193996Y97931D02*
Y99242D01*
Y98586D01*
X197932D01*
X197276Y97931D01*
X141929Y95768D02*
Y99704D01*
X139961D01*
X139305Y99047D01*
Y97736D01*
X139961Y97080D01*
X141929D01*
X140617D02*
X139305Y95768D01*
X135370Y99704D02*
X137993D01*
Y97736D01*
X136681Y98391D01*
X136026D01*
X135370Y97736D01*
Y96424D01*
X136026Y95768D01*
X137337D01*
X137993Y96424D01*
X132090Y95768D02*
Y99704D01*
X134058Y97736D01*
X131434D01*
X177953Y377362D02*
Y380904D01*
X176182D01*
X175591Y380314D01*
Y379133D01*
X176182Y378543D01*
X177953D01*
X176772D02*
X175591Y377362D01*
X174411D02*
X173230D01*
X173820D01*
Y380904D01*
X174411Y380314D01*
X169097Y380904D02*
X171459D01*
Y379133D01*
X170278Y379724D01*
X169688D01*
X169097Y379133D01*
Y377953D01*
X169688Y377362D01*
X170868D01*
X171459Y377953D01*
X586516Y366043D02*
Y369979D01*
X584548D01*
X583892Y369323D01*
Y368011D01*
X584548Y367355D01*
X586516D01*
X585204D02*
X583892Y366043D01*
X582580Y369979D02*
X579956D01*
Y369323D01*
X582580Y366699D01*
Y366043D01*
X576020Y369979D02*
X578644D01*
Y368011D01*
X577332Y368667D01*
X576676D01*
X576020Y368011D01*
Y366699D01*
X576676Y366043D01*
X577988D01*
X578644Y366699D01*
X600689Y310236D02*
X604231D01*
Y312007D01*
X603641Y312598D01*
X602460D01*
X601870Y312007D01*
Y310236D01*
Y311417D02*
X600689Y312598D01*
X604231Y313778D02*
Y316140D01*
X603641D01*
X601279Y313778D01*
X600689D01*
X604231Y319682D02*
X603641Y318501D01*
X602460Y317320D01*
X601279D01*
X600689Y317911D01*
Y319092D01*
X601279Y319682D01*
X601870D01*
X602460Y319092D01*
Y317320D01*
X732479Y69194D02*
Y73129D01*
X730511D01*
X729855Y72473D01*
Y71161D01*
X730511Y70505D01*
X732479D01*
X731167D02*
X729855Y69194D01*
X728543Y73129D02*
X725919D01*
Y72473D01*
X728543Y69849D01*
Y69194D01*
X724607Y73129D02*
X721983D01*
Y72473D01*
X724607Y69849D01*
Y69194D01*
X732577Y75296D02*
Y79232D01*
X730609D01*
X729953Y78576D01*
Y77264D01*
X730609Y76608D01*
X732577D01*
X731265D02*
X729953Y75296D01*
X728642Y79232D02*
X726018D01*
Y78576D01*
X728642Y75952D01*
Y75296D01*
X724706Y78576D02*
X724050Y79232D01*
X722738D01*
X722082Y78576D01*
Y77920D01*
X722738Y77264D01*
X722082Y76608D01*
Y75952D01*
X722738Y75296D01*
X724050D01*
X724706Y75952D01*
Y76608D01*
X724050Y77264D01*
X724706Y77920D01*
Y78576D01*
X724050Y77264D02*
X722738D01*
X641929Y393996D02*
Y397932D01*
X639961D01*
X639305Y397276D01*
Y395964D01*
X639961Y395308D01*
X641929D01*
X640617D02*
X639305Y393996D01*
X637993Y397932D02*
X635370D01*
Y397276D01*
X637993Y394652D01*
Y393996D01*
X634058Y394652D02*
X633402Y393996D01*
X632090D01*
X631434Y394652D01*
Y397276D01*
X632090Y397932D01*
X633402D01*
X634058Y397276D01*
Y396620D01*
X633402Y395964D01*
X631434D01*
X529921Y218406D02*
Y222341D01*
X527953D01*
X527297Y221685D01*
Y220373D01*
X527953Y219717D01*
X529921D01*
X528609D02*
X527297Y218406D01*
X525985Y221685D02*
X525330Y222341D01*
X524018D01*
X523362Y221685D01*
Y221029D01*
X524018Y220373D01*
X523362Y219717D01*
Y219061D01*
X524018Y218406D01*
X525330D01*
X525985Y219061D01*
Y219717D01*
X525330Y220373D01*
X525985Y221029D01*
Y221685D01*
X525330Y220373D02*
X524018D01*
X522050Y221685D02*
X521394Y222341D01*
X520082D01*
X519426Y221685D01*
Y219061D01*
X520082Y218406D01*
X521394D01*
X522050Y219061D01*
Y221685D01*
X649213Y376181D02*
X652755D01*
Y377952D01*
X652164Y378542D01*
X650984D01*
X650393Y377952D01*
Y376181D01*
Y377362D02*
X649213Y378542D01*
X652164Y379723D02*
X652755Y380314D01*
Y381494D01*
X652164Y382085D01*
X651574D01*
X650984Y381494D01*
X650393Y382085D01*
X649803D01*
X649213Y381494D01*
Y380314D01*
X649803Y379723D01*
X650393D01*
X650984Y380314D01*
X651574Y379723D01*
X652164D01*
X650984Y380314D02*
Y381494D01*
X649213Y383265D02*
Y384446D01*
Y383856D01*
X652755D01*
X652164Y383265D01*
X586516Y372244D02*
Y376180D01*
X584548D01*
X583892Y375524D01*
Y374212D01*
X584548Y373556D01*
X586516D01*
X585204D02*
X583892Y372244D01*
X582580Y375524D02*
X581924Y376180D01*
X580612D01*
X579956Y375524D01*
Y374868D01*
X580612Y374212D01*
X579956Y373556D01*
Y372900D01*
X580612Y372244D01*
X581924D01*
X582580Y372900D01*
Y373556D01*
X581924Y374212D01*
X582580Y374868D01*
Y375524D01*
X581924Y374212D02*
X580612D01*
X576020Y372244D02*
X578644D01*
X576020Y374868D01*
Y375524D01*
X576676Y376180D01*
X577988D01*
X578644Y375524D01*
X586516Y339862D02*
Y343798D01*
X584548D01*
X583892Y343142D01*
Y341830D01*
X584548Y341174D01*
X586516D01*
X585204D02*
X583892Y339862D01*
X582580Y343142D02*
X581924Y343798D01*
X580612D01*
X579956Y343142D01*
Y342486D01*
X580612Y341830D01*
X579956Y341174D01*
Y340518D01*
X580612Y339862D01*
X581924D01*
X582580Y340518D01*
Y341174D01*
X581924Y341830D01*
X582580Y342486D01*
Y343142D01*
X581924Y341830D02*
X580612D01*
X578644Y343142D02*
X577988Y343798D01*
X576676D01*
X576020Y343142D01*
Y342486D01*
X576676Y341830D01*
X577332D01*
X576676D01*
X576020Y341174D01*
Y340518D01*
X576676Y339862D01*
X577988D01*
X578644Y340518D01*
X674933Y415207D02*
X678869D01*
Y417175D01*
X678213Y417831D01*
X676901D01*
X676245Y417175D01*
Y415207D01*
Y416519D02*
X674933Y417831D01*
X678213Y419143D02*
X678869Y419799D01*
Y421111D01*
X678213Y421767D01*
X677557D01*
X676901Y421111D01*
X676245Y421767D01*
X675589D01*
X674933Y421111D01*
Y419799D01*
X675589Y419143D01*
X676245D01*
X676901Y419799D01*
X677557Y419143D01*
X678213D01*
X676901Y419799D02*
Y421111D01*
X674933Y425046D02*
X678869D01*
X676901Y423078D01*
Y425702D01*
X641929Y400295D02*
Y404231D01*
X639961D01*
X639305Y403575D01*
Y402263D01*
X639961Y401607D01*
X641929D01*
X640617D02*
X639305Y400295D01*
X637993Y403575D02*
X637337Y404231D01*
X636025D01*
X635370Y403575D01*
Y402919D01*
X636025Y402263D01*
X635370Y401607D01*
Y400951D01*
X636025Y400295D01*
X637337D01*
X637993Y400951D01*
Y401607D01*
X637337Y402263D01*
X637993Y402919D01*
Y403575D01*
X637337Y402263D02*
X636025D01*
X631434Y404231D02*
X634058D01*
Y402263D01*
X632746Y402919D01*
X632090D01*
X631434Y402263D01*
Y400951D01*
X632090Y400295D01*
X633402D01*
X634058Y400951D01*
X659816Y270997D02*
X663752D01*
Y272965D01*
X663096Y273621D01*
X661784D01*
X661128Y272965D01*
Y270997D01*
Y272309D02*
X659816Y273621D01*
X660472Y274933D02*
X659816Y275589D01*
Y276901D01*
X660472Y277557D01*
X663096D01*
X663752Y276901D01*
Y275589D01*
X663096Y274933D01*
X662440D01*
X661784Y275589D01*
Y277557D01*
X663096Y278869D02*
X663752Y279524D01*
Y280836D01*
X663096Y281492D01*
X662440D01*
X661784Y280836D01*
Y280180D01*
Y280836D01*
X661128Y281492D01*
X660472D01*
X659816Y280836D01*
Y279524D01*
X660472Y278869D01*
X529921Y212205D02*
Y216141D01*
X527953D01*
X527297Y215484D01*
Y214173D01*
X527953Y213517D01*
X529921D01*
X528609D02*
X527297Y212205D01*
X525985Y212861D02*
X525330Y212205D01*
X524018D01*
X523362Y212861D01*
Y215484D01*
X524018Y216141D01*
X525330D01*
X525985Y215484D01*
Y214828D01*
X525330Y214173D01*
X523362D01*
X520082Y212205D02*
Y216141D01*
X522050Y214173D01*
X519426D01*
X529921Y206004D02*
Y209940D01*
X527953D01*
X527297Y209284D01*
Y207972D01*
X527953Y207316D01*
X529921D01*
X528609D02*
X527297Y206004D01*
X525985Y206660D02*
X525330Y206004D01*
X524018D01*
X523362Y206660D01*
Y209284D01*
X524018Y209940D01*
X525330D01*
X525985Y209284D01*
Y208628D01*
X525330Y207972D01*
X523362D01*
X519426Y209940D02*
X522050D01*
Y207972D01*
X520738Y208628D01*
X520082D01*
X519426Y207972D01*
Y206660D01*
X520082Y206004D01*
X521394D01*
X522050Y206660D01*
X136091Y328571D02*
X133729D01*
X134910D01*
Y325029D01*
X132549D02*
X131368D01*
X131958D01*
Y328571D01*
X132549Y327980D01*
X216989Y7381D02*
Y4757D01*
X215678Y3445D01*
X214366Y4757D01*
Y7381D01*
X213054D02*
Y3445D01*
X211086D01*
X210430Y4101D01*
Y6725D01*
X211086Y7381D01*
X213054D01*
X209118Y3445D02*
X207806D01*
X208462D01*
Y7381D01*
X209118Y6725D01*
X691614Y277381D02*
X688991D01*
X687679Y278693D01*
X688991Y280005D01*
X691614D01*
Y281317D02*
X687679D01*
Y283285D01*
X688335Y283941D01*
X690959D01*
X691614Y283285D01*
Y281317D01*
X690959Y285252D02*
X691614Y285909D01*
Y287220D01*
X690959Y287876D01*
X690303D01*
X689647Y287220D01*
Y286564D01*
Y287220D01*
X688991Y287876D01*
X688335D01*
X687679Y287220D01*
Y285909D01*
X688335Y285252D01*
X624871Y374063D02*
X622247D01*
Y373407D01*
X624871Y370783D01*
Y370127D01*
X622247D01*
X620935D02*
X619623D01*
X620279D01*
Y374063D01*
X620935Y373407D01*
X572341Y153838D02*
Y150558D01*
X571685Y149902D01*
X570373D01*
X569717Y150558D01*
Y153838D01*
X568405Y149902D02*
X567093D01*
X567749D01*
Y153838D01*
X568405Y153182D01*
X565126Y153838D02*
X562502D01*
Y153182D01*
X565126Y150558D01*
Y149902D01*
X669093Y421259D02*
Y417979D01*
X668437Y417323D01*
X667125D01*
X666469Y417979D01*
Y421259D01*
X662534Y417323D02*
X665157D01*
X662534Y419947D01*
Y420603D01*
X663189Y421259D01*
X664501D01*
X665157Y420603D01*
X661222D02*
X660566Y421259D01*
X659254D01*
X658598Y420603D01*
Y419947D01*
X659254Y419291D01*
X659910D01*
X659254D01*
X658598Y418635D01*
Y417979D01*
X659254Y417323D01*
X660566D01*
X661222Y417979D01*
X178544Y139172D02*
X179134Y139763D01*
X180315D01*
X180905Y139172D01*
Y136811D01*
X180315Y136221D01*
X179134D01*
X178544Y136811D01*
X177363Y139763D02*
X175002D01*
Y139172D01*
X177363Y136811D01*
Y136221D01*
X173821Y139172D02*
X173231Y139763D01*
X172050D01*
X171460Y139172D01*
Y138582D01*
X172050Y137992D01*
X172641D01*
X172050D01*
X171460Y137401D01*
Y136811D01*
X172050Y136221D01*
X173231D01*
X173821Y136811D01*
X195448Y240186D02*
X196376D01*
X197304Y239258D01*
Y238330D01*
X195448Y236475D01*
X194521D01*
X193593Y237403D01*
Y238330D01*
X194984Y241577D02*
X193129Y243432D01*
X192665Y242969D01*
Y239258D01*
X192201Y238794D01*
X189882Y242041D02*
X188955D01*
X188027Y242969D01*
X188027Y243896D01*
X189882Y245752D01*
X190810Y245752D01*
X191738Y244824D01*
Y243896D01*
X191274Y243432D01*
X190346D01*
X188955Y244824D01*
X174933Y282742D02*
X175589Y282086D01*
Y280774D01*
X174933Y280118D01*
X172310D01*
X171653Y280774D01*
Y282086D01*
X172310Y282742D01*
X175589Y286678D02*
Y284054D01*
X173621D01*
X174277Y285366D01*
Y286022D01*
X173621Y286678D01*
X172310D01*
X171653Y286022D01*
Y284710D01*
X172310Y284054D01*
X171653Y287990D02*
Y289301D01*
Y288646D01*
X175589D01*
X174933Y287990D01*
X143831Y282250D02*
X144487Y281594D01*
Y280282D01*
X143831Y279626D01*
X141207D01*
X140551Y280282D01*
Y281594D01*
X141207Y282250D01*
X144487Y286186D02*
Y283562D01*
X142519D01*
X143175Y284874D01*
Y285530D01*
X142519Y286186D01*
X141207D01*
X140551Y285530D01*
Y284218D01*
X141207Y283562D01*
X140551Y290121D02*
Y287497D01*
X143175Y290121D01*
X143831D01*
X144487Y289465D01*
Y288153D01*
X143831Y287497D01*
X150229Y282250D02*
X150885Y281594D01*
Y280282D01*
X150229Y279626D01*
X147605D01*
X146949Y280282D01*
Y281594D01*
X147605Y282250D01*
X150885Y286186D02*
Y283562D01*
X148917D01*
X149573Y284874D01*
Y285530D01*
X148917Y286186D01*
X147605D01*
X146949Y285530D01*
Y284218D01*
X147605Y283562D01*
X150229Y287497D02*
X150885Y288153D01*
Y289465D01*
X150229Y290121D01*
X149573D01*
X148917Y289465D01*
Y288809D01*
Y289465D01*
X148261Y290121D01*
X147605D01*
X146949Y289465D01*
Y288153D01*
X147605Y287497D01*
X387534Y332611D02*
X388190Y333266D01*
X389502D01*
X390158Y332611D01*
Y329987D01*
X389502Y329331D01*
X388190D01*
X387534Y329987D01*
X383598Y333266D02*
X386222D01*
Y331299D01*
X384910Y331955D01*
X384254D01*
X383598Y331299D01*
Y329987D01*
X384254Y329331D01*
X385566D01*
X386222Y329987D01*
X380318Y329331D02*
Y333266D01*
X382286Y331299D01*
X379662D01*
X397649Y413081D02*
X398305Y412425D01*
Y411113D01*
X397649Y410457D01*
X395026D01*
X394370Y411113D01*
Y412425D01*
X395026Y413081D01*
X398305Y417017D02*
Y414393D01*
X396338D01*
X396993Y415705D01*
Y416361D01*
X396338Y417017D01*
X395026D01*
X394370Y416361D01*
Y415049D01*
X395026Y414393D01*
X398305Y418329D02*
Y420953D01*
X397649D01*
X395026Y418329D01*
X394370D01*
X415024Y332618D02*
X415680Y333274D01*
X416991D01*
X417647Y332618D01*
Y329994D01*
X416991Y329338D01*
X415680D01*
X415024Y329994D01*
X411088Y333274D02*
X413712D01*
Y331306D01*
X412400Y331962D01*
X411744D01*
X411088Y331306D01*
Y329994D01*
X411744Y329338D01*
X413056D01*
X413712Y329994D01*
X409776D02*
X409120Y329338D01*
X407808D01*
X407152Y329994D01*
Y332618D01*
X407808Y333274D01*
X409120D01*
X409776Y332618D01*
Y331962D01*
X409120Y331306D01*
X407152D01*
X391666Y398687D02*
X392322Y398031D01*
Y396719D01*
X391666Y396063D01*
X389042D01*
X388386Y396719D01*
Y398031D01*
X389042Y398687D01*
X392322Y402623D02*
Y399999D01*
X390354D01*
X391010Y401311D01*
Y401967D01*
X390354Y402623D01*
X389042D01*
X388386Y401967D01*
Y400655D01*
X389042Y399999D01*
X391666Y403934D02*
X392322Y404590D01*
Y405902D01*
X391666Y406558D01*
X391010D01*
X390354Y405902D01*
X389698Y406558D01*
X389042D01*
X388386Y405902D01*
Y404590D01*
X389042Y403934D01*
X389698D01*
X390354Y404590D01*
X391010Y403934D01*
X391666D01*
X390354Y404590D02*
Y405902D01*
X150393Y315550D02*
X150983Y314960D01*
Y313779D01*
X150393Y313189D01*
X148031D01*
X147441Y313779D01*
Y314960D01*
X148031Y315550D01*
X147441Y316731D02*
Y317912D01*
Y317321D01*
X150983D01*
X150393Y316731D01*
Y319683D02*
X150983Y320273D01*
Y321454D01*
X150393Y322044D01*
X149802D01*
X149212Y321454D01*
Y320864D01*
Y321454D01*
X148622Y322044D01*
X148031D01*
X147441Y321454D01*
Y320273D01*
X148031Y319683D01*
X155544Y366207D02*
X156200Y365551D01*
Y364239D01*
X155544Y363583D01*
X152920D01*
X152264Y364239D01*
Y365551D01*
X152920Y366207D01*
X152264Y367518D02*
Y368830D01*
Y368174D01*
X156200D01*
X155544Y367518D01*
X152264Y372766D02*
X156200D01*
X154232Y370798D01*
Y373422D01*
X158877Y105362D02*
Y102738D01*
X156909D01*
Y104050D01*
Y102738D01*
X154941D01*
X158877Y106674D02*
X154941D01*
Y108642D01*
X155597Y109298D01*
X156253D01*
X156909Y108642D01*
Y106674D01*
Y108642D01*
X157565Y109298D01*
X158221D01*
X158877Y108642D01*
Y106674D01*
X154941Y112577D02*
X158877D01*
X156909Y110609D01*
Y113233D01*
X138286Y282250D02*
Y279626D01*
X136318D01*
Y280938D01*
Y279626D01*
X134350D01*
X138286Y283562D02*
X134350D01*
Y285530D01*
X135006Y286186D01*
X135662D01*
X136318Y285530D01*
Y283562D01*
Y285530D01*
X136974Y286186D01*
X137630D01*
X138286Y285530D01*
Y283562D01*
X137630Y287497D02*
X138286Y288153D01*
Y289465D01*
X137630Y290121D01*
X136974D01*
X136318Y289465D01*
Y288809D01*
Y289465D01*
X135662Y290121D01*
X135006D01*
X134350Y289465D01*
Y288153D01*
X135006Y287497D01*
X221408Y228210D02*
X218625Y225427D01*
X216769Y227283D01*
X214450Y229602D02*
X217233Y232385D01*
Y229602D01*
X215378Y231457D01*
X192835Y209266D02*
X190052Y206483D01*
X188197Y208338D01*
Y213905D02*
X190052Y212049D01*
X188661Y210658D01*
X188197Y212049D01*
X187733Y212513D01*
X186805D01*
X185878Y211585D01*
Y210658D01*
X186805Y209730D01*
X187733D01*
X164083Y228140D02*
X161300Y225357D01*
X159444Y227212D01*
Y232778D02*
X159908Y231387D01*
Y229531D01*
X158981Y228604D01*
X158053D01*
X157125Y229531D01*
Y230459D01*
X157589Y230923D01*
X158517Y230923D01*
X159908Y229531D01*
X610308Y25159D02*
Y29095D01*
X608340D01*
X607684Y28439D01*
Y27127D01*
X608340Y26471D01*
X610308D01*
X608996D02*
X607684Y25159D01*
X606372Y25815D02*
X605716Y25159D01*
X604404D01*
X603749Y25815D01*
Y28439D01*
X604404Y29095D01*
X605716D01*
X606372Y28439D01*
Y27783D01*
X605716Y27127D01*
X603749D01*
X602437Y28439D02*
X601781Y29095D01*
X600469D01*
X599813Y28439D01*
Y25815D01*
X600469Y25159D01*
X601781D01*
X602437Y25815D01*
Y28439D01*
X609736Y32189D02*
Y36125D01*
X607768D01*
X607112Y35469D01*
Y34157D01*
X607768Y33501D01*
X609736D01*
X608424D02*
X607112Y32189D01*
X605800Y32845D02*
X605144Y32189D01*
X603832D01*
X603176Y32845D01*
Y35469D01*
X603832Y36125D01*
X605144D01*
X605800Y35469D01*
Y34813D01*
X605144Y34157D01*
X603176D01*
X601864Y32189D02*
X600553D01*
X601208D01*
Y36125D01*
X601864Y35469D01*
X214567Y287008D02*
Y290944D01*
X212599D01*
X211943Y290288D01*
Y288976D01*
X212599Y288320D01*
X214567D01*
X213255D02*
X211943Y287008D01*
X210631Y287664D02*
X209975Y287008D01*
X208663D01*
X208007Y287664D01*
Y290288D01*
X208663Y290944D01*
X209975D01*
X210631Y290288D01*
Y289632D01*
X209975Y288976D01*
X208007D01*
X273535Y159931D02*
Y163473D01*
X271764D01*
X271174Y162883D01*
Y161702D01*
X271764Y161112D01*
X273535D01*
X272355D02*
X271174Y159931D01*
X268222D02*
Y163473D01*
X269993Y161702D01*
X267632D01*
X266451Y162883D02*
X265861Y163473D01*
X264680D01*
X264090Y162883D01*
Y162293D01*
X264680Y161702D01*
X264090Y161112D01*
Y160521D01*
X264680Y159931D01*
X265861D01*
X266451Y160521D01*
Y161112D01*
X265861Y161702D01*
X266451Y162293D01*
Y162883D01*
X265861Y161702D02*
X264680D01*
X361516Y374606D02*
X365452D01*
Y376574D01*
X364795Y377230D01*
X363484D01*
X362828Y376574D01*
Y374606D01*
Y375918D02*
X361516Y377230D01*
Y381166D02*
Y378542D01*
X364140Y381166D01*
X364795D01*
X365452Y380510D01*
Y379198D01*
X364795Y378542D01*
X361516Y385102D02*
Y382478D01*
X364140Y385102D01*
X364795D01*
X365452Y384446D01*
Y383134D01*
X364795Y382478D01*
X377875Y416677D02*
X381811D01*
Y418645D01*
X381155Y419301D01*
X379843D01*
X379187Y418645D01*
Y416677D01*
Y417989D02*
X377875Y419301D01*
Y423237D02*
Y420613D01*
X380499Y423237D01*
X381155D01*
X381811Y422581D01*
Y421269D01*
X381155Y420613D01*
Y424549D02*
X381811Y425205D01*
Y426517D01*
X381155Y427173D01*
X380499D01*
X379843Y426517D01*
Y425861D01*
Y426517D01*
X379187Y427173D01*
X378531D01*
X377875Y426517D01*
Y425205D01*
X378531Y424549D01*
X377362Y375000D02*
X381298D01*
Y376968D01*
X380642Y377624D01*
X379330D01*
X378674Y376968D01*
Y375000D01*
Y376312D02*
X377362Y377624D01*
Y381560D02*
Y378936D01*
X379986Y381560D01*
X380642D01*
X381298Y380904D01*
Y379592D01*
X380642Y378936D01*
X377362Y384839D02*
X381298D01*
X379330Y382872D01*
Y385495D01*
X187524Y188643D02*
X184900D01*
X186212D01*
Y184707D01*
X180965D02*
X183588D01*
X180965Y187331D01*
Y187987D01*
X181621Y188643D01*
X182932D01*
X183588Y187987D01*
X528926Y112339D02*
X529582Y112995D01*
X530894D01*
X531550Y112339D01*
Y109715D01*
X530894Y109059D01*
X529582D01*
X528926Y109715D01*
X527614D02*
X526958Y109059D01*
X525646D01*
X524991Y109715D01*
Y112339D01*
X525646Y112995D01*
X526958D01*
X527614Y112339D01*
Y111683D01*
X526958Y111027D01*
X524991D01*
X523679Y109715D02*
X523023Y109059D01*
X521711D01*
X521055Y109715D01*
Y112339D01*
X521711Y112995D01*
X523023D01*
X523679Y112339D01*
Y111683D01*
X523023Y111027D01*
X521055D01*
X528926Y118638D02*
X529582Y119294D01*
X530894D01*
X531550Y118638D01*
Y116014D01*
X530894Y115358D01*
X529582D01*
X528926Y116014D01*
X527614Y115358D02*
X526302D01*
X526958D01*
Y119294D01*
X527614Y118638D01*
X524335D02*
X523679Y119294D01*
X522367D01*
X521711Y118638D01*
Y116014D01*
X522367Y115358D01*
X523679D01*
X524335Y116014D01*
Y118638D01*
X520399D02*
X519743Y119294D01*
X518431D01*
X517775Y118638D01*
Y116014D01*
X518431Y115358D01*
X519743D01*
X520399Y116014D01*
Y118638D01*
X528924Y150922D02*
X529580Y151578D01*
X530892D01*
X531548Y150922D01*
Y148298D01*
X530892Y147642D01*
X529580D01*
X528924Y148298D01*
X527612Y147642D02*
X526300D01*
X526956D01*
Y151578D01*
X527612Y150922D01*
X524333D02*
X523677Y151578D01*
X522365D01*
X521709Y150922D01*
Y148298D01*
X522365Y147642D01*
X523677D01*
X524333Y148298D01*
Y150922D01*
X520397Y147642D02*
X519085D01*
X519741D01*
Y151578D01*
X520397Y150922D01*
X528924Y144721D02*
X529580Y145377D01*
X530892D01*
X531548Y144721D01*
Y142097D01*
X530892Y141442D01*
X529580D01*
X528924Y142097D01*
X527612Y141442D02*
X526300D01*
X526956D01*
Y145377D01*
X527612Y144721D01*
X524333D02*
X523677Y145377D01*
X522365D01*
X521709Y144721D01*
Y142097D01*
X522365Y141442D01*
X523677D01*
X524333Y142097D01*
Y144721D01*
X517773Y141442D02*
X520397D01*
X517773Y144065D01*
Y144721D01*
X518429Y145377D01*
X519741D01*
X520397Y144721D01*
X528282Y157676D02*
X530905D01*
Y155708D01*
X529594D01*
X530905D01*
Y153740D01*
X526970Y157676D02*
Y153740D01*
X525002D01*
X524346Y154396D01*
Y155052D01*
X525002Y155708D01*
X526970D01*
X525002D01*
X524346Y156364D01*
Y157020D01*
X525002Y157676D01*
X526970D01*
X520410D02*
X521722Y157020D01*
X523034Y155708D01*
Y154396D01*
X522378Y153740D01*
X521066D01*
X520410Y154396D01*
Y155052D01*
X521066Y155708D01*
X523034D01*
X250394Y397243D02*
Y393963D01*
X249738Y393307D01*
X248426D01*
X247770Y393963D01*
Y397243D01*
X243834D02*
X245146Y396587D01*
X246458Y395275D01*
Y393963D01*
X245802Y393307D01*
X244490D01*
X243834Y393963D01*
Y394619D01*
X244490Y395275D01*
X246458D01*
X164118Y289182D02*
Y285903D01*
X163462Y285247D01*
X162151D01*
X161495Y285903D01*
Y289182D01*
X160183D02*
X157559D01*
Y288527D01*
X160183Y285903D01*
Y285247D01*
X635235Y249803D02*
X631955D01*
X631299Y250459D01*
Y251771D01*
X631955Y252427D01*
X635235D01*
X631299Y256363D02*
Y253739D01*
X633923Y256363D01*
X634579D01*
X635235Y255707D01*
Y254395D01*
X634579Y253739D01*
X635235Y260298D02*
Y257675D01*
X633267D01*
X633923Y258986D01*
Y259643D01*
X633267Y260298D01*
X631955D01*
X631299Y259643D01*
Y258331D01*
X631955Y257675D01*
X635235Y271161D02*
X631955D01*
X631299Y271817D01*
Y273129D01*
X631955Y273785D01*
X635235D01*
X631299Y277721D02*
Y275097D01*
X633923Y277721D01*
X634579D01*
X635235Y277065D01*
Y275753D01*
X634579Y275097D01*
X635235Y281657D02*
X634579Y280345D01*
X633267Y279033D01*
X631955D01*
X631299Y279689D01*
Y281001D01*
X631955Y281657D01*
X632611D01*
X633267Y281001D01*
Y279033D01*
X138072Y139875D02*
Y136595D01*
X137416Y135939D01*
X136104D01*
X135448Y136595D01*
Y139875D01*
X134136Y135939D02*
X132824D01*
X133480D01*
Y139875D01*
X134136Y139219D01*
X128233Y139875D02*
X130857D01*
Y137907D01*
X129545Y138563D01*
X128889D01*
X128233Y137907D01*
Y136595D01*
X128889Y135939D01*
X130201D01*
X130857Y136595D01*
X529875Y132090D02*
Y128810D01*
X529219Y128154D01*
X527907D01*
X527251Y128810D01*
Y132090D01*
X525940Y128154D02*
X524628D01*
X525284D01*
Y132090D01*
X525940Y131434D01*
X522660D02*
X522004Y132090D01*
X520692D01*
X520036Y131434D01*
Y130778D01*
X520692Y130122D01*
X520036Y129466D01*
Y128810D01*
X520692Y128154D01*
X522004D01*
X522660Y128810D01*
Y129466D01*
X522004Y130122D01*
X522660Y130778D01*
Y131434D01*
X522004Y130122D02*
X520692D01*
X143898Y416141D02*
Y415485D01*
X142586Y414173D01*
X141274Y415485D01*
Y416141D01*
X142586Y414173D02*
Y412205D01*
X139962D02*
X138650D01*
X139306D01*
Y416141D01*
X139962Y415485D01*
X190157Y36122D02*
Y40058D01*
X188190D01*
X187534Y39402D01*
Y38090D01*
X188190Y37434D01*
X190157D01*
X188846D02*
X187534Y36122D01*
X186222Y39402D02*
X185566Y40058D01*
X184254D01*
X183598Y39402D01*
Y38746D01*
X184254Y38090D01*
X184910D01*
X184254D01*
X183598Y37434D01*
Y36778D01*
X184254Y36122D01*
X185566D01*
X186222Y36778D01*
X179662Y36122D02*
X182286D01*
X179662Y38746D01*
Y39402D01*
X180318Y40058D01*
X181630D01*
X182286Y39402D01*
X152681Y348461D02*
Y345181D01*
X152025Y344525D01*
X150713D01*
X150057Y345181D01*
Y348461D01*
X146122Y344525D02*
X148746D01*
X146122Y347148D01*
Y347804D01*
X146778Y348461D01*
X148090D01*
X148746Y347804D01*
X405268Y310462D02*
Y307182D01*
X404612Y306526D01*
X403300D01*
X402644Y307182D01*
Y310462D01*
X399365Y306526D02*
Y310462D01*
X401332Y308494D01*
X398709D01*
X210664Y209973D02*
X211319Y210629D01*
X212631D01*
X213287Y209973D01*
Y207349D01*
X212631Y206693D01*
X211319D01*
X210664Y207349D01*
X209352Y210629D02*
X206728D01*
Y209973D01*
X209352Y207349D01*
Y206693D01*
X205416Y209973D02*
X204760Y210629D01*
X203448D01*
X202792Y209973D01*
Y209317D01*
X203448Y208661D01*
X202792Y208005D01*
Y207349D01*
X203448Y206693D01*
X204760D01*
X205416Y207349D01*
Y208005D01*
X204760Y208661D01*
X205416Y209317D01*
Y209973D01*
X204760Y208661D02*
X203448D01*
X164992Y193470D02*
X165648Y192814D01*
Y191502D01*
X164992Y190847D01*
X162369D01*
X161713Y191502D01*
Y192814D01*
X162369Y193470D01*
X164992Y194782D02*
X165648Y195438D01*
Y196750D01*
X164992Y197406D01*
X164336D01*
X163681Y196750D01*
X163024Y197406D01*
X162369D01*
X161713Y196750D01*
Y195438D01*
X162369Y194782D01*
X163024D01*
X163681Y195438D01*
X164336Y194782D01*
X164992D01*
X163681Y195438D02*
Y196750D01*
X161713Y198718D02*
Y200030D01*
Y199374D01*
X165648D01*
X164992Y198718D01*
X172883Y240020D02*
X173811D01*
X174739Y239093D01*
Y238165D01*
X172883Y236310D01*
X171956D01*
X171028Y237237D01*
Y238165D01*
X171956Y240948D02*
Y241876D01*
X171028Y242803D01*
X170100Y242803D01*
X169637Y242339D01*
Y241412D01*
X168709Y241412D01*
X168245Y240948D01*
Y240020D01*
X169173Y239093D01*
X170100D01*
X170564Y239557D01*
Y240484D01*
X171492Y240484D01*
X171956Y240948D01*
X170564Y240484D02*
X169637Y241412D01*
X169173Y243731D02*
Y244659D01*
X168245Y245586D01*
X167317Y245586D01*
X165462Y243731D01*
X165462Y242803D01*
X166390Y241876D01*
X167317D01*
X169173Y243731D01*
X613386Y271554D02*
Y268274D01*
X612730Y267618D01*
X611418D01*
X610762Y268274D01*
Y271554D01*
X606826Y267618D02*
X609450D01*
X606826Y270242D01*
Y270898D01*
X607482Y271554D01*
X608794D01*
X609450Y270898D01*
X603546Y267618D02*
Y271554D01*
X605514Y269586D01*
X602890D01*
X519102Y293529D02*
X519758Y294185D01*
X521070D01*
X521726Y293529D01*
Y292873D01*
X521070Y292217D01*
X519758D01*
X519102Y291561D01*
Y290905D01*
X519758Y290249D01*
X521070D01*
X521726Y290905D01*
X517790Y290249D02*
X516478D01*
X517134D01*
Y294185D01*
X517790Y293529D01*
X511887Y294185D02*
X514510D01*
Y292217D01*
X513198Y292873D01*
X512542D01*
X511887Y292217D01*
Y290905D01*
X512542Y290249D01*
X513854D01*
X514510Y290905D01*
X136746Y164664D02*
X139370D01*
Y162696D01*
X138058D01*
X139370D01*
Y160728D01*
X135434Y164664D02*
Y160728D01*
X133466D01*
X132810Y161384D01*
Y162040D01*
X133466Y162696D01*
X135434D01*
X133466D01*
X132810Y163352D01*
Y164008D01*
X133466Y164664D01*
X135434D01*
X128875D02*
X131499D01*
Y162696D01*
X130187Y163352D01*
X129531D01*
X128875Y162696D01*
Y161384D01*
X129531Y160728D01*
X130843D01*
X131499Y161384D01*
X232677Y376181D02*
X236613D01*
Y378149D01*
X235957Y378805D01*
X234645D01*
X233989Y378149D01*
Y376181D01*
Y377493D02*
X232677Y378805D01*
X235957Y380117D02*
X236613Y380773D01*
Y382085D01*
X235957Y382741D01*
X235301D01*
X234645Y382085D01*
X233989Y382741D01*
X233333D01*
X232677Y382085D01*
Y380773D01*
X233333Y380117D01*
X233989D01*
X234645Y380773D01*
X235301Y380117D01*
X235957D01*
X234645Y380773D02*
Y382085D01*
X273519Y166109D02*
Y169651D01*
X271748D01*
X271157Y169060D01*
Y167880D01*
X271748Y167289D01*
X273519D01*
X272338D02*
X271157Y166109D01*
X267615Y169651D02*
X269977D01*
Y167880D01*
X268796Y168470D01*
X268206D01*
X267615Y167880D01*
Y166699D01*
X268206Y166109D01*
X269386D01*
X269977Y166699D01*
X266435Y169060D02*
X265844Y169651D01*
X264663D01*
X264073Y169060D01*
Y166699D01*
X264663Y166109D01*
X265844D01*
X266435Y166699D01*
Y169060D01*
X160783Y76411D02*
X164718D01*
Y78379D01*
X164063Y79035D01*
X162751D01*
X162095Y78379D01*
Y76411D01*
Y77723D02*
X160783Y79035D01*
X164718Y82970D02*
Y80347D01*
X162751D01*
X163407Y81659D01*
Y82314D01*
X162751Y82970D01*
X161439D01*
X160783Y82314D01*
Y81003D01*
X161439Y80347D01*
X160783Y86906D02*
Y84282D01*
X163407Y86906D01*
X164063D01*
X164718Y86250D01*
Y84938D01*
X164063Y84282D01*
X166709Y76411D02*
X170645D01*
Y78379D01*
X169989Y79035D01*
X168677D01*
X168021Y78379D01*
Y76411D01*
Y77723D02*
X166709Y79035D01*
X170645Y82970D02*
Y80347D01*
X168677D01*
X169333Y81659D01*
Y82314D01*
X168677Y82970D01*
X167365D01*
X166709Y82314D01*
Y81003D01*
X167365Y80347D01*
X169989Y84282D02*
X170645Y84938D01*
Y86250D01*
X169989Y86906D01*
X169333D01*
X168677Y86250D01*
Y85594D01*
Y86250D01*
X168021Y86906D01*
X167365D01*
X166709Y86250D01*
Y84938D01*
X167365Y84282D01*
X370847Y430117D02*
Y426837D01*
X370191Y426181D01*
X368879D01*
X368223Y426837D01*
Y430117D01*
X366911Y429461D02*
X366255Y430117D01*
X364943D01*
X364287Y429461D01*
Y428805D01*
X364943Y428149D01*
X364287Y427493D01*
Y426837D01*
X364943Y426181D01*
X366255D01*
X366911Y426837D01*
Y427493D01*
X366255Y428149D01*
X366911Y428805D01*
Y429461D01*
X366255Y428149D02*
X364943D01*
X99919Y5334D02*
X97295Y1398D01*
Y5334D02*
X99919Y1398D01*
X95983D02*
X94671D01*
X95327D01*
Y5334D01*
X95983Y4678D01*
X92704D02*
X92048Y5334D01*
X90736D01*
X90080Y4678D01*
Y4022D01*
X90736Y3366D01*
X91392D01*
X90736D01*
X90080Y2710D01*
Y2054D01*
X90736Y1398D01*
X92048D01*
X92704Y2054D01*
X512794Y358070D02*
Y355446D01*
X511482Y354134D01*
X510170Y355446D01*
Y358070D01*
X508858D02*
Y354134D01*
X506890D01*
X506234Y354790D01*
Y357414D01*
X506890Y358070D01*
X508858D01*
X502298Y354134D02*
X504922D01*
X502298Y356758D01*
Y357414D01*
X502954Y358070D01*
X504266D01*
X504922Y357414D01*
X575769Y7025D02*
X576425Y7681D01*
X577737D01*
X578393Y7025D01*
Y4401D01*
X577737Y3745D01*
X576425D01*
X575769Y4401D01*
X571833Y7681D02*
X573145Y7025D01*
X574457Y5713D01*
Y4401D01*
X573801Y3745D01*
X572489D01*
X571833Y4401D01*
Y5057D01*
X572489Y5713D01*
X574457D01*
X570521Y7025D02*
X569865Y7681D01*
X568553D01*
X567898Y7025D01*
Y6369D01*
X568553Y5713D01*
X569209D01*
X568553D01*
X567898Y5057D01*
Y4401D01*
X568553Y3745D01*
X569865D01*
X570521Y4401D01*
X527920Y7072D02*
X528576Y7728D01*
X529888D01*
X530544Y7072D01*
Y4448D01*
X529888Y3792D01*
X528576D01*
X527920Y4448D01*
X523985Y7728D02*
X525297Y7072D01*
X526609Y5760D01*
Y4448D01*
X525952Y3792D01*
X524641D01*
X523985Y4448D01*
Y5104D01*
X524641Y5760D01*
X526609D01*
X520705Y3792D02*
Y7728D01*
X522673Y5760D01*
X520049D01*
X246882Y8726D02*
X247538Y8070D01*
Y6758D01*
X246882Y6102D01*
X244258D01*
X243602Y6758D01*
Y8070D01*
X244258Y8726D01*
X247538Y12662D02*
X246882Y11350D01*
X245570Y10038D01*
X244258D01*
X243602Y10694D01*
Y12006D01*
X244258Y12662D01*
X244914D01*
X245570Y12006D01*
Y10038D01*
X247538Y13974D02*
Y16598D01*
X246882D01*
X244258Y13974D01*
X243602D01*
X139861Y82284D02*
X136581D01*
X135925Y82939D01*
Y84251D01*
X136581Y84907D01*
X139861D01*
X135925Y86219D02*
Y87531D01*
Y86875D01*
X139861D01*
X139205Y86219D01*
X135925Y91467D02*
X139861D01*
X137893Y89499D01*
Y92123D01*
X75249Y231362D02*
X72625Y227426D01*
Y231362D02*
X75249Y227426D01*
X68690Y231362D02*
X71313D01*
Y229394D01*
X70001Y230050D01*
X69345D01*
X68690Y229394D01*
Y228082D01*
X69345Y227426D01*
X70657D01*
X71313Y228082D01*
X646357Y311220D02*
X646948Y310629D01*
Y309449D01*
X646357Y308858D01*
X643996D01*
X643405Y309449D01*
Y310629D01*
X643996Y311220D01*
X643405Y312400D02*
Y313581D01*
Y312991D01*
X646948D01*
X646357Y312400D01*
Y315352D02*
X646948Y315943D01*
Y317123D01*
X646357Y317714D01*
X645767D01*
X645177Y317123D01*
Y316533D01*
Y317123D01*
X644586Y317714D01*
X643996D01*
X643405Y317123D01*
Y315943D01*
X643996Y315352D01*
X646357Y318894D02*
X646948Y319485D01*
Y320666D01*
X646357Y321256D01*
X645767D01*
X645177Y320666D01*
Y320075D01*
Y320666D01*
X644586Y321256D01*
X643996D01*
X643405Y320666D01*
Y319485D01*
X643996Y318894D01*
X652460Y311220D02*
X653050Y310629D01*
Y309449D01*
X652460Y308858D01*
X650098D01*
X649508Y309449D01*
Y310629D01*
X650098Y311220D01*
X649508Y312400D02*
Y313581D01*
Y312991D01*
X653050D01*
X652460Y312400D01*
Y315352D02*
X653050Y315943D01*
Y317123D01*
X652460Y317714D01*
X651869D01*
X651279Y317123D01*
Y316533D01*
Y317123D01*
X650689Y317714D01*
X650098D01*
X649508Y317123D01*
Y315943D01*
X650098Y315352D01*
X649508Y320666D02*
X653050D01*
X651279Y318894D01*
Y321256D01*
X591141Y311220D02*
X591731Y310629D01*
Y309449D01*
X591141Y308858D01*
X588779D01*
X588189Y309449D01*
Y310629D01*
X588779Y311220D01*
X588189Y312400D02*
Y313581D01*
Y312991D01*
X591731D01*
X591141Y312400D01*
X588189Y317123D02*
X591731D01*
X589960Y315352D01*
Y317714D01*
X591141Y318894D02*
X591731Y319485D01*
Y320666D01*
X591141Y321256D01*
X588779D01*
X588189Y320666D01*
Y319485D01*
X588779Y318894D01*
X591141D01*
X585038Y311220D02*
X585629Y310629D01*
Y309449D01*
X585038Y308858D01*
X582677D01*
X582087Y309449D01*
Y310629D01*
X582677Y311220D01*
X582087Y312400D02*
Y313581D01*
Y312991D01*
X585629D01*
X585038Y312400D01*
Y315352D02*
X585629Y315943D01*
Y317123D01*
X585038Y317714D01*
X584448D01*
X583858Y317123D01*
Y316533D01*
Y317123D01*
X583267Y317714D01*
X582677D01*
X582087Y317123D01*
Y315943D01*
X582677Y315352D01*
Y318894D02*
X582087Y319485D01*
Y320666D01*
X582677Y321256D01*
X585038D01*
X585629Y320666D01*
Y319485D01*
X585038Y318894D01*
X584448D01*
X583858Y319485D01*
Y321256D01*
X597932Y311220D02*
Y308858D01*
X596161D01*
Y310039D01*
Y308858D01*
X594390D01*
X597932Y312400D02*
X594390D01*
Y314172D01*
X594980Y314762D01*
X595571D01*
X596161Y314172D01*
Y312400D01*
Y314172D01*
X596751Y314762D01*
X597342D01*
X597932Y314172D01*
Y312400D01*
X594390Y315943D02*
Y317123D01*
Y316533D01*
X597932D01*
X597342Y315943D01*
X594390Y321256D02*
Y318894D01*
X596751Y321256D01*
X597342D01*
X597932Y320666D01*
Y319485D01*
X597342Y318894D01*
X659251Y311712D02*
Y309350D01*
X657480D01*
Y310531D01*
Y309350D01*
X655709D01*
X659251Y312893D02*
X655709D01*
Y314664D01*
X656299Y315254D01*
X656889D01*
X657480Y314664D01*
Y312893D01*
Y314664D01*
X658070Y315254D01*
X658661D01*
X659251Y314664D01*
Y312893D01*
X655709Y316435D02*
Y317615D01*
Y317025D01*
X659251D01*
X658661Y316435D01*
X655709Y319387D02*
Y320567D01*
Y319977D01*
X659251D01*
X658661Y319387D01*
X690197Y305360D02*
X687573Y301425D01*
Y305360D02*
X690197Y301425D01*
X686261D02*
X684949D01*
X685605D01*
Y305360D01*
X686261Y304704D01*
X682981D02*
X682325Y305360D01*
X681013D01*
X680357Y304704D01*
Y302081D01*
X681013Y301425D01*
X682325D01*
X682981Y302081D01*
Y304704D01*
X582855Y305388D02*
X580232Y301452D01*
Y305388D02*
X582855Y301452D01*
X578920D02*
X577608D01*
X578264D01*
Y305388D01*
X578920Y304732D01*
X575640Y301452D02*
X574328D01*
X574984D01*
Y305388D01*
X575640Y304732D01*
X645382Y212799D02*
X646038Y213455D01*
X647350D01*
X648005Y212799D01*
Y210175D01*
X647350Y209520D01*
X646038D01*
X645382Y210175D01*
X644070Y209520D02*
X642758D01*
X643414D01*
Y213455D01*
X644070Y212799D01*
X638822Y209520D02*
Y213455D01*
X640790Y211487D01*
X638166D01*
X636854Y213455D02*
X634230D01*
Y212799D01*
X636854Y210175D01*
Y209520D01*
X713899Y235692D02*
X714555Y236348D01*
X715867D01*
X716523Y235692D01*
Y233068D01*
X715867Y232413D01*
X714555D01*
X713899Y233068D01*
X712587Y232413D02*
X711275D01*
X711931D01*
Y236348D01*
X712587Y235692D01*
X707340Y232413D02*
Y236348D01*
X709307Y234380D01*
X706684D01*
X705372Y235692D02*
X704716Y236348D01*
X703404D01*
X702748Y235692D01*
Y235036D01*
X703404Y234380D01*
X702748Y233724D01*
Y233068D01*
X703404Y232413D01*
X704716D01*
X705372Y233068D01*
Y233724D01*
X704716Y234380D01*
X705372Y235036D01*
Y235692D01*
X704716Y234380D02*
X703404D01*
X158201Y192781D02*
X158857Y192125D01*
Y190813D01*
X158201Y190157D01*
X155577D01*
X154921Y190813D01*
Y192125D01*
X155577Y192781D01*
X158857Y194093D02*
Y196717D01*
X158201D01*
X155577Y194093D01*
X154921D01*
X158857Y198029D02*
Y200653D01*
X158201D01*
X155577Y198029D01*
X154921D01*
X147081Y179855D02*
X147737Y180510D01*
X149049D01*
X149705Y179855D01*
Y177231D01*
X149049Y176575D01*
X147737D01*
X147081Y177231D01*
X145769Y179855D02*
X145113Y180510D01*
X143801D01*
X143145Y179855D01*
Y179199D01*
X143801Y178543D01*
X143145Y177887D01*
Y177231D01*
X143801Y176575D01*
X145113D01*
X145769Y177231D01*
Y177887D01*
X145113Y178543D01*
X145769Y179199D01*
Y179855D01*
X145113Y178543D02*
X143801D01*
X141833Y179855D02*
X141177Y180510D01*
X139865D01*
X139209Y179855D01*
Y179199D01*
X139865Y178543D01*
X140521D01*
X139865D01*
X139209Y177887D01*
Y177231D01*
X139865Y176575D01*
X141177D01*
X141833Y177231D01*
X147081Y186449D02*
X147737Y187105D01*
X149049D01*
X149705Y186449D01*
Y183825D01*
X149049Y183169D01*
X147737D01*
X147081Y183825D01*
X145769Y186449D02*
X145113Y187105D01*
X143801D01*
X143145Y186449D01*
Y185793D01*
X143801Y185137D01*
X143145Y184481D01*
Y183825D01*
X143801Y183169D01*
X145113D01*
X145769Y183825D01*
Y184481D01*
X145113Y185137D01*
X145769Y185793D01*
Y186449D01*
X145113Y185137D02*
X143801D01*
X139865Y183169D02*
Y187105D01*
X141833Y185137D01*
X139209D01*
X136711Y191732D02*
X132776D01*
Y194356D01*
X136711Y195668D02*
Y198292D01*
X136055D01*
X133431Y195668D01*
X132776D01*
X124311Y221358D02*
Y225294D01*
X122343D01*
X121687Y224638D01*
Y223326D01*
X122343Y222670D01*
X124311D01*
X122999D02*
X121687Y221358D01*
X118407D02*
Y225294D01*
X120375Y223326D01*
X117752D01*
X113816Y221358D02*
X116439D01*
X113816Y223982D01*
Y224638D01*
X114472Y225294D01*
X115784D01*
X116439Y224638D01*
X127362Y227756D02*
X131298D01*
Y229724D01*
X130642Y230380D01*
X129330D01*
X128674Y229724D01*
Y227756D01*
Y229068D02*
X127362Y230380D01*
Y233660D02*
X131298D01*
X129330Y231692D01*
Y234315D01*
X130642Y235627D02*
X131298Y236283D01*
Y237595D01*
X130642Y238251D01*
X129986D01*
X129330Y237595D01*
Y236939D01*
Y237595D01*
X128674Y238251D01*
X128018D01*
X127362Y237595D01*
Y236283D01*
X128018Y235627D01*
X107382Y221358D02*
X111318D01*
Y223326D01*
X110662Y223982D01*
X109350D01*
X108694Y223326D01*
Y221358D01*
Y222670D02*
X107382Y223982D01*
Y227262D02*
X111318D01*
X109350Y225294D01*
Y227918D01*
X107382Y231198D02*
X111318D01*
X109350Y229230D01*
Y231854D01*
X103205Y163574D02*
X107141D01*
Y165541D01*
X106484Y166197D01*
X105173D01*
X104517Y165541D01*
Y163574D01*
Y164885D02*
X103205Y166197D01*
Y169477D02*
X107141D01*
X105173Y167509D01*
Y170133D01*
X103861Y171445D02*
X103205Y172101D01*
Y173413D01*
X103861Y174069D01*
X106484D01*
X107141Y173413D01*
Y172101D01*
X106484Y171445D01*
X105829D01*
X105173Y172101D01*
Y174069D01*
X113419Y146971D02*
Y144348D01*
X112108Y143036D01*
X110796Y144348D01*
Y146971D01*
X109484D02*
X106860D01*
X108172D01*
Y143036D01*
X102924D02*
X105548D01*
X102924Y145660D01*
Y146316D01*
X103580Y146971D01*
X104892D01*
X105548Y146316D01*
X387161Y266147D02*
Y270082D01*
X385193D01*
X384537Y269427D01*
Y268115D01*
X385193Y267459D01*
X387161D01*
X385849D02*
X384537Y266147D01*
X383225D02*
X381913D01*
X382570D01*
Y270082D01*
X383225Y269427D01*
X362500Y266142D02*
Y270077D01*
X360532D01*
X359876Y269422D01*
Y268110D01*
X360532Y267454D01*
X362500D01*
X361188D02*
X359876Y266142D01*
X355940D02*
X358564D01*
X355940Y268765D01*
Y269422D01*
X356596Y270077D01*
X357908D01*
X358564Y269422D01*
X337402Y266043D02*
Y269979D01*
X335434D01*
X334778Y269323D01*
Y268011D01*
X335434Y267355D01*
X337402D01*
X336090D02*
X334778Y266043D01*
X331498D02*
Y269979D01*
X333466Y268011D01*
X330842D01*
X312402Y266142D02*
Y270077D01*
X310434D01*
X309778Y269422D01*
Y268110D01*
X310434Y267454D01*
X312402D01*
X311090D02*
X309778Y266142D01*
X305842Y270077D02*
X308466D01*
Y268110D01*
X307154Y268765D01*
X306498D01*
X305842Y268110D01*
Y266798D01*
X306498Y266142D01*
X307810D01*
X308466Y266798D01*
X271752Y203543D02*
Y207085D01*
X269981D01*
X269391Y206495D01*
Y205314D01*
X269981Y204724D01*
X271752D01*
X270571D02*
X269391Y203543D01*
X268210Y207085D02*
X265848D01*
Y206495D01*
X268210Y204134D01*
Y203543D01*
X745109Y411305D02*
X742485Y407370D01*
Y411305D02*
X745109Y407370D01*
X741173Y410649D02*
X740517Y411305D01*
X739205D01*
X738549Y410649D01*
Y409994D01*
X739205Y409338D01*
X738549Y408682D01*
Y408026D01*
X739205Y407370D01*
X740517D01*
X741173Y408026D01*
Y408682D01*
X740517Y409338D01*
X741173Y409994D01*
Y410649D01*
X740517Y409338D02*
X739205D01*
X125821Y180339D02*
Y177715D01*
X124509Y176403D01*
X123197Y177715D01*
Y180339D01*
X121885D02*
X119261D01*
X120573D01*
Y176403D01*
X117949D02*
X116638D01*
X117294D01*
Y180339D01*
X117949Y179683D01*
X212795Y377461D02*
Y381003D01*
X211024D01*
X210434Y380412D01*
Y379232D01*
X211024Y378641D01*
X212795D01*
X211615D02*
X210434Y377461D01*
X209253D02*
X208072D01*
X208663D01*
Y381003D01*
X209253Y380412D01*
X203940Y381003D02*
X205121Y380412D01*
X206301Y379232D01*
Y378051D01*
X205711Y377461D01*
X204530D01*
X203940Y378051D01*
Y378641D01*
X204530Y379232D01*
X206301D01*
X626114Y222801D02*
X626770Y222145D01*
Y220833D01*
X626114Y220177D01*
X623491D01*
X622835Y220833D01*
Y222145D01*
X623491Y222801D01*
X622835Y226081D02*
X626770D01*
X624802Y224113D01*
Y226737D01*
X622835Y230673D02*
Y228049D01*
X625458Y230673D01*
X626114D01*
X626770Y230016D01*
Y228705D01*
X626114Y228049D01*
X632757Y222703D02*
X633413Y222047D01*
Y220735D01*
X632757Y220079D01*
X630133D01*
X629477Y220735D01*
Y222047D01*
X630133Y222703D01*
X629477Y225982D02*
X633413D01*
X631445Y224014D01*
Y226638D01*
X632757Y227950D02*
X633413Y228606D01*
Y229918D01*
X632757Y230574D01*
X632101D01*
X631445Y229918D01*
Y229262D01*
Y229918D01*
X630789Y230574D01*
X630133D01*
X629477Y229918D01*
Y228606D01*
X630133Y227950D01*
X663319Y222506D02*
X663975Y221850D01*
Y220538D01*
X663319Y219882D01*
X660695D01*
X660039Y220538D01*
Y221850D01*
X660695Y222506D01*
X660039Y225785D02*
X663975D01*
X662007Y223818D01*
Y226441D01*
X660039Y229721D02*
X663975D01*
X662007Y227753D01*
Y230377D01*
X657315Y222506D02*
X657971Y221850D01*
Y220538D01*
X657315Y219882D01*
X654691D01*
X654035Y220538D01*
Y221850D01*
X654691Y222506D01*
X654035Y225785D02*
X657971D01*
X656003Y223818D01*
Y226441D01*
X657971Y230377D02*
Y227753D01*
X656003D01*
X656659Y229065D01*
Y229721D01*
X656003Y230377D01*
X654691D01*
X654035Y229721D01*
Y228409D01*
X654691Y227753D01*
X675589Y234809D02*
Y232185D01*
X673621D01*
Y233497D01*
Y232185D01*
X671654D01*
X675589Y236121D02*
X671654D01*
Y238089D01*
X672309Y238745D01*
X672965D01*
X673621Y238089D01*
Y236121D01*
Y238089D01*
X674277Y238745D01*
X674933D01*
X675589Y238089D01*
Y236121D01*
X671654Y240056D02*
Y241368D01*
Y240712D01*
X675589D01*
X674933Y240056D01*
X497047Y285433D02*
Y289369D01*
X495079D01*
X494423Y288713D01*
Y287401D01*
X495079Y286745D01*
X497047D01*
X495735D02*
X494423Y285433D01*
X490488Y289369D02*
X491800Y288713D01*
X493112Y287401D01*
Y286089D01*
X492455Y285433D01*
X491144D01*
X490488Y286089D01*
Y286745D01*
X491144Y287401D01*
X493112D01*
X489176Y288713D02*
X488520Y289369D01*
X487208D01*
X486552Y288713D01*
Y288057D01*
X487208Y287401D01*
X486552Y286745D01*
Y286089D01*
X487208Y285433D01*
X488520D01*
X489176Y286089D01*
Y286745D01*
X488520Y287401D01*
X489176Y288057D01*
Y288713D01*
X488520Y287401D02*
X487208D01*
X497047Y279134D02*
Y283070D01*
X495079D01*
X494423Y282414D01*
Y281102D01*
X495079Y280446D01*
X497047D01*
X495735D02*
X494423Y279134D01*
X490488Y283070D02*
X491800Y282414D01*
X493112Y281102D01*
Y279790D01*
X492455Y279134D01*
X491144D01*
X490488Y279790D01*
Y280446D01*
X491144Y281102D01*
X493112D01*
X489176Y279790D02*
X488520Y279134D01*
X487208D01*
X486552Y279790D01*
Y282414D01*
X487208Y283070D01*
X488520D01*
X489176Y282414D01*
Y281758D01*
X488520Y281102D01*
X486552D01*
X646890Y229265D02*
Y225985D01*
X646235Y225329D01*
X644923D01*
X644267Y225985D01*
Y229265D01*
X640331D02*
X642955D01*
Y227297D01*
X641643Y227953D01*
X640987D01*
X640331Y227297D01*
Y225985D01*
X640987Y225329D01*
X642299D01*
X642955Y225985D01*
D12*
X711752Y260000D02*
G03*
X711752Y260000I-394J0D01*
G01*
X152894Y200728D02*
G03*
X152894Y200728I-394J0D01*
G01*
X696339Y397638D02*
G03*
X696339Y397638I-394J0D01*
G01*
X84646Y4134D02*
G03*
X84646Y4134I-394J0D01*
G01*
X524476Y264886D02*
G03*
X524476Y264886I-394J0D01*
G01*
X617913Y388090D02*
G03*
X617913Y388090I-394J0D01*
G01*
X688189Y274311D02*
G03*
X688189Y274311I-394J0D01*
G01*
X145571Y331988D02*
G03*
X145571Y332776I0J394D01*
G01*
D02*
G03*
X145571Y331988I0J-394D01*
G01*
X558760Y58858D02*
G03*
X558760Y58858I-394J0D01*
G01*
X206693Y155413D02*
G03*
X206693Y155413I-394J0D01*
G01*
X445079Y397441D02*
G03*
X445079Y397441I-394J0D01*
G01*
X668504Y211614D02*
G03*
X668504Y211614I-394J0D01*
G01*
X718012Y119390D02*
G03*
X718012Y119390I-394J0D01*
G01*
X79135Y392717D02*
G03*
X79135Y392717I-394J0D01*
G01*
X191481Y174409D02*
G03*
X190693Y174409I-394J0D01*
G01*
D02*
G03*
X191481Y174409I394J0D01*
G01*
X79135Y295768D02*
G03*
X79135Y295768I-394J0D01*
G01*
X79089Y214630D02*
G03*
X79089Y214630I-394J0D01*
G01*
X393110Y288287D02*
G03*
X393110Y288287I-394J0D01*
G01*
X679528Y57382D02*
Y60925D01*
X748721D01*
Y2953D02*
Y60925D01*
X743209Y2953D02*
X748721D01*
X679528D02*
X743209D01*
X680217D02*
Y3051D01*
X679528Y2953D02*
Y57382D01*
X691339Y230610D02*
X695276D01*
X691339Y237697D02*
X695276D01*
X352165Y425197D02*
X360201D01*
Y383661D02*
Y425197D01*
X352362Y383661D02*
X360201D01*
X627362Y265059D02*
Y274114D01*
X615158Y265059D02*
Y274114D01*
X165157Y343799D02*
X166732D01*
Y342224D02*
Y343799D01*
X165157Y331201D02*
X166732D01*
Y332776D01*
X154134Y331201D02*
Y332776D01*
Y331201D02*
X155709D01*
X154134Y343799D02*
X155709D01*
X154134Y342224D02*
Y343799D01*
X246354Y406384D02*
Y410236D01*
Y399016D02*
Y402868D01*
Y406384D01*
Y399016D02*
X248854D01*
Y410236D01*
X246801D02*
X248854D01*
X246354D02*
X248671D01*
X692126Y265650D02*
X692815D01*
X692126Y272736D02*
X692835D01*
X687500Y265650D02*
X688189D01*
X687500Y272736D02*
X688189D01*
X687500Y265650D02*
Y272736D01*
X692815Y265650D02*
Y272736D01*
X517618Y316043D02*
Y343602D01*
X558957Y316043D02*
Y343602D01*
X559744Y57677D02*
Y59134D01*
Y57677D02*
X561201D01*
X559744Y72362D02*
Y73819D01*
X561201D01*
X575886Y72362D02*
Y73819D01*
X574429D02*
X575886D01*
Y57677D02*
Y59134D01*
X574429Y57677D02*
X575886D01*
X609547Y365158D02*
X611713D01*
X609547Y362992D02*
Y365158D01*
Y341535D02*
X611713D01*
X609547D02*
Y343701D01*
X631004Y341535D02*
X633169D01*
Y343701D01*
X631004Y365158D02*
X633169D01*
Y362992D02*
Y365158D01*
X187303Y117520D02*
Y118307D01*
Y117520D02*
X205020D01*
Y118307D01*
X187303Y155315D02*
Y156102D01*
X205020D01*
Y155315D02*
Y156102D01*
X494842Y16339D02*
X506988D01*
Y28484D01*
Y229784D02*
Y241929D01*
X494842D02*
X506988D01*
X281398D02*
X293543D01*
X281398Y229784D02*
Y241929D01*
Y16339D02*
X293543D01*
X281398D02*
Y28484D01*
X187008Y386024D02*
X194882D01*
X187008Y405709D02*
X194882D01*
X445378Y414370D02*
X477085D01*
X483071Y399410D02*
Y407197D01*
X480315Y399410D02*
X483071D01*
X439764D02*
X442520D01*
X439764D02*
Y407172D01*
X225590Y319783D02*
X227165D01*
X225590D02*
Y321358D01*
X259449Y319783D02*
X261024D01*
Y321358D01*
Y353642D02*
Y355217D01*
X259449D02*
X261024D01*
X225590Y353642D02*
Y355217D01*
X227165D01*
X67225Y393012D02*
X67225Y390846D01*
X67225Y398917D02*
X67225Y401083D01*
X77461Y398917D02*
X77461Y401083D01*
X77461Y393012D02*
X77461Y390846D01*
X209675Y19488D02*
X216561D01*
X209671Y31496D02*
X216557D01*
X642122Y242717D02*
X644439D01*
X642569D02*
X644622D01*
Y231496D02*
Y242717D01*
X642122Y231496D02*
X644622D01*
X642122Y235348D02*
Y238864D01*
Y231496D02*
Y235348D01*
Y238864D02*
Y242717D01*
X67225Y296063D02*
X67225Y293898D01*
X67225Y301969D02*
X67225Y304134D01*
X77461Y301969D02*
X77461Y304134D01*
X77461Y296063D02*
X77461Y293898D01*
X642122Y256974D02*
Y260827D01*
Y249606D02*
Y253459D01*
Y256974D01*
Y249606D02*
X644622D01*
Y260827D01*
X642569D02*
X644622D01*
X642122D02*
X644439D01*
X642122Y278037D02*
Y281890D01*
Y270669D02*
Y274522D01*
Y278037D01*
Y270669D02*
X644622D01*
Y281890D01*
X642569D02*
X644622D01*
X642122D02*
X644439D01*
X145083Y81004D02*
X151969D01*
X145079Y93012D02*
X151964D01*
X140354Y136512D02*
Y138829D01*
Y136959D02*
Y139012D01*
X151575D01*
Y136512D02*
Y139012D01*
X144207Y136512D02*
X147722D01*
X151575D01*
X140354D02*
X144207D01*
X302658Y256693D02*
Y262992D01*
X315846Y256693D02*
Y262992D01*
X162500Y291043D02*
Y294896D01*
Y298411D02*
Y302264D01*
Y294896D02*
Y298411D01*
X160000Y302264D02*
X162500D01*
X160000Y291043D02*
Y302264D01*
Y291043D02*
X162053D01*
X160183D02*
X162500D01*
X670768Y405024D02*
Y411909D01*
X658760Y405020D02*
Y411905D01*
X377658Y256693D02*
Y262992D01*
X390846Y256693D02*
Y262992D01*
X352658Y256693D02*
Y262992D01*
X365846Y256693D02*
Y262992D01*
X327658Y256693D02*
Y262992D01*
X340846Y256693D02*
Y262992D01*
X532633Y128839D02*
Y131156D01*
Y129285D02*
Y131339D01*
X543853Y131339D01*
Y128839D02*
Y131339D01*
X536485Y128839D02*
X540001D01*
X543853D01*
X532633D02*
X536485D01*
X67180Y214925D02*
X67180Y212760D01*
X67180Y220831D02*
X67180Y222996D01*
X77416Y220831D02*
X77416Y222996D01*
X77416Y214925D02*
X77416Y212760D01*
X408779Y287106D02*
X410236D01*
Y288563D01*
X408779Y303248D02*
X410236D01*
Y301791D02*
Y303248D01*
X394094D02*
X395551D01*
X394094Y301791D02*
Y303248D01*
Y287106D02*
X395551D01*
X394094D02*
Y288563D01*
D13*
X720157Y404528D02*
X754016D01*
Y355315D02*
Y404528D01*
X720157Y355315D02*
X754016D01*
X698898Y396260D02*
Y402756D01*
Y357087D02*
Y363583D01*
X76575Y24606D02*
X115551D01*
Y6890D02*
Y24606D01*
X76575Y6890D02*
Y24606D01*
Y6890D02*
X115551D01*
X240990Y17500D02*
Y33484D01*
X225006Y17500D02*
Y33484D01*
X238982Y17500D02*
X240990D01*
X225006D02*
X227013D01*
X238982Y33484D02*
X240990D01*
X225006D02*
X227013D01*
X670157Y157382D02*
Y220768D01*
X691339D01*
X706102D02*
X754016D01*
Y157382D02*
Y220768D01*
X670157Y157382D02*
X691339D01*
X706102D02*
X754016D01*
X731752Y123602D02*
X737421D01*
X731752Y88406D02*
X737421D01*
X748209D02*
X753051D01*
Y123602D01*
X748209D02*
X753051D01*
X236811Y184744D02*
Y188524D01*
X226378Y184744D02*
Y188524D01*
X172220Y224330D02*
X174893Y221658D01*
X164843Y216953D02*
X167516Y214280D01*
X214567Y184744D02*
Y188524D01*
X225000Y184744D02*
Y188524D01*
X209748Y216953D02*
X212421Y214280D01*
X217125Y224330D02*
X219798Y221658D01*
X187247Y216953D02*
X189920Y214280D01*
X194624Y224330D02*
X197297Y221658D01*
X475083Y378504D02*
Y382283D01*
X464650Y378504D02*
Y382283D01*
X438764Y378504D02*
Y382283D01*
X449197Y378504D02*
Y382283D01*
D51*
X501181Y349902D02*
G03*
X501181Y349902I-492J0D01*
G01*
X615650Y278150D02*
G03*
X615650Y278150I-492J0D01*
G01*
X506890Y13780D02*
G03*
X506890Y13780I-492J0D01*
G01*
X466929Y305020D02*
G03*
X466929Y305020I-492J0D01*
G01*
X201083Y406319D02*
G03*
X201083Y406319I-492J0D01*
G01*
X129232Y144193D02*
G03*
X129232Y144193I-492J0D01*
G01*
X117618Y161713D02*
G03*
X117618Y161713I-492J0D01*
G01*
D54*
X372372Y422319D02*
G03*
X372372Y422319I-787J0D01*
G01*
X559921Y311516D02*
G03*
X559921Y311516I-787J0D01*
G01*
D57*
X637539Y303543D02*
G03*
X637539Y303543I-394J0D01*
G01*
X585906D02*
G03*
X585906Y303543I-394J0D01*
G01*
D127*
X482480Y199705D02*
G03*
X482480Y199705I-1969J0D01*
G01*
X466732D02*
G03*
X466732Y199705I-1969J0D01*
G01*
X450984D02*
G03*
X450984Y199705I-1969J0D01*
G01*
X435236D02*
G03*
X435236Y199705I-1969J0D01*
G01*
X419488D02*
G03*
X419488Y199705I-1969J0D01*
G01*
X403740D02*
G03*
X403740Y199705I-1969J0D01*
G01*
X387992D02*
G03*
X387992Y199705I-1969J0D01*
G01*
X372244D02*
G03*
X372244Y199705I-1969J0D01*
G01*
X356496D02*
G03*
X356496Y199705I-1969J0D01*
G01*
X340748D02*
G03*
X340748Y199705I-1969J0D01*
G01*
X325000D02*
G03*
X325000Y199705I-1969J0D01*
G01*
X309252D02*
G03*
X309252Y199705I-1969J0D01*
G01*
X482480Y215453D02*
G03*
X482480Y215453I-1969J0D01*
G01*
X466732D02*
G03*
X466732Y215453I-1969J0D01*
G01*
X450984D02*
G03*
X450984Y215453I-1969J0D01*
G01*
X435236D02*
G03*
X435236Y215453I-1969J0D01*
G01*
X419488D02*
G03*
X419488Y215453I-1969J0D01*
G01*
Y183957D02*
G03*
X419488Y183957I-1969J0D01*
G01*
X435236D02*
G03*
X435236Y183957I-1969J0D01*
G01*
X450984D02*
G03*
X450984Y183957I-1969J0D01*
G01*
X466732D02*
G03*
X466732Y183957I-1969J0D01*
G01*
X419488Y168209D02*
G03*
X419488Y168209I-1969J0D01*
G01*
X435236D02*
G03*
X435236Y168209I-1969J0D01*
G01*
X450984D02*
G03*
X450984Y168209I-1969J0D01*
G01*
X466732D02*
G03*
X466732Y168209I-1969J0D01*
G01*
X309252Y215453D02*
G03*
X309252Y215453I-1969J0D01*
G01*
X403740D02*
G03*
X403740Y215453I-1969J0D01*
G01*
X387992D02*
G03*
X387992Y215453I-1969J0D01*
G01*
X372244D02*
G03*
X372244Y215453I-1969J0D01*
G01*
X356496D02*
G03*
X356496Y215453I-1969J0D01*
G01*
X340748D02*
G03*
X340748Y215453I-1969J0D01*
G01*
X325000D02*
G03*
X325000Y215453I-1969J0D01*
G01*
X309252Y183957D02*
G03*
X309252Y183957I-1969J0D01*
G01*
X325000D02*
G03*
X325000Y183957I-1969J0D01*
G01*
X340748D02*
G03*
X340748Y183957I-1969J0D01*
G01*
X356496D02*
G03*
X356496Y183957I-1969J0D01*
G01*
X372244D02*
G03*
X372244Y183957I-1969J0D01*
G01*
X387992D02*
G03*
X387992Y183957I-1969J0D01*
G01*
X403740D02*
G03*
X403740Y183957I-1969J0D01*
G01*
X309252Y168209D02*
G03*
X309252Y168209I-1969J0D01*
G01*
X325000D02*
G03*
X325000Y168209I-1969J0D01*
G01*
X340748D02*
G03*
X340748Y168209I-1969J0D01*
G01*
X356496D02*
G03*
X356496Y168209I-1969J0D01*
G01*
X309252Y152461D02*
G03*
X309252Y152461I-1969J0D01*
G01*
X325000D02*
G03*
X325000Y152461I-1969J0D01*
G01*
X340748D02*
G03*
X340748Y152461I-1969J0D01*
G01*
X356496D02*
G03*
X356496Y152461I-1969J0D01*
G01*
X309252Y136713D02*
G03*
X309252Y136713I-1969J0D01*
G01*
X325000D02*
G03*
X325000Y136713I-1969J0D01*
G01*
X340748D02*
G03*
X340748Y136713I-1969J0D01*
G01*
X356496D02*
G03*
X356496Y136713I-1969J0D01*
G01*
X466732Y152461D02*
G03*
X466732Y152461I-1969J0D01*
G01*
X419488D02*
G03*
X419488Y152461I-1969J0D01*
G01*
X435236D02*
G03*
X435236Y152461I-1969J0D01*
G01*
X450984D02*
G03*
X450984Y152461I-1969J0D01*
G01*
X372244Y168209D02*
G03*
X372244Y168209I-1969J0D01*
G01*
X387992D02*
G03*
X387992Y168209I-1969J0D01*
G01*
X403740D02*
G03*
X403740Y168209I-1969J0D01*
G01*
X372244Y152461D02*
G03*
X372244Y152461I-1969J0D01*
G01*
X387992D02*
G03*
X387992Y152461I-1969J0D01*
G01*
X403740D02*
G03*
X403740Y152461I-1969J0D01*
G01*
X372244Y136713D02*
G03*
X372244Y136713I-1969J0D01*
G01*
X387992D02*
G03*
X387992Y136713I-1969J0D01*
G01*
X403740D02*
G03*
X403740Y136713I-1969J0D01*
G01*
X419488D02*
G03*
X419488Y136713I-1969J0D01*
G01*
X435236D02*
G03*
X435236Y136713I-1969J0D01*
G01*
X450984D02*
G03*
X450984Y136713I-1969J0D01*
G01*
X466732D02*
G03*
X466732Y136713I-1969J0D01*
G01*
X482480D02*
G03*
X482480Y136713I-1969J0D01*
G01*
X435236Y89468D02*
G03*
X435236Y89468I-1969J0D01*
G01*
X450984D02*
G03*
X450984Y89468I-1969J0D01*
G01*
X466732D02*
G03*
X466732Y89468I-1969J0D01*
G01*
X482480D02*
G03*
X482480Y89468I-1969J0D01*
G01*
Y183957D02*
G03*
X482480Y183957I-1969J0D01*
G01*
Y168209D02*
G03*
X482480Y168209I-1969J0D01*
G01*
Y152461D02*
G03*
X482480Y152461I-1969J0D01*
G01*
Y120965D02*
G03*
X482480Y120965I-1969J0D01*
G01*
Y105217D02*
G03*
X482480Y105217I-1969J0D01*
G01*
Y73721D02*
G03*
X482480Y73721I-1969J0D01*
G01*
Y57973D02*
G03*
X482480Y57973I-1969J0D01*
G01*
Y42224D02*
G03*
X482480Y42224I-1969J0D01*
G01*
X466732Y120965D02*
G03*
X466732Y120965I-1969J0D01*
G01*
X450984D02*
G03*
X450984Y120965I-1969J0D01*
G01*
X372244Y105217D02*
G03*
X372244Y105217I-1969J0D01*
G01*
X387992D02*
G03*
X387992Y105217I-1969J0D01*
G01*
X403740D02*
G03*
X403740Y105217I-1969J0D01*
G01*
X419488D02*
G03*
X419488Y105217I-1969J0D01*
G01*
X435236D02*
G03*
X435236Y105217I-1969J0D01*
G01*
X450984D02*
G03*
X450984Y105217I-1969J0D01*
G01*
X466732D02*
G03*
X466732Y105217I-1969J0D01*
G01*
X309252Y120965D02*
G03*
X309252Y120965I-1969J0D01*
G01*
X325000D02*
G03*
X325000Y120965I-1969J0D01*
G01*
X340748D02*
G03*
X340748Y120965I-1969J0D01*
G01*
X356496D02*
G03*
X356496Y120965I-1969J0D01*
G01*
X372244D02*
G03*
X372244Y120965I-1969J0D01*
G01*
X387992D02*
G03*
X387992Y120965I-1969J0D01*
G01*
X403740D02*
G03*
X403740Y120965I-1969J0D01*
G01*
X419488D02*
G03*
X419488Y120965I-1969J0D01*
G01*
X435236D02*
G03*
X435236Y120965I-1969J0D01*
G01*
X309252Y105217D02*
G03*
X309252Y105217I-1969J0D01*
G01*
X325000D02*
G03*
X325000Y105217I-1969J0D01*
G01*
X340748D02*
G03*
X340748Y105217I-1969J0D01*
G01*
X356496D02*
G03*
X356496Y105217I-1969J0D01*
G01*
X466732Y73721D02*
G03*
X466732Y73721I-1969J0D01*
G01*
X419488D02*
G03*
X419488Y73721I-1969J0D01*
G01*
X435236D02*
G03*
X435236Y73721I-1969J0D01*
G01*
X450984D02*
G03*
X450984Y73721I-1969J0D01*
G01*
Y57973D02*
G03*
X450984Y57973I-1969J0D01*
G01*
X309252D02*
G03*
X309252Y57973I-1969J0D01*
G01*
X325000D02*
G03*
X325000Y57973I-1969J0D01*
G01*
X340748D02*
G03*
X340748Y57973I-1969J0D01*
G01*
X356496D02*
G03*
X356496Y57973I-1969J0D01*
G01*
X372244D02*
G03*
X372244Y57973I-1969J0D01*
G01*
X387992D02*
G03*
X387992Y57973I-1969J0D01*
G01*
X403740D02*
G03*
X403740Y57973I-1969J0D01*
G01*
X419488D02*
G03*
X419488Y57973I-1969J0D01*
G01*
X435236D02*
G03*
X435236Y57973I-1969J0D01*
G01*
X466732D02*
G03*
X466732Y57973I-1969J0D01*
G01*
X309252Y89468D02*
G03*
X309252Y89468I-1969J0D01*
G01*
X325000D02*
G03*
X325000Y89468I-1969J0D01*
G01*
X340748D02*
G03*
X340748Y89468I-1969J0D01*
G01*
X356496D02*
G03*
X356496Y89468I-1969J0D01*
G01*
X309252Y73721D02*
G03*
X309252Y73721I-1969J0D01*
G01*
X403740D02*
G03*
X403740Y73721I-1969J0D01*
G01*
X325000D02*
G03*
X325000Y73721I-1969J0D01*
G01*
X340748D02*
G03*
X340748Y73721I-1969J0D01*
G01*
X356496D02*
G03*
X356496Y73721I-1969J0D01*
G01*
X372244D02*
G03*
X372244Y73721I-1969J0D01*
G01*
X387992D02*
G03*
X387992Y73721I-1969J0D01*
G01*
X309252Y42224D02*
G03*
X309252Y42224I-1969J0D01*
G01*
X325000D02*
G03*
X325000Y42224I-1969J0D01*
G01*
X340748D02*
G03*
X340748Y42224I-1969J0D01*
G01*
X356496D02*
G03*
X356496Y42224I-1969J0D01*
G01*
X372244D02*
G03*
X372244Y42224I-1969J0D01*
G01*
X387992D02*
G03*
X387992Y42224I-1969J0D01*
G01*
X403740D02*
G03*
X403740Y42224I-1969J0D01*
G01*
X419488D02*
G03*
X419488Y42224I-1969J0D01*
G01*
X435236D02*
G03*
X435236Y42224I-1969J0D01*
G01*
X450984D02*
G03*
X450984Y42224I-1969J0D01*
G01*
X466732D02*
G03*
X466732Y42224I-1969J0D01*
G01*
D128*
X154921Y345374D02*
D03*
D129*
X125118Y381398D02*
D03*
X224016Y318209D02*
D03*
D130*
X151339Y213032D02*
X152599D01*
Y202795D02*
Y213032D01*
X151339Y202795D02*
X152599D01*
X134488Y213032D02*
X135748D01*
X134488Y202795D02*
Y213032D01*
Y202795D02*
X135748D01*
D131*
X126260Y345000D02*
X141260D01*
X126260Y330000D02*
X141260D01*
X188705Y178720D02*
Y193720D01*
X203705Y178720D02*
Y193720D01*
M02*
