G04*
G04 #@! TF.GenerationSoftware,Altium Limited,Altium Designer,24.4.1 (13)*
G04*
G04 Layer_Color=65535*
%FSLAX25Y25*%
%MOIN*%
G70*
G04*
G04 #@! TF.SameCoordinates,9BA34CE2-F453-49C1-9203-2D8BC28E9390*
G04*
G04*
G04 #@! TF.FilePolarity,Positive*
G04*
G01*
G75*
%ADD10C,0.01181*%
%ADD11C,0.00591*%
%ADD12C,0.00787*%
%ADD13C,0.00500*%
%ADD14C,0.00100*%
G36*
X366216Y403805D02*
X366292Y403792D01*
X366382Y403766D01*
X366471Y403703D01*
X366547Y403626D01*
X366598Y403511D01*
X366624Y403358D01*
Y396945D01*
Y396920D01*
X366611Y396869D01*
X366598Y396805D01*
X366560Y396716D01*
X366509Y396626D01*
X366420Y396563D01*
X366305Y396512D01*
X366152Y396486D01*
X366127D01*
X366076Y396499D01*
X365999Y396512D01*
X365923Y396550D01*
X365833Y396601D01*
X365757Y396677D01*
X365706Y396792D01*
X365680Y396945D01*
Y402071D01*
X364444Y399954D01*
X364431Y399941D01*
X364418Y399916D01*
X364380Y399865D01*
X364329Y399827D01*
X364189Y399725D01*
X364112Y399699D01*
X364023Y399686D01*
X363985D01*
X363934Y399699D01*
X363870Y399725D01*
X363806Y399750D01*
X363730Y399801D01*
X363666Y399865D01*
X363589Y399954D01*
X362365Y402071D01*
Y396945D01*
Y396920D01*
X362353Y396869D01*
X362340Y396805D01*
X362302Y396716D01*
X362251Y396626D01*
X362161Y396563D01*
X362047Y396512D01*
X361894Y396486D01*
X361868D01*
X361817Y396499D01*
X361741Y396512D01*
X361664Y396550D01*
X361575Y396601D01*
X361498Y396677D01*
X361447Y396792D01*
X361422Y396945D01*
Y403358D01*
Y403384D01*
X361435Y403435D01*
X361447Y403499D01*
X361486Y403588D01*
X361537Y403677D01*
X361626Y403741D01*
X361741Y403792D01*
X361894Y403817D01*
X361932D01*
X361983Y403805D01*
X362047Y403792D01*
X362110Y403766D01*
X362174Y403715D01*
X362238Y403664D01*
X362302Y403588D01*
X364023Y400910D01*
X365744Y403613D01*
X365757Y403626D01*
X365770Y403652D01*
X365846Y403715D01*
X365897Y403754D01*
X365961Y403792D01*
X366050Y403805D01*
X366139Y403817D01*
X366165D01*
X366216Y403805D01*
D02*
G37*
G36*
X396778Y403805D02*
X396854Y403792D01*
X396943Y403766D01*
X397020Y403703D01*
X397096Y403626D01*
X397147Y403511D01*
X397173Y403358D01*
Y396945D01*
Y396920D01*
X397160Y396869D01*
X397147Y396805D01*
X397109Y396716D01*
X397058Y396626D01*
X396969Y396563D01*
X396854Y396512D01*
X396688Y396486D01*
X396637D01*
X396586Y396499D01*
X396535Y396512D01*
X396459Y396537D01*
X396395Y396588D01*
X396331Y396639D01*
X396268Y396716D01*
X393628Y401867D01*
Y396945D01*
Y396920D01*
X393616Y396869D01*
X393603Y396805D01*
X393565Y396716D01*
X393514Y396626D01*
X393424Y396563D01*
X393310Y396512D01*
X393157Y396486D01*
X393131D01*
X393080Y396499D01*
X393004Y396512D01*
X392927Y396550D01*
X392838Y396601D01*
X392761Y396677D01*
X392710Y396792D01*
X392685Y396945D01*
Y403358D01*
Y403384D01*
X392698Y403435D01*
X392710Y403499D01*
X392749Y403588D01*
X392800Y403677D01*
X392889Y403741D01*
X393004Y403792D01*
X393157Y403817D01*
X393208D01*
X393259Y403805D01*
X393322Y403779D01*
X393386Y403741D01*
X393463Y403677D01*
X393539Y403601D01*
X393603Y403499D01*
X396229Y398437D01*
Y403358D01*
Y403384D01*
X396242Y403435D01*
X396255Y403499D01*
X396293Y403588D01*
X396344Y403677D01*
X396433Y403741D01*
X396548Y403792D01*
X396701Y403817D01*
X396727D01*
X396778Y403805D01*
D02*
G37*
G36*
X380789Y403805D02*
X380866Y403792D01*
X380955Y403766D01*
X381031Y403703D01*
X381108Y403626D01*
X381159Y403511D01*
X381184Y403358D01*
Y396945D01*
Y396920D01*
X381172Y396869D01*
X381159Y396805D01*
X381121Y396716D01*
X381070Y396626D01*
X380980Y396563D01*
X380866Y396512D01*
X380700Y396486D01*
X380649D01*
X380598Y396499D01*
X380547Y396512D01*
X380470Y396537D01*
X380407Y396588D01*
X380343Y396639D01*
X380279Y396716D01*
X377640Y401867D01*
Y396945D01*
Y396920D01*
X377627Y396869D01*
X377614Y396805D01*
X377576Y396716D01*
X377525Y396626D01*
X377436Y396563D01*
X377321Y396512D01*
X377168Y396486D01*
X377143D01*
X377092Y396499D01*
X377015Y396512D01*
X376939Y396550D01*
X376849Y396601D01*
X376773Y396677D01*
X376722Y396792D01*
X376696Y396945D01*
Y403358D01*
Y403384D01*
X376709Y403435D01*
X376722Y403499D01*
X376760Y403588D01*
X376811Y403677D01*
X376900Y403741D01*
X377015Y403792D01*
X377168Y403817D01*
X377219D01*
X377270Y403805D01*
X377334Y403779D01*
X377398Y403741D01*
X377474Y403677D01*
X377551Y403601D01*
X377614Y403499D01*
X380241Y398437D01*
Y403358D01*
Y403384D01*
X380254Y403435D01*
X380266Y403499D01*
X380305Y403588D01*
X380356Y403677D01*
X380445Y403741D01*
X380560Y403792D01*
X380713Y403817D01*
X380738D01*
X380789Y403805D01*
D02*
G37*
G36*
X414245Y401663D02*
X414322Y401650D01*
X414411Y401624D01*
X414487Y401561D01*
X414564Y401484D01*
X414615Y401369D01*
X414640Y401216D01*
Y401204D01*
Y401178D01*
X414628Y401127D01*
X414615Y401063D01*
X413212Y396856D01*
Y396843D01*
X413187Y396805D01*
X413149Y396741D01*
X413110Y396677D01*
X413047Y396601D01*
X412970Y396550D01*
X412868Y396499D01*
X412753Y396486D01*
X412702D01*
X412639Y396512D01*
X412562Y396537D01*
X412486Y396575D01*
X412409Y396639D01*
X412333Y396728D01*
X412282Y396843D01*
X410879Y401063D01*
Y401076D01*
X410866Y401114D01*
X410854Y401165D01*
Y401216D01*
Y401229D01*
Y401255D01*
X410866Y401331D01*
X410917Y401433D01*
X410943Y401484D01*
X410994Y401535D01*
X411007Y401548D01*
X411019Y401561D01*
X411083Y401612D01*
X411198Y401650D01*
X411262Y401675D01*
X411376D01*
X411440Y401663D01*
X411517Y401637D01*
X411580Y401599D01*
X411657Y401535D01*
X411721Y401459D01*
X411772Y401357D01*
X412753Y398195D01*
X413722Y401357D01*
Y401369D01*
X413748Y401408D01*
X413773Y401459D01*
X413812Y401522D01*
X413875Y401573D01*
X413952Y401624D01*
X414054Y401663D01*
X414169Y401675D01*
X414194D01*
X414245Y401663D01*
D02*
G37*
G36*
X390964Y403805D02*
X391040Y403792D01*
X391129Y403766D01*
X391206Y403703D01*
X391282Y403626D01*
X391333Y403511D01*
X391359Y403358D01*
Y398730D01*
Y398717D01*
Y398692D01*
Y398641D01*
X391346Y398577D01*
X391333Y398501D01*
X391321Y398399D01*
X391282Y398182D01*
X391193Y397927D01*
X391078Y397672D01*
X391002Y397532D01*
X390913Y397391D01*
X390811Y397264D01*
X390696Y397136D01*
X390683Y397124D01*
X390670Y397111D01*
X390632Y397073D01*
X390581Y397034D01*
X390517Y396983D01*
X390441Y396932D01*
X390250Y396818D01*
X390020Y396690D01*
X389752Y396588D01*
X389446Y396512D01*
X389281Y396499D01*
X389115Y396486D01*
X389026D01*
X388962Y396499D01*
X388873Y396512D01*
X388783Y396524D01*
X388567Y396563D01*
X388312Y396639D01*
X388044Y396767D01*
X387916Y396830D01*
X387776Y396920D01*
X387649Y397022D01*
X387521Y397136D01*
X387508Y397149D01*
X387496Y397162D01*
X387457Y397200D01*
X387419Y397251D01*
X387368Y397315D01*
X387317Y397391D01*
X387202Y397583D01*
X387075Y397812D01*
X386973Y398093D01*
X386896Y398399D01*
X386884Y398564D01*
X386871Y398730D01*
Y403358D01*
Y403384D01*
X386884Y403435D01*
X386896Y403499D01*
X386935Y403588D01*
X386986Y403677D01*
X387075Y403741D01*
X387190Y403792D01*
X387343Y403817D01*
X387368D01*
X387419Y403805D01*
X387496Y403792D01*
X387585Y403766D01*
X387661Y403703D01*
X387738Y403626D01*
X387789Y403511D01*
X387814Y403358D01*
Y398730D01*
Y398705D01*
Y398641D01*
X387840Y398539D01*
X387865Y398399D01*
X387904Y398258D01*
X387967Y398093D01*
X388057Y397940D01*
X388184Y397787D01*
X388197Y397774D01*
X388248Y397736D01*
X388337Y397672D01*
X388439Y397608D01*
X388579Y397532D01*
X388732Y397481D01*
X388924Y397430D01*
X389115Y397417D01*
X389204D01*
X389306Y397442D01*
X389434Y397468D01*
X389574Y397506D01*
X389727Y397570D01*
X389880Y397659D01*
X390033Y397787D01*
X390046Y397799D01*
X390097Y397850D01*
X390160Y397940D01*
X390224Y398054D01*
X390301Y398182D01*
X390352Y398348D01*
X390403Y398526D01*
X390415Y398730D01*
Y403358D01*
Y403384D01*
X390428Y403435D01*
X390441Y403499D01*
X390479Y403588D01*
X390530Y403677D01*
X390619Y403741D01*
X390734Y403792D01*
X390887Y403817D01*
X390913D01*
X390964Y403805D01*
D02*
G37*
G36*
X423744D02*
X423820Y403792D01*
X423910Y403766D01*
X423986Y403703D01*
X424063Y403626D01*
X424114Y403511D01*
X424139Y403358D01*
Y396945D01*
Y396920D01*
X424126Y396869D01*
X424114Y396805D01*
X424075Y396716D01*
X424024Y396626D01*
X423935Y396563D01*
X423820Y396512D01*
X423667Y396486D01*
X423642D01*
X423591Y396499D01*
X423514Y396512D01*
X423438Y396550D01*
X423349Y396601D01*
X423272Y396677D01*
X423221Y396792D01*
X423196Y396945D01*
Y402377D01*
X422571Y401599D01*
X422545Y401573D01*
X422482Y401535D01*
X422367Y401484D01*
X422303Y401471D01*
X422239Y401459D01*
X422214D01*
X422163Y401471D01*
X422086Y401484D01*
X422010Y401522D01*
X421921Y401573D01*
X421844Y401663D01*
X421793Y401777D01*
X421768Y401930D01*
Y401943D01*
Y401969D01*
X421780Y402045D01*
X421831Y402147D01*
X421857Y402198D01*
X421908Y402249D01*
X423298Y403639D01*
X423310Y403652D01*
X423323Y403664D01*
X423412Y403728D01*
X423527Y403792D01*
X423591Y403805D01*
X423667Y403817D01*
X423693D01*
X423744Y403805D01*
D02*
G37*
G36*
X420136Y397761D02*
X420212Y397748D01*
X420301Y397723D01*
X420378Y397659D01*
X420454Y397583D01*
X420505Y397468D01*
X420531Y397315D01*
Y396958D01*
Y396932D01*
X420518Y396881D01*
X420505Y396805D01*
X420467Y396728D01*
X420416Y396639D01*
X420327Y396563D01*
X420212Y396512D01*
X420059Y396486D01*
X420034D01*
X419983Y396499D01*
X419906Y396512D01*
X419830Y396550D01*
X419740Y396601D01*
X419664Y396690D01*
X419613Y396805D01*
X419587Y396958D01*
Y397315D01*
Y397340D01*
X419600Y397391D01*
X419613Y397455D01*
X419651Y397544D01*
X419702Y397634D01*
X419791Y397697D01*
X419906Y397748D01*
X420059Y397774D01*
X420085D01*
X420136Y397761D01*
D02*
G37*
G36*
X417917Y403805D02*
X417994Y403792D01*
X418083Y403766D01*
X418159Y403703D01*
X418236Y403626D01*
X418287Y403511D01*
X418312Y403358D01*
Y396945D01*
Y396920D01*
X418300Y396869D01*
X418287Y396805D01*
X418249Y396716D01*
X418198Y396626D01*
X418108Y396563D01*
X417994Y396512D01*
X417841Y396486D01*
X417815D01*
X417764Y396499D01*
X417688Y396512D01*
X417611Y396550D01*
X417522Y396601D01*
X417445Y396677D01*
X417394Y396792D01*
X417369Y396945D01*
Y402377D01*
X416744Y401599D01*
X416719Y401573D01*
X416655Y401535D01*
X416540Y401484D01*
X416476Y401471D01*
X416413Y401459D01*
X416387D01*
X416336Y401471D01*
X416260Y401484D01*
X416183Y401522D01*
X416094Y401573D01*
X416017Y401663D01*
X415966Y401777D01*
X415941Y401930D01*
Y401943D01*
Y401969D01*
X415954Y402045D01*
X416005Y402147D01*
X416030Y402198D01*
X416081Y402249D01*
X417471Y403639D01*
X417484Y403652D01*
X417496Y403664D01*
X417586Y403728D01*
X417700Y403792D01*
X417764Y403805D01*
X417841Y403817D01*
X417866D01*
X417917Y403805D01*
D02*
G37*
G36*
X404785D02*
X404861Y403792D01*
X404950Y403766D01*
X405027Y403703D01*
X405103Y403626D01*
X405154Y403511D01*
X405180Y403358D01*
Y403333D01*
X405167Y403282D01*
X405154Y403205D01*
X405116Y403129D01*
X405065Y403040D01*
X404976Y402963D01*
X404861Y402912D01*
X404708Y402887D01*
X403408D01*
Y396945D01*
Y396920D01*
X403395Y396869D01*
X403382Y396805D01*
X403344Y396716D01*
X403293Y396626D01*
X403204Y396563D01*
X403089Y396512D01*
X402936Y396486D01*
X402910D01*
X402859Y396499D01*
X402783Y396512D01*
X402706Y396550D01*
X402617Y396601D01*
X402541Y396677D01*
X402490Y396792D01*
X402464Y396945D01*
Y402887D01*
X401125D01*
X401074Y402899D01*
X400998Y402912D01*
X400921Y402950D01*
X400832Y403001D01*
X400756Y403091D01*
X400705Y403205D01*
X400679Y403358D01*
Y403384D01*
X400692Y403435D01*
X400705Y403499D01*
X400743Y403588D01*
X400794Y403677D01*
X400883Y403741D01*
X400998Y403792D01*
X401151Y403817D01*
X404734D01*
X404785Y403805D01*
D02*
G37*
G36*
X399047D02*
X399124Y403792D01*
X399213Y403766D01*
X399289Y403703D01*
X399366Y403626D01*
X399417Y403511D01*
X399442Y403358D01*
Y396945D01*
Y396920D01*
X399430Y396869D01*
X399417Y396805D01*
X399379Y396716D01*
X399328Y396626D01*
X399238Y396563D01*
X399124Y396512D01*
X398971Y396486D01*
X398945D01*
X398894Y396499D01*
X398818Y396512D01*
X398741Y396550D01*
X398652Y396601D01*
X398575Y396677D01*
X398524Y396792D01*
X398499Y396945D01*
Y403358D01*
Y403384D01*
X398512Y403435D01*
X398524Y403499D01*
X398563Y403588D01*
X398614Y403677D01*
X398703Y403741D01*
X398818Y403792D01*
X398971Y403817D01*
X398996D01*
X399047Y403805D01*
D02*
G37*
G36*
X375052Y403805D02*
X375128Y403792D01*
X375217Y403766D01*
X375294Y403703D01*
X375370Y403626D01*
X375421Y403511D01*
X375447Y403358D01*
Y396945D01*
Y396920D01*
X375434Y396869D01*
X375421Y396805D01*
X375383Y396716D01*
X375332Y396626D01*
X375243Y396563D01*
X375128Y396512D01*
X374975Y396486D01*
X374950D01*
X374899Y396499D01*
X374822Y396512D01*
X374746Y396550D01*
X374656Y396601D01*
X374580Y396677D01*
X374529Y396792D01*
X374503Y396945D01*
Y403358D01*
Y403384D01*
X374516Y403435D01*
X374529Y403499D01*
X374567Y403588D01*
X374618Y403677D01*
X374707Y403741D01*
X374822Y403792D01*
X374975Y403817D01*
X375001D01*
X375052Y403805D01*
D02*
G37*
G36*
X370666D02*
X370742Y403779D01*
X370819Y403728D01*
X370895Y403664D01*
X370959Y403575D01*
X371010Y403460D01*
X373139Y397098D01*
Y397085D01*
X373152Y397047D01*
X373165Y396996D01*
Y396945D01*
Y396920D01*
X373152Y396869D01*
X373139Y396805D01*
X373101Y396716D01*
X373050Y396626D01*
X372961Y396563D01*
X372846Y396512D01*
X372693Y396486D01*
X372642D01*
X372578Y396499D01*
X372502Y396524D01*
X372425Y396563D01*
X372349Y396626D01*
X372285Y396703D01*
X372234Y396805D01*
X371749Y398258D01*
X369352D01*
X368868Y396805D01*
Y396792D01*
X368842Y396754D01*
X368817Y396703D01*
X368779Y396652D01*
X368715Y396588D01*
X368638Y396537D01*
X368536Y396499D01*
X368422Y396486D01*
X368396D01*
X368345Y396499D01*
X368269Y396512D01*
X368192Y396550D01*
X368103Y396601D01*
X368026Y396677D01*
X367975Y396792D01*
X367950Y396945D01*
Y396958D01*
Y396996D01*
X367975Y397098D01*
X370092Y403460D01*
Y403473D01*
X370117Y403511D01*
X370143Y403575D01*
X370194Y403639D01*
X370258Y403703D01*
X370334Y403766D01*
X370436Y403805D01*
X370551Y403817D01*
X370602D01*
X370666Y403805D01*
D02*
G37*
G36*
X410251Y414631D02*
X410378Y414619D01*
X410519Y414606D01*
X410659Y414593D01*
X410978Y414542D01*
X411309Y414478D01*
X411615Y414376D01*
X411768Y414313D01*
X411896Y414236D01*
X411908Y414223D01*
X411934Y414211D01*
X411985Y414172D01*
X412036Y414121D01*
X412125Y413994D01*
X412150Y413917D01*
X412163Y413828D01*
Y413815D01*
Y413790D01*
X412150Y413752D01*
Y413713D01*
X412100Y413599D01*
X412074Y413535D01*
X412023Y413484D01*
X411998Y413458D01*
X411934Y413420D01*
X411832Y413382D01*
X411704Y413356D01*
X411641D01*
X411577Y413369D01*
X411500Y413395D01*
X411487D01*
X411462Y413407D01*
X411424Y413420D01*
X411360Y413446D01*
X411296Y413471D01*
X411207Y413497D01*
X411003Y413560D01*
X410774Y413611D01*
X410506Y413662D01*
X410225Y413701D01*
X409932Y413713D01*
X409868D01*
X409792Y413701D01*
X409702Y413675D01*
X409588Y413650D01*
X409486Y413599D01*
X409371Y413522D01*
X409256Y413433D01*
X409243Y413420D01*
X409218Y413382D01*
X409167Y413318D01*
X409129Y413242D01*
X409078Y413140D01*
X409027Y413025D01*
X409001Y412897D01*
X408989Y412757D01*
Y412744D01*
Y412732D01*
X409001Y412655D01*
X409014Y412553D01*
X409052Y412426D01*
X409116Y412285D01*
X409205Y412145D01*
X409333Y412005D01*
X409499Y411890D01*
X411487Y410870D01*
X411500D01*
X411539Y410845D01*
X411589Y410819D01*
X411653Y410768D01*
X411730Y410717D01*
X411819Y410641D01*
X411908Y410551D01*
X412010Y410462D01*
X412112Y410347D01*
X412201Y410233D01*
X412291Y410092D01*
X412367Y409939D01*
X412431Y409774D01*
X412495Y409595D01*
X412520Y409404D01*
X412533Y409200D01*
Y409187D01*
Y409162D01*
Y409123D01*
X412520Y409072D01*
X412507Y408919D01*
X412469Y408741D01*
X412393Y408537D01*
X412291Y408307D01*
X412163Y408078D01*
X412074Y407963D01*
X411972Y407861D01*
X411946Y407836D01*
X411870Y407772D01*
X411755Y407683D01*
X411589Y407593D01*
X411398Y407491D01*
X411169Y407402D01*
X410914Y407338D01*
X410774Y407326D01*
X410633Y407313D01*
X410506D01*
X410404Y407326D01*
X410289Y407338D01*
X410149Y407351D01*
X409996Y407377D01*
X409830Y407415D01*
X409460Y407504D01*
X409256Y407568D01*
X409052Y407644D01*
X408848Y407734D01*
X408644Y407848D01*
X408440Y407963D01*
X408236Y408103D01*
X408223Y408116D01*
X408211Y408129D01*
X408147Y408205D01*
X408071Y408333D01*
X408058Y408409D01*
X408045Y408486D01*
Y408499D01*
Y408524D01*
X408058Y408601D01*
X408096Y408703D01*
X408173Y408805D01*
X408185Y408817D01*
X408198Y408830D01*
X408262Y408881D01*
X408377Y408919D01*
X408440Y408945D01*
X408530D01*
X408580Y408932D01*
X408670Y408919D01*
X408772Y408868D01*
X408784Y408856D01*
X408836Y408830D01*
X408899Y408792D01*
X409014Y408741D01*
X409141Y408664D01*
X409307Y408575D01*
X409511Y408486D01*
X409741Y408371D01*
X409754D01*
X409804Y408346D01*
X409894Y408333D01*
X409996Y408307D01*
X410136Y408282D01*
X410289Y408269D01*
X410455Y408244D01*
X410697D01*
X410774Y408256D01*
X410863Y408282D01*
X410978Y408307D01*
X411080Y408358D01*
X411194Y408435D01*
X411309Y408524D01*
X411322Y408537D01*
X411347Y408575D01*
X411398Y408639D01*
X411449Y408715D01*
X411500Y408817D01*
X411551Y408932D01*
X411577Y409060D01*
X411589Y409200D01*
Y409213D01*
Y409225D01*
X411577Y409302D01*
X411564Y409404D01*
X411526Y409531D01*
X411462Y409672D01*
X411360Y409812D01*
X411233Y409939D01*
X411054Y410054D01*
X409065Y411074D01*
X409052Y411087D01*
X409027Y411100D01*
X408976Y411138D01*
X408912Y411176D01*
X408823Y411240D01*
X408746Y411304D01*
X408644Y411393D01*
X408555Y411482D01*
X408466Y411597D01*
X408364Y411724D01*
X408287Y411865D01*
X408211Y412005D01*
X408134Y412171D01*
X408083Y412362D01*
X408058Y412553D01*
X408045Y412757D01*
Y412770D01*
Y412795D01*
Y412834D01*
X408058Y412885D01*
X408071Y413038D01*
X408109Y413216D01*
X408185Y413420D01*
X408275Y413650D01*
X408415Y413866D01*
X408491Y413981D01*
X408593Y414083D01*
X408606Y414096D01*
X408619Y414109D01*
X408695Y414172D01*
X408810Y414262D01*
X408963Y414364D01*
X409167Y414466D01*
X409384Y414555D01*
X409652Y414619D01*
X409792Y414644D01*
X410149D01*
X410251Y414631D01*
D02*
G37*
G36*
X404437D02*
X404564Y414619D01*
X404705Y414606D01*
X404845Y414593D01*
X405163Y414542D01*
X405495Y414478D01*
X405801Y414376D01*
X405954Y414313D01*
X406081Y414236D01*
X406094Y414223D01*
X406120Y414211D01*
X406171Y414172D01*
X406222Y414121D01*
X406311Y413994D01*
X406336Y413917D01*
X406349Y413828D01*
Y413815D01*
Y413790D01*
X406336Y413752D01*
Y413713D01*
X406285Y413599D01*
X406260Y413535D01*
X406209Y413484D01*
X406183Y413458D01*
X406120Y413420D01*
X406018Y413382D01*
X405890Y413356D01*
X405827D01*
X405763Y413369D01*
X405686Y413395D01*
X405674D01*
X405648Y413407D01*
X405610Y413420D01*
X405546Y413446D01*
X405482Y413471D01*
X405393Y413497D01*
X405189Y413560D01*
X404959Y413611D01*
X404692Y413662D01*
X404411Y413701D01*
X404118Y413713D01*
X404054D01*
X403978Y413701D01*
X403889Y413675D01*
X403774Y413650D01*
X403672Y413599D01*
X403557Y413522D01*
X403442Y413433D01*
X403430Y413420D01*
X403404Y413382D01*
X403353Y413318D01*
X403315Y413242D01*
X403264Y413140D01*
X403213Y413025D01*
X403187Y412897D01*
X403174Y412757D01*
Y412744D01*
Y412732D01*
X403187Y412655D01*
X403200Y412553D01*
X403238Y412426D01*
X403302Y412285D01*
X403391Y412145D01*
X403519Y412005D01*
X403685Y411890D01*
X405674Y410870D01*
X405686D01*
X405724Y410845D01*
X405775Y410819D01*
X405839Y410768D01*
X405916Y410717D01*
X406005Y410641D01*
X406094Y410551D01*
X406196Y410462D01*
X406298Y410347D01*
X406388Y410233D01*
X406477Y410092D01*
X406553Y409939D01*
X406617Y409774D01*
X406681Y409595D01*
X406706Y409404D01*
X406719Y409200D01*
Y409187D01*
Y409162D01*
Y409123D01*
X406706Y409072D01*
X406694Y408919D01*
X406655Y408741D01*
X406579Y408537D01*
X406477Y408307D01*
X406349Y408078D01*
X406260Y407963D01*
X406158Y407861D01*
X406133Y407836D01*
X406056Y407772D01*
X405941Y407683D01*
X405775Y407593D01*
X405584Y407491D01*
X405355Y407402D01*
X405100Y407338D01*
X404959Y407326D01*
X404819Y407313D01*
X404692D01*
X404590Y407326D01*
X404475Y407338D01*
X404335Y407351D01*
X404182Y407377D01*
X404016Y407415D01*
X403646Y407504D01*
X403442Y407568D01*
X403238Y407644D01*
X403034Y407734D01*
X402830Y407848D01*
X402626Y407963D01*
X402422Y408103D01*
X402410Y408116D01*
X402397Y408129D01*
X402333Y408205D01*
X402256Y408333D01*
X402244Y408409D01*
X402231Y408486D01*
Y408499D01*
Y408524D01*
X402244Y408601D01*
X402282Y408703D01*
X402358Y408805D01*
X402371Y408817D01*
X402384Y408830D01*
X402448Y408881D01*
X402563Y408919D01*
X402626Y408945D01*
X402715D01*
X402767Y408932D01*
X402856Y408919D01*
X402958Y408868D01*
X402971Y408856D01*
X403021Y408830D01*
X403085Y408792D01*
X403200Y408741D01*
X403328Y408664D01*
X403493Y408575D01*
X403697Y408486D01*
X403927Y408371D01*
X403939D01*
X403991Y408346D01*
X404080Y408333D01*
X404182Y408307D01*
X404322Y408282D01*
X404475Y408269D01*
X404641Y408244D01*
X404883D01*
X404959Y408256D01*
X405049Y408282D01*
X405163Y408307D01*
X405266Y408358D01*
X405380Y408435D01*
X405495Y408524D01*
X405508Y408537D01*
X405533Y408575D01*
X405584Y408639D01*
X405635Y408715D01*
X405686Y408817D01*
X405737Y408932D01*
X405763Y409060D01*
X405775Y409200D01*
Y409213D01*
Y409225D01*
X405763Y409302D01*
X405750Y409404D01*
X405712Y409531D01*
X405648Y409672D01*
X405546Y409812D01*
X405418Y409939D01*
X405240Y410054D01*
X403251Y411074D01*
X403238Y411087D01*
X403213Y411100D01*
X403162Y411138D01*
X403098Y411176D01*
X403009Y411240D01*
X402932Y411304D01*
X402830Y411393D01*
X402741Y411482D01*
X402652Y411597D01*
X402550Y411724D01*
X402473Y411865D01*
X402397Y412005D01*
X402320Y412171D01*
X402269Y412362D01*
X402244Y412553D01*
X402231Y412757D01*
Y412770D01*
Y412795D01*
Y412834D01*
X402244Y412885D01*
X402256Y413038D01*
X402295Y413216D01*
X402371Y413420D01*
X402460Y413650D01*
X402601Y413866D01*
X402677Y413981D01*
X402779Y414083D01*
X402792Y414096D01*
X402805Y414109D01*
X402881Y414172D01*
X402996Y414262D01*
X403149Y414364D01*
X403353Y414466D01*
X403570Y414555D01*
X403837Y414619D01*
X403978Y414644D01*
X404335D01*
X404437Y414631D01*
D02*
G37*
G36*
X377968Y414631D02*
X378044Y414619D01*
X378134Y414593D01*
X378210Y414529D01*
X378287Y414453D01*
X378338Y414338D01*
X378363Y414185D01*
Y414160D01*
X378350Y414096D01*
X378312Y413994D01*
X378236Y413866D01*
X376297Y410972D01*
X378274Y408027D01*
X378287Y408001D01*
X378325Y407950D01*
X378350Y407874D01*
X378363Y407772D01*
Y407746D01*
X378350Y407695D01*
X378338Y407632D01*
X378299Y407542D01*
X378248Y407453D01*
X378159Y407389D01*
X378044Y407338D01*
X377891Y407313D01*
X377853D01*
X377802Y407326D01*
X377738Y407338D01*
X377675Y407364D01*
X377611Y407402D01*
X377547Y407453D01*
X377496Y407517D01*
X375749Y410220D01*
X374015Y407517D01*
Y407504D01*
X373990Y407491D01*
X373913Y407415D01*
X373786Y407351D01*
X373709Y407326D01*
X373620Y407313D01*
X373594D01*
X373544Y407326D01*
X373467Y407338D01*
X373391Y407377D01*
X373301Y407428D01*
X373225Y407504D01*
X373174Y407619D01*
X373148Y407772D01*
Y407785D01*
Y407797D01*
X373161Y407861D01*
X373199Y407963D01*
X373263Y408091D01*
X375214Y410972D01*
X373225Y413917D01*
X373212Y413943D01*
X373186Y413994D01*
X373161Y414083D01*
X373148Y414185D01*
Y414211D01*
X373161Y414262D01*
X373174Y414325D01*
X373212Y414415D01*
X373263Y414504D01*
X373352Y414568D01*
X373467Y414619D01*
X373620Y414644D01*
X373658D01*
X373709Y414631D01*
X373760Y414619D01*
X373824Y414593D01*
X373901Y414555D01*
X373964Y414504D01*
X374015Y414440D01*
X375749Y411737D01*
X377496Y414440D01*
X377509Y414453D01*
X377521Y414478D01*
X377598Y414542D01*
X377649Y414580D01*
X377713Y414619D01*
X377802Y414631D01*
X377891Y414644D01*
X377917D01*
X377968Y414631D01*
D02*
G37*
G36*
X398393Y414631D02*
X398470Y414606D01*
X398546Y414555D01*
X398623Y414491D01*
X398687Y414402D01*
X398738Y414287D01*
X400867Y407925D01*
Y407912D01*
X400879Y407874D01*
X400892Y407823D01*
Y407772D01*
Y407746D01*
X400879Y407695D01*
X400867Y407632D01*
X400829Y407542D01*
X400777Y407453D01*
X400688Y407389D01*
X400573Y407338D01*
X400421Y407313D01*
X400370D01*
X400306Y407326D01*
X400229Y407351D01*
X400153Y407389D01*
X400076Y407453D01*
X400012Y407530D01*
X399961Y407632D01*
X399477Y409085D01*
X397080D01*
X396596Y407632D01*
Y407619D01*
X396570Y407581D01*
X396545Y407530D01*
X396506Y407479D01*
X396443Y407415D01*
X396366Y407364D01*
X396264Y407326D01*
X396149Y407313D01*
X396124D01*
X396073Y407326D01*
X395996Y407338D01*
X395920Y407377D01*
X395830Y407428D01*
X395754Y407504D01*
X395703Y407619D01*
X395677Y407772D01*
Y407785D01*
Y407823D01*
X395703Y407925D01*
X397819Y414287D01*
Y414300D01*
X397845Y414338D01*
X397870Y414402D01*
X397921Y414466D01*
X397985Y414529D01*
X398062Y414593D01*
X398164Y414631D01*
X398278Y414644D01*
X398329D01*
X398393Y414631D01*
D02*
G37*
G36*
X392273D02*
X392362Y414619D01*
X392452Y414606D01*
X392669Y414568D01*
X392911Y414478D01*
X393179Y414364D01*
X393319Y414287D01*
X393446Y414198D01*
X393574Y414096D01*
X393701Y413981D01*
X393714Y413968D01*
X393727Y413956D01*
X393765Y413917D01*
X393803Y413866D01*
X393854Y413803D01*
X393905Y413726D01*
X394033Y413535D01*
X394160Y413305D01*
X394262Y413038D01*
X394339Y412732D01*
X394352Y412566D01*
X394364Y412400D01*
Y412387D01*
Y412336D01*
X394352Y412260D01*
X394339Y412158D01*
X394326Y412030D01*
X394301Y411890D01*
X394262Y411737D01*
X394198Y411571D01*
X394135Y411393D01*
X394045Y411227D01*
X393944Y411049D01*
X393816Y410883D01*
X393676Y410730D01*
X393497Y410590D01*
X393306Y410462D01*
X393076Y410360D01*
X394301Y407989D01*
X394313Y407976D01*
X394339Y407925D01*
X394352Y407848D01*
X394364Y407772D01*
Y407759D01*
Y407746D01*
X394352Y407670D01*
X394301Y407568D01*
X394262Y407504D01*
X394211Y407453D01*
X394186Y407428D01*
X394122Y407389D01*
X394020Y407338D01*
X393956Y407326D01*
X393893Y407313D01*
X393842D01*
X393791Y407326D01*
X393727Y407338D01*
X393663Y407364D01*
X393599Y407402D01*
X393535Y407453D01*
X393497Y407517D01*
X392171Y410156D01*
X390820D01*
Y407772D01*
Y407746D01*
X390807Y407695D01*
X390794Y407632D01*
X390756Y407542D01*
X390705Y407453D01*
X390616Y407389D01*
X390501Y407338D01*
X390348Y407313D01*
X390322D01*
X390271Y407326D01*
X390195Y407338D01*
X390119Y407377D01*
X390029Y407428D01*
X389953Y407504D01*
X389902Y407619D01*
X389876Y407772D01*
Y414185D01*
Y414211D01*
X389889Y414262D01*
X389902Y414325D01*
X389940Y414415D01*
X389991Y414504D01*
X390068Y414568D01*
X390182Y414619D01*
X390335Y414644D01*
X392210D01*
X392273Y414631D01*
D02*
G37*
G36*
X386446Y414631D02*
X386587Y414619D01*
X386778Y414580D01*
X386995Y414517D01*
X387211Y414415D01*
X387441Y414274D01*
X387556Y414198D01*
X387658Y414096D01*
X387670D01*
X387683Y414070D01*
X387747Y413994D01*
X387836Y413879D01*
X387938Y413726D01*
X388028Y413535D01*
X388117Y413305D01*
X388180Y413038D01*
X388206Y412897D01*
Y412757D01*
Y412744D01*
Y412719D01*
Y412668D01*
X388193Y412604D01*
X388180Y412528D01*
X388168Y412451D01*
X388129Y412247D01*
X388040Y412018D01*
X387926Y411801D01*
X387849Y411686D01*
X387760Y411571D01*
X387658Y411469D01*
X387543Y411380D01*
X387556D01*
X387581Y411355D01*
X387632Y411316D01*
X387709Y411278D01*
X387785Y411214D01*
X387862Y411138D01*
X387964Y411049D01*
X388053Y410947D01*
X388142Y410819D01*
X388244Y410692D01*
X388321Y410539D01*
X388410Y410373D01*
X388474Y410194D01*
X388525Y410003D01*
X388550Y409786D01*
X388563Y409557D01*
Y409544D01*
Y409519D01*
Y409468D01*
X388550Y409404D01*
X388538Y409327D01*
X388525Y409225D01*
X388487Y409009D01*
X388397Y408754D01*
X388282Y408499D01*
X388206Y408358D01*
X388117Y408218D01*
X388015Y408091D01*
X387900Y407963D01*
X387887Y407950D01*
X387875Y407938D01*
X387836Y407899D01*
X387785Y407861D01*
X387721Y407810D01*
X387645Y407759D01*
X387454Y407644D01*
X387224Y407517D01*
X386944Y407415D01*
X386638Y407338D01*
X386472Y407326D01*
X386306Y407313D01*
X384496D01*
X384445Y407326D01*
X384381Y407338D01*
X384292Y407377D01*
X384203Y407428D01*
X384139Y407504D01*
X384088Y407619D01*
X384062Y407772D01*
Y414185D01*
Y414211D01*
X384075Y414262D01*
X384088Y414325D01*
X384126Y414415D01*
X384177Y414504D01*
X384254Y414568D01*
X384368Y414619D01*
X384521Y414644D01*
X386383D01*
X386446Y414631D01*
D02*
G37*
G36*
X369744D02*
X369833Y414619D01*
X369922Y414606D01*
X370139Y414568D01*
X370381Y414478D01*
X370649Y414364D01*
X370790Y414287D01*
X370917Y414198D01*
X371044Y414096D01*
X371172Y413981D01*
X371185Y413968D01*
X371198Y413956D01*
X371236Y413917D01*
X371274Y413866D01*
X371325Y413803D01*
X371376Y413726D01*
X371503Y413535D01*
X371631Y413305D01*
X371733Y413038D01*
X371810Y412732D01*
X371822Y412566D01*
X371835Y412400D01*
Y412387D01*
Y412336D01*
X371822Y412260D01*
X371810Y412158D01*
X371797Y412030D01*
X371771Y411890D01*
X371733Y411737D01*
X371669Y411571D01*
X371605Y411393D01*
X371516Y411227D01*
X371414Y411049D01*
X371287Y410883D01*
X371146Y410730D01*
X370968Y410590D01*
X370777Y410462D01*
X370547Y410360D01*
X371771Y407989D01*
X371784Y407976D01*
X371810Y407925D01*
X371822Y407848D01*
X371835Y407772D01*
Y407759D01*
Y407746D01*
X371822Y407670D01*
X371771Y407568D01*
X371733Y407504D01*
X371682Y407453D01*
X371656Y407428D01*
X371593Y407389D01*
X371491Y407338D01*
X371427Y407326D01*
X371363Y407313D01*
X371312D01*
X371261Y407326D01*
X371198Y407338D01*
X371134Y407364D01*
X371070Y407402D01*
X371006Y407453D01*
X370968Y407517D01*
X369642Y410156D01*
X368290D01*
Y407772D01*
Y407746D01*
X368278Y407695D01*
X368265Y407632D01*
X368227Y407542D01*
X368176Y407453D01*
X368087Y407389D01*
X367972Y407338D01*
X367819Y407313D01*
X367793D01*
X367742Y407326D01*
X367666Y407338D01*
X367589Y407377D01*
X367500Y407428D01*
X367424Y407504D01*
X367372Y407619D01*
X367347Y407772D01*
Y414185D01*
Y414211D01*
X367360Y414262D01*
X367372Y414325D01*
X367411Y414415D01*
X367462Y414504D01*
X367538Y414568D01*
X367653Y414619D01*
X367806Y414644D01*
X369680D01*
X369744Y414631D01*
D02*
G37*
G36*
X365626D02*
X365702Y414619D01*
X365792Y414593D01*
X365868Y414529D01*
X365945Y414453D01*
X365996Y414338D01*
X366021Y414185D01*
Y414160D01*
X366008Y414109D01*
X365996Y414032D01*
X365957Y413956D01*
X365906Y413866D01*
X365817Y413790D01*
X365702Y413739D01*
X365549Y413713D01*
X364249D01*
Y407772D01*
Y407746D01*
X364236Y407695D01*
X364223Y407632D01*
X364185Y407542D01*
X364134Y407453D01*
X364045Y407389D01*
X363930Y407338D01*
X363777Y407313D01*
X363752D01*
X363701Y407326D01*
X363624Y407338D01*
X363547Y407377D01*
X363458Y407428D01*
X363382Y407504D01*
X363331Y407619D01*
X363305Y407772D01*
Y413713D01*
X361966D01*
X361915Y413726D01*
X361839Y413739D01*
X361762Y413777D01*
X361673Y413828D01*
X361597Y413917D01*
X361546Y414032D01*
X361520Y414185D01*
Y414211D01*
X361533Y414262D01*
X361546Y414325D01*
X361584Y414415D01*
X361635Y414504D01*
X361724Y414568D01*
X361839Y414619D01*
X361992Y414644D01*
X365575D01*
X365626Y414631D01*
D02*
G37*
G36*
X474708Y403793D02*
X474784Y403781D01*
X474873Y403755D01*
X474950Y403691D01*
X475026Y403615D01*
X475077Y403500D01*
X475103Y403347D01*
Y396934D01*
Y396908D01*
X475090Y396857D01*
X475077Y396794D01*
X475039Y396704D01*
X474988Y396615D01*
X474899Y396551D01*
X474784Y396500D01*
X474631Y396475D01*
X474606D01*
X474555Y396488D01*
X474478Y396500D01*
X474402Y396539D01*
X474312Y396590D01*
X474236Y396666D01*
X474185Y396781D01*
X474159Y396934D01*
Y400032D01*
X471558D01*
Y396934D01*
Y396908D01*
X471546Y396857D01*
X471533Y396794D01*
X471494Y396704D01*
X471444Y396615D01*
X471354Y396551D01*
X471240Y396500D01*
X471087Y396475D01*
X471061D01*
X471010Y396488D01*
X470934Y396500D01*
X470857Y396539D01*
X470768Y396590D01*
X470691Y396666D01*
X470640Y396781D01*
X470615Y396934D01*
Y403347D01*
Y403373D01*
X470627Y403424D01*
X470640Y403487D01*
X470679Y403577D01*
X470730Y403666D01*
X470819Y403730D01*
X470934Y403781D01*
X471087Y403806D01*
X471112D01*
X471163Y403793D01*
X471240Y403781D01*
X471329Y403755D01*
X471405Y403691D01*
X471482Y403615D01*
X471533Y403500D01*
X471558Y403347D01*
Y400963D01*
X474159D01*
Y403347D01*
Y403373D01*
X474172Y403424D01*
X474185Y403487D01*
X474223Y403577D01*
X474274Y403666D01*
X474363Y403730D01*
X474478Y403781D01*
X474631Y403806D01*
X474656D01*
X474708Y403793D01*
D02*
G37*
G36*
X484959Y400950D02*
X485035Y400937D01*
X485124Y400912D01*
X485201Y400848D01*
X485277Y400772D01*
X485328Y400657D01*
X485354Y400504D01*
Y400147D01*
Y400121D01*
X485341Y400070D01*
X485328Y399994D01*
X485290Y399917D01*
X485239Y399828D01*
X485150Y399752D01*
X485035Y399701D01*
X484882Y399675D01*
X484857D01*
X484806Y399688D01*
X484729Y399701D01*
X484653Y399739D01*
X484563Y399790D01*
X484487Y399879D01*
X484436Y399994D01*
X484410Y400147D01*
Y400504D01*
Y400529D01*
X484423Y400580D01*
X484436Y400644D01*
X484474Y400733D01*
X484525Y400823D01*
X484614Y400886D01*
X484729Y400937D01*
X484882Y400963D01*
X484907D01*
X484959Y400950D01*
D02*
G37*
G36*
X482651Y403793D02*
X482727Y403781D01*
X482817Y403755D01*
X482893Y403691D01*
X482970Y403615D01*
X483021Y403500D01*
X483046Y403347D01*
Y403334D01*
Y403309D01*
X483033Y403232D01*
X481618Y396857D01*
Y396845D01*
X481593Y396794D01*
X481567Y396743D01*
X481529Y396666D01*
X481465Y396602D01*
X481389Y396539D01*
X481286Y396488D01*
X481159Y396475D01*
X481146D01*
X481108Y396488D01*
X481044Y396500D01*
X480968Y396526D01*
X480891Y396564D01*
X480815Y396641D01*
X480738Y396730D01*
X480687Y396857D01*
X479731Y399968D01*
X478775Y396857D01*
Y396845D01*
X478749Y396794D01*
X478711Y396743D01*
X478673Y396666D01*
X478609Y396602D01*
X478533Y396539D01*
X478431Y396488D01*
X478316Y396475D01*
X478252D01*
X478188Y396488D01*
X478112Y396513D01*
X478035Y396551D01*
X477959Y396615D01*
X477895Y396692D01*
X477857Y396794D01*
X476429Y403232D01*
Y403245D01*
Y403271D01*
X476416Y403347D01*
Y403373D01*
X476429Y403424D01*
X476442Y403487D01*
X476480Y403577D01*
X476531Y403666D01*
X476620Y403730D01*
X476735Y403781D01*
X476888Y403806D01*
X476952D01*
X477015Y403793D01*
X477092Y403768D01*
X477168Y403730D01*
X477245Y403666D01*
X477309Y403589D01*
X477347Y403487D01*
X478405Y398375D01*
X479272Y401294D01*
X479285Y401307D01*
X479297Y401358D01*
X479336Y401409D01*
X479374Y401486D01*
X479438Y401549D01*
X479514Y401613D01*
X479616Y401651D01*
X479731Y401664D01*
X479782D01*
X479846Y401651D01*
X479910Y401626D01*
X479986Y401600D01*
X480063Y401549D01*
X480126Y401473D01*
X480164Y401384D01*
X481057Y398387D01*
X482115Y403436D01*
Y403449D01*
X482128Y403500D01*
X482166Y403551D01*
X482205Y403628D01*
X482256Y403691D01*
X482345Y403755D01*
X482447Y403793D01*
X482574Y403806D01*
X482600D01*
X482651Y403793D01*
D02*
G37*
G36*
X484959Y398094D02*
X485035Y398081D01*
X485124Y398056D01*
X485201Y397992D01*
X485277Y397916D01*
X485328Y397801D01*
X485354Y397648D01*
Y397291D01*
Y397265D01*
X485341Y397214D01*
X485328Y397151D01*
X485290Y397061D01*
X485239Y396972D01*
X485150Y396908D01*
X485035Y396857D01*
X484882Y396832D01*
X484857D01*
X484806Y396845D01*
X484729Y396857D01*
X484653Y396896D01*
X484563Y396947D01*
X484487Y397023D01*
X484436Y397138D01*
X484410Y397291D01*
Y397648D01*
Y397673D01*
X484423Y397724D01*
X484436Y397788D01*
X484474Y397877D01*
X484525Y397967D01*
X484614Y398030D01*
X484729Y398081D01*
X484882Y398107D01*
X484907D01*
X484959Y398094D01*
D02*
G37*
G36*
X508227Y403793D02*
X508304Y403781D01*
X508393Y403755D01*
X508469Y403691D01*
X508546Y403615D01*
X508597Y403500D01*
X508623Y403347D01*
Y396934D01*
Y396908D01*
X508610Y396857D01*
X508597Y396794D01*
X508559Y396704D01*
X508508Y396615D01*
X508419Y396551D01*
X508304Y396500D01*
X508151Y396475D01*
X508125D01*
X508074Y396488D01*
X507998Y396500D01*
X507921Y396539D01*
X507832Y396590D01*
X507756Y396666D01*
X507705Y396781D01*
X507679Y396934D01*
Y403347D01*
Y403373D01*
X507692Y403424D01*
X507705Y403487D01*
X507743Y403577D01*
X507794Y403666D01*
X507883Y403730D01*
X507998Y403781D01*
X508151Y403806D01*
X508176D01*
X508227Y403793D01*
D02*
G37*
G36*
X505958D02*
X506034Y403781D01*
X506123Y403755D01*
X506200Y403691D01*
X506277Y403615D01*
X506327Y403500D01*
X506353Y403347D01*
Y403322D01*
X506340Y403271D01*
X506315Y403181D01*
X506264Y403067D01*
X503051Y397406D01*
X505907D01*
X505958Y397393D01*
X506034Y397380D01*
X506123Y397355D01*
X506200Y397291D01*
X506277Y397214D01*
X506327Y397100D01*
X506353Y396947D01*
Y396921D01*
X506340Y396870D01*
X506327Y396794D01*
X506289Y396717D01*
X506238Y396628D01*
X506149Y396551D01*
X506034Y396500D01*
X505881Y396475D01*
X502298D01*
X502247Y396488D01*
X502171Y396500D01*
X502095Y396539D01*
X502005Y396590D01*
X501929Y396666D01*
X501878Y396781D01*
X501852Y396934D01*
Y396959D01*
X501865Y397010D01*
X501891Y397100D01*
X501942Y397202D01*
X505167Y402875D01*
X502298D01*
X502247Y402888D01*
X502171Y402901D01*
X502095Y402939D01*
X502005Y402990D01*
X501929Y403079D01*
X501878Y403194D01*
X501852Y403347D01*
Y403373D01*
X501865Y403424D01*
X501878Y403487D01*
X501916Y403577D01*
X501967Y403666D01*
X502056Y403730D01*
X502171Y403781D01*
X502324Y403806D01*
X505907D01*
X505958Y403793D01*
D02*
G37*
G36*
X498792Y403793D02*
X498945Y403781D01*
X499124Y403742D01*
X499340Y403666D01*
X499557Y403564D01*
X499787Y403436D01*
X499902Y403347D01*
X500003Y403245D01*
X500016D01*
X500029Y403220D01*
X500093Y403143D01*
X500182Y403028D01*
X500284Y402875D01*
X500386Y402671D01*
X500475Y402455D01*
X500539Y402200D01*
X500564Y402059D01*
Y401919D01*
Y401906D01*
Y401881D01*
Y401830D01*
X500552Y401766D01*
X500539Y401690D01*
X500526Y401600D01*
X500475Y401384D01*
X500386Y401154D01*
X500259Y400925D01*
X500182Y400797D01*
X500093Y400695D01*
X499978Y400593D01*
X499851Y400491D01*
X499863D01*
X499876Y400466D01*
X499965Y400402D01*
X500080Y400287D01*
X500208Y400134D01*
X500335Y399930D01*
X500450Y399688D01*
X500539Y399407D01*
X500552Y399242D01*
X500564Y399076D01*
Y398362D01*
Y398349D01*
Y398324D01*
Y398285D01*
X500552Y398234D01*
X500539Y398081D01*
X500501Y397903D01*
X500424Y397686D01*
X500322Y397469D01*
X500195Y397240D01*
X500106Y397125D01*
X500003Y397023D01*
X499978Y396998D01*
X499902Y396934D01*
X499787Y396845D01*
X499621Y396755D01*
X499430Y396653D01*
X499200Y396564D01*
X498945Y396500D01*
X498805Y396488D01*
X498665Y396475D01*
X497211D01*
X497160Y396488D01*
X497084Y396500D01*
X497007Y396539D01*
X496918Y396590D01*
X496842Y396679D01*
X496791Y396794D01*
X496765Y396947D01*
Y396972D01*
X496778Y397023D01*
X496791Y397087D01*
X496829Y397176D01*
X496880Y397265D01*
X496969Y397329D01*
X497084Y397380D01*
X497237Y397406D01*
X498729D01*
X498805Y397418D01*
X498894Y397444D01*
X499009Y397469D01*
X499111Y397520D01*
X499226Y397584D01*
X499340Y397673D01*
X499353Y397686D01*
X499379Y397724D01*
X499430Y397788D01*
X499481Y397865D01*
X499532Y397967D01*
X499583Y398081D01*
X499608Y398222D01*
X499621Y398362D01*
Y399076D01*
Y399089D01*
Y399140D01*
X499608Y399216D01*
X499583Y399305D01*
X499557Y399420D01*
X499506Y399522D01*
X499430Y399637D01*
X499340Y399752D01*
X499328Y399764D01*
X499290Y399790D01*
X499226Y399841D01*
X499149Y399892D01*
X499047Y399943D01*
X498933Y399994D01*
X498805Y400019D01*
X498665Y400032D01*
X497925D01*
X497874Y400045D01*
X497798Y400058D01*
X497721Y400096D01*
X497632Y400147D01*
X497556Y400236D01*
X497505Y400351D01*
X497479Y400504D01*
Y400529D01*
X497492Y400580D01*
X497505Y400644D01*
X497543Y400733D01*
X497594Y400823D01*
X497683Y400886D01*
X497798Y400937D01*
X497951Y400963D01*
X498729D01*
X498805Y400976D01*
X498894Y401001D01*
X499009Y401027D01*
X499111Y401078D01*
X499226Y401141D01*
X499340Y401231D01*
X499353Y401243D01*
X499379Y401282D01*
X499430Y401345D01*
X499481Y401422D01*
X499532Y401524D01*
X499583Y401639D01*
X499608Y401779D01*
X499621Y401919D01*
Y401932D01*
Y401983D01*
X499608Y402059D01*
X499583Y402149D01*
X499557Y402263D01*
X499506Y402365D01*
X499430Y402480D01*
X499340Y402595D01*
X499328Y402608D01*
X499290Y402633D01*
X499226Y402684D01*
X499149Y402735D01*
X499047Y402786D01*
X498933Y402837D01*
X498805Y402863D01*
X498665Y402875D01*
X497211D01*
X497160Y402888D01*
X497084Y402901D01*
X497007Y402939D01*
X496918Y402990D01*
X496842Y403079D01*
X496791Y403194D01*
X496765Y403347D01*
Y403373D01*
X496778Y403424D01*
X496791Y403487D01*
X496829Y403577D01*
X496880Y403666D01*
X496969Y403730D01*
X497084Y403781D01*
X497237Y403806D01*
X498741D01*
X498792Y403793D01*
D02*
G37*
G36*
X493361D02*
X493450Y403781D01*
X493539Y403768D01*
X493756Y403730D01*
X493998Y403640D01*
X494266Y403526D01*
X494406Y403449D01*
X494534Y403360D01*
X494661Y403258D01*
X494789Y403143D01*
X494802Y403130D01*
X494814Y403118D01*
X494852Y403079D01*
X494891Y403028D01*
X494942Y402965D01*
X494993Y402888D01*
X495120Y402697D01*
X495248Y402467D01*
X495350Y402200D01*
X495426Y401894D01*
X495439Y401728D01*
X495452Y401562D01*
Y401549D01*
Y401498D01*
X495439Y401422D01*
X495426Y401320D01*
X495414Y401192D01*
X495388Y401052D01*
X495350Y400899D01*
X495286Y400733D01*
X495222Y400555D01*
X495133Y400389D01*
X495031Y400211D01*
X494904Y400045D01*
X494763Y399892D01*
X494585Y399752D01*
X494393Y399624D01*
X494164Y399522D01*
X495388Y397151D01*
X495401Y397138D01*
X495426Y397087D01*
X495439Y397010D01*
X495452Y396934D01*
Y396921D01*
Y396908D01*
X495439Y396832D01*
X495388Y396730D01*
X495350Y396666D01*
X495299Y396615D01*
X495273Y396590D01*
X495210Y396551D01*
X495108Y396500D01*
X495044Y396488D01*
X494980Y396475D01*
X494929D01*
X494878Y396488D01*
X494814Y396500D01*
X494751Y396526D01*
X494687Y396564D01*
X494623Y396615D01*
X494585Y396679D01*
X493259Y399318D01*
X491907D01*
Y396934D01*
Y396908D01*
X491894Y396857D01*
X491882Y396794D01*
X491844Y396704D01*
X491793Y396615D01*
X491703Y396551D01*
X491589Y396500D01*
X491435Y396475D01*
X491410D01*
X491359Y396488D01*
X491283Y396500D01*
X491206Y396539D01*
X491117Y396590D01*
X491040Y396666D01*
X490989Y396781D01*
X490964Y396934D01*
Y403347D01*
Y403373D01*
X490977Y403424D01*
X490989Y403487D01*
X491027Y403577D01*
X491079Y403666D01*
X491155Y403730D01*
X491270Y403781D01*
X491423Y403806D01*
X493297D01*
X493361Y403793D01*
D02*
G37*
G36*
X484389Y412280D02*
X484466Y412267D01*
X484555Y412242D01*
X484631Y412178D01*
X484708Y412102D01*
X484759Y411987D01*
X484785Y411834D01*
Y411477D01*
Y411451D01*
X484772Y411401D01*
X484759Y411324D01*
X484721Y411247D01*
X484670Y411158D01*
X484581Y411082D01*
X484466Y411031D01*
X484313Y411005D01*
X484287D01*
X484236Y411018D01*
X484160Y411031D01*
X484083Y411069D01*
X483994Y411120D01*
X483918Y411209D01*
X483867Y411324D01*
X483841Y411477D01*
Y411834D01*
Y411860D01*
X483854Y411910D01*
X483867Y411974D01*
X483905Y412064D01*
X483956Y412153D01*
X484045Y412217D01*
X484160Y412267D01*
X484313Y412293D01*
X484338D01*
X484389Y412280D01*
D02*
G37*
G36*
X482082Y415124D02*
X482158Y415111D01*
X482247Y415085D01*
X482324Y415022D01*
X482400Y414945D01*
X482451Y414830D01*
X482477Y414677D01*
Y414665D01*
Y414639D01*
X482464Y414563D01*
X481049Y408187D01*
Y408175D01*
X481023Y408124D01*
X480998Y408073D01*
X480960Y407996D01*
X480896Y407933D01*
X480819Y407869D01*
X480717Y407818D01*
X480590Y407805D01*
X480577D01*
X480539Y407818D01*
X480475Y407830D01*
X480399Y407856D01*
X480322Y407894D01*
X480245Y407971D01*
X480169Y408060D01*
X480118Y408187D01*
X479162Y411299D01*
X478205Y408187D01*
Y408175D01*
X478180Y408124D01*
X478142Y408073D01*
X478103Y407996D01*
X478040Y407933D01*
X477963Y407869D01*
X477861Y407818D01*
X477746Y407805D01*
X477683D01*
X477619Y407818D01*
X477542Y407843D01*
X477466Y407881D01*
X477389Y407945D01*
X477326Y408022D01*
X477287Y408124D01*
X475859Y414563D01*
Y414575D01*
Y414601D01*
X475847Y414677D01*
Y414703D01*
X475859Y414754D01*
X475872Y414817D01*
X475911Y414907D01*
X475961Y414996D01*
X476051Y415060D01*
X476165Y415111D01*
X476319Y415136D01*
X476382D01*
X476446Y415124D01*
X476522Y415098D01*
X476599Y415060D01*
X476676Y414996D01*
X476739Y414920D01*
X476778Y414817D01*
X477836Y409705D01*
X478703Y412625D01*
X478716Y412637D01*
X478728Y412688D01*
X478766Y412739D01*
X478805Y412816D01*
X478868Y412880D01*
X478945Y412943D01*
X479047Y412982D01*
X479162Y412994D01*
X479213D01*
X479277Y412982D01*
X479340Y412956D01*
X479417Y412930D01*
X479493Y412880D01*
X479557Y412803D01*
X479595Y412714D01*
X480488Y409718D01*
X481546Y414767D01*
Y414779D01*
X481559Y414830D01*
X481597Y414881D01*
X481635Y414958D01*
X481686Y415022D01*
X481776Y415085D01*
X481878Y415124D01*
X482005Y415136D01*
X482030D01*
X482082Y415124D01*
D02*
G37*
G36*
X514836Y415124D02*
X514913Y415111D01*
X515002Y415085D01*
X515078Y415022D01*
X515155Y414945D01*
X515206Y414830D01*
X515232Y414677D01*
Y410049D01*
Y410036D01*
Y410011D01*
Y409960D01*
X515219Y409896D01*
X515206Y409820D01*
X515193Y409718D01*
X515155Y409501D01*
X515066Y409246D01*
X514951Y408991D01*
X514875Y408850D01*
X514785Y408710D01*
X514683Y408583D01*
X514569Y408455D01*
X514556Y408442D01*
X514543Y408430D01*
X514505Y408392D01*
X514454Y408353D01*
X514390Y408302D01*
X514314Y408251D01*
X514122Y408137D01*
X513893Y408009D01*
X513625Y407907D01*
X513319Y407830D01*
X513153Y407818D01*
X512988Y407805D01*
X512898D01*
X512835Y407818D01*
X512745Y407830D01*
X512656Y407843D01*
X512439Y407881D01*
X512184Y407958D01*
X511916Y408085D01*
X511789Y408149D01*
X511649Y408239D01*
X511521Y408341D01*
X511394Y408455D01*
X511381Y408468D01*
X511368Y408481D01*
X511330Y408519D01*
X511292Y408570D01*
X511241Y408634D01*
X511190Y408710D01*
X511075Y408902D01*
X510948Y409131D01*
X510846Y409411D01*
X510769Y409718D01*
X510756Y409883D01*
X510744Y410049D01*
Y414677D01*
Y414703D01*
X510756Y414754D01*
X510769Y414817D01*
X510807Y414907D01*
X510858Y414996D01*
X510948Y415060D01*
X511062Y415111D01*
X511215Y415136D01*
X511241D01*
X511292Y415124D01*
X511368Y415111D01*
X511457Y415085D01*
X511534Y415022D01*
X511611Y414945D01*
X511661Y414830D01*
X511687Y414677D01*
Y410049D01*
Y410023D01*
Y409960D01*
X511713Y409858D01*
X511738Y409718D01*
X511776Y409577D01*
X511840Y409411D01*
X511929Y409259D01*
X512057Y409105D01*
X512070Y409093D01*
X512120Y409055D01*
X512210Y408991D01*
X512312Y408927D01*
X512452Y408850D01*
X512605Y408800D01*
X512796Y408748D01*
X512988Y408736D01*
X513077D01*
X513179Y408761D01*
X513306Y408787D01*
X513447Y408825D01*
X513599Y408889D01*
X513753Y408978D01*
X513905Y409105D01*
X513918Y409118D01*
X513969Y409169D01*
X514033Y409259D01*
X514097Y409373D01*
X514173Y409501D01*
X514224Y409666D01*
X514275Y409845D01*
X514288Y410049D01*
Y414677D01*
Y414703D01*
X514301Y414754D01*
X514314Y414817D01*
X514352Y414907D01*
X514403Y414996D01*
X514492Y415060D01*
X514607Y415111D01*
X514760Y415136D01*
X514785D01*
X514836Y415124D01*
D02*
G37*
G36*
X484389Y409424D02*
X484466Y409411D01*
X484555Y409386D01*
X484631Y409322D01*
X484708Y409246D01*
X484759Y409131D01*
X484785Y408978D01*
Y408621D01*
Y408596D01*
X484772Y408544D01*
X484759Y408481D01*
X484721Y408392D01*
X484670Y408302D01*
X484581Y408239D01*
X484466Y408187D01*
X484313Y408162D01*
X484287D01*
X484236Y408175D01*
X484160Y408187D01*
X484083Y408226D01*
X483994Y408277D01*
X483918Y408353D01*
X483867Y408468D01*
X483841Y408621D01*
Y408978D01*
Y409003D01*
X483854Y409055D01*
X483867Y409118D01*
X483905Y409207D01*
X483956Y409297D01*
X484045Y409361D01*
X484160Y409411D01*
X484313Y409437D01*
X484338D01*
X484389Y409424D01*
D02*
G37*
G36*
X507314Y415124D02*
X507454Y415111D01*
X507645Y415072D01*
X507862Y415009D01*
X508079Y414907D01*
X508308Y414767D01*
X508423Y414690D01*
X508525Y414588D01*
X508538D01*
X508551Y414563D01*
X508614Y414486D01*
X508704Y414371D01*
X508806Y414218D01*
X508895Y414027D01*
X508984Y413798D01*
X509048Y413530D01*
X509073Y413389D01*
Y413249D01*
Y413237D01*
Y413211D01*
Y413160D01*
X509060Y413096D01*
X509048Y413020D01*
X509035Y412943D01*
X508997Y412739D01*
X508908Y412510D01*
X508793Y412293D01*
X508716Y412178D01*
X508627Y412064D01*
X508525Y411962D01*
X508410Y411872D01*
X508423D01*
X508449Y411847D01*
X508499Y411808D01*
X508576Y411770D01*
X508652Y411706D01*
X508729Y411630D01*
X508831Y411541D01*
X508920Y411439D01*
X509010Y411311D01*
X509111Y411184D01*
X509188Y411031D01*
X509277Y410865D01*
X509341Y410686D01*
X509392Y410495D01*
X509417Y410279D01*
X509430Y410049D01*
Y410036D01*
Y410011D01*
Y409960D01*
X509417Y409896D01*
X509405Y409820D01*
X509392Y409718D01*
X509354Y409501D01*
X509265Y409246D01*
X509150Y408991D01*
X509073Y408850D01*
X508984Y408710D01*
X508882Y408583D01*
X508767Y408455D01*
X508754Y408442D01*
X508742Y408430D01*
X508704Y408392D01*
X508652Y408353D01*
X508589Y408302D01*
X508512Y408251D01*
X508321Y408137D01*
X508091Y408009D01*
X507811Y407907D01*
X507505Y407830D01*
X507339Y407818D01*
X507173Y407805D01*
X505363D01*
X505312Y407818D01*
X505248Y407830D01*
X505159Y407869D01*
X505070Y407920D01*
X505006Y407996D01*
X504955Y408111D01*
X504929Y408264D01*
Y414677D01*
Y414703D01*
X504942Y414754D01*
X504955Y414817D01*
X504993Y414907D01*
X505044Y414996D01*
X505121Y415060D01*
X505235Y415111D01*
X505388Y415136D01*
X507250D01*
X507314Y415124D01*
D02*
G37*
G36*
X503234D02*
X503310Y415111D01*
X503400Y415085D01*
X503476Y415022D01*
X503552Y414945D01*
X503604Y414830D01*
X503629Y414677D01*
Y414652D01*
X503616Y414601D01*
X503604Y414524D01*
X503565Y414448D01*
X503514Y414359D01*
X503425Y414282D01*
X503310Y414231D01*
X503157Y414206D01*
X501665D01*
X501589Y414193D01*
X501500Y414167D01*
X501385Y414142D01*
X501283Y414091D01*
X501168Y414014D01*
X501053Y413925D01*
X501041Y413912D01*
X501015Y413874D01*
X500964Y413810D01*
X500926Y413734D01*
X500875Y413632D01*
X500824Y413517D01*
X500799Y413389D01*
X500786Y413249D01*
Y409692D01*
Y409679D01*
Y409628D01*
X500799Y409552D01*
X500824Y409450D01*
X500849Y409348D01*
X500901Y409233D01*
X500964Y409118D01*
X501053Y409003D01*
X501066Y408991D01*
X501104Y408965D01*
X501168Y408914D01*
X501245Y408876D01*
X501347Y408825D01*
X501462Y408774D01*
X501589Y408748D01*
X501729Y408736D01*
X503183D01*
X503234Y408723D01*
X503310Y408710D01*
X503400Y408685D01*
X503476Y408621D01*
X503552Y408544D01*
X503604Y408430D01*
X503629Y408277D01*
Y408251D01*
X503616Y408200D01*
X503604Y408124D01*
X503565Y408047D01*
X503514Y407958D01*
X503425Y407881D01*
X503310Y407830D01*
X503157Y407805D01*
X501653D01*
X501602Y407818D01*
X501449Y407830D01*
X501270Y407869D01*
X501053Y407945D01*
X500837Y408035D01*
X500607Y408175D01*
X500492Y408251D01*
X500390Y408353D01*
Y408366D01*
X500365Y408379D01*
X500301Y408455D01*
X500212Y408570D01*
X500123Y408723D01*
X500021Y408927D01*
X499931Y409144D01*
X499868Y409411D01*
X499855Y409552D01*
X499842Y409692D01*
Y413249D01*
Y413262D01*
Y413287D01*
Y413326D01*
X499855Y413377D01*
X499868Y413530D01*
X499906Y413708D01*
X499983Y413912D01*
X500072Y414142D01*
X500212Y414359D01*
X500288Y414473D01*
X500390Y414575D01*
X500403Y414588D01*
X500416Y414601D01*
X500492Y414665D01*
X500607Y414754D01*
X500760Y414856D01*
X500964Y414958D01*
X501181Y415047D01*
X501449Y415111D01*
X501589Y415136D01*
X503183D01*
X503234Y415124D01*
D02*
G37*
G36*
X498172Y415124D02*
X498248Y415111D01*
X498338Y415085D01*
X498414Y415022D01*
X498491Y414945D01*
X498542Y414830D01*
X498567Y414677D01*
Y408264D01*
Y408239D01*
X498555Y408187D01*
X498542Y408124D01*
X498503Y408035D01*
X498453Y407945D01*
X498363Y407881D01*
X498248Y407830D01*
X498096Y407805D01*
X498070D01*
X498019Y407818D01*
X497942Y407830D01*
X497866Y407869D01*
X497777Y407920D01*
X497700Y407996D01*
X497649Y408111D01*
X497624Y408264D01*
Y413695D01*
X496999Y412918D01*
X496974Y412892D01*
X496910Y412854D01*
X496795Y412803D01*
X496731Y412790D01*
X496667Y412778D01*
X496642D01*
X496591Y412790D01*
X496515Y412803D01*
X496438Y412841D01*
X496349Y412892D01*
X496272Y412982D01*
X496221Y413096D01*
X496196Y413249D01*
Y413262D01*
Y413287D01*
X496208Y413364D01*
X496259Y413466D01*
X496285Y413517D01*
X496336Y413568D01*
X497726Y414958D01*
X497739Y414970D01*
X497751Y414983D01*
X497840Y415047D01*
X497955Y415111D01*
X498019Y415124D01*
X498096Y415136D01*
X498121D01*
X498172Y415124D01*
D02*
G37*
G36*
X492792D02*
X492881Y415111D01*
X492970Y415098D01*
X493187Y415060D01*
X493429Y414970D01*
X493697Y414856D01*
X493837Y414779D01*
X493964Y414690D01*
X494092Y414588D01*
X494219Y414473D01*
X494232Y414461D01*
X494245Y414448D01*
X494283Y414409D01*
X494321Y414359D01*
X494373Y414295D01*
X494423Y414218D01*
X494551Y414027D01*
X494678Y413798D01*
X494780Y413530D01*
X494857Y413224D01*
X494870Y413058D01*
X494882Y412892D01*
Y412880D01*
Y412828D01*
X494870Y412752D01*
X494857Y412650D01*
X494844Y412523D01*
X494819Y412382D01*
X494780Y412229D01*
X494717Y412064D01*
X494653Y411885D01*
X494564Y411719D01*
X494462Y411541D01*
X494334Y411375D01*
X494194Y411222D01*
X494016Y411082D01*
X493824Y410954D01*
X493595Y410852D01*
X494819Y408481D01*
X494832Y408468D01*
X494857Y408417D01*
X494870Y408341D01*
X494882Y408264D01*
Y408251D01*
Y408239D01*
X494870Y408162D01*
X494819Y408060D01*
X494780Y407996D01*
X494730Y407945D01*
X494704Y407920D01*
X494640Y407881D01*
X494538Y407830D01*
X494475Y407818D01*
X494411Y407805D01*
X494360D01*
X494309Y407818D01*
X494245Y407830D01*
X494181Y407856D01*
X494117Y407894D01*
X494054Y407945D01*
X494016Y408009D01*
X492690Y410648D01*
X491338D01*
Y408264D01*
Y408239D01*
X491325Y408187D01*
X491313Y408124D01*
X491274Y408035D01*
X491223Y407945D01*
X491134Y407881D01*
X491019Y407830D01*
X490866Y407805D01*
X490841D01*
X490790Y407818D01*
X490713Y407830D01*
X490637Y407869D01*
X490548Y407920D01*
X490471Y407996D01*
X490420Y408111D01*
X490394Y408264D01*
Y414677D01*
Y414703D01*
X490407Y414754D01*
X490420Y414817D01*
X490458Y414907D01*
X490509Y414996D01*
X490586Y415060D01*
X490700Y415111D01*
X490854Y415136D01*
X492728D01*
X492792Y415124D01*
D02*
G37*
G36*
X474164D02*
X474240Y415111D01*
X474330Y415085D01*
X474406Y415022D01*
X474482Y414945D01*
X474534Y414830D01*
X474559Y414677D01*
Y414652D01*
X474546Y414601D01*
X474534Y414524D01*
X474495Y414448D01*
X474444Y414359D01*
X474355Y414282D01*
X474240Y414231D01*
X474087Y414206D01*
X471716D01*
Y412293D01*
X474113D01*
X474164Y412280D01*
X474240Y412267D01*
X474330Y412242D01*
X474406Y412178D01*
X474482Y412102D01*
X474534Y411987D01*
X474559Y411834D01*
Y411808D01*
X474546Y411758D01*
X474534Y411681D01*
X474495Y411604D01*
X474444Y411515D01*
X474355Y411439D01*
X474240Y411388D01*
X474087Y411362D01*
X471716D01*
Y408264D01*
Y408239D01*
X471703Y408187D01*
X471690Y408124D01*
X471652Y408035D01*
X471601Y407945D01*
X471512Y407881D01*
X471397Y407830D01*
X471244Y407805D01*
X471218D01*
X471168Y407818D01*
X471091Y407830D01*
X471014Y407869D01*
X470925Y407920D01*
X470849Y407996D01*
X470798Y408111D01*
X470772Y408264D01*
Y414677D01*
Y414703D01*
X470785Y414754D01*
X470798Y414817D01*
X470836Y414907D01*
X470887Y414996D01*
X470976Y415060D01*
X471091Y415111D01*
X471244Y415136D01*
X474113D01*
X474164Y415124D01*
D02*
G37*
%LPC*%
G36*
X370551Y402096D02*
X369620Y399189D01*
X371482D01*
X370551Y402096D01*
D02*
G37*
G36*
X398278Y412923D02*
X397348Y410016D01*
X399209D01*
X398278Y412923D01*
D02*
G37*
G36*
X392120Y413713D02*
X390820D01*
Y411087D01*
X392210D01*
X392312Y411112D01*
X392439Y411138D01*
X392579Y411176D01*
X392732Y411240D01*
X392885Y411329D01*
X393038Y411457D01*
X393051Y411469D01*
X393102Y411520D01*
X393166Y411610D01*
X393230Y411724D01*
X393306Y411852D01*
X393357Y412018D01*
X393408Y412196D01*
X393421Y412400D01*
Y412413D01*
Y412426D01*
Y412489D01*
X393395Y412591D01*
X393370Y412719D01*
X393332Y412872D01*
X393255Y413025D01*
X393166Y413178D01*
X393038Y413331D01*
X393025Y413344D01*
X392974Y413395D01*
X392885Y413458D01*
X392783Y413522D01*
X392643Y413599D01*
X392490Y413650D01*
X392312Y413701D01*
X392120Y413713D01*
D02*
G37*
G36*
X386306Y413713D02*
X385006D01*
Y411801D01*
X386370D01*
X386446Y411814D01*
X386536Y411839D01*
X386638Y411865D01*
X386753Y411916D01*
X386855Y411992D01*
X386969Y412081D01*
X386982Y412094D01*
X387020Y412132D01*
X387058Y412196D01*
X387122Y412273D01*
X387173Y412375D01*
X387211Y412489D01*
X387250Y412617D01*
X387263Y412757D01*
Y412770D01*
Y412821D01*
X387250Y412897D01*
X387224Y412987D01*
X387199Y413101D01*
X387148Y413203D01*
X387071Y413318D01*
X386982Y413433D01*
X386969Y413446D01*
X386931Y413471D01*
X386867Y413522D01*
X386791Y413573D01*
X386689Y413624D01*
X386574Y413675D01*
X386446Y413701D01*
X386306Y413713D01*
D02*
G37*
G36*
Y410870D02*
X385006D01*
Y408244D01*
X386396D01*
X386497Y408269D01*
X386625Y408295D01*
X386778Y408333D01*
X386931Y408397D01*
X387084Y408486D01*
X387237Y408613D01*
X387250Y408626D01*
X387301Y408677D01*
X387365Y408766D01*
X387428Y408881D01*
X387505Y409009D01*
X387556Y409174D01*
X387607Y409353D01*
X387619Y409557D01*
Y409570D01*
Y409582D01*
Y409646D01*
X387594Y409748D01*
X387568Y409876D01*
X387530Y410029D01*
X387454Y410182D01*
X387365Y410335D01*
X387237Y410488D01*
X387224Y410500D01*
X387173Y410551D01*
X387084Y410615D01*
X386982Y410679D01*
X386842Y410755D01*
X386689Y410806D01*
X386510Y410857D01*
X386306Y410870D01*
D02*
G37*
G36*
X369591Y413713D02*
X368290D01*
Y411087D01*
X369680D01*
X369782Y411112D01*
X369910Y411138D01*
X370050Y411176D01*
X370203Y411240D01*
X370356Y411329D01*
X370509Y411457D01*
X370522Y411469D01*
X370573Y411520D01*
X370637Y411610D01*
X370700Y411724D01*
X370777Y411852D01*
X370828Y412018D01*
X370879Y412196D01*
X370891Y412400D01*
Y412413D01*
Y412426D01*
Y412489D01*
X370866Y412591D01*
X370841Y412719D01*
X370802Y412872D01*
X370726Y413025D01*
X370637Y413178D01*
X370509Y413331D01*
X370496Y413344D01*
X370445Y413395D01*
X370356Y413458D01*
X370254Y413522D01*
X370114Y413599D01*
X369961Y413650D01*
X369782Y413701D01*
X369591Y413713D01*
D02*
G37*
G36*
X493208Y402875D02*
X491907D01*
Y400249D01*
X493297D01*
X493399Y400274D01*
X493527Y400300D01*
X493667Y400338D01*
X493820Y400402D01*
X493973Y400491D01*
X494126Y400619D01*
X494139Y400631D01*
X494190Y400682D01*
X494253Y400772D01*
X494317Y400886D01*
X494393Y401014D01*
X494445Y401180D01*
X494496Y401358D01*
X494508Y401562D01*
Y401575D01*
Y401588D01*
Y401651D01*
X494483Y401753D01*
X494457Y401881D01*
X494419Y402034D01*
X494343Y402187D01*
X494253Y402340D01*
X494126Y402493D01*
X494113Y402506D01*
X494062Y402557D01*
X493973Y402620D01*
X493871Y402684D01*
X493731Y402761D01*
X493577Y402812D01*
X493399Y402863D01*
X493208Y402875D01*
D02*
G37*
G36*
X507173Y414206D02*
X505873D01*
Y412293D01*
X507237D01*
X507314Y412306D01*
X507403Y412331D01*
X507505Y412357D01*
X507620Y412408D01*
X507722Y412484D01*
X507836Y412573D01*
X507849Y412586D01*
X507888Y412625D01*
X507926Y412688D01*
X507990Y412765D01*
X508041Y412867D01*
X508079Y412982D01*
X508117Y413109D01*
X508130Y413249D01*
Y413262D01*
Y413313D01*
X508117Y413389D01*
X508091Y413479D01*
X508066Y413593D01*
X508015Y413695D01*
X507938Y413810D01*
X507849Y413925D01*
X507836Y413938D01*
X507798Y413963D01*
X507734Y414014D01*
X507658Y414065D01*
X507556Y414116D01*
X507441Y414167D01*
X507314Y414193D01*
X507173Y414206D01*
D02*
G37*
G36*
Y411362D02*
X505873D01*
Y408736D01*
X507263D01*
X507365Y408761D01*
X507492Y408787D01*
X507645Y408825D01*
X507798Y408889D01*
X507951Y408978D01*
X508104Y409105D01*
X508117Y409118D01*
X508168Y409169D01*
X508232Y409259D01*
X508295Y409373D01*
X508372Y409501D01*
X508423Y409666D01*
X508474Y409845D01*
X508487Y410049D01*
Y410062D01*
Y410075D01*
Y410138D01*
X508461Y410240D01*
X508436Y410368D01*
X508397Y410521D01*
X508321Y410674D01*
X508232Y410827D01*
X508104Y410980D01*
X508091Y410992D01*
X508041Y411044D01*
X507951Y411107D01*
X507849Y411171D01*
X507709Y411247D01*
X507556Y411299D01*
X507377Y411349D01*
X507173Y411362D01*
D02*
G37*
G36*
X492638Y414206D02*
X491338D01*
Y411579D01*
X492728D01*
X492830Y411604D01*
X492957Y411630D01*
X493097Y411668D01*
X493251Y411732D01*
X493403Y411821D01*
X493556Y411949D01*
X493569Y411962D01*
X493620Y412012D01*
X493684Y412102D01*
X493748Y412217D01*
X493824Y412344D01*
X493875Y412510D01*
X493926Y412688D01*
X493939Y412892D01*
Y412905D01*
Y412918D01*
Y412982D01*
X493914Y413084D01*
X493888Y413211D01*
X493850Y413364D01*
X493773Y413517D01*
X493684Y413670D01*
X493556Y413823D01*
X493544Y413836D01*
X493493Y413887D01*
X493403Y413950D01*
X493301Y414014D01*
X493161Y414091D01*
X493008Y414142D01*
X492830Y414193D01*
X492638Y414206D01*
D02*
G37*
%LPD*%
D10*
X643996Y12894D02*
G03*
X644173Y12936I177J-352D01*
G01*
X282978Y170059D02*
G03*
X282978Y170059I-433J0D01*
G01*
D11*
X62163Y354677D02*
G03*
X62163Y354677I-7482J0D01*
G01*
X697957Y213541D02*
G03*
X711445Y227029I0J13488D01*
G01*
Y278793D02*
G03*
X697957Y292281I-13488J0D01*
G01*
X606823D02*
G03*
X593335Y278793I0J-13488D01*
G01*
Y227029D02*
G03*
X606823Y213541I13488J0D01*
G01*
X62163Y83220D02*
G03*
X62163Y83220I-7482J0D01*
G01*
X30839Y364862D02*
X30904Y382157D01*
X37992D01*
X78904Y364961D02*
X78939Y382157D01*
X70669D02*
X78939D01*
X30904Y324281D02*
Y344094D01*
Y324281D02*
X39173Y324359D01*
X78938Y324673D02*
X79004Y344390D01*
X78545Y324673D02*
X78939D01*
X70669Y324634D02*
X78545Y324673D01*
X50984Y382157D02*
X58071D01*
X194110Y172638D02*
Y178160D01*
Y172638D02*
X201472D01*
X288992D02*
Y178201D01*
X281512Y172638D02*
X288992D01*
X194110Y189325D02*
Y194764D01*
X288992Y189415D02*
Y194685D01*
X194110D02*
X288992D01*
X384257Y405541D02*
X426912D01*
X359158D02*
X384257D01*
X470280D02*
X515260D01*
X711445Y227029D02*
Y278793D01*
X606823Y292281D02*
X697957Y292281D01*
X606823Y213541D02*
X697957D01*
X593335Y227029D02*
Y278793D01*
X573228Y381791D02*
X573228Y83366D01*
X98032Y381791D02*
X573228D01*
X98032Y83366D02*
Y381791D01*
Y83366D02*
X573228D01*
X50984Y110700D02*
X58071D01*
X70669Y53178D02*
X78545Y53216D01*
X78939D01*
X78938D02*
X79014Y75984D01*
X30904Y52824D02*
X39173Y52903D01*
X30904Y52824D02*
Y75984D01*
X70669Y110700D02*
X78939D01*
X78898Y90551D02*
X78939Y110700D01*
X30904D02*
X37992D01*
X30828Y90551D02*
X30904Y110700D01*
X585831Y190457D02*
X588455Y186521D01*
Y190457D02*
X585831Y186521D01*
X589767Y190457D02*
X592390D01*
Y189801D01*
X589767Y187177D01*
Y186521D01*
X55094Y269167D02*
X54438Y269823D01*
X53126D01*
X52470Y269167D01*
Y268511D01*
X53126Y267855D01*
X54438D01*
X55094Y267199D01*
Y266543D01*
X54438Y265887D01*
X53126D01*
X52470Y266543D01*
X56406Y265887D02*
X57718D01*
X57062D01*
Y269823D01*
X56406Y269167D01*
X613180Y391086D02*
X612525Y391742D01*
X611213D01*
X610557Y391086D01*
Y390430D01*
X611213Y389774D01*
X612525D01*
X613180Y389118D01*
Y388462D01*
X612525Y387806D01*
X611213D01*
X610557Y388462D01*
X616460Y387806D02*
Y391742D01*
X614492Y389774D01*
X617116D01*
X691970Y390831D02*
X691314Y391487D01*
X690002D01*
X689346Y390831D01*
Y390175D01*
X690002Y389519D01*
X691314D01*
X691970Y388863D01*
Y388207D01*
X691314Y387551D01*
X690002D01*
X689346Y388207D01*
X695906Y391487D02*
X693282D01*
Y389519D01*
X694594Y390175D01*
X695250D01*
X695906Y389519D01*
Y388207D01*
X695250Y387551D01*
X693938D01*
X693282Y388207D01*
X53116Y225918D02*
X52460Y226573D01*
X51148D01*
X50492Y225918D01*
Y225262D01*
X51148Y224606D01*
X52460D01*
X53116Y223950D01*
Y223294D01*
X52460Y222638D01*
X51148D01*
X50492Y223294D01*
X54428Y222638D02*
X55740D01*
X55084D01*
Y226573D01*
X54428Y225918D01*
X59676Y222638D02*
Y226573D01*
X57708Y224606D01*
X60331D01*
X614435Y316272D02*
X613779Y316928D01*
X612467D01*
X611811Y316272D01*
Y315616D01*
X612467Y314960D01*
X613779D01*
X614435Y314304D01*
Y313648D01*
X613779Y312992D01*
X612467D01*
X611811Y313648D01*
X618371Y316928D02*
X617059Y316272D01*
X615747Y314960D01*
Y313648D01*
X616403Y312992D01*
X617715D01*
X618371Y313648D01*
Y314304D01*
X617715Y314960D01*
X615747D01*
X692191Y316666D02*
X691535Y317322D01*
X690223D01*
X689567Y316666D01*
Y316010D01*
X690223Y315354D01*
X691535D01*
X692191Y314698D01*
Y314042D01*
X691535Y313386D01*
X690223D01*
X689567Y314042D01*
X693503Y317322D02*
X696127D01*
Y316666D01*
X693503Y314042D01*
Y313386D01*
X53116Y182610D02*
X52460Y183266D01*
X51148D01*
X50492Y182610D01*
Y181955D01*
X51148Y181299D01*
X52460D01*
X53116Y180643D01*
Y179987D01*
X52460Y179331D01*
X51148D01*
X50492Y179987D01*
X54428Y179331D02*
X55740D01*
X55084D01*
Y183266D01*
X54428Y182610D01*
X57708D02*
X58364Y183266D01*
X59676D01*
X60331Y182610D01*
Y181955D01*
X59676Y181299D01*
X59020D01*
X59676D01*
X60331Y180643D01*
Y179987D01*
X59676Y179331D01*
X58364D01*
X57708Y179987D01*
X53116Y139205D02*
X52460Y139861D01*
X51148D01*
X50492Y139205D01*
Y138549D01*
X51148Y137893D01*
X52460D01*
X53116Y137237D01*
Y136581D01*
X52460Y135925D01*
X51148D01*
X50492Y136581D01*
X54428Y135925D02*
X55740D01*
X55084D01*
Y139861D01*
X54428Y139205D01*
X60331Y135925D02*
X57708D01*
X60331Y138549D01*
Y139205D01*
X59676Y139861D01*
X58364D01*
X57708Y139205D01*
X149129Y48716D02*
X148473Y49372D01*
X147161D01*
X146506Y48716D01*
Y48060D01*
X147161Y47404D01*
X148473D01*
X149129Y46748D01*
Y46092D01*
X148473Y45436D01*
X147161D01*
X146506Y46092D01*
X153065Y45436D02*
X150441D01*
X153065Y48060D01*
Y48716D01*
X152409Y49372D01*
X151097D01*
X150441Y48716D01*
X233189Y48778D02*
X232533Y49434D01*
X231221D01*
X230565Y48778D01*
Y48123D01*
X231221Y47466D01*
X232533D01*
X233189Y46811D01*
Y46155D01*
X232533Y45499D01*
X231221D01*
X230565Y46155D01*
X234501Y48778D02*
X235157Y49434D01*
X236469D01*
X237125Y48778D01*
Y48123D01*
X236469Y47466D01*
X235813D01*
X236469D01*
X237125Y46811D01*
Y46155D01*
X236469Y45499D01*
X235157D01*
X234501Y46155D01*
X297604Y48555D02*
X296948Y49211D01*
X295636D01*
X294980Y48555D01*
Y47899D01*
X295636Y47243D01*
X296948D01*
X297604Y46587D01*
Y45932D01*
X296948Y45276D01*
X295636D01*
X294980Y45932D01*
X298916Y48555D02*
X299572Y49211D01*
X300884D01*
X301540Y48555D01*
Y47899D01*
X300884Y47243D01*
X301540Y46587D01*
Y45932D01*
X300884Y45276D01*
X299572D01*
X298916Y45932D01*
Y46587D01*
X299572Y47243D01*
X298916Y47899D01*
Y48555D01*
X299572Y47243D02*
X300884D01*
X372014Y48851D02*
X371358Y49507D01*
X370046D01*
X369390Y48851D01*
Y48195D01*
X370046Y47539D01*
X371358D01*
X372014Y46883D01*
Y46227D01*
X371358Y45571D01*
X370046D01*
X369390Y46227D01*
X373325D02*
X373981Y45571D01*
X375293D01*
X375949Y46227D01*
Y48851D01*
X375293Y49507D01*
X373981D01*
X373325Y48851D01*
Y48195D01*
X373981Y47539D01*
X375949D01*
X446226Y48851D02*
X445570Y49507D01*
X444258D01*
X443602Y48851D01*
Y48195D01*
X444258Y47539D01*
X445570D01*
X446226Y46883D01*
Y46227D01*
X445570Y45571D01*
X444258D01*
X443602Y46227D01*
X447538Y45571D02*
X448850D01*
X448194D01*
Y49507D01*
X447538Y48851D01*
X450818D02*
X451474Y49507D01*
X452786D01*
X453442Y48851D01*
Y46227D01*
X452786Y45571D01*
X451474D01*
X450818Y46227D01*
Y48851D01*
X521383Y48781D02*
X520727Y49437D01*
X519415D01*
X518759Y48781D01*
Y48125D01*
X519415Y47469D01*
X520727D01*
X521383Y46813D01*
Y46157D01*
X520727Y45501D01*
X519415D01*
X518759Y46157D01*
X522694Y45501D02*
X524007D01*
X523350D01*
Y49437D01*
X522694Y48781D01*
X525974Y45501D02*
X527286D01*
X526630D01*
Y49437D01*
X525974Y48781D01*
X194419Y201628D02*
X197043Y197692D01*
Y201628D02*
X194419Y197692D01*
X200322D02*
Y201628D01*
X198354Y199660D01*
X200978D01*
X50754Y390550D02*
X48130D01*
Y386614D01*
X50754D01*
X48130Y388582D02*
X49442D01*
X52066Y386614D02*
Y390550D01*
X54690Y386614D01*
Y390550D01*
X58625Y389894D02*
X57969Y390550D01*
X56657D01*
X56001Y389894D01*
Y387270D01*
X56657Y386614D01*
X57969D01*
X58625Y387270D01*
X59937Y386614D02*
X61249D01*
X60593D01*
Y390550D01*
X59937Y389894D01*
X50163Y119684D02*
X47539D01*
Y115748D01*
X50163D01*
X47539Y117716D02*
X48851D01*
X51475Y115748D02*
Y119684D01*
X54099Y115748D01*
Y119684D01*
X58035Y119028D02*
X57379Y119684D01*
X56067D01*
X55411Y119028D01*
Y116404D01*
X56067Y115748D01*
X57379D01*
X58035Y116404D01*
X61970Y115748D02*
X59347D01*
X61970Y118372D01*
Y119028D01*
X61314Y119684D01*
X60002D01*
X59347Y119028D01*
X631924Y49446D02*
X634548Y45510D01*
Y49446D02*
X631924Y45510D01*
X635860D02*
X637172D01*
X636516D01*
Y49446D01*
X635860Y48790D01*
X641108Y45510D02*
Y49446D01*
X639140Y47478D01*
X641764D01*
X248649Y153900D02*
Y157836D01*
X250616D01*
X251272Y157180D01*
Y155868D01*
X250616Y155212D01*
X248649D01*
X249960D02*
X251272Y153900D01*
X252584Y157180D02*
X253240Y157836D01*
X254552D01*
X255208Y157180D01*
Y156524D01*
X254552Y155868D01*
X253896D01*
X254552D01*
X255208Y155212D01*
Y154556D01*
X254552Y153900D01*
X253240D01*
X252584Y154556D01*
X259144Y157836D02*
X257832Y157180D01*
X256520Y155868D01*
Y154556D01*
X257176Y153900D01*
X258488D01*
X259144Y154556D01*
Y155212D01*
X258488Y155868D01*
X256520D01*
X262920Y153859D02*
Y157794D01*
X264888D01*
X265544Y157138D01*
Y155826D01*
X264888Y155171D01*
X262920D01*
X264232D02*
X265544Y153859D01*
X266856Y157138D02*
X267512Y157794D01*
X268824D01*
X269480Y157138D01*
Y156482D01*
X268824Y155826D01*
X268168D01*
X268824D01*
X269480Y155171D01*
Y154515D01*
X268824Y153859D01*
X267512D01*
X266856Y154515D01*
X270792Y157794D02*
X273416D01*
Y157138D01*
X270792Y154515D01*
Y153859D01*
X276861D02*
Y157794D01*
X278829D01*
X279485Y157138D01*
Y155826D01*
X278829Y155171D01*
X276861D01*
X278173D02*
X279485Y153859D01*
X282764D02*
Y157794D01*
X280797Y155826D01*
X283420D01*
X284732Y157138D02*
X285388Y157794D01*
X286700D01*
X287356Y157138D01*
Y154515D01*
X286700Y153859D01*
X285388D01*
X284732Y154515D01*
Y157138D01*
X299136Y142293D02*
X295200D01*
Y144261D01*
X295856Y144917D01*
X297168D01*
X297824Y144261D01*
Y142293D01*
Y143605D02*
X299136Y144917D01*
Y148197D02*
X295200D01*
X297168Y146229D01*
Y148853D01*
X299136Y150165D02*
Y151477D01*
Y150821D01*
X295200D01*
X295856Y150165D01*
X192390Y153584D02*
Y157519D01*
X194358D01*
X195014Y156863D01*
Y155551D01*
X194358Y154895D01*
X192390D01*
X193702D02*
X195014Y153584D01*
X196326Y156863D02*
X196982Y157519D01*
X198293D01*
X198949Y156863D01*
Y156207D01*
X198293Y155551D01*
X197637D01*
X198293D01*
X198949Y154895D01*
Y154239D01*
X198293Y153584D01*
X196982D01*
X196326Y154239D01*
X200261Y156863D02*
X200917Y157519D01*
X202229D01*
X202885Y156863D01*
Y154239D01*
X202229Y153584D01*
X200917D01*
X200261Y154239D01*
Y156863D01*
X206838Y153628D02*
Y157563D01*
X208805D01*
X209461Y156907D01*
Y155596D01*
X208805Y154939D01*
X206838D01*
X208150D02*
X209461Y153628D01*
X210773Y156907D02*
X211429Y157563D01*
X212741D01*
X213397Y156907D01*
Y156251D01*
X212741Y155596D01*
X212085D01*
X212741D01*
X213397Y154939D01*
Y154284D01*
X212741Y153628D01*
X211429D01*
X210773Y154284D01*
X214709Y153628D02*
X216021D01*
X215365D01*
Y157563D01*
X214709Y156907D01*
X220623Y153569D02*
Y157504D01*
X222591D01*
X223247Y156848D01*
Y155536D01*
X222591Y154880D01*
X220623D01*
X221935D02*
X223247Y153569D01*
X224559Y156848D02*
X225215Y157504D01*
X226527D01*
X227183Y156848D01*
Y156192D01*
X226527Y155536D01*
X225871D01*
X226527D01*
X227183Y154880D01*
Y154225D01*
X226527Y153569D01*
X225215D01*
X224559Y154225D01*
X228495Y156848D02*
X229151Y157504D01*
X230462D01*
X231118Y156848D01*
Y156192D01*
X230462Y155536D01*
X229806D01*
X230462D01*
X231118Y154880D01*
Y154225D01*
X230462Y153569D01*
X229151D01*
X228495Y154225D01*
X234563Y153776D02*
Y157712D01*
X236531D01*
X237187Y157055D01*
Y155744D01*
X236531Y155088D01*
X234563D01*
X235875D02*
X237187Y153776D01*
X238499Y157055D02*
X239155Y157712D01*
X240467D01*
X241123Y157055D01*
Y156400D01*
X240467Y155744D01*
X239811D01*
X240467D01*
X241123Y155088D01*
Y154432D01*
X240467Y153776D01*
X239155D01*
X238499Y154432D01*
X245059Y157712D02*
X242435D01*
Y155744D01*
X243747Y156400D01*
X244403D01*
X245059Y155744D01*
Y154432D01*
X244403Y153776D01*
X243091D01*
X242435Y154432D01*
D12*
X246850Y143701D02*
Y150000D01*
X260039Y143701D02*
Y150000D01*
X203740Y143701D02*
Y150000D01*
X190551Y143701D02*
Y150000D01*
X217815Y143701D02*
Y150000D01*
X204626Y143701D02*
Y150000D01*
X231890Y143701D02*
Y150000D01*
X218701Y143701D02*
Y150000D01*
X245965Y143701D02*
Y150000D01*
X232776Y143701D02*
Y150000D01*
X274114Y143701D02*
Y150000D01*
X260925Y143701D02*
Y150000D01*
X288189Y143701D02*
Y150000D01*
X275000Y143701D02*
Y150000D01*
D13*
X646358Y4035D02*
Y13401D01*
Y4035D02*
X663375D01*
X676378Y13849D02*
Y41641D01*
X646358Y42111D02*
Y51476D01*
X663294D01*
X43307Y288386D02*
Y295276D01*
Y271654D02*
Y278543D01*
Y271654D02*
X66929D01*
Y278543D01*
Y288386D02*
Y295276D01*
X43307D02*
X66929D01*
X161024Y51181D02*
Y58071D01*
Y67913D02*
Y74803D01*
X137402D02*
X161024D01*
X137402Y67913D02*
Y74803D01*
Y51181D02*
Y58071D01*
Y51181D02*
X161024D01*
X228937Y74803D02*
X235827D01*
X212205D02*
X219094D01*
X212205Y51181D02*
Y74803D01*
Y51181D02*
X219094D01*
X228937D02*
X235827D01*
Y74803D01*
X310630Y51181D02*
Y58071D01*
Y67913D02*
Y74803D01*
X287008D02*
X310630D01*
X287008Y67913D02*
Y74803D01*
Y51181D02*
Y58071D01*
Y51181D02*
X310630D01*
X385433D02*
Y58071D01*
Y67913D02*
Y74803D01*
X361811D02*
X385433D01*
X361811Y67913D02*
Y74803D01*
Y51181D02*
Y58071D01*
Y51181D02*
X385433D01*
X460236D02*
Y58071D01*
Y67913D02*
Y74803D01*
X436614D02*
X460236D01*
X436614Y67913D02*
Y74803D01*
Y51181D02*
Y58071D01*
Y51181D02*
X460236D01*
X535039D02*
Y58071D01*
Y67913D02*
Y74803D01*
X511417D02*
X535039D01*
X511417Y67913D02*
Y74803D01*
Y51181D02*
Y58071D01*
Y51181D02*
X535039D01*
X625984Y362205D02*
Y369094D01*
Y378937D02*
Y385827D01*
X602362D02*
X625984D01*
X602362Y378937D02*
Y385827D01*
Y362205D02*
Y369094D01*
Y362205D02*
X625984D01*
X704724D02*
Y369094D01*
Y378937D02*
Y385827D01*
X681102D02*
X704724D01*
X681102Y378937D02*
Y385827D01*
Y362205D02*
Y369094D01*
Y362205D02*
X704724D01*
X625984Y318898D02*
Y325787D01*
Y335630D02*
Y342520D01*
X602362D02*
X625984D01*
X602362Y335630D02*
Y342520D01*
Y318898D02*
Y325787D01*
Y318898D02*
X625984D01*
X704724D02*
Y325787D01*
Y335630D02*
Y342520D01*
X681102D02*
X704724D01*
X681102Y335630D02*
Y342520D01*
Y318898D02*
Y325787D01*
Y318898D02*
X704724D01*
X43307Y158465D02*
Y165354D01*
Y141732D02*
Y148622D01*
Y141732D02*
X66929D01*
Y148622D01*
Y158465D02*
Y165354D01*
X43307D02*
X66929D01*
X43307Y228346D02*
X66929D01*
X43307D02*
Y235236D01*
Y245079D02*
Y251969D01*
X66929D01*
Y245079D02*
Y251969D01*
Y228346D02*
Y235236D01*
X43307Y208661D02*
X66929D01*
Y201772D02*
Y208661D01*
Y185039D02*
Y191929D01*
X43307Y185039D02*
X66929D01*
X43307D02*
Y191929D01*
Y201772D02*
Y208661D01*
D14*
X438477Y394255D02*
X442277D01*
X438377Y394355D02*
X442377D01*
X438277Y394455D02*
X442577D01*
X438177Y394555D02*
X442677D01*
X438077Y394655D02*
X442877D01*
X437677Y395055D02*
X444977D01*
X437577Y395155D02*
X444977D01*
X437477Y395255D02*
X444977D01*
X437377Y395355D02*
X445077D01*
X437377Y395455D02*
X445077D01*
X437377Y395555D02*
X445177D01*
X437377Y395655D02*
X445177D01*
X436977Y401655D02*
X445477D01*
X436477Y401755D02*
X445377D01*
X435877Y401855D02*
X445377D01*
X437977Y394755D02*
X444777D01*
X437877Y394855D02*
X444877D01*
X437777Y394955D02*
X444877D01*
X437477Y395755D02*
X445277D01*
X437477Y395855D02*
X445277D01*
X437577Y395955D02*
X445277D01*
X437677Y396055D02*
X445377D01*
X437777Y396155D02*
X445377D01*
X437777Y396255D02*
X445477D01*
X437877Y396355D02*
X445477D01*
X437977Y396455D02*
X445477D01*
X437977Y396555D02*
X445577D01*
X438077Y396655D02*
X445577D01*
X438177Y396755D02*
X445677D01*
X438177Y396855D02*
X445677D01*
X438277Y396955D02*
X445777D01*
X438377Y397055D02*
X445777D01*
X438377Y397155D02*
X445777D01*
X438477Y397255D02*
X445877D01*
X438577Y397355D02*
X445877D01*
X438577Y397455D02*
X445977D01*
X438677Y397555D02*
X445977D01*
X438777Y397655D02*
X445977D01*
X438477Y400755D02*
X446477D01*
X438377Y400855D02*
X446277D01*
X438377Y400955D02*
X446177D01*
X438277Y401055D02*
X446077D01*
X438277Y401155D02*
X445977D01*
X438277Y401255D02*
X445777D01*
X438177Y401355D02*
X445777D01*
X437977Y401455D02*
X445677D01*
X437477Y401555D02*
X445577D01*
X434477Y402655D02*
X444877D01*
X434477Y402755D02*
X444877D01*
X434477Y402955D02*
X444777D01*
X434477Y403055D02*
X444777D01*
X434477Y403155D02*
X444777D01*
X434477Y403255D02*
X444777D01*
X434477Y403355D02*
X444777D01*
X434477Y403455D02*
X444677D01*
X434477Y403555D02*
X444677D01*
X434477Y403655D02*
X444677D01*
X434477Y403755D02*
X444677D01*
X434477Y403855D02*
X444677D01*
X434477Y403955D02*
X444677D01*
X434477Y404055D02*
X444677D01*
X434477Y404155D02*
X444677D01*
X434477Y404255D02*
X444677D01*
X434477Y404355D02*
X444677D01*
X434477Y404455D02*
X444677D01*
X434477Y404555D02*
X444677D01*
X434477Y404655D02*
X444677D01*
X434477Y404755D02*
X444777D01*
X434477Y404855D02*
X444777D01*
X434477Y404955D02*
X444777D01*
X434477Y405055D02*
X444777D01*
X435377Y401955D02*
X445277D01*
X434777Y402055D02*
X445177D01*
X434577Y402155D02*
X445177D01*
X434477Y402255D02*
X445077D01*
X434477Y402355D02*
X445077D01*
X434477Y402455D02*
X444977D01*
X434477Y402555D02*
X444977D01*
X434477Y402855D02*
X444877D01*
X434477Y405155D02*
X444877D01*
X434477Y405255D02*
X444877D01*
X434477Y405355D02*
X444877D01*
X434477Y405455D02*
X444877D01*
X434477Y405555D02*
X444977D01*
X434477Y405655D02*
X444977D01*
X434477Y405755D02*
X445077D01*
X434477Y405855D02*
X445077D01*
X434577Y405955D02*
X445177D01*
X434777Y406055D02*
X445277D01*
X435277Y406155D02*
X445277D01*
X435877Y406255D02*
X445377D01*
X436377Y406355D02*
X445477D01*
X436977Y406455D02*
X445477D01*
X437477Y406555D02*
X445577D01*
X437977Y406655D02*
X445677D01*
X438277Y406755D02*
X445777D01*
X438277Y406855D02*
X445877D01*
X438377Y406955D02*
X445977D01*
X438377Y407055D02*
X446077D01*
X438477Y407155D02*
X446177D01*
X438477Y407255D02*
X446377D01*
X437877Y413255D02*
X443177D01*
X437977Y413355D02*
X442977D01*
X443177Y394655D02*
X444777D01*
X438877Y397755D02*
X446077D01*
X438877Y397855D02*
X446077D01*
X438977Y397955D02*
X446177D01*
X439077Y398055D02*
X446177D01*
X439077Y398155D02*
X446177D01*
X439177Y398255D02*
X446277D01*
X439277Y398355D02*
X446277D01*
X439277Y398455D02*
X446377D01*
X439277Y398555D02*
X446377D01*
X439277Y398655D02*
X446477D01*
X439277Y398755D02*
X446477D01*
X439177Y398855D02*
X446477D01*
X439177Y398955D02*
X446577D01*
X439177Y399055D02*
X446577D01*
X439077Y399155D02*
X446677D01*
X439077Y399255D02*
X446677D01*
X438977Y399355D02*
X446677D01*
X438977Y399455D02*
X446777D01*
X438877Y399555D02*
X446777D01*
X438877Y399655D02*
X446877D01*
X438877Y399755D02*
X446877D01*
X438777Y399855D02*
X446977D01*
X438777Y399955D02*
X446977D01*
X438677Y400055D02*
X446977D01*
X438677Y400155D02*
X447077D01*
X438677Y400255D02*
X447077D01*
X438577Y400355D02*
X446977D01*
X438577Y400455D02*
X446877D01*
X438477Y400555D02*
X446677D01*
X438477Y400655D02*
X446577D01*
X438577Y407355D02*
X446477D01*
X443977Y394255D02*
X444577D01*
X452577D02*
X453277D01*
X443777Y394355D02*
X444677D01*
X452577D02*
X453477D01*
X443577Y394455D02*
X444677D01*
X452477D02*
X453677D01*
X443377Y394555D02*
X444777D01*
X452477D02*
X453877D01*
X452477Y394655D02*
X453977D01*
X450877Y398555D02*
X457877D01*
X450777Y398655D02*
X457977D01*
X450777Y398755D02*
X457977D01*
X450677Y398855D02*
X457977D01*
X450677Y398955D02*
X458077D01*
X450577Y399055D02*
X458077D01*
X450577Y399155D02*
X458177D01*
X450577Y399255D02*
X458177D01*
X450477Y399355D02*
X458177D01*
X450477Y399455D02*
X458277D01*
X450377Y399555D02*
X458277D01*
X450377Y399655D02*
X458377D01*
X450277Y399755D02*
X458377D01*
X450277Y399855D02*
X458377D01*
X450277Y399955D02*
X458477D01*
X450177Y400055D02*
X458477D01*
X450177Y400155D02*
X458577D01*
X450177Y400255D02*
X458577D01*
X450277Y400355D02*
X458577D01*
X438577Y407455D02*
X446677D01*
X438577Y407555D02*
X446877D01*
X438677Y407655D02*
X447077D01*
X438677Y407755D02*
X447277D01*
X438777Y407855D02*
X447577D01*
X438777Y407955D02*
X448177D01*
X438877Y408255D02*
X458277D01*
X438977Y408455D02*
X458177D01*
X439177Y408855D02*
X458077D01*
X439177Y408955D02*
X457977D01*
X439277Y409155D02*
X457877D01*
X439377Y409255D02*
X457877D01*
X439377Y409455D02*
X457777D01*
X439277Y409655D02*
X457877D01*
X439077Y409955D02*
X458077D01*
X438877Y410255D02*
X458277D01*
X438877Y410355D02*
X458377D01*
X438677Y410555D02*
X458477D01*
X438477Y410855D02*
X458677D01*
X438377Y410955D02*
X458777D01*
X438177Y411255D02*
X458977D01*
X437977Y411555D02*
X459177D01*
X437777Y411855D02*
X459377D01*
X437577Y412155D02*
X459577D01*
X437377Y412455D02*
X459777D01*
X437377Y412555D02*
X459877D01*
X437377Y412755D02*
X459877D01*
X437477Y412855D02*
X459777D01*
X437577Y412955D02*
X459677D01*
X437677Y413055D02*
X459577D01*
X437777Y413155D02*
X459477D01*
X443377Y413255D02*
X453777D01*
X450177Y407655D02*
X458577D01*
X449877Y407755D02*
X458477D01*
X449577Y407855D02*
X458477D01*
X448977Y407955D02*
X458477D01*
X438877Y408055D02*
X458377D01*
X438877Y408155D02*
X458377D01*
X438977Y408355D02*
X458277D01*
X439077Y408555D02*
X458177D01*
X439077Y408655D02*
X458177D01*
X439177Y408755D02*
X458077D01*
X439277Y409055D02*
X457977D01*
X439377Y409355D02*
X457877D01*
X439377Y409555D02*
X457877D01*
X439277Y409755D02*
X457977D01*
X439177Y409855D02*
X458077D01*
X439077Y410055D02*
X458177D01*
X438977Y410155D02*
X458277D01*
X438777Y410455D02*
X458477D01*
X438677Y410655D02*
X458577D01*
X438577Y410755D02*
X458677D01*
X438377Y411055D02*
X458877D01*
X438277Y411155D02*
X458977D01*
X438177Y411355D02*
X459077D01*
X438077Y411455D02*
X459177D01*
X437977Y411655D02*
X459277D01*
X437877Y411755D02*
X459377D01*
X437777Y411955D02*
X459477D01*
X437677Y412055D02*
X459577D01*
X437577Y412255D02*
X459677D01*
X437477Y412355D02*
X459777D01*
X437377Y412655D02*
X459877D01*
X443677Y413355D02*
X453577D01*
X451277Y397555D02*
X458477D01*
X451277Y397455D02*
X458577D01*
X451277Y397355D02*
X458677D01*
X451377Y397255D02*
X458677D01*
X451377Y397155D02*
X458777D01*
X451477Y397055D02*
X458877D01*
X451477Y396955D02*
X458977D01*
X451577Y396855D02*
X458977D01*
X451577Y396755D02*
X459077D01*
X451577Y396655D02*
X459177D01*
X451677Y396555D02*
X459177D01*
X451677Y396455D02*
X459277D01*
X451777Y396255D02*
X459377D01*
X451777Y396355D02*
X459377D01*
X451777Y396155D02*
X459477D01*
X451877Y396055D02*
X459577D01*
X454977Y394255D02*
X458777D01*
X454777Y394355D02*
X458877D01*
X454677Y394455D02*
X458977D01*
X454577Y394555D02*
X459077D01*
X454377Y394655D02*
X459177D01*
X452377Y394755D02*
X459277D01*
X452377Y394855D02*
X459377D01*
X452277Y394955D02*
X459477D01*
X452277Y395055D02*
X459577D01*
X452177Y395155D02*
X459677D01*
X452177Y395255D02*
X459777D01*
X452177Y395355D02*
X459877D01*
X452077Y395455D02*
X459877D01*
X452077Y395555D02*
X459877D01*
X452077Y395655D02*
X459777D01*
X451977Y395755D02*
X459777D01*
X451977Y395855D02*
X459677D01*
X451877Y395955D02*
X459577D01*
X451177Y397655D02*
X458477D01*
X451177Y397755D02*
X458377D01*
X451077Y397855D02*
X458277D01*
X451077Y397955D02*
X458277D01*
X451077Y398055D02*
X458177D01*
X450977Y398155D02*
X458077D01*
X450977Y398255D02*
X458077D01*
X450877Y398355D02*
X457977D01*
X450877Y398455D02*
X457977D01*
X450377Y400455D02*
X458677D01*
X450477Y400555D02*
X458677D01*
X450677Y400655D02*
X458677D01*
X450777Y400755D02*
X458777D01*
X450877Y400855D02*
X458777D01*
X451077Y400955D02*
X458877D01*
X451177Y401055D02*
X458877D01*
X451277Y401155D02*
X458977D01*
X451377Y401255D02*
X458977D01*
X451477Y401355D02*
X459077D01*
X451577Y401455D02*
X459177D01*
X451477Y406755D02*
X458977D01*
X451377Y406855D02*
X458877D01*
X451277Y406955D02*
X458877D01*
X451177Y407055D02*
X458777D01*
X450977Y407155D02*
X458777D01*
X450877Y407255D02*
X458677D01*
X450777Y407355D02*
X458677D01*
X450577Y407455D02*
X458677D01*
X450377Y407555D02*
X458577D01*
X451677Y401555D02*
X459677D01*
X451777Y401655D02*
X460277D01*
X451777Y401755D02*
X460777D01*
X451877Y401855D02*
X461277D01*
X451977Y401955D02*
X461877D01*
X451877Y406155D02*
X461977D01*
X451877Y406255D02*
X461377D01*
X451777Y406355D02*
X460777D01*
X451677Y406455D02*
X460277D01*
X451677Y406555D02*
X459777D01*
X451577Y406655D02*
X459177D01*
X454077Y413255D02*
X459377D01*
X454177Y413355D02*
X459277D01*
X454377Y413455D02*
X459177D01*
X454477Y413555D02*
X459077D01*
X454677Y413655D02*
X458977D01*
X454777Y413755D02*
X458877D01*
X454977Y413855D02*
X458777D01*
X455077Y413955D02*
X458677D01*
X455277Y414055D02*
X458577D01*
X455377Y414155D02*
X458477D01*
X455477Y414255D02*
X458377D01*
X455677Y414355D02*
X458277D01*
X455877Y414455D02*
X458177D01*
X455977Y414555D02*
X458077D01*
X456077Y414655D02*
X457977D01*
X456277Y414755D02*
X457877D01*
X456377Y414855D02*
X457777D01*
X456577Y414955D02*
X457677D01*
X456677Y415055D02*
X457577D01*
X456877Y415155D02*
X457477D01*
X456977Y415255D02*
X457377D01*
X452177Y402455D02*
X462677D01*
X451977Y402055D02*
X462377D01*
X452277Y402755D02*
X462677D01*
X452177Y405755D02*
X462777D01*
X452077Y402155D02*
X462677D01*
X452077Y402255D02*
X462677D01*
X452277Y402555D02*
X462677D01*
X452177Y402355D02*
X462677D01*
X452277Y402655D02*
X462677D01*
X452177Y405655D02*
X462777D01*
X452077Y405855D02*
X462677D01*
X452377Y402955D02*
X462677D01*
X452277Y405555D02*
X462777D01*
X452277Y405355D02*
X462777D01*
X452377Y402855D02*
X462677D01*
X452377Y403055D02*
X462677D01*
X452477Y403155D02*
X462777D01*
X452477Y403255D02*
X462777D01*
X452477Y403355D02*
X462777D01*
X452477Y403455D02*
X462777D01*
X452477Y403555D02*
X462777D01*
X452477Y403655D02*
X462777D01*
X452577Y403755D02*
X462777D01*
X452577Y403855D02*
X462777D01*
X452577Y403955D02*
X462677D01*
X452577Y404055D02*
X462677D01*
X452577Y404155D02*
X462677D01*
X452577Y404255D02*
X462677D01*
X452577Y404355D02*
X462677D01*
X452477Y404455D02*
X462677D01*
X452477Y404555D02*
X462677D01*
X452477Y404655D02*
X462677D01*
X452477Y404755D02*
X462777D01*
X452477Y404855D02*
X462777D01*
X452477Y404955D02*
X462777D01*
X452377Y405055D02*
X462777D01*
X452377Y405155D02*
X462777D01*
X452377Y405255D02*
X462777D01*
X452277Y405455D02*
X462777D01*
X452077Y405955D02*
X462677D01*
X451977Y406055D02*
X462377D01*
X438077Y413455D02*
X442877D01*
X443877D02*
X453277D01*
X438177Y413555D02*
X442677D01*
X438277Y413655D02*
X442577D01*
X438377Y413755D02*
X442377D01*
X438477Y413855D02*
X442277D01*
X438577Y413955D02*
X442077D01*
X445077D02*
X452077D01*
X438677Y414055D02*
X441977D01*
X438777Y414155D02*
X441877D01*
X438877Y414255D02*
X441677D01*
X445777D02*
X451377D01*
X438977Y414355D02*
X441577D01*
X439077Y414455D02*
X441377D01*
X439177Y414555D02*
X441277D01*
X445977D02*
X451177D01*
X439277Y414655D02*
X441077D01*
X445977D02*
X451177D01*
X439377Y414755D02*
X440977D01*
X439477Y414855D02*
X440777D01*
X439577Y414955D02*
X440677D01*
X439677Y415055D02*
X440477D01*
X439777Y415155D02*
X440377D01*
X446077D02*
X451077D01*
X439877Y415255D02*
X440177D01*
X446077D02*
X451077D01*
X446177Y415655D02*
X450977D01*
X446177Y415755D02*
X450977D01*
X446377Y416755D02*
X450777D01*
X446477Y417255D02*
X450677D01*
X446477Y417355D02*
X450677D01*
X446577Y417755D02*
X450577D01*
X444177Y413555D02*
X453077D01*
X444377Y413655D02*
X452877D01*
X444677Y413755D02*
X452577D01*
X444877Y413855D02*
X452377D01*
X445377Y414055D02*
X451877D01*
X445577Y414155D02*
X451577D01*
X445977Y414355D02*
X451277D01*
X445977Y414455D02*
X451277D01*
X446077Y414755D02*
X451177D01*
X446077Y414855D02*
X451177D01*
X446077Y414955D02*
X451177D01*
X446077Y415055D02*
X451077D01*
X446177Y415355D02*
X451077D01*
X446177Y415455D02*
X451077D01*
X446177Y415555D02*
X451077D01*
X446277Y415855D02*
X450977D01*
X446277Y415955D02*
X450977D01*
X446277Y416055D02*
X450977D01*
X446277Y416155D02*
X450977D01*
X446277Y416255D02*
X450877D01*
X446377Y416355D02*
X450877D01*
X446377Y416455D02*
X450877D01*
X446377Y416555D02*
X450877D01*
X446377Y416655D02*
X450877D01*
X446377Y416855D02*
X450777D01*
X446477Y416955D02*
X450777D01*
X446477Y417055D02*
X450777D01*
X446477Y417155D02*
X450777D01*
X446577Y417455D02*
X450677D01*
X446577Y417555D02*
X450677D01*
X446577Y417655D02*
X450677D01*
X446577Y417855D02*
X450577D01*
X446577Y417955D02*
X450577D01*
X446677Y418055D02*
X450577D01*
X446777Y418155D02*
X450477D01*
X439377Y393355D02*
X440977D01*
X439277Y393455D02*
X441077D01*
X439177Y393555D02*
X441277D01*
X439077Y393655D02*
X441377D01*
X438977Y393755D02*
X441577D01*
X438877Y393855D02*
X441677D01*
X438777Y393955D02*
X441877D01*
X438677Y394055D02*
X441977D01*
X438577Y394155D02*
X442077D01*
X444377Y394055D02*
X444477D01*
X452777D02*
X452877D01*
X444177Y394155D02*
X444577D01*
X452677D02*
X453077D01*
X456277Y393355D02*
X457877D01*
X456177Y393455D02*
X457977D01*
X455977Y393555D02*
X458077D01*
X455877Y393655D02*
X458177D01*
X455677Y393755D02*
X458277D01*
X455577Y393855D02*
X458377D01*
X455377Y393955D02*
X458477D01*
X455277Y394055D02*
X458577D01*
X455077Y394155D02*
X458677D01*
X439477Y393255D02*
X440777D01*
X439777Y392955D02*
X440377D01*
X439577Y393155D02*
X440677D01*
X439677Y393055D02*
X440477D01*
X439877Y392855D02*
X440177D01*
X456977D02*
X457377D01*
X456877Y392955D02*
X457477D01*
X456677Y393055D02*
X457577D01*
X456577Y393155D02*
X457677D01*
X456377Y393255D02*
X457777D01*
M02*
