G04*
G04 #@! TF.GenerationSoftware,Altium Limited,Altium Designer,24.4.1 (13)*
G04*
G04 Layer_Color=16711935*
%FSLAX25Y25*%
%MOIN*%
G70*
G04*
G04 #@! TF.SameCoordinates,9BA34CE2-F453-49C1-9203-2D8BC28E9390*
G04*
G04*
G04 #@! TF.FilePolarity,Negative*
G04*
G01*
G75*
G04:AMPARAMS|DCode=17|XSize=35.43mil|YSize=16.73mil|CornerRadius=2.93mil|HoleSize=0mil|Usage=FLASHONLY|Rotation=90.000|XOffset=0mil|YOffset=0mil|HoleType=Round|Shape=RoundedRectangle|*
%AMROUNDEDRECTD17*
21,1,0.03543,0.01088,0,0,90.0*
21,1,0.02958,0.01673,0,0,90.0*
1,1,0.00586,0.00544,0.01479*
1,1,0.00586,0.00544,-0.01479*
1,1,0.00586,-0.00544,-0.01479*
1,1,0.00586,-0.00544,0.01479*
%
%ADD17ROUNDEDRECTD17*%
G04:AMPARAMS|DCode=24|XSize=31.5mil|YSize=37.4mil|CornerRadius=5.2mil|HoleSize=0mil|Usage=FLASHONLY|Rotation=90.000|XOffset=0mil|YOffset=0mil|HoleType=Round|Shape=RoundedRectangle|*
%AMROUNDEDRECTD24*
21,1,0.03150,0.02701,0,0,90.0*
21,1,0.02110,0.03740,0,0,90.0*
1,1,0.01039,0.01350,0.01055*
1,1,0.01039,0.01350,-0.01055*
1,1,0.01039,-0.01350,-0.01055*
1,1,0.01039,-0.01350,0.01055*
%
%ADD24ROUNDEDRECTD24*%
%ADD25O,0.06299X0.09449*%
%ADD26O,0.09449X0.06299*%
%ADD27O,0.08661X0.05512*%
%ADD28O,0.05512X0.08661*%
%ADD29C,0.07087*%
G04:AMPARAMS|DCode=30|XSize=55.43mil|YSize=55.43mil|CornerRadius=9.7mil|HoleSize=0mil|Usage=FLASHONLY|Rotation=270.000|XOffset=0mil|YOffset=0mil|HoleType=Round|Shape=RoundedRectangle|*
%AMROUNDEDRECTD30*
21,1,0.05543,0.03603,0,0,270.0*
21,1,0.03603,0.05543,0,0,270.0*
1,1,0.01940,-0.01802,-0.01802*
1,1,0.01940,-0.01802,0.01802*
1,1,0.01940,0.01802,0.01802*
1,1,0.01940,0.01802,-0.01802*
%
%ADD30ROUNDEDRECTD30*%
%ADD31C,0.05543*%
%ADD32C,0.09291*%
%ADD33C,0.05118*%
%ADD34C,0.05906*%
G04:AMPARAMS|DCode=35|XSize=59.06mil|YSize=59.06mil|CornerRadius=10.34mil|HoleSize=0mil|Usage=FLASHONLY|Rotation=180.000|XOffset=0mil|YOffset=0mil|HoleType=Round|Shape=RoundedRectangle|*
%AMROUNDEDRECTD35*
21,1,0.05906,0.03839,0,0,180.0*
21,1,0.03839,0.05906,0,0,180.0*
1,1,0.02067,-0.01919,0.01919*
1,1,0.02067,0.01919,0.01919*
1,1,0.02067,0.01919,-0.01919*
1,1,0.02067,-0.01919,-0.01919*
%
%ADD35ROUNDEDRECTD35*%
G04:AMPARAMS|DCode=36|XSize=55.12mil|YSize=55.12mil|CornerRadius=9.65mil|HoleSize=0mil|Usage=FLASHONLY|Rotation=180.000|XOffset=0mil|YOffset=0mil|HoleType=Round|Shape=RoundedRectangle|*
%AMROUNDEDRECTD36*
21,1,0.05512,0.03583,0,0,180.0*
21,1,0.03583,0.05512,0,0,180.0*
1,1,0.01929,-0.01791,0.01791*
1,1,0.01929,0.01791,0.01791*
1,1,0.01929,0.01791,-0.01791*
1,1,0.01929,-0.01791,-0.01791*
%
%ADD36ROUNDEDRECTD36*%
%ADD37C,0.05512*%
%ADD38C,0.21654*%
%ADD39O,0.13780X0.17717*%
%ADD40C,0.07874*%
%ADD41C,0.06299*%
G04:AMPARAMS|DCode=42|XSize=62.99mil|YSize=62.99mil|CornerRadius=11.02mil|HoleSize=0mil|Usage=FLASHONLY|Rotation=270.000|XOffset=0mil|YOffset=0mil|HoleType=Round|Shape=RoundedRectangle|*
%AMROUNDEDRECTD42*
21,1,0.06299,0.04095,0,0,270.0*
21,1,0.04095,0.06299,0,0,270.0*
1,1,0.02205,-0.02047,-0.02047*
1,1,0.02205,-0.02047,0.02047*
1,1,0.02205,0.02047,0.02047*
1,1,0.02205,0.02047,-0.02047*
%
%ADD42ROUNDEDRECTD42*%
%ADD43C,0.12795*%
%ADD44C,0.09626*%
%ADD45C,0.04724*%
%ADD46C,0.06024*%
%ADD47R,0.05504X0.05504*%
%ADD48O,0.08268X0.04134*%
%ADD49C,0.02756*%
%ADD50C,0.03950*%
G04:AMPARAMS|DCode=58|XSize=51.18mil|YSize=59.06mil|CornerRadius=8.96mil|HoleSize=0mil|Usage=FLASHONLY|Rotation=270.000|XOffset=0mil|YOffset=0mil|HoleType=Round|Shape=RoundedRectangle|*
%AMROUNDEDRECTD58*
21,1,0.05118,0.04114,0,0,270.0*
21,1,0.03327,0.05906,0,0,270.0*
1,1,0.01791,-0.02057,-0.01663*
1,1,0.01791,-0.02057,0.01663*
1,1,0.01791,0.02057,0.01663*
1,1,0.01791,0.02057,-0.01663*
%
%ADD58ROUNDEDRECTD58*%
G04:AMPARAMS|DCode=59|XSize=31.5mil|YSize=70.87mil|CornerRadius=5.51mil|HoleSize=0mil|Usage=FLASHONLY|Rotation=270.000|XOffset=0mil|YOffset=0mil|HoleType=Round|Shape=RoundedRectangle|*
%AMROUNDEDRECTD59*
21,1,0.03150,0.05984,0,0,270.0*
21,1,0.02047,0.07087,0,0,270.0*
1,1,0.01102,-0.02992,-0.01024*
1,1,0.01102,-0.02992,0.01024*
1,1,0.01102,0.02992,0.01024*
1,1,0.01102,0.02992,-0.01024*
%
%ADD59ROUNDEDRECTD59*%
G04:AMPARAMS|DCode=60|XSize=29.53mil|YSize=70.87mil|CornerRadius=5.17mil|HoleSize=0mil|Usage=FLASHONLY|Rotation=270.000|XOffset=0mil|YOffset=0mil|HoleType=Round|Shape=RoundedRectangle|*
%AMROUNDEDRECTD60*
21,1,0.02953,0.06053,0,0,270.0*
21,1,0.01919,0.07087,0,0,270.0*
1,1,0.01034,-0.03027,-0.00960*
1,1,0.01034,-0.03027,0.00960*
1,1,0.01034,0.03027,0.00960*
1,1,0.01034,0.03027,-0.00960*
%
%ADD60ROUNDEDRECTD60*%
G04:AMPARAMS|DCode=61|XSize=55.12mil|YSize=110.24mil|CornerRadius=9.65mil|HoleSize=0mil|Usage=FLASHONLY|Rotation=270.000|XOffset=0mil|YOffset=0mil|HoleType=Round|Shape=RoundedRectangle|*
%AMROUNDEDRECTD61*
21,1,0.05512,0.09095,0,0,270.0*
21,1,0.03583,0.11024,0,0,270.0*
1,1,0.01929,-0.04547,-0.01791*
1,1,0.01929,-0.04547,0.01791*
1,1,0.01929,0.04547,0.01791*
1,1,0.01929,0.04547,-0.01791*
%
%ADD61ROUNDEDRECTD61*%
G04:AMPARAMS|DCode=62|XSize=55.12mil|YSize=39.37mil|CornerRadius=6.89mil|HoleSize=0mil|Usage=FLASHONLY|Rotation=270.000|XOffset=0mil|YOffset=0mil|HoleType=Round|Shape=RoundedRectangle|*
%AMROUNDEDRECTD62*
21,1,0.05512,0.02559,0,0,270.0*
21,1,0.04134,0.03937,0,0,270.0*
1,1,0.01378,-0.01280,-0.02067*
1,1,0.01378,-0.01280,0.02067*
1,1,0.01378,0.01280,0.02067*
1,1,0.01378,0.01280,-0.02067*
%
%ADD62ROUNDEDRECTD62*%
G04:AMPARAMS|DCode=63|XSize=55.12mil|YSize=47.24mil|CornerRadius=8.27mil|HoleSize=0mil|Usage=FLASHONLY|Rotation=270.000|XOffset=0mil|YOffset=0mil|HoleType=Round|Shape=RoundedRectangle|*
%AMROUNDEDRECTD63*
21,1,0.05512,0.03071,0,0,270.0*
21,1,0.03858,0.04724,0,0,270.0*
1,1,0.01654,-0.01535,-0.01929*
1,1,0.01654,-0.01535,0.01929*
1,1,0.01654,0.01535,0.01929*
1,1,0.01654,0.01535,-0.01929*
%
%ADD63ROUNDEDRECTD63*%
G04:AMPARAMS|DCode=64|XSize=51.18mil|YSize=78.74mil|CornerRadius=8.96mil|HoleSize=0mil|Usage=FLASHONLY|Rotation=270.000|XOffset=0mil|YOffset=0mil|HoleType=Round|Shape=RoundedRectangle|*
%AMROUNDEDRECTD64*
21,1,0.05118,0.06083,0,0,270.0*
21,1,0.03327,0.07874,0,0,270.0*
1,1,0.01791,-0.03041,-0.01663*
1,1,0.01791,-0.03041,0.01663*
1,1,0.01791,0.03041,0.01663*
1,1,0.01791,0.03041,-0.01663*
%
%ADD64ROUNDEDRECTD64*%
G04:AMPARAMS|DCode=65|XSize=78.74mil|YSize=74.8mil|CornerRadius=12.34mil|HoleSize=0mil|Usage=FLASHONLY|Rotation=90.000|XOffset=0mil|YOffset=0mil|HoleType=Round|Shape=RoundedRectangle|*
%AMROUNDEDRECTD65*
21,1,0.07874,0.05012,0,0,90.0*
21,1,0.05406,0.07480,0,0,90.0*
1,1,0.02468,0.02506,0.02703*
1,1,0.02468,0.02506,-0.02703*
1,1,0.02468,-0.02506,-0.02703*
1,1,0.02468,-0.02506,0.02703*
%
%ADD65ROUNDEDRECTD65*%
G04:AMPARAMS|DCode=66|XSize=56.69mil|YSize=23.62mil|CornerRadius=3.9mil|HoleSize=0mil|Usage=FLASHONLY|Rotation=270.000|XOffset=0mil|YOffset=0mil|HoleType=Round|Shape=RoundedRectangle|*
%AMROUNDEDRECTD66*
21,1,0.05669,0.01583,0,0,270.0*
21,1,0.04890,0.02362,0,0,270.0*
1,1,0.00780,-0.00791,-0.02445*
1,1,0.00780,-0.00791,0.02445*
1,1,0.00780,0.00791,0.02445*
1,1,0.00780,0.00791,-0.02445*
%
%ADD66ROUNDEDRECTD66*%
G04:AMPARAMS|DCode=67|XSize=110.24mil|YSize=35.43mil|CornerRadius=8.86mil|HoleSize=0mil|Usage=FLASHONLY|Rotation=180.000|XOffset=0mil|YOffset=0mil|HoleType=Round|Shape=RoundedRectangle|*
%AMROUNDEDRECTD67*
21,1,0.11024,0.01772,0,0,180.0*
21,1,0.09252,0.03543,0,0,180.0*
1,1,0.01772,-0.04626,0.00886*
1,1,0.01772,0.04626,0.00886*
1,1,0.01772,0.04626,-0.00886*
1,1,0.01772,-0.04626,-0.00886*
%
%ADD67ROUNDEDRECTD67*%
G04:AMPARAMS|DCode=68|XSize=208.66mil|YSize=110.24mil|CornerRadius=16.54mil|HoleSize=0mil|Usage=FLASHONLY|Rotation=180.000|XOffset=0mil|YOffset=0mil|HoleType=Round|Shape=RoundedRectangle|*
%AMROUNDEDRECTD68*
21,1,0.20866,0.07717,0,0,180.0*
21,1,0.17559,0.11024,0,0,180.0*
1,1,0.03307,-0.08780,0.03858*
1,1,0.03307,0.08780,0.03858*
1,1,0.03307,0.08780,-0.03858*
1,1,0.03307,-0.08780,-0.03858*
%
%ADD68ROUNDEDRECTD68*%
G04:AMPARAMS|DCode=69|XSize=47.64mil|YSize=71.65mil|CornerRadius=7.86mil|HoleSize=0mil|Usage=FLASHONLY|Rotation=0.000|XOffset=0mil|YOffset=0mil|HoleType=Round|Shape=RoundedRectangle|*
%AMROUNDEDRECTD69*
21,1,0.04764,0.05593,0,0,0.0*
21,1,0.03192,0.07165,0,0,0.0*
1,1,0.01572,0.01596,-0.02797*
1,1,0.01572,-0.01596,-0.02797*
1,1,0.01572,-0.01596,0.02797*
1,1,0.01572,0.01596,0.02797*
%
%ADD69ROUNDEDRECTD69*%
G04:AMPARAMS|DCode=70|XSize=23.62mil|YSize=39.37mil|CornerRadius=3.54mil|HoleSize=0mil|Usage=FLASHONLY|Rotation=180.000|XOffset=0mil|YOffset=0mil|HoleType=Round|Shape=RoundedRectangle|*
%AMROUNDEDRECTD70*
21,1,0.02362,0.03228,0,0,180.0*
21,1,0.01654,0.03937,0,0,180.0*
1,1,0.00709,-0.00827,0.01614*
1,1,0.00709,0.00827,0.01614*
1,1,0.00709,0.00827,-0.01614*
1,1,0.00709,-0.00827,-0.01614*
%
%ADD70ROUNDEDRECTD70*%
G04:AMPARAMS|DCode=71|XSize=353.94mil|YSize=417.32mil|CornerRadius=12.39mil|HoleSize=0mil|Usage=FLASHONLY|Rotation=180.000|XOffset=0mil|YOffset=0mil|HoleType=Round|Shape=RoundedRectangle|*
%AMROUNDEDRECTD71*
21,1,0.35394,0.39255,0,0,180.0*
21,1,0.32916,0.41732,0,0,180.0*
1,1,0.02478,-0.16458,0.19627*
1,1,0.02478,0.16458,0.19627*
1,1,0.02478,0.16458,-0.19627*
1,1,0.02478,-0.16458,-0.19627*
%
%ADD71ROUNDEDRECTD71*%
G04:AMPARAMS|DCode=72|XSize=115.75mil|YSize=41.34mil|CornerRadius=6.82mil|HoleSize=0mil|Usage=FLASHONLY|Rotation=0.000|XOffset=0mil|YOffset=0mil|HoleType=Round|Shape=RoundedRectangle|*
%AMROUNDEDRECTD72*
21,1,0.11575,0.02770,0,0,0.0*
21,1,0.10211,0.04134,0,0,0.0*
1,1,0.01364,0.05105,-0.01385*
1,1,0.01364,-0.05105,-0.01385*
1,1,0.01364,-0.05105,0.01385*
1,1,0.01364,0.05105,0.01385*
%
%ADD72ROUNDEDRECTD72*%
G04:AMPARAMS|DCode=73|XSize=59.06mil|YSize=43.31mil|CornerRadius=7.58mil|HoleSize=0mil|Usage=FLASHONLY|Rotation=0.000|XOffset=0mil|YOffset=0mil|HoleType=Round|Shape=RoundedRectangle|*
%AMROUNDEDRECTD73*
21,1,0.05906,0.02815,0,0,0.0*
21,1,0.04390,0.04331,0,0,0.0*
1,1,0.01516,0.02195,-0.01408*
1,1,0.01516,-0.02195,-0.01408*
1,1,0.01516,-0.02195,0.01408*
1,1,0.01516,0.02195,0.01408*
%
%ADD73ROUNDEDRECTD73*%
%ADD74O,0.01181X0.05709*%
G04:AMPARAMS|DCode=75|XSize=9.84mil|YSize=43.31mil|CornerRadius=1.72mil|HoleSize=0mil|Usage=FLASHONLY|Rotation=270.000|XOffset=0mil|YOffset=0mil|HoleType=Round|Shape=RoundedRectangle|*
%AMROUNDEDRECTD75*
21,1,0.00984,0.03986,0,0,270.0*
21,1,0.00640,0.04331,0,0,270.0*
1,1,0.00345,-0.01993,-0.00320*
1,1,0.00345,-0.01993,0.00320*
1,1,0.00345,0.01993,0.00320*
1,1,0.00345,0.01993,-0.00320*
%
%ADD75ROUNDEDRECTD75*%
G04:AMPARAMS|DCode=76|XSize=9.84mil|YSize=43.31mil|CornerRadius=1.72mil|HoleSize=0mil|Usage=FLASHONLY|Rotation=180.000|XOffset=0mil|YOffset=0mil|HoleType=Round|Shape=RoundedRectangle|*
%AMROUNDEDRECTD76*
21,1,0.00984,0.03986,0,0,180.0*
21,1,0.00640,0.04331,0,0,180.0*
1,1,0.00345,-0.00320,0.01993*
1,1,0.00345,0.00320,0.01993*
1,1,0.00345,0.00320,-0.01993*
1,1,0.00345,-0.00320,-0.01993*
%
%ADD76ROUNDEDRECTD76*%
G04:AMPARAMS|DCode=77|XSize=57.09mil|YSize=57.09mil|CornerRadius=2.85mil|HoleSize=0mil|Usage=FLASHONLY|Rotation=180.000|XOffset=0mil|YOffset=0mil|HoleType=Round|Shape=RoundedRectangle|*
%AMROUNDEDRECTD77*
21,1,0.05709,0.05138,0,0,180.0*
21,1,0.05138,0.05709,0,0,180.0*
1,1,0.00571,-0.02569,0.02569*
1,1,0.00571,0.02569,0.02569*
1,1,0.00571,0.02569,-0.02569*
1,1,0.00571,-0.02569,-0.02569*
%
%ADD77ROUNDEDRECTD77*%
G04:AMPARAMS|DCode=78|XSize=78.74mil|YSize=70.87mil|CornerRadius=11.69mil|HoleSize=0mil|Usage=FLASHONLY|Rotation=0.000|XOffset=0mil|YOffset=0mil|HoleType=Round|Shape=RoundedRectangle|*
%AMROUNDEDRECTD78*
21,1,0.07874,0.04748,0,0,0.0*
21,1,0.05535,0.07087,0,0,0.0*
1,1,0.02339,0.02768,-0.02374*
1,1,0.02339,-0.02768,-0.02374*
1,1,0.02339,-0.02768,0.02374*
1,1,0.02339,0.02768,0.02374*
%
%ADD78ROUNDEDRECTD78*%
G04:AMPARAMS|DCode=79|XSize=43.31mil|YSize=23.62mil|CornerRadius=4.13mil|HoleSize=0mil|Usage=FLASHONLY|Rotation=180.000|XOffset=0mil|YOffset=0mil|HoleType=Round|Shape=RoundedRectangle|*
%AMROUNDEDRECTD79*
21,1,0.04331,0.01535,0,0,180.0*
21,1,0.03504,0.02362,0,0,180.0*
1,1,0.00827,-0.01752,0.00768*
1,1,0.00827,0.01752,0.00768*
1,1,0.00827,0.01752,-0.00768*
1,1,0.00827,-0.01752,-0.00768*
%
%ADD79ROUNDEDRECTD79*%
G04:AMPARAMS|DCode=80|XSize=23.62mil|YSize=31.5mil|CornerRadius=4.13mil|HoleSize=0mil|Usage=FLASHONLY|Rotation=90.000|XOffset=0mil|YOffset=0mil|HoleType=Round|Shape=RoundedRectangle|*
%AMROUNDEDRECTD80*
21,1,0.02362,0.02323,0,0,90.0*
21,1,0.01535,0.03150,0,0,90.0*
1,1,0.00827,0.01161,0.00768*
1,1,0.00827,0.01161,-0.00768*
1,1,0.00827,-0.01161,-0.00768*
1,1,0.00827,-0.01161,0.00768*
%
%ADD80ROUNDEDRECTD80*%
G04:AMPARAMS|DCode=81|XSize=47.24mil|YSize=47.24mil|CornerRadius=7.8mil|HoleSize=0mil|Usage=FLASHONLY|Rotation=270.000|XOffset=0mil|YOffset=0mil|HoleType=Round|Shape=RoundedRectangle|*
%AMROUNDEDRECTD81*
21,1,0.04724,0.03165,0,0,270.0*
21,1,0.03165,0.04724,0,0,270.0*
1,1,0.01559,-0.01583,-0.01583*
1,1,0.01559,-0.01583,0.01583*
1,1,0.01559,0.01583,0.01583*
1,1,0.01559,0.01583,-0.01583*
%
%ADD81ROUNDEDRECTD81*%
G04:AMPARAMS|DCode=82|XSize=41.73mil|YSize=19.68mil|CornerRadius=1.97mil|HoleSize=0mil|Usage=FLASHONLY|Rotation=270.000|XOffset=0mil|YOffset=0mil|HoleType=Round|Shape=RoundedRectangle|*
%AMROUNDEDRECTD82*
21,1,0.04173,0.01575,0,0,270.0*
21,1,0.03780,0.01968,0,0,270.0*
1,1,0.00394,-0.00787,-0.01890*
1,1,0.00394,-0.00787,0.01890*
1,1,0.00394,0.00787,0.01890*
1,1,0.00394,0.00787,-0.01890*
%
%ADD82ROUNDEDRECTD82*%
G04:AMPARAMS|DCode=83|XSize=35.83mil|YSize=48.03mil|CornerRadius=6.27mil|HoleSize=0mil|Usage=FLASHONLY|Rotation=180.000|XOffset=0mil|YOffset=0mil|HoleType=Round|Shape=RoundedRectangle|*
%AMROUNDEDRECTD83*
21,1,0.03583,0.03549,0,0,180.0*
21,1,0.02329,0.04803,0,0,180.0*
1,1,0.01254,-0.01164,0.01775*
1,1,0.01254,0.01164,0.01775*
1,1,0.01254,0.01164,-0.01775*
1,1,0.01254,-0.01164,-0.01775*
%
%ADD83ROUNDEDRECTD83*%
G04:AMPARAMS|DCode=84|XSize=68.9mil|YSize=29.92mil|CornerRadius=2.99mil|HoleSize=0mil|Usage=FLASHONLY|Rotation=0.000|XOffset=0mil|YOffset=0mil|HoleType=Round|Shape=RoundedRectangle|*
%AMROUNDEDRECTD84*
21,1,0.06890,0.02394,0,0,0.0*
21,1,0.06291,0.02992,0,0,0.0*
1,1,0.00598,0.03146,-0.01197*
1,1,0.00598,-0.03146,-0.01197*
1,1,0.00598,-0.03146,0.01197*
1,1,0.00598,0.03146,0.01197*
%
%ADD84ROUNDEDRECTD84*%
G04:AMPARAMS|DCode=85|XSize=59.06mil|YSize=94.49mil|CornerRadius=10.34mil|HoleSize=0mil|Usage=FLASHONLY|Rotation=90.000|XOffset=0mil|YOffset=0mil|HoleType=Round|Shape=RoundedRectangle|*
%AMROUNDEDRECTD85*
21,1,0.05906,0.07382,0,0,90.0*
21,1,0.03839,0.09449,0,0,90.0*
1,1,0.02067,0.03691,0.01919*
1,1,0.02067,0.03691,-0.01919*
1,1,0.02067,-0.03691,-0.01919*
1,1,0.02067,-0.03691,0.01919*
%
%ADD85ROUNDEDRECTD85*%
G04:AMPARAMS|DCode=86|XSize=23.62mil|YSize=78.74mil|CornerRadius=4.13mil|HoleSize=0mil|Usage=FLASHONLY|Rotation=0.000|XOffset=0mil|YOffset=0mil|HoleType=Round|Shape=RoundedRectangle|*
%AMROUNDEDRECTD86*
21,1,0.02362,0.07047,0,0,0.0*
21,1,0.01535,0.07874,0,0,0.0*
1,1,0.00827,0.00768,-0.03524*
1,1,0.00827,-0.00768,-0.03524*
1,1,0.00827,-0.00768,0.03524*
1,1,0.00827,0.00768,0.03524*
%
%ADD86ROUNDEDRECTD86*%
G04:AMPARAMS|DCode=87|XSize=30.32mil|YSize=10.24mil|CornerRadius=1.69mil|HoleSize=0mil|Usage=FLASHONLY|Rotation=180.000|XOffset=0mil|YOffset=0mil|HoleType=Round|Shape=RoundedRectangle|*
%AMROUNDEDRECTD87*
21,1,0.03032,0.00686,0,0,180.0*
21,1,0.02694,0.01024,0,0,180.0*
1,1,0.00338,-0.01347,0.00343*
1,1,0.00338,0.01347,0.00343*
1,1,0.00338,0.01347,-0.00343*
1,1,0.00338,-0.01347,-0.00343*
%
%ADD87ROUNDEDRECTD87*%
G04:AMPARAMS|DCode=88|XSize=30.32mil|YSize=10.24mil|CornerRadius=1.69mil|HoleSize=0mil|Usage=FLASHONLY|Rotation=90.000|XOffset=0mil|YOffset=0mil|HoleType=Round|Shape=RoundedRectangle|*
%AMROUNDEDRECTD88*
21,1,0.03032,0.00686,0,0,90.0*
21,1,0.02694,0.01024,0,0,90.0*
1,1,0.00338,0.00343,0.01347*
1,1,0.00338,0.00343,-0.01347*
1,1,0.00338,-0.00343,-0.01347*
1,1,0.00338,-0.00343,0.01347*
%
%ADD88ROUNDEDRECTD88*%
G04:AMPARAMS|DCode=89|XSize=98.43mil|YSize=98.43mil|CornerRadius=4.92mil|HoleSize=0mil|Usage=FLASHONLY|Rotation=0.000|XOffset=0mil|YOffset=0mil|HoleType=Round|Shape=RoundedRectangle|*
%AMROUNDEDRECTD89*
21,1,0.09843,0.08858,0,0,0.0*
21,1,0.08858,0.09843,0,0,0.0*
1,1,0.00984,0.04429,-0.04429*
1,1,0.00984,-0.04429,-0.04429*
1,1,0.00984,-0.04429,0.04429*
1,1,0.00984,0.04429,0.04429*
%
%ADD89ROUNDEDRECTD89*%
G04:AMPARAMS|DCode=90|XSize=145.67mil|YSize=145.67mil|CornerRadius=7.28mil|HoleSize=0mil|Usage=FLASHONLY|Rotation=180.000|XOffset=0mil|YOffset=0mil|HoleType=Round|Shape=RoundedRectangle|*
%AMROUNDEDRECTD90*
21,1,0.14567,0.13110,0,0,180.0*
21,1,0.13110,0.14567,0,0,180.0*
1,1,0.01457,-0.06555,0.06555*
1,1,0.01457,0.06555,0.06555*
1,1,0.01457,0.06555,-0.06555*
1,1,0.01457,-0.06555,-0.06555*
%
%ADD90ROUNDEDRECTD90*%
G04:AMPARAMS|DCode=91|XSize=31.89mil|YSize=10.63mil|CornerRadius=1.75mil|HoleSize=0mil|Usage=FLASHONLY|Rotation=90.000|XOffset=0mil|YOffset=0mil|HoleType=Round|Shape=RoundedRectangle|*
%AMROUNDEDRECTD91*
21,1,0.03189,0.00712,0,0,90.0*
21,1,0.02838,0.01063,0,0,90.0*
1,1,0.00351,0.00356,0.01419*
1,1,0.00351,0.00356,-0.01419*
1,1,0.00351,-0.00356,-0.01419*
1,1,0.00351,-0.00356,0.01419*
%
%ADD91ROUNDEDRECTD91*%
G04:AMPARAMS|DCode=92|XSize=31.89mil|YSize=10.63mil|CornerRadius=1.75mil|HoleSize=0mil|Usage=FLASHONLY|Rotation=180.000|XOffset=0mil|YOffset=0mil|HoleType=Round|Shape=RoundedRectangle|*
%AMROUNDEDRECTD92*
21,1,0.03189,0.00712,0,0,180.0*
21,1,0.02838,0.01063,0,0,180.0*
1,1,0.00351,-0.01419,0.00356*
1,1,0.00351,0.01419,0.00356*
1,1,0.00351,0.01419,-0.00356*
1,1,0.00351,-0.01419,-0.00356*
%
%ADD92ROUNDEDRECTD92*%
G04:AMPARAMS|DCode=93|XSize=57.87mil|YSize=16.14mil|CornerRadius=1.61mil|HoleSize=0mil|Usage=FLASHONLY|Rotation=180.000|XOffset=0mil|YOffset=0mil|HoleType=Round|Shape=RoundedRectangle|*
%AMROUNDEDRECTD93*
21,1,0.05787,0.01291,0,0,180.0*
21,1,0.05465,0.01614,0,0,180.0*
1,1,0.00323,-0.02732,0.00646*
1,1,0.00323,0.02732,0.00646*
1,1,0.00323,0.02732,-0.00646*
1,1,0.00323,-0.02732,-0.00646*
%
%ADD93ROUNDEDRECTD93*%
G04:AMPARAMS|DCode=94|XSize=31.5mil|YSize=98.43mil|CornerRadius=5.51mil|HoleSize=0mil|Usage=FLASHONLY|Rotation=90.000|XOffset=0mil|YOffset=0mil|HoleType=Round|Shape=RoundedRectangle|*
%AMROUNDEDRECTD94*
21,1,0.03150,0.08740,0,0,90.0*
21,1,0.02047,0.09843,0,0,90.0*
1,1,0.01102,0.04370,0.01024*
1,1,0.01102,0.04370,-0.01024*
1,1,0.01102,-0.04370,-0.01024*
1,1,0.01102,-0.04370,0.01024*
%
%ADD94ROUNDEDRECTD94*%
G04:AMPARAMS|DCode=95|XSize=31.5mil|YSize=98.43mil|CornerRadius=5.51mil|HoleSize=0mil|Usage=FLASHONLY|Rotation=0.000|XOffset=0mil|YOffset=0mil|HoleType=Round|Shape=RoundedRectangle|*
%AMROUNDEDRECTD95*
21,1,0.03150,0.08740,0,0,0.0*
21,1,0.02047,0.09843,0,0,0.0*
1,1,0.01102,0.01024,-0.04370*
1,1,0.01102,-0.01024,-0.04370*
1,1,0.01102,-0.01024,0.04370*
1,1,0.01102,0.01024,0.04370*
%
%ADD95ROUNDEDRECTD95*%
G04:AMPARAMS|DCode=96|XSize=137.8mil|YSize=137.8mil|CornerRadius=6.89mil|HoleSize=0mil|Usage=FLASHONLY|Rotation=90.000|XOffset=0mil|YOffset=0mil|HoleType=Round|Shape=RoundedRectangle|*
%AMROUNDEDRECTD96*
21,1,0.13780,0.12402,0,0,90.0*
21,1,0.12402,0.13780,0,0,90.0*
1,1,0.01378,0.06201,0.06201*
1,1,0.01378,0.06201,-0.06201*
1,1,0.01378,-0.06201,-0.06201*
1,1,0.01378,-0.06201,0.06201*
%
%ADD96ROUNDEDRECTD96*%
%ADD97R,0.01181X0.03347*%
%ADD98R,0.03347X0.01181*%
G04:AMPARAMS|DCode=99|XSize=127.95mil|YSize=62.99mil|CornerRadius=9.45mil|HoleSize=0mil|Usage=FLASHONLY|Rotation=90.000|XOffset=0mil|YOffset=0mil|HoleType=Round|Shape=RoundedRectangle|*
%AMROUNDEDRECTD99*
21,1,0.12795,0.04409,0,0,90.0*
21,1,0.10906,0.06299,0,0,90.0*
1,1,0.01890,0.02205,0.05453*
1,1,0.01890,0.02205,-0.05453*
1,1,0.01890,-0.02205,-0.05453*
1,1,0.01890,-0.02205,0.05453*
%
%ADD99ROUNDEDRECTD99*%
%ADD100C,0.03937*%
G04:AMPARAMS|DCode=101|XSize=139.37mil|YSize=102.36mil|CornerRadius=10.24mil|HoleSize=0mil|Usage=FLASHONLY|Rotation=180.000|XOffset=0mil|YOffset=0mil|HoleType=Round|Shape=RoundedRectangle|*
%AMROUNDEDRECTD101*
21,1,0.13937,0.08189,0,0,180.0*
21,1,0.11890,0.10236,0,0,180.0*
1,1,0.02047,-0.05945,0.04095*
1,1,0.02047,0.05945,0.04095*
1,1,0.02047,0.05945,-0.04095*
1,1,0.02047,-0.05945,-0.04095*
%
%ADD101ROUNDEDRECTD101*%
G04:AMPARAMS|DCode=102|XSize=144.1mil|YSize=102.36mil|CornerRadius=10.24mil|HoleSize=0mil|Usage=FLASHONLY|Rotation=180.000|XOffset=0mil|YOffset=0mil|HoleType=Round|Shape=RoundedRectangle|*
%AMROUNDEDRECTD102*
21,1,0.14410,0.08189,0,0,180.0*
21,1,0.12362,0.10236,0,0,180.0*
1,1,0.02047,-0.06181,0.04095*
1,1,0.02047,0.06181,0.04095*
1,1,0.02047,0.06181,-0.04095*
1,1,0.02047,-0.06181,-0.04095*
%
%ADD102ROUNDEDRECTD102*%
G04:AMPARAMS|DCode=103|XSize=23.62mil|YSize=78.74mil|CornerRadius=4.13mil|HoleSize=0mil|Usage=FLASHONLY|Rotation=90.000|XOffset=0mil|YOffset=0mil|HoleType=Round|Shape=RoundedRectangle|*
%AMROUNDEDRECTD103*
21,1,0.02362,0.07047,0,0,90.0*
21,1,0.01535,0.07874,0,0,90.0*
1,1,0.00827,0.03524,0.00768*
1,1,0.00827,0.03524,-0.00768*
1,1,0.00827,-0.03524,-0.00768*
1,1,0.00827,-0.03524,0.00768*
%
%ADD103ROUNDEDRECTD103*%
G04:AMPARAMS|DCode=104|XSize=7.87mil|YSize=7.87mil|CornerRadius=1.3mil|HoleSize=0mil|Usage=FLASHONLY|Rotation=0.000|XOffset=0mil|YOffset=0mil|HoleType=Round|Shape=RoundedRectangle|*
%AMROUNDEDRECTD104*
21,1,0.00787,0.00528,0,0,0.0*
21,1,0.00528,0.00787,0,0,0.0*
1,1,0.00260,0.00264,-0.00264*
1,1,0.00260,-0.00264,-0.00264*
1,1,0.00260,-0.00264,0.00264*
1,1,0.00260,0.00264,0.00264*
%
%ADD104ROUNDEDRECTD104*%
G04:AMPARAMS|DCode=105|XSize=11.81mil|YSize=39.37mil|CornerRadius=2.07mil|HoleSize=0mil|Usage=FLASHONLY|Rotation=0.000|XOffset=0mil|YOffset=0mil|HoleType=Round|Shape=RoundedRectangle|*
%AMROUNDEDRECTD105*
21,1,0.01181,0.03524,0,0,0.0*
21,1,0.00768,0.03937,0,0,0.0*
1,1,0.00413,0.00384,-0.01762*
1,1,0.00413,-0.00384,-0.01762*
1,1,0.00413,-0.00384,0.01762*
1,1,0.00413,0.00384,0.01762*
%
%ADD105ROUNDEDRECTD105*%
G04:AMPARAMS|DCode=106|XSize=118.11mil|YSize=98.43mil|CornerRadius=17.22mil|HoleSize=0mil|Usage=FLASHONLY|Rotation=0.000|XOffset=0mil|YOffset=0mil|HoleType=Round|Shape=RoundedRectangle|*
%AMROUNDEDRECTD106*
21,1,0.11811,0.06398,0,0,0.0*
21,1,0.08366,0.09843,0,0,0.0*
1,1,0.03445,0.04183,-0.03199*
1,1,0.03445,-0.04183,-0.03199*
1,1,0.03445,-0.04183,0.03199*
1,1,0.03445,0.04183,0.03199*
%
%ADD106ROUNDEDRECTD106*%
G04:AMPARAMS|DCode=107|XSize=27.56mil|YSize=9.84mil|CornerRadius=1.72mil|HoleSize=0mil|Usage=FLASHONLY|Rotation=180.000|XOffset=0mil|YOffset=0mil|HoleType=Round|Shape=RoundedRectangle|*
%AMROUNDEDRECTD107*
21,1,0.02756,0.00640,0,0,180.0*
21,1,0.02411,0.00984,0,0,180.0*
1,1,0.00345,-0.01206,0.00320*
1,1,0.00345,0.01206,0.00320*
1,1,0.00345,0.01206,-0.00320*
1,1,0.00345,-0.01206,-0.00320*
%
%ADD107ROUNDEDRECTD107*%
G04:AMPARAMS|DCode=108|XSize=27.56mil|YSize=9.84mil|CornerRadius=1.72mil|HoleSize=0mil|Usage=FLASHONLY|Rotation=90.000|XOffset=0mil|YOffset=0mil|HoleType=Round|Shape=RoundedRectangle|*
%AMROUNDEDRECTD108*
21,1,0.02756,0.00640,0,0,90.0*
21,1,0.02411,0.00984,0,0,90.0*
1,1,0.00345,0.00320,0.01206*
1,1,0.00345,0.00320,-0.01206*
1,1,0.00345,-0.00320,-0.01206*
1,1,0.00345,-0.00320,0.01206*
%
%ADD108ROUNDEDRECTD108*%
G04:AMPARAMS|DCode=109|XSize=281.5mil|YSize=281.5mil|CornerRadius=14.08mil|HoleSize=0mil|Usage=FLASHONLY|Rotation=270.000|XOffset=0mil|YOffset=0mil|HoleType=Round|Shape=RoundedRectangle|*
%AMROUNDEDRECTD109*
21,1,0.28150,0.25335,0,0,270.0*
21,1,0.25335,0.28150,0,0,270.0*
1,1,0.02815,-0.12667,-0.12667*
1,1,0.02815,-0.12667,0.12667*
1,1,0.02815,0.12667,0.12667*
1,1,0.02815,0.12667,-0.12667*
%
%ADD109ROUNDEDRECTD109*%
G04:AMPARAMS|DCode=110|XSize=23.62mil|YSize=57.09mil|CornerRadius=4.13mil|HoleSize=0mil|Usage=FLASHONLY|Rotation=270.000|XOffset=0mil|YOffset=0mil|HoleType=Round|Shape=RoundedRectangle|*
%AMROUNDEDRECTD110*
21,1,0.02362,0.04882,0,0,270.0*
21,1,0.01535,0.05709,0,0,270.0*
1,1,0.00827,-0.02441,-0.00768*
1,1,0.00827,-0.02441,0.00768*
1,1,0.00827,0.02441,0.00768*
1,1,0.00827,0.02441,-0.00768*
%
%ADD110ROUNDEDRECTD110*%
G04:AMPARAMS|DCode=111|XSize=11.81mil|YSize=57.09mil|CornerRadius=2.07mil|HoleSize=0mil|Usage=FLASHONLY|Rotation=270.000|XOffset=0mil|YOffset=0mil|HoleType=Round|Shape=RoundedRectangle|*
%AMROUNDEDRECTD111*
21,1,0.01181,0.05295,0,0,270.0*
21,1,0.00768,0.05709,0,0,270.0*
1,1,0.00413,-0.02648,-0.00384*
1,1,0.00413,-0.02648,0.00384*
1,1,0.00413,0.02648,0.00384*
1,1,0.00413,0.02648,-0.00384*
%
%ADD111ROUNDEDRECTD111*%
%ADD112O,0.08661X0.04134*%
%ADD113O,0.05906X0.03937*%
G04:AMPARAMS|DCode=114|XSize=49.21mil|YSize=23.23mil|CornerRadius=4.07mil|HoleSize=0mil|Usage=FLASHONLY|Rotation=180.000|XOffset=0mil|YOffset=0mil|HoleType=Round|Shape=RoundedRectangle|*
%AMROUNDEDRECTD114*
21,1,0.04921,0.01510,0,0,180.0*
21,1,0.04108,0.02323,0,0,180.0*
1,1,0.00813,-0.02054,0.00755*
1,1,0.00813,0.02054,0.00755*
1,1,0.00813,0.02054,-0.00755*
1,1,0.00813,-0.02054,-0.00755*
%
%ADD114ROUNDEDRECTD114*%
G04:AMPARAMS|DCode=115|XSize=47.24mil|YSize=75.2mil|CornerRadius=8.27mil|HoleSize=0mil|Usage=FLASHONLY|Rotation=270.000|XOffset=0mil|YOffset=0mil|HoleType=Round|Shape=RoundedRectangle|*
%AMROUNDEDRECTD115*
21,1,0.04724,0.05866,0,0,270.0*
21,1,0.03071,0.07520,0,0,270.0*
1,1,0.01654,-0.02933,-0.01535*
1,1,0.01654,-0.02933,0.01535*
1,1,0.01654,0.02933,0.01535*
1,1,0.01654,0.02933,-0.01535*
%
%ADD115ROUNDEDRECTD115*%
G04:AMPARAMS|DCode=116|XSize=31.5mil|YSize=37.4mil|CornerRadius=5.2mil|HoleSize=0mil|Usage=FLASHONLY|Rotation=0.000|XOffset=0mil|YOffset=0mil|HoleType=Round|Shape=RoundedRectangle|*
%AMROUNDEDRECTD116*
21,1,0.03150,0.02701,0,0,0.0*
21,1,0.02110,0.03740,0,0,0.0*
1,1,0.01039,0.01055,-0.01350*
1,1,0.01039,-0.01055,-0.01350*
1,1,0.01039,-0.01055,0.01350*
1,1,0.01039,0.01055,0.01350*
%
%ADD116ROUNDEDRECTD116*%
G04:AMPARAMS|DCode=117|XSize=47.24mil|YSize=75.2mil|CornerRadius=8.27mil|HoleSize=0mil|Usage=FLASHONLY|Rotation=315.000|XOffset=0mil|YOffset=0mil|HoleType=Round|Shape=RoundedRectangle|*
%AMROUNDEDRECTD117*
21,1,0.04724,0.05866,0,0,315.0*
21,1,0.03071,0.07520,0,0,315.0*
1,1,0.01654,-0.00988,-0.03160*
1,1,0.01654,-0.03160,-0.00988*
1,1,0.01654,0.00988,0.03160*
1,1,0.01654,0.03160,0.00988*
%
%ADD117ROUNDEDRECTD117*%
G04:AMPARAMS|DCode=118|XSize=31.5mil|YSize=37.4mil|CornerRadius=5.2mil|HoleSize=0mil|Usage=FLASHONLY|Rotation=315.000|XOffset=0mil|YOffset=0mil|HoleType=Round|Shape=RoundedRectangle|*
%AMROUNDEDRECTD118*
21,1,0.03150,0.02701,0,0,315.0*
21,1,0.02110,0.03740,0,0,315.0*
1,1,0.01039,-0.00209,-0.01701*
1,1,0.01039,-0.01701,-0.00209*
1,1,0.01039,0.00209,0.01701*
1,1,0.01039,0.01701,0.00209*
%
%ADD118ROUNDEDRECTD118*%
G04:AMPARAMS|DCode=119|XSize=68.9mil|YSize=29.92mil|CornerRadius=2.99mil|HoleSize=0mil|Usage=FLASHONLY|Rotation=270.000|XOffset=0mil|YOffset=0mil|HoleType=Round|Shape=RoundedRectangle|*
%AMROUNDEDRECTD119*
21,1,0.06890,0.02394,0,0,270.0*
21,1,0.06291,0.02992,0,0,270.0*
1,1,0.00598,-0.01197,-0.03146*
1,1,0.00598,-0.01197,0.03146*
1,1,0.00598,0.01197,0.03146*
1,1,0.00598,0.01197,-0.03146*
%
%ADD119ROUNDEDRECTD119*%
G04:AMPARAMS|DCode=120|XSize=7.87mil|YSize=7.87mil|CornerRadius=1.3mil|HoleSize=0mil|Usage=FLASHONLY|Rotation=270.000|XOffset=0mil|YOffset=0mil|HoleType=Round|Shape=RoundedRectangle|*
%AMROUNDEDRECTD120*
21,1,0.00787,0.00528,0,0,270.0*
21,1,0.00528,0.00787,0,0,270.0*
1,1,0.00260,-0.00264,-0.00264*
1,1,0.00260,-0.00264,0.00264*
1,1,0.00260,0.00264,0.00264*
1,1,0.00260,0.00264,-0.00264*
%
%ADD120ROUNDEDRECTD120*%
G04:AMPARAMS|DCode=121|XSize=43.31mil|YSize=23.62mil|CornerRadius=4.13mil|HoleSize=0mil|Usage=FLASHONLY|Rotation=270.000|XOffset=0mil|YOffset=0mil|HoleType=Round|Shape=RoundedRectangle|*
%AMROUNDEDRECTD121*
21,1,0.04331,0.01535,0,0,270.0*
21,1,0.03504,0.02362,0,0,270.0*
1,1,0.00827,-0.00768,-0.01752*
1,1,0.00827,-0.00768,0.01752*
1,1,0.00827,0.00768,0.01752*
1,1,0.00827,0.00768,-0.01752*
%
%ADD121ROUNDEDRECTD121*%
G04:AMPARAMS|DCode=122|XSize=23.62mil|YSize=39.37mil|CornerRadius=3.54mil|HoleSize=0mil|Usage=FLASHONLY|Rotation=270.000|XOffset=0mil|YOffset=0mil|HoleType=Round|Shape=RoundedRectangle|*
%AMROUNDEDRECTD122*
21,1,0.02362,0.03228,0,0,270.0*
21,1,0.01654,0.03937,0,0,270.0*
1,1,0.00709,-0.01614,-0.00827*
1,1,0.00709,-0.01614,0.00827*
1,1,0.00709,0.01614,0.00827*
1,1,0.00709,0.01614,-0.00827*
%
%ADD122ROUNDEDRECTD122*%
%ADD123R,0.09843X0.09843*%
G36*
X25787Y420669D02*
X2034D01*
Y431140D01*
X25787D01*
Y420669D01*
D02*
G37*
G36*
X170431Y394193D02*
X170897Y394000D01*
X171316Y393720D01*
X171673Y393364D01*
X171953Y392944D01*
X172146Y392479D01*
X172244Y391984D01*
Y391732D01*
X167126D01*
Y391984D01*
X167224Y392479D01*
X167417Y392944D01*
X167697Y393364D01*
X168054Y393720D01*
X168473Y394000D01*
X168939Y394193D01*
X169433Y394291D01*
X169937D01*
X170431Y394193D01*
D02*
G37*
G36*
X162951D02*
X163417Y394000D01*
X163836Y393720D01*
X164192Y393364D01*
X164472Y392944D01*
X164665Y392479D01*
X164764Y391984D01*
Y391732D01*
X159646D01*
Y391984D01*
X159744Y392479D01*
X159937Y392944D01*
X160217Y393364D01*
X160573Y393720D01*
X160993Y394000D01*
X161458Y394193D01*
X161953Y394291D01*
X162457D01*
X162951Y394193D01*
D02*
G37*
G36*
X172244Y390890D02*
X172146Y390395D01*
X171953Y389930D01*
X171673Y389510D01*
X171316Y389154D01*
X170897Y388874D01*
X170431Y388681D01*
X169937Y388583D01*
X169433D01*
X168939Y388681D01*
X168473Y388874D01*
X168054Y389154D01*
X167697Y389510D01*
X167417Y389930D01*
X167224Y390395D01*
X167126Y390890D01*
Y391142D01*
X172244D01*
Y390890D01*
D02*
G37*
G36*
X164764D02*
X164665Y390395D01*
X164472Y389930D01*
X164192Y389510D01*
X163836Y389154D01*
X163417Y388874D01*
X162951Y388681D01*
X162457Y388583D01*
X161953D01*
X161458Y388681D01*
X160993Y388874D01*
X160573Y389154D01*
X160217Y389510D01*
X159937Y389930D01*
X159744Y390395D01*
X159646Y390890D01*
Y391142D01*
X164764D01*
Y390890D01*
D02*
G37*
G36*
X539349Y283347D02*
X539815Y283154D01*
X540234Y282874D01*
X540590Y282517D01*
X540870Y282098D01*
X541063Y281632D01*
X541161Y281138D01*
Y280886D01*
Y280634D01*
X541063Y280139D01*
X540870Y279674D01*
X540590Y279255D01*
X540234Y278898D01*
X539815Y278618D01*
X539349Y278425D01*
X538854Y278327D01*
X538602D01*
Y283445D01*
X538854D01*
X539349Y283347D01*
D02*
G37*
G36*
X538012Y278327D02*
X537760D01*
X537265Y278425D01*
X536800Y278618D01*
X536380Y278898D01*
X536024Y279255D01*
X535744Y279674D01*
X535551Y280139D01*
X535453Y280634D01*
Y280886D01*
Y281138D01*
X535551Y281632D01*
X535744Y282098D01*
X536024Y282517D01*
X536380Y282874D01*
X536800Y283154D01*
X537265Y283347D01*
X537760Y283445D01*
X538012D01*
Y278327D01*
D02*
G37*
G36*
X539349Y273346D02*
X539815Y273154D01*
X540234Y272874D01*
X540590Y272517D01*
X540870Y272098D01*
X541063Y271632D01*
X541161Y271138D01*
Y270886D01*
Y270634D01*
X541063Y270139D01*
X540870Y269674D01*
X540590Y269254D01*
X540234Y268898D01*
X539815Y268618D01*
X539349Y268425D01*
X538854Y268327D01*
X538602D01*
Y273445D01*
X538854D01*
X539349Y273346D01*
D02*
G37*
G36*
X538012Y268327D02*
X537760D01*
X537265Y268425D01*
X536800Y268618D01*
X536380Y268898D01*
X536024Y269254D01*
X535744Y269674D01*
X535551Y270139D01*
X535453Y270634D01*
Y270886D01*
Y271138D01*
X535551Y271632D01*
X535744Y272098D01*
X536024Y272517D01*
X536380Y272874D01*
X536800Y273154D01*
X537265Y273346D01*
X537760Y273445D01*
X538012D01*
Y268327D01*
D02*
G37*
D17*
X304528Y256693D02*
D03*
X307677D02*
D03*
X310827D02*
D03*
X313976D02*
D03*
X304528Y262992D02*
D03*
X313976D02*
D03*
X310827D02*
D03*
X307677D02*
D03*
X379528Y256693D02*
D03*
X382677D02*
D03*
X385827D02*
D03*
X388976D02*
D03*
X379528Y262992D02*
D03*
X388976D02*
D03*
X385827D02*
D03*
X382677D02*
D03*
X354528Y256693D02*
D03*
X357677D02*
D03*
X360827D02*
D03*
X363976D02*
D03*
X354528Y262992D02*
D03*
X363976D02*
D03*
X360827D02*
D03*
X357677D02*
D03*
X329528Y256693D02*
D03*
X332677D02*
D03*
X335827D02*
D03*
X338976D02*
D03*
X329528Y262992D02*
D03*
X338976D02*
D03*
X335827D02*
D03*
X332677D02*
D03*
D24*
X440748Y269016D02*
D03*
Y275394D02*
D03*
X225492Y207028D02*
D03*
Y200650D02*
D03*
X110595Y159291D02*
D03*
Y152913D02*
D03*
X231729Y207028D02*
D03*
Y200650D02*
D03*
X646358Y377815D02*
D03*
Y384193D02*
D03*
X219272Y200650D02*
D03*
Y207028D02*
D03*
X251969Y19842D02*
D03*
Y26221D02*
D03*
X245669Y19842D02*
D03*
Y26221D02*
D03*
X655905Y233819D02*
D03*
Y240197D02*
D03*
X668307Y240197D02*
D03*
Y233819D02*
D03*
X662106Y240197D02*
D03*
Y233819D02*
D03*
X624508Y234114D02*
D03*
Y240492D02*
D03*
X631201Y234114D02*
D03*
Y240492D02*
D03*
X117323Y412244D02*
D03*
Y405866D02*
D03*
X657579Y330059D02*
D03*
Y323681D02*
D03*
X656398Y273091D02*
D03*
Y279468D02*
D03*
Y252028D02*
D03*
Y258405D02*
D03*
X682874Y266004D02*
D03*
Y272382D02*
D03*
X168799Y90610D02*
D03*
Y96988D02*
D03*
X162598D02*
D03*
Y90610D02*
D03*
X163681Y203996D02*
D03*
Y210374D02*
D03*
X157382Y203996D02*
D03*
Y210374D02*
D03*
X129331Y224291D02*
D03*
Y217913D02*
D03*
X109252Y217854D02*
D03*
Y211476D02*
D03*
X129331Y211201D02*
D03*
Y204823D02*
D03*
X168799Y104095D02*
D03*
Y110473D02*
D03*
X162598Y104095D02*
D03*
Y110473D02*
D03*
X110630Y165610D02*
D03*
Y171988D02*
D03*
X129331Y198110D02*
D03*
Y191732D02*
D03*
X195965Y104095D02*
D03*
Y110473D02*
D03*
X202264D02*
D03*
Y104095D02*
D03*
X189665Y110473D02*
D03*
Y104095D02*
D03*
X438976Y322677D02*
D03*
Y316299D02*
D03*
X222342Y372776D02*
D03*
Y366398D02*
D03*
X266634Y307244D02*
D03*
Y313622D02*
D03*
X117224Y319350D02*
D03*
Y325728D02*
D03*
X374410Y383110D02*
D03*
Y376732D02*
D03*
X384941Y418465D02*
D03*
Y424843D02*
D03*
X391437Y412657D02*
D03*
Y419035D02*
D03*
X385039Y398189D02*
D03*
Y404567D02*
D03*
X368209Y383110D02*
D03*
Y376732D02*
D03*
X172835Y360571D02*
D03*
Y354193D02*
D03*
X166831Y314488D02*
D03*
Y320866D02*
D03*
X173421Y293268D02*
D03*
Y299646D02*
D03*
X180114Y293268D02*
D03*
Y299646D02*
D03*
X142516Y293563D02*
D03*
Y299941D02*
D03*
X148716Y293563D02*
D03*
Y299941D02*
D03*
X233071Y302224D02*
D03*
Y308602D02*
D03*
X272539Y407717D02*
D03*
Y401339D02*
D03*
X235433Y408012D02*
D03*
Y401634D02*
D03*
X228740Y408012D02*
D03*
Y401634D02*
D03*
X228543Y372776D02*
D03*
Y366398D02*
D03*
X234744D02*
D03*
Y372776D02*
D03*
X260138Y407717D02*
D03*
Y401339D02*
D03*
X266339D02*
D03*
Y407717D02*
D03*
X226870Y302224D02*
D03*
Y308602D02*
D03*
X117224Y399153D02*
D03*
Y392776D02*
D03*
X610630Y377815D02*
D03*
Y384193D02*
D03*
X640158Y377815D02*
D03*
Y384193D02*
D03*
X633957Y377815D02*
D03*
Y384193D02*
D03*
X629134Y330059D02*
D03*
Y323681D02*
D03*
X622933Y330020D02*
D03*
Y323642D02*
D03*
X596161Y323681D02*
D03*
Y330059D02*
D03*
X589961Y323681D02*
D03*
Y330059D02*
D03*
X583760Y323681D02*
D03*
Y330059D02*
D03*
X616732Y330059D02*
D03*
Y323681D02*
D03*
X608563Y330059D02*
D03*
Y323681D02*
D03*
X602362Y330059D02*
D03*
Y323681D02*
D03*
X563976Y326634D02*
D03*
Y333012D02*
D03*
X507776Y332323D02*
D03*
Y325945D02*
D03*
X658465Y395413D02*
D03*
Y389035D02*
D03*
X664665Y395413D02*
D03*
Y389035D02*
D03*
X683268D02*
D03*
Y395413D02*
D03*
X670866D02*
D03*
Y389035D02*
D03*
X677067D02*
D03*
Y395413D02*
D03*
X677067Y405276D02*
D03*
Y411654D02*
D03*
X651378Y323681D02*
D03*
Y330059D02*
D03*
X645177Y323681D02*
D03*
Y330059D02*
D03*
X445276Y322677D02*
D03*
Y316299D02*
D03*
X451575Y322677D02*
D03*
Y316299D02*
D03*
X453150Y269016D02*
D03*
Y275394D02*
D03*
X446949Y269016D02*
D03*
Y275394D02*
D03*
X468898Y322677D02*
D03*
Y316299D02*
D03*
X462697Y322677D02*
D03*
Y316299D02*
D03*
X434236Y383602D02*
D03*
Y377224D02*
D03*
X453823D02*
D03*
Y383602D02*
D03*
X479709D02*
D03*
Y377224D02*
D03*
X460122D02*
D03*
Y383602D02*
D03*
X717618Y134902D02*
D03*
Y141279D02*
D03*
X730020D02*
D03*
Y134902D02*
D03*
X723819D02*
D03*
Y141279D02*
D03*
X592323Y128484D02*
D03*
Y122106D02*
D03*
Y135984D02*
D03*
Y142362D02*
D03*
X558957Y99370D02*
D03*
Y105748D02*
D03*
X552756Y99370D02*
D03*
Y105748D02*
D03*
X565158Y99370D02*
D03*
X565158Y105748D02*
D03*
X577559Y99370D02*
D03*
X577559Y105748D02*
D03*
X583760Y99370D02*
D03*
Y105748D02*
D03*
X571358Y99370D02*
D03*
Y105748D02*
D03*
X409547Y277205D02*
D03*
Y270827D02*
D03*
X403150Y277205D02*
D03*
Y270827D02*
D03*
X166634Y360571D02*
D03*
Y354193D02*
D03*
X154232Y360571D02*
D03*
Y354193D02*
D03*
X136315Y293563D02*
D03*
Y299941D02*
D03*
X148031Y360571D02*
D03*
Y354193D02*
D03*
X160630Y314488D02*
D03*
Y320866D02*
D03*
X154429Y314528D02*
D03*
Y320905D02*
D03*
X189764Y334311D02*
D03*
Y340689D02*
D03*
X160433Y354193D02*
D03*
Y360571D02*
D03*
X264272Y372776D02*
D03*
Y366398D02*
D03*
X258071Y372776D02*
D03*
Y366398D02*
D03*
X272835Y307244D02*
D03*
Y313622D02*
D03*
D25*
X242717Y65305D02*
D03*
Y250147D02*
D03*
X97048D02*
D03*
Y65305D02*
D03*
X302067Y414961D02*
D03*
X302091Y288681D02*
D03*
X97539Y414961D02*
D03*
D26*
X233170Y55462D02*
D03*
X106890Y55438D02*
D03*
X233170Y259990D02*
D03*
X292224Y424508D02*
D03*
X107382D02*
D03*
Y278839D02*
D03*
X292224D02*
D03*
D27*
X106890Y259990D02*
D03*
D28*
X97539Y288681D02*
D03*
D29*
X716634Y310295D02*
D03*
Y262264D02*
D03*
D30*
X711358Y276240D02*
D03*
D31*
X721358Y280256D02*
D03*
X711358Y292303D02*
D03*
X721358Y296319D02*
D03*
X711358Y284272D02*
D03*
X721358Y288287D02*
D03*
D32*
X730413Y309902D02*
D03*
Y262657D02*
D03*
D33*
X714961Y389764D02*
D03*
Y370079D02*
D03*
D34*
X675216Y303543D02*
D03*
X655217D02*
D03*
X665216D02*
D03*
X613583D02*
D03*
X603583D02*
D03*
X623583D02*
D03*
D35*
X645217D02*
D03*
X593583D02*
D03*
D36*
X84252Y13583D02*
D03*
D37*
X92126D02*
D03*
X100000D02*
D03*
X107874D02*
D03*
X563386Y362106D02*
D03*
X107874D02*
D03*
D38*
X622047Y418307D02*
D03*
X53740Y16240D02*
D03*
X55709Y418012D02*
D03*
X622047Y14764D02*
D03*
D39*
X30906Y354596D02*
D03*
X78937D02*
D03*
Y83140D02*
D03*
X30906D02*
D03*
D40*
X44528Y382097D02*
D03*
X64528D02*
D03*
X44528Y324597D02*
D03*
X54528D02*
D03*
X64528D02*
D03*
X117717Y362106D02*
D03*
X553543D02*
D03*
X64528Y53140D02*
D03*
X54528D02*
D03*
X44528D02*
D03*
X64528Y110640D02*
D03*
X44528D02*
D03*
D41*
X32087Y148524D02*
D03*
Y138524D02*
D03*
Y158524D02*
D03*
Y168524D02*
D03*
Y178524D02*
D03*
Y198524D02*
D03*
Y208524D02*
D03*
Y188524D02*
D03*
Y218524D02*
D03*
Y238524D02*
D03*
Y228524D02*
D03*
Y248524D02*
D03*
Y258524D02*
D03*
Y268524D02*
D03*
Y288524D02*
D03*
Y298524D02*
D03*
Y278524D02*
D03*
X24213Y16732D02*
D03*
X591831Y418701D02*
D03*
D42*
X32087Y128524D02*
D03*
D43*
X711024Y211575D02*
D03*
Y166575D02*
D03*
D44*
X699016Y219567D02*
D03*
Y158583D02*
D03*
D45*
X686024Y186555D02*
D03*
Y196555D02*
D03*
Y206555D02*
D03*
X676024Y181595D02*
D03*
Y191595D02*
D03*
Y201594D02*
D03*
X686024Y176555D02*
D03*
X676024Y171595D02*
D03*
X686024Y166555D02*
D03*
D46*
X730315Y205157D02*
D03*
Y172992D02*
D03*
Y215158D02*
D03*
Y162992D02*
D03*
D47*
X676024Y211595D02*
D03*
D48*
X726358Y123012D02*
D03*
Y88996D02*
D03*
X742815Y123012D02*
D03*
Y88996D02*
D03*
D49*
X728445Y117382D02*
D03*
Y94626D02*
D03*
D50*
X333366Y389173D02*
D03*
X326299D02*
D03*
X319232D02*
D03*
X340433D02*
D03*
X347500D02*
D03*
X333366Y396850D02*
D03*
X326299D02*
D03*
X319232D02*
D03*
X340433D02*
D03*
X347500D02*
D03*
X333366Y419980D02*
D03*
X326299D02*
D03*
X319232D02*
D03*
X340433D02*
D03*
X347500D02*
D03*
X333366Y412205D02*
D03*
X326299D02*
D03*
X319232D02*
D03*
X340433D02*
D03*
X347500D02*
D03*
X347480Y404429D02*
D03*
X340413D02*
D03*
X319213D02*
D03*
X326279D02*
D03*
X333347D02*
D03*
X231299Y349508D02*
D03*
X255315Y349508D02*
D03*
X255315Y325492D02*
D03*
X231299Y325492D02*
D03*
X231653Y341742D02*
D03*
X233807Y345472D02*
D03*
X236974Y342814D02*
D03*
X237106Y348240D02*
D03*
X241240Y341080D02*
D03*
X241154Y349713D02*
D03*
X241871Y345642D02*
D03*
X245461Y349713D02*
D03*
X249508Y348240D02*
D03*
X247441Y344660D02*
D03*
X245374Y341080D02*
D03*
X252807Y345472D02*
D03*
X254961Y341742D02*
D03*
X251076Y340328D02*
D03*
X255709Y337500D02*
D03*
X247441D02*
D03*
X254961Y333258D02*
D03*
X251076Y334672D02*
D03*
X252807Y329528D02*
D03*
X249508Y326760D02*
D03*
X247441Y330340D02*
D03*
X245374Y333920D02*
D03*
X245461Y325287D02*
D03*
X241154D02*
D03*
X241871Y329358D02*
D03*
X237106Y326760D02*
D03*
X241240Y333920D02*
D03*
X233807Y329528D02*
D03*
X236974Y332186D02*
D03*
X231653Y333258D02*
D03*
X239173Y337500D02*
D03*
X235039D02*
D03*
X230906D02*
D03*
X243307D02*
D03*
D58*
X684055Y15551D02*
D03*
D59*
Y21654D02*
D03*
Y25984D02*
D03*
Y30315D02*
D03*
Y34646D02*
D03*
Y38976D02*
D03*
Y43307D02*
D03*
Y47638D02*
D03*
D60*
Y51968D02*
D03*
Y55709D02*
D03*
D61*
X742323Y57480D02*
D03*
D62*
X725984D02*
D03*
D63*
X701575D02*
D03*
D64*
X744095Y6299D02*
D03*
D65*
X143543Y212795D02*
D03*
D66*
X137638Y201555D02*
D03*
X143543D02*
D03*
X149449D02*
D03*
D67*
X698602Y393701D02*
D03*
Y383858D02*
D03*
Y375984D02*
D03*
Y366142D02*
D03*
D68*
X708248Y408465D02*
D03*
Y351378D02*
D03*
D69*
X687598Y234154D02*
D03*
X699016D02*
D03*
D70*
X504036Y349902D02*
D03*
X507776Y340453D02*
D03*
X511516Y349902D02*
D03*
X117913Y144193D02*
D03*
X121653Y153642D02*
D03*
X125394Y144193D02*
D03*
D71*
X333347Y404429D02*
D03*
D72*
X371102Y391028D02*
D03*
Y397728D02*
D03*
Y404429D02*
D03*
Y411130D02*
D03*
Y417831D02*
D03*
D73*
X521063Y270886D02*
D03*
X556102D02*
D03*
X521063Y280886D02*
D03*
X556102D02*
D03*
D74*
X617323Y278248D02*
D03*
X619291D02*
D03*
X621260D02*
D03*
X623228D02*
D03*
X625197D02*
D03*
X617323Y260925D02*
D03*
X619291D02*
D03*
X621260D02*
D03*
X623228D02*
D03*
X625197D02*
D03*
D75*
X153937Y340453D02*
D03*
Y338484D02*
D03*
Y336516D02*
D03*
Y334547D02*
D03*
X167028D02*
D03*
Y336516D02*
D03*
Y338484D02*
D03*
Y340453D02*
D03*
D76*
X157480Y331004D02*
D03*
X159449D02*
D03*
X161417D02*
D03*
X163386D02*
D03*
Y344094D02*
D03*
X161417D02*
D03*
X159449D02*
D03*
X157480D02*
D03*
D77*
X160433Y337500D02*
D03*
D78*
X131968Y405965D02*
D03*
Y385965D02*
D03*
Y395965D02*
D03*
X149016Y385965D02*
D03*
Y395965D02*
D03*
Y405965D02*
D03*
D79*
X242618Y400886D02*
D03*
Y408366D02*
D03*
X252854Y400886D02*
D03*
Y404626D02*
D03*
Y408366D02*
D03*
X648622Y240846D02*
D03*
Y237106D02*
D03*
Y233366D02*
D03*
X638386Y240846D02*
D03*
Y233366D02*
D03*
Y251476D02*
D03*
Y258957D02*
D03*
X648622Y251476D02*
D03*
Y255217D02*
D03*
Y258957D02*
D03*
X638386Y272539D02*
D03*
Y280020D02*
D03*
X648622Y272539D02*
D03*
Y276279D02*
D03*
Y280020D02*
D03*
X143583Y90748D02*
D03*
Y87008D02*
D03*
Y83268D02*
D03*
X153465D02*
D03*
Y87008D02*
D03*
Y90748D02*
D03*
X166236Y300394D02*
D03*
Y292913D02*
D03*
X156000Y300394D02*
D03*
Y296654D02*
D03*
Y292913D02*
D03*
D80*
X553937Y128524D02*
D03*
Y133524D02*
D03*
Y138524D02*
D03*
Y143524D02*
D03*
X582283Y128524D02*
D03*
Y133524D02*
D03*
Y138524D02*
D03*
Y143524D02*
D03*
D81*
X617697Y377736D02*
D03*
X626791D02*
D03*
Y384272D02*
D03*
X617697D02*
D03*
D82*
X690158Y273465D02*
D03*
Y264921D02*
D03*
D83*
X219415Y12357D02*
D03*
X206521D02*
D03*
D84*
X127500Y332500D02*
D03*
Y342500D02*
D03*
X140020D02*
D03*
Y337500D02*
D03*
Y332500D02*
D03*
D85*
X232998Y32776D02*
D03*
Y18209D02*
D03*
D86*
X520787Y348130D02*
D03*
X525787D02*
D03*
X530787D02*
D03*
X535787D02*
D03*
X540787D02*
D03*
X545787D02*
D03*
X550787D02*
D03*
X555787D02*
D03*
X520787Y311516D02*
D03*
X525787D02*
D03*
X530787D02*
D03*
X535787D02*
D03*
X540787D02*
D03*
X545787D02*
D03*
X550787D02*
D03*
X555787D02*
D03*
D87*
X560020Y60827D02*
D03*
Y62795D02*
D03*
Y64764D02*
D03*
Y66732D02*
D03*
Y68701D02*
D03*
Y70669D02*
D03*
X575610D02*
D03*
Y68701D02*
D03*
Y66732D02*
D03*
Y64764D02*
D03*
Y62795D02*
D03*
Y60827D02*
D03*
X409961Y290256D02*
D03*
Y292224D02*
D03*
Y294193D02*
D03*
Y296161D02*
D03*
Y298130D02*
D03*
Y300098D02*
D03*
X394370D02*
D03*
Y298130D02*
D03*
Y296161D02*
D03*
Y294193D02*
D03*
Y292224D02*
D03*
Y290256D02*
D03*
D88*
X562894Y73543D02*
D03*
X564862D02*
D03*
X566831D02*
D03*
X568799D02*
D03*
X570768D02*
D03*
X572736D02*
D03*
Y57953D02*
D03*
X570768D02*
D03*
X568799D02*
D03*
X566831D02*
D03*
X564862D02*
D03*
X562894D02*
D03*
X397244Y287382D02*
D03*
X399213D02*
D03*
X401181D02*
D03*
X403150D02*
D03*
X405118D02*
D03*
X407087D02*
D03*
Y302972D02*
D03*
X405118D02*
D03*
X403150D02*
D03*
X401181D02*
D03*
X399213D02*
D03*
X397244D02*
D03*
D89*
X567815Y65748D02*
D03*
D90*
X621358Y353346D02*
D03*
D91*
X629232Y364961D02*
D03*
X627264D02*
D03*
X625295D02*
D03*
X623327D02*
D03*
X621358D02*
D03*
X619390D02*
D03*
X617421D02*
D03*
X615453D02*
D03*
X613484D02*
D03*
Y341732D02*
D03*
X615453D02*
D03*
X617421D02*
D03*
X619390D02*
D03*
X621358D02*
D03*
X623327D02*
D03*
X625295D02*
D03*
X627264D02*
D03*
X629232D02*
D03*
D92*
X609744Y361221D02*
D03*
Y359252D02*
D03*
Y357283D02*
D03*
Y355315D02*
D03*
Y353346D02*
D03*
Y351378D02*
D03*
Y349410D02*
D03*
Y347441D02*
D03*
Y345472D02*
D03*
X632972D02*
D03*
Y347441D02*
D03*
Y349410D02*
D03*
Y351378D02*
D03*
Y353346D02*
D03*
Y355315D02*
D03*
Y357283D02*
D03*
Y359252D02*
D03*
Y361221D02*
D03*
D93*
X184862Y153445D02*
D03*
Y150886D02*
D03*
Y148327D02*
D03*
Y145768D02*
D03*
Y143209D02*
D03*
Y140650D02*
D03*
Y138091D02*
D03*
Y135531D02*
D03*
Y132973D02*
D03*
Y130413D02*
D03*
Y127854D02*
D03*
Y125295D02*
D03*
Y122736D02*
D03*
Y120177D02*
D03*
X207461D02*
D03*
X207461Y122736D02*
D03*
X207461Y125295D02*
D03*
X207461Y127854D02*
D03*
X207461Y130413D02*
D03*
X207461Y132972D02*
D03*
X207461Y135531D02*
D03*
Y138091D02*
D03*
X207461Y140650D02*
D03*
X207461Y143209D02*
D03*
X207461Y145768D02*
D03*
X207461Y148327D02*
D03*
X207461Y150886D02*
D03*
X207461Y153445D02*
D03*
D94*
X505905Y211634D02*
D03*
Y221634D02*
D03*
Y226634D02*
D03*
Y216634D02*
D03*
Y206634D02*
D03*
Y196634D02*
D03*
Y191634D02*
D03*
Y186634D02*
D03*
Y171634D02*
D03*
Y176634D02*
D03*
Y181634D02*
D03*
Y201634D02*
D03*
Y166634D02*
D03*
Y161634D02*
D03*
Y156634D02*
D03*
Y151634D02*
D03*
Y146634D02*
D03*
Y141634D02*
D03*
Y136634D02*
D03*
Y131634D02*
D03*
Y126634D02*
D03*
Y116634D02*
D03*
Y111634D02*
D03*
Y101634D02*
D03*
Y96634D02*
D03*
Y121634D02*
D03*
Y106634D02*
D03*
Y91634D02*
D03*
Y56634D02*
D03*
Y61634D02*
D03*
Y66634D02*
D03*
Y71634D02*
D03*
Y76634D02*
D03*
Y31634D02*
D03*
Y86634D02*
D03*
Y81634D02*
D03*
Y51634D02*
D03*
Y46634D02*
D03*
Y41634D02*
D03*
Y36634D02*
D03*
X282480Y161634D02*
D03*
Y156634D02*
D03*
Y151634D02*
D03*
Y146634D02*
D03*
Y141634D02*
D03*
Y136634D02*
D03*
Y131634D02*
D03*
Y126634D02*
D03*
Y121634D02*
D03*
Y116634D02*
D03*
Y111634D02*
D03*
Y106634D02*
D03*
Y101634D02*
D03*
Y96634D02*
D03*
Y91634D02*
D03*
Y86634D02*
D03*
Y81634D02*
D03*
Y76634D02*
D03*
Y71634D02*
D03*
Y66634D02*
D03*
Y61634D02*
D03*
Y56634D02*
D03*
Y51634D02*
D03*
Y46634D02*
D03*
Y31634D02*
D03*
Y171634D02*
D03*
Y166634D02*
D03*
Y41634D02*
D03*
Y36634D02*
D03*
Y226634D02*
D03*
Y221634D02*
D03*
Y216634D02*
D03*
Y211634D02*
D03*
Y206634D02*
D03*
Y201634D02*
D03*
Y191634D02*
D03*
Y186634D02*
D03*
Y181634D02*
D03*
Y176634D02*
D03*
Y196634D02*
D03*
D95*
X491693Y17421D02*
D03*
X486693D02*
D03*
X481693D02*
D03*
X476693D02*
D03*
X471693D02*
D03*
X466693D02*
D03*
X461693D02*
D03*
X456693D02*
D03*
X451693D02*
D03*
X446693D02*
D03*
X441693D02*
D03*
X436693D02*
D03*
X431693D02*
D03*
X426693D02*
D03*
X421693D02*
D03*
X416693D02*
D03*
X411693D02*
D03*
X406693D02*
D03*
X401693D02*
D03*
X396693D02*
D03*
X391693D02*
D03*
X386693D02*
D03*
X381693D02*
D03*
X376693D02*
D03*
X371693D02*
D03*
X366693D02*
D03*
X361693D02*
D03*
X356693D02*
D03*
X351693D02*
D03*
X346693D02*
D03*
X341693D02*
D03*
X336693D02*
D03*
X331693D02*
D03*
X326693D02*
D03*
X321693D02*
D03*
X316693D02*
D03*
X311693D02*
D03*
X306693D02*
D03*
X301693D02*
D03*
X296693D02*
D03*
Y240846D02*
D03*
X301693D02*
D03*
X306693D02*
D03*
X311693D02*
D03*
X316693D02*
D03*
X321693D02*
D03*
X326693D02*
D03*
X331693D02*
D03*
X336693D02*
D03*
X341693D02*
D03*
X346693D02*
D03*
X351693D02*
D03*
X356693D02*
D03*
X361693D02*
D03*
X366693D02*
D03*
X371693D02*
D03*
X376693D02*
D03*
X381693D02*
D03*
X386693D02*
D03*
X391693D02*
D03*
X396693D02*
D03*
X401693D02*
D03*
X406693D02*
D03*
X411693D02*
D03*
X416693D02*
D03*
X421693D02*
D03*
X426693D02*
D03*
X431693D02*
D03*
X436693D02*
D03*
X441693D02*
D03*
X446693D02*
D03*
X451693D02*
D03*
X456693D02*
D03*
X461693D02*
D03*
X466693D02*
D03*
X471693D02*
D03*
X476693D02*
D03*
X481693D02*
D03*
X486693D02*
D03*
X491693D02*
D03*
D96*
X455118Y295177D02*
D03*
D97*
X462008Y304823D02*
D03*
X460039D02*
D03*
X458071D02*
D03*
X456102D02*
D03*
X454134D02*
D03*
X452165D02*
D03*
X450197D02*
D03*
X448228D02*
D03*
Y285531D02*
D03*
X450197D02*
D03*
X452165D02*
D03*
X454134D02*
D03*
X456102D02*
D03*
X458071D02*
D03*
X460039D02*
D03*
X462008D02*
D03*
D98*
X445472Y302067D02*
D03*
Y300098D02*
D03*
Y298130D02*
D03*
Y296161D02*
D03*
Y294193D02*
D03*
Y292224D02*
D03*
Y290256D02*
D03*
Y288287D02*
D03*
X464764D02*
D03*
Y290256D02*
D03*
Y292224D02*
D03*
Y294193D02*
D03*
Y296161D02*
D03*
Y298130D02*
D03*
Y300098D02*
D03*
Y302067D02*
D03*
D99*
X137992Y13744D02*
D03*
Y34744D02*
D03*
X165157D02*
D03*
Y13744D02*
D03*
X357677Y340878D02*
D03*
Y361878D02*
D03*
X412402D02*
D03*
Y340878D02*
D03*
X385039Y361878D02*
D03*
Y340878D02*
D03*
X330413D02*
D03*
Y361878D02*
D03*
X412402Y398063D02*
D03*
Y419063D02*
D03*
X470571Y360992D02*
D03*
Y339992D02*
D03*
X443405Y360992D02*
D03*
Y339992D02*
D03*
X535630Y33071D02*
D03*
Y12071D02*
D03*
X562795Y33138D02*
D03*
Y12138D02*
D03*
D100*
X518898Y47933D02*
D03*
X688091Y418701D02*
D03*
X539370Y100295D02*
D03*
X617913Y240492D02*
D03*
X142579Y112303D02*
D03*
X115748Y35138D02*
D03*
X217815Y410138D02*
D03*
X187693Y293307D02*
D03*
X343701Y374673D02*
D03*
D101*
X506181Y397933D02*
D03*
D102*
X568386D02*
D03*
D103*
X181299Y388366D02*
D03*
Y393366D02*
D03*
Y398366D02*
D03*
Y403366D02*
D03*
X200590Y388366D02*
D03*
Y393366D02*
D03*
Y398366D02*
D03*
Y403366D02*
D03*
D104*
X536732Y280886D02*
D03*
X539882D02*
D03*
Y270886D02*
D03*
X536732D02*
D03*
D105*
X478150Y401968D02*
D03*
X476181D02*
D03*
X474213D02*
D03*
X472244D02*
D03*
X470276D02*
D03*
X468307D02*
D03*
X466339D02*
D03*
X464370D02*
D03*
X462402D02*
D03*
X460433D02*
D03*
X458465D02*
D03*
X456496D02*
D03*
X454528D02*
D03*
X452559D02*
D03*
X450591D02*
D03*
X448622D02*
D03*
X446654D02*
D03*
X444685D02*
D03*
D106*
X440945Y411811D02*
D03*
X481890D02*
D03*
D107*
X225689Y322736D02*
D03*
Y324705D02*
D03*
Y326673D02*
D03*
Y328642D02*
D03*
Y330610D02*
D03*
Y332579D02*
D03*
Y334547D02*
D03*
Y336516D02*
D03*
Y338484D02*
D03*
Y340453D02*
D03*
Y342421D02*
D03*
Y346358D02*
D03*
Y348327D02*
D03*
Y350295D02*
D03*
Y352264D02*
D03*
X260925Y352264D02*
D03*
Y350295D02*
D03*
Y348327D02*
D03*
Y346358D02*
D03*
Y344390D02*
D03*
Y342421D02*
D03*
Y340453D02*
D03*
Y338484D02*
D03*
Y336516D02*
D03*
Y334547D02*
D03*
Y332579D02*
D03*
Y330610D02*
D03*
Y328642D02*
D03*
Y326673D02*
D03*
Y324705D02*
D03*
Y322736D02*
D03*
X225689Y344390D02*
D03*
D108*
X228543Y355118D02*
D03*
X230512D02*
D03*
X232480D02*
D03*
X234449D02*
D03*
X236417D02*
D03*
X238386D02*
D03*
X240354D02*
D03*
X242323D02*
D03*
X244291D02*
D03*
X246260D02*
D03*
X248228D02*
D03*
X250197D02*
D03*
X252165D02*
D03*
X254134D02*
D03*
X256102D02*
D03*
X258071D02*
D03*
Y319882D02*
D03*
X256102D02*
D03*
X254134D02*
D03*
X252165D02*
D03*
X250197D02*
D03*
X248228D02*
D03*
X246260D02*
D03*
X244291D02*
D03*
X242323D02*
D03*
X240354D02*
D03*
X238386D02*
D03*
X236417D02*
D03*
X234449D02*
D03*
X232480D02*
D03*
X230512D02*
D03*
X228543D02*
D03*
D109*
X243307Y337500D02*
D03*
D110*
X722756Y118799D02*
D03*
Y115650D02*
D03*
Y96358D02*
D03*
Y93209D02*
D03*
D111*
Y106988D02*
D03*
Y108957D02*
D03*
Y110925D02*
D03*
Y112894D02*
D03*
Y105020D02*
D03*
Y103051D02*
D03*
Y101083D02*
D03*
Y99114D02*
D03*
D112*
X72343Y390158D02*
D03*
Y401772D02*
D03*
Y293209D02*
D03*
Y304823D02*
D03*
X72298Y212071D02*
D03*
Y223685D02*
D03*
D113*
X78347Y395965D02*
D03*
Y299016D02*
D03*
X78302Y217878D02*
D03*
D114*
X208175Y29232D02*
D03*
Y25492D02*
D03*
Y21752D02*
D03*
X218057D02*
D03*
Y25492D02*
D03*
Y29232D02*
D03*
D115*
X231594Y180689D02*
D03*
Y192539D02*
D03*
X219783D02*
D03*
Y180689D02*
D03*
X469866Y374488D02*
D03*
Y386339D02*
D03*
X443980D02*
D03*
Y374488D02*
D03*
D116*
X118268Y130807D02*
D03*
X124646D02*
D03*
X118268Y137303D02*
D03*
X124646D02*
D03*
X149252Y156496D02*
D03*
X142874D02*
D03*
X209927Y37947D02*
D03*
X216305D02*
D03*
X533327Y226575D02*
D03*
X539705D02*
D03*
X640413Y286713D02*
D03*
X646791D02*
D03*
X640413Y265650D02*
D03*
X646791D02*
D03*
X618071Y252461D02*
D03*
X624449D02*
D03*
X607913Y257579D02*
D03*
X601535D02*
D03*
X607913Y263779D02*
D03*
X601535D02*
D03*
X607913Y281594D02*
D03*
X601535D02*
D03*
X607913Y275394D02*
D03*
X601535D02*
D03*
X624449Y286811D02*
D03*
X618071D02*
D03*
X214705Y305512D02*
D03*
X208327D02*
D03*
X214705Y311713D02*
D03*
X208327D02*
D03*
X214705Y317913D02*
D03*
X208327D02*
D03*
X214409Y325295D02*
D03*
X208032D02*
D03*
X214409Y331496D02*
D03*
X208032D02*
D03*
X151516Y76378D02*
D03*
X145138D02*
D03*
X205020Y203346D02*
D03*
X211398D02*
D03*
X122480Y217913D02*
D03*
X116102D02*
D03*
X145335Y97638D02*
D03*
X151713D02*
D03*
X142579Y125591D02*
D03*
X148957D02*
D03*
X142579Y118898D02*
D03*
X148957D02*
D03*
X142874Y150295D02*
D03*
X149252D02*
D03*
X162362Y150295D02*
D03*
X168740D02*
D03*
X162362Y137894D02*
D03*
X168740D02*
D03*
X162362Y156496D02*
D03*
X168740D02*
D03*
X162362Y131693D02*
D03*
X168740D02*
D03*
X168740Y144095D02*
D03*
X162362D02*
D03*
X162362Y119291D02*
D03*
X168740D02*
D03*
X162362Y125492D02*
D03*
X168740D02*
D03*
X149252Y162697D02*
D03*
X142874D02*
D03*
X135768Y178445D02*
D03*
X129390D02*
D03*
X135768Y185138D02*
D03*
X129390D02*
D03*
X260709Y161614D02*
D03*
X254331D02*
D03*
X254291Y167815D02*
D03*
X260669D02*
D03*
X596299Y40551D02*
D03*
X589921D02*
D03*
X596299Y33957D02*
D03*
X589921D02*
D03*
X596299Y26870D02*
D03*
X589921D02*
D03*
X169232Y402559D02*
D03*
X162854D02*
D03*
X53031Y188524D02*
D03*
X46654D02*
D03*
X481732Y281102D02*
D03*
X475354D02*
D03*
X481732Y287402D02*
D03*
X475354D02*
D03*
Y293701D02*
D03*
X481732D02*
D03*
X254291Y44193D02*
D03*
X260669D02*
D03*
Y37697D02*
D03*
X254291D02*
D03*
X260669Y174016D02*
D03*
X254291D02*
D03*
X150925Y376083D02*
D03*
X144547D02*
D03*
X690118Y242913D02*
D03*
X696496D02*
D03*
X260669Y199016D02*
D03*
X254291D02*
D03*
X260669Y236319D02*
D03*
X254291D02*
D03*
X260669Y230118D02*
D03*
X254291D02*
D03*
Y217717D02*
D03*
X260669D02*
D03*
Y211516D02*
D03*
X254291D02*
D03*
Y223917D02*
D03*
X260669D02*
D03*
X254291Y192815D02*
D03*
X260669D02*
D03*
Y186417D02*
D03*
X254291D02*
D03*
X260669Y180217D02*
D03*
X254291D02*
D03*
Y50689D02*
D03*
X260669D02*
D03*
Y57185D02*
D03*
X254291D02*
D03*
X208032Y357480D02*
D03*
X214409D02*
D03*
X208032Y351279D02*
D03*
X214409D02*
D03*
X197972Y319882D02*
D03*
X191595D02*
D03*
X197972Y326083D02*
D03*
X191595D02*
D03*
X187697Y379232D02*
D03*
X181319D02*
D03*
X187697Y373031D02*
D03*
X181319D02*
D03*
X200492Y379232D02*
D03*
X194114D02*
D03*
Y373031D02*
D03*
X200492D02*
D03*
X187559Y409350D02*
D03*
X193937D02*
D03*
X136437Y376083D02*
D03*
X130059D02*
D03*
X591496Y341831D02*
D03*
X597874D02*
D03*
X597874Y349410D02*
D03*
X591496D02*
D03*
X591496Y355610D02*
D03*
X597874D02*
D03*
X591496Y361811D02*
D03*
X597874D02*
D03*
X597874Y368012D02*
D03*
X591496D02*
D03*
Y374213D02*
D03*
X597874D02*
D03*
X597874Y380413D02*
D03*
X591496D02*
D03*
X651417Y368307D02*
D03*
X645039D02*
D03*
X651820Y408362D02*
D03*
X645442D02*
D03*
X651820Y414563D02*
D03*
X645442D02*
D03*
X645433Y402165D02*
D03*
X651811D02*
D03*
X651811Y395965D02*
D03*
X645433D02*
D03*
X645039Y350197D02*
D03*
X651417D02*
D03*
X481732Y299902D02*
D03*
X475354D02*
D03*
X481732Y312303D02*
D03*
X475354D02*
D03*
X481732Y306102D02*
D03*
X475354D02*
D03*
X481732Y318504D02*
D03*
X475354D02*
D03*
X481732Y324803D02*
D03*
X475354D02*
D03*
X596988Y49705D02*
D03*
X603366D02*
D03*
X663150Y26969D02*
D03*
X669527D02*
D03*
Y33169D02*
D03*
X663150D02*
D03*
X663150Y39665D02*
D03*
X669528D02*
D03*
X663150Y45866D02*
D03*
X669528D02*
D03*
X712264Y71063D02*
D03*
X718642D02*
D03*
X712264Y77264D02*
D03*
X718642D02*
D03*
X651535Y211614D02*
D03*
X657913D02*
D03*
X535054Y149413D02*
D03*
X541432D02*
D03*
X535054Y143213D02*
D03*
X541432Y143213D02*
D03*
X539705Y220374D02*
D03*
X533327D02*
D03*
X580059Y49705D02*
D03*
X586437D02*
D03*
X544941Y47441D02*
D03*
X551319D02*
D03*
X544449Y70079D02*
D03*
X550827D02*
D03*
X535054Y117228D02*
D03*
X541432D02*
D03*
X535054Y111028D02*
D03*
X541432D02*
D03*
X535054Y155614D02*
D03*
X541432D02*
D03*
X533327Y207874D02*
D03*
X539705D02*
D03*
X533327Y214173D02*
D03*
X539705D02*
D03*
X596102Y68012D02*
D03*
X589724D02*
D03*
Y61516D02*
D03*
X596102D02*
D03*
X53031Y168524D02*
D03*
X46654D02*
D03*
X53031Y138524D02*
D03*
X46654D02*
D03*
X53031Y158524D02*
D03*
X46654D02*
D03*
X53031Y148524D02*
D03*
X46654D02*
D03*
X254291Y205315D02*
D03*
X260669D02*
D03*
X199671Y38046D02*
D03*
X193293D02*
D03*
Y31747D02*
D03*
X199671D02*
D03*
Y19148D02*
D03*
X193293D02*
D03*
X199671Y25447D02*
D03*
X193293D02*
D03*
X130965Y351575D02*
D03*
X137343D02*
D03*
X130965Y357776D02*
D03*
X137343D02*
D03*
X175551Y334350D02*
D03*
X181929D02*
D03*
X175551Y340650D02*
D03*
X181929D02*
D03*
D117*
X174072Y215102D02*
D03*
X165692Y223481D02*
D03*
X210597Y223481D02*
D03*
X218977Y215102D02*
D03*
X188096Y223481D02*
D03*
X196476Y215102D02*
D03*
D118*
X171742Y230386D02*
D03*
X176252Y225876D02*
D03*
X176270Y234914D02*
D03*
X180780Y230404D02*
D03*
X194183Y230386D02*
D03*
X198693Y225876D02*
D03*
X203221Y230404D02*
D03*
X198711Y234914D02*
D03*
D119*
X191205Y179961D02*
D03*
X196205D02*
D03*
X201205D02*
D03*
Y192480D02*
D03*
X191205D02*
D03*
D120*
X162205Y393012D02*
D03*
Y389862D02*
D03*
X169685Y393012D02*
D03*
Y389862D02*
D03*
D121*
X142224Y143012D02*
D03*
X145965D02*
D03*
X149705D02*
D03*
X142224Y132776D02*
D03*
X149705D02*
D03*
X661024Y403524D02*
D03*
X664764D02*
D03*
X668504D02*
D03*
Y413406D02*
D03*
X664764D02*
D03*
X661024D02*
D03*
X534503Y135339D02*
D03*
X538243D02*
D03*
X541983D02*
D03*
X534503Y125102D02*
D03*
X541983D02*
D03*
D122*
X117126Y172539D02*
D03*
X126575Y168799D02*
D03*
X117126Y165059D02*
D03*
D123*
X402165Y295177D02*
D03*
M02*
