M48
;Layer_Color=9474304
;FILE_FORMAT=4:4
METRIC,LZ
;TYPE=PLATED
T03F00S00C0.6500
T06F00S00C0.8000
T13F00S00C2.0000
;TYPE=NON_PLATED
%
G90
G05
T03
G00X0185045Y0022605
M15
G01X0183945
M16
G00X0188975Y0022605
M15
G01X0188375
M16
G00X0188975Y0031245
M15
G01X0188375
M16
G00X0185045Y0031245
M15
G01X0183945
M16
T06
G00X00588252Y00140874
M15
G01X00596252
M16
G00X00616502Y00169874
M15
G01Y00161874
M16
G00X00275502Y00140812
M15
G01X00267502
M16
G00X00246502Y00169874
M15
G01Y00161874
M16
G00X00246502Y00631374
M15
G01Y00639374
M16
G00X00275502Y00660374
M15
G01X00267502
M16
G00X0027675Y0070825
M15
G01X0026875
M16
G00X0024775Y0073725
M15
G01Y0072925
M16
G00X00588252Y00660374
M15
G01X00596252
M16
G00X00616502Y00631374
M15
G01Y00639374
M16
G00X0073825Y0070825
M15
G01X0074625
M16
G00X00767312Y0073725
M15
G01Y0072925
M16
G00X0076725Y0105
M15
G01Y01058
M16
G00X0073825Y0107825
M15
G01X0074625
M16
G00X0027675Y0107825
M15
G01X0026875
M16
G00X0024775Y0105
M15
G01Y01058
M16
T13
G00X002005Y00216175
M15
G01Y00206175
M16
G00X000785Y00216175
M15
G01Y00206175
M16
G00X002005Y00905675
M15
G01Y00895675
M16
G00X000785Y00905675
M15
G01Y00895675
M16
M17
M30
