M48
;Layer_Color=9474304
;FILE_FORMAT=4:4
METRIC,LZ
;TYPE=PLATED
T01F00S00C0.3000
T02F00S00C0.5000
T04F00S00C0.7000
T05F00S00C0.8000
T07F00S00C0.8900
T08F00S00C0.9000
T09F00S00C1.0000
T10F00S00C1.0200
T11F00S00C1.2000
T12F00S00C1.6300
T14F00S00C3.2000
;TYPE=NON_PLATED
T15F00S00C0.7000
T16F00S00C1.0000
T17F00S00C1.3000
T18F00S00C2.0000
T19F00S00C2.3600
T20F00S00C3.2500
%
T01
X0033735Y0007658
Y0008825
X0036365Y0008809
Y0007658
X0040635
Y0008825
X0043265Y0008809
Y0007658
X004355Y0004975
Y0003725
Y0002475
Y0001225
X00448
Y0002475
Y0003725
Y0004975
X00482064Y00048636
Y00064637
X00481964Y00080637
X00516164
Y00064637
X00520014Y00050398
X00516164Y00096636
X00558314Y00096386
X005655Y00065
X00624Y000414
X0064
X006505Y000665
X00637Y0009575
X006995Y0008035
X008044Y0002625
X00868Y0009325
X009314Y0002625
X009949
X010584
X011219
X011854
X012489
X0134735Y0003082
Y0004233
X0137365
Y0003066
X0141635Y0003099
Y000425
X0144265
Y0003083
X01443467Y00070471
X01443469Y00083002
X01443471Y00095533
X01456002Y00095531
X01456Y00083
X01455998Y00070469
X014895Y0006825
Y0008625
X015235Y0006825
X016415Y000405
X0164975Y0002775
X0163325
X016715Y0004825
X016755Y000685
Y0008425
X017095
X017236Y000395
X017514Y000395
X01875Y00016
X0189Y00027
X018855Y00135
Y00157
X01844
Y00135
X01793Y00146
X01771
X017514Y001415
Y0011
X017236Y0011
X0180025Y001805
X0180025Y0019625
X0181725Y0024475
Y0029375
X0182275Y0036775
X018385
X0180425Y00374
X0179475
X01889Y00374
X016825Y0041275
Y0042225
X0168325Y004615
Y00471
X0164925Y004855
Y0044675
Y0043725
X015045Y003705
X0151415Y003455
X015045Y0030125
X0148275Y002435
X01467
X0145125
X014355
X0141975
X01404
X01411Y00206
X0141125Y0019675
X014125Y0018625
X01399Y001879
X0140125Y00162
X01412
X01412095Y00147817
X01435533Y00160282
X0143275Y00167
X01435533Y00173717
X0144225Y001765
X01448967Y00173718
X0145175Y00167
X01448967Y00160282
X0144225Y001575
X0144225Y00167
X0143725Y0020175
X01448375Y00213125
X014655Y001915
X01489Y0015625
X01523
Y0017275
X0150745Y0012625
X0149845
X014895Y00103
X0146445Y0012625
X0137525Y001205
X0137575Y001585
X01374Y00178
X01359037Y0026626
X01384137Y0028201
Y0029776
X01384137Y0036376
X01384137Y0037951
X01384137Y0039526
X01367137Y0035466
X01415651Y00364569
X01303Y0035975
Y0042325
Y0048675
X016755Y001165
Y0010075
X01198Y001965
X011726
X011599
X011472
X011345
X011091
X010964
X010837
X01071
X010456
X010329
X010202
X010075
X009821
X009694
X009567
X00944
X009186
X009059
X008932
X0093475Y001755
X0106187Y0017138
X0104175Y00377
X0110525
Y004405
X0104175
X0097825
Y00377
X0091475
Y004405
X0119225Y0041625
X0120225Y004625
X0116625Y0036575
Y0030225
X0085125Y00377
X0078775
Y004405
X007505Y0044025
X0075025Y004635
X007405Y004875
X0069075Y0049075
X00696797Y00474322
X006995Y0046135
X006805Y0044375
X00637Y004455
X00637Y0045725
X00637Y004735
X0063575Y0048825
X006105Y004485
X0058825Y00447
X0055825
X0054325Y0044375
X00535789Y00451474
X00520142Y00449972
X0052775Y0046075
X0052725Y0049
X0054
X004975Y00488
X0050775Y00427
X0057325Y00474
X00753Y0040675
X0085125Y004405
X008551Y001965
X008424
X008297
X00817
X007916
X007789
X007662
X007535
X0074075Y0019625
X00743699Y00175
X006995Y0014385
X00637Y0014525
X006369Y0012875
X0062675Y001025
X005585Y001565
X00509Y0017325
X00499Y0024625
X00497753Y00255657
X008805Y001965
X00868Y0017275
X0044125Y0017325
X00416353Y001925
X0039375Y00194
X0035975
X0033325Y00197
X0033225Y002185
X0033775Y002305
X0035225Y00237
X00344528Y0021175
X003791Y00221
X0039425Y00248
X003855Y0027375
X0038725Y00302
Y00319
X004035Y0031875
Y003345
Y0035025
X004035Y00366
X004035Y0038175
X00388Y0038175
Y003975
X004035Y003975
X00388Y0041325
X00418251Y00436501
X0043475Y00453
X0046625Y00454
X00451212Y00469462
X0041525Y004935
X0039749Y00492527
X0038075Y004925
X0036401Y00492473
X0034727Y00492447
X0035375Y0047025
X00354477Y00452461
X00329504Y00417246
X003525Y0038975
X0037075Y0037415
X002995Y0037675
X002915Y0034875
X002885Y003345
X00249Y00334691
Y00369191
Y00403691
X002015
Y00369191
Y00334691
X002015Y00299596
X00249
X00249Y00264501
X002965
X002965Y00299596
X00328933Y00302991
X0035325Y00302
X004035Y00303
X004545Y00292
Y00264
X0043815Y002644
X0042875Y0022125
X004375Y0035025
X00455Y00342
X0045675Y003735
X00457548Y00404273
X0044275Y0039775
X0044025Y00417
X00482502Y0040575
X0032925Y00339
X00328538Y00269339
X0029525Y00229405
X00135Y0030175
X001275Y003095
X00142571Y0039
X001347Y0048835
X001645Y00483
X0020575Y0048775
Y004525
X0025975
X0025325Y0048775
X0030075
X002975Y0046825
X0030075Y0052225
X00294457Y00535933
X00311197Y0053596
X0034725Y0053625
X003646Y00526225
Y004997
X003815Y0053625
X00388Y0058025
X003505
X003285Y00581
X00299Y0057625
X002815
X00264
X002465
X00229
X002115
X00188385Y00579161
X00178888
Y00527661
X00188385
X0020575Y0052225
X002115Y005355
X00229
X002465
X00264
X002775Y0052825
X0025325Y0052225
X002665Y0062
X00219
Y006545
X001765Y006545
X0013675Y0065825
X001295Y006745
X0011Y0062475
X00102773Y005325
X00179591Y00735656
X00188Y007355
X0021175Y007465
X0022925
Y007725
X0021175
X0020725Y007935
X001885Y0078525
X00179003
X0020725Y00828
X0025475
X0028175Y0083375
Y0081625
X002815Y007985
X00269126Y00786126
X0025475Y007935
X00256751Y00773751
X00259626Y00746376
X00279751Y00756001
X00292126Y00768376
X00313Y00768
X003045Y0078075
X0031375Y007965
Y00814
Y008315
X0033125
X0034875
X003695
X00368Y0081575
Y0078125
X0036199Y0077075
X0034624Y0077075
X0037774Y0077075
X0038534Y007535
X003765Y0071825
X003305Y00719
Y007535
X0029225Y007435
X00283Y00719
X00314Y006545
Y0062
X003615
Y006545
X00409
Y0062
X00442044Y00608104
X004565Y0062
Y006545
X00472Y0071775
X004405Y0073075
X00424Y0071825
X0044049Y0077
X0045749
X004535Y0079225
X0047725Y0079585
X0047775Y008125
Y0082825
X0046475Y0083425
X0045475Y008286
X0043225Y00831
X0042375Y008239
Y007899
X00408
X0040025Y0078325
X00387Y008315
X004035Y0085325
X004115Y0085325
Y0086125
X004035
X004305Y0088225
X004535Y0088275
X003655Y00882
X0032385Y0087885
Y0086105
X0030975Y0085725
X0028875Y00851
X002915Y008675
X00244
X00329272Y00810499
X0041575Y0050925
X004325Y0050925
X004485Y00523
X00463Y0053575
X00485605Y0050515
X00498952Y00608204
X00504Y0062
Y006545
X005195Y0071775
X0052025Y00776
Y0079175
Y008075
X00519868Y00826618
X005195Y00842
X005535Y0082625
X0055425Y0079175
Y00776
X0057625Y0079275
X005825Y007995
X0057625Y0075875
X00592
X006665Y0078075
X00693Y007715
Y008055
X00681Y0085625
X0071675Y0088675
X0075125
X008261Y008775
Y0086599
X008524Y0086583
Y008775
X008806Y0062975
X008171
X0083675Y005805
X00815265Y00553148
X0079552Y00548394
X00792Y005375
Y00529
Y005205
Y00512
X0084175Y005205
X00778882Y00560618
X00766618
X007555Y005605
X0074725Y00575
X007385
X0077275
X007435Y00608
X007095Y0060875
Y005985
Y0058825
X00671Y005845
X00671197Y00598788
X006225Y006055
X0062875Y0061425
X006395Y0063075
X0060475Y005805
X005645Y0058
X005515Y0062
X00588592Y00541592
X006715Y00541201
X0074275Y00533
X0090525Y005205
X0096875
X0099475Y0051925
X0100225Y0052925
X0104175Y00504
X0110525
X011346Y0062975
X0113525Y006744
X011195
X01151
X011195Y007084
X0111225Y0073525
X011055Y0074075
X01146277Y00740027
X0114225Y0074975
X01146277Y00759473
X01156Y007635
X01165723Y00759473
X0116975Y0074975
X01165723Y00740027
X01156Y00736
X01156Y0074975
X0117525Y007945
X01195Y007855
X012325Y0079325
Y0076175
Y00746
Y0073
Y00825
X0117525Y008285
X01147Y008285
X01131Y008285
X01115
X0111975Y00788
X0111925Y007785
X01036Y0078775
Y0079625
Y0080475
Y0081325
Y0082175
Y0083025
X0103435Y0086599
Y008775
X0106065
Y0086583
X0099115
Y008775
X0096485
Y0086599
X0092165Y0086583
Y008775
X0089535
Y0086599
X00993142Y00754879
X01014782Y00756468
X010215Y0075925
X01028217Y00756468
X01031Y0074975
X01028217Y00743033
X010215Y0074025
X01014782Y00743033
X01012Y0074975
X010215Y0074975
X0100225Y0072525
Y0071675
Y0070825
X01014543Y00704057
X01024Y00679
X0104025
X01036Y0067125
Y0066275
Y0065425
Y0064575
Y0063725
X0104475Y00637
X010711Y0062975
X0101175Y0063175
X009441Y0062975
X0096375Y005805
X009885Y0058075
X0090025Y005805
X0122275Y005725
X01256Y0057475
X01255Y0056275
X012535Y0054
X0126425Y0062775
X012765Y006275
X0120075Y0063375
X013024Y0057565
X0134575Y005755
X013706Y0058525
X0137975Y0055975
X013996Y0068805
Y0071345
X014254
Y0068805
X01519Y006995
Y0071525
X015441Y0072475
Y0069
X015441Y006795
X01519Y0067
Y0065425
X0151975Y006285
X015441Y0064475
X01561Y0064125
X01595
X0158625Y0061975
Y0058575
X0160325
X01666Y005851
X0168175Y00585
X01666125Y00568625
Y00559125
X016822Y0053745
X01646Y005375
X0164925Y00495
X016584Y0060225
X0166725Y0063125
X016365Y0064825
X0165175Y0067475
X0166725Y0068475
X01631Y0070175
X0161775Y0072825
X01595Y007285
X01578Y0071925
X0165175Y0072825
X0161775Y0067475
X01598Y0081325
X015665Y0081325
X0154575Y0081325
X0153
X01557Y0083835
X01552Y008525
X0153975Y008675
X015186Y00878
X0149175Y008875
X014915Y0086875
X01432485Y00867776
X014325Y0082075
X013609Y0080615
X013482
X013355
X013228
X0132125Y0076875
X0132118Y00759187
X0130375Y0078425
X01295
X0128975Y00819
X013228Y0086935
X013355
X013482
X013609
X01568527Y00887777
X0157825Y0088375
X01587973Y00887777
X016295Y008895
X016635
X0167025Y0084725
X016545Y0084725
X0163875Y0084725
X0161075Y0083425
X018175Y0084525
X018173Y008865
X01799Y008865
X017807Y008865
X017345Y0070075
X0175825Y006555
X01744Y00617
X0173535Y0060025
Y0058925
X016975Y005851
X0175425Y0093
X0179465
X018175Y0095525
X018173Y010435
X01799Y010435
X017807Y010435
X01733Y01049
X0173625Y010635
X017355Y0101325
X0171975
X0169325Y010375
X0168825Y0097925
X016725
X0165525Y009945
X0164175Y0098475
X01626Y0098475
X0161025
X016305Y010215
X01630522Y01037239
X01664522
X016635Y009355
X016295
X01587973Y00907223
X01592Y008975
X0157825Y008975
X0157825Y0091125
X01568527Y00907223
X015645Y008975
X01544772Y00926314
X0153025Y0092375
X0149175Y00919
X014935Y0093475
X0149175Y009505
X014935Y0096625
X015185Y0097615
X01551Y0098475
X01572324Y00948922
X0167875Y0090675
Y0089725
X013735Y0090625
X0133375Y0091
Y0094725
X01371
X0140825
Y009845
X0142Y01003
Y010185
X01371Y0102175
Y009845
X0133375
X0133375Y01059
X012965
X01371
X0140825
X014455
X0125925
X012175Y010525
Y010395
X0122125Y0102925
X011775Y01031
X01147292Y01039102
X011265Y010395
Y010525
X0106065Y0105283
Y0106434
X0103435Y010645
Y0105283
X0099425Y0107325
X0098775Y0107925
X009655Y0102725
X0092075
X0091025
X0089975
X00951Y00982
X0103375Y0093225
Y0092225
Y0091225
X0106125
Y0092225
Y0093225
X0115271Y0094925
X0116871
X0128025Y008995
X00813Y0091225
X00812998Y00924781
X00812996Y00937312
X00800465Y0093731
X00800467Y00924779
X00800469Y00912248
X0075125Y0093425
X0071675
X0071725Y0097925
X0075175
Y0102675
X0071725
X0069225Y010105
X006765Y010105
X0066075
X0065315Y0102775
X006355Y01073
X00683
X00588
X005405
X0052645Y0102295
Y0101345
X0055775Y010125
X00581Y0101125
X00598
X005905Y0097925
X0059625Y0095575
X005805
X0056475
Y0092175
X005535Y00908
X005195Y00908
X005195Y0089225
X005035Y009245
X0051815Y009475
Y0096325
X00543Y0097925
X005395Y009305
X0060025Y0091475
X0067125Y0091075
X0067125Y0095575
X006555
X00638Y0097925
X005015Y0103975
X00493Y01073
X004455
X00398
X003505
X0035055Y0103115
X0031985
X0027925Y0104475
X0026075Y010445
X00248Y0103225
X00232778Y01020266
X0021125Y0102
X00211Y009925
X0021175Y0097625
X001885Y0098
Y010315
X00179003
X00233Y009925
X00253Y009955
X00265Y010065
X0028375Y0100625
X0027525Y010175
X0029775Y0098875
X0030675Y0097625
Y0094175
X0025925
Y0097625
X0021175Y0094175
X00244Y00902
X002915
X0032375Y0090875
X0032375Y00893
X00376Y0089075
X004075
X00439
Y0092475
X0042325
X004075
X0039175
X00376
X0035725Y00931
X00357Y0095525
X0039225
X00423247Y0095535
X0042575Y009815
X0041725
X004435Y00997
X0045165Y0096325
Y009475
X00466Y00923
X0047475Y009755
X00423575Y01044675
X00357Y0099375
X00303Y01073
T02
X005875Y0082675
X0059387Y00837002
X00601913Y00843751
X0060225Y0082997
X0061253Y00826228
X0062347
X0063375Y0082997
X006285Y00839063
X0062325Y00848157
X0061275
X00614353Y00836569
X00618Y0085725
X006285
X0062325Y00866343
X0061275
X00614353Y00877931
X0061253Y00888271
X0062347
X0063375Y0088453
X006285Y00875437
X0064213Y00877498
X006476Y00868024
X006495Y0085725
X006476Y00846476
X00637734Y00850068
Y00864432
X0064213Y00837002
X006485Y0082675
X006485Y0088775
X0060225Y0088453
X00601913Y00870749
X0059387Y00877498
X005884Y00868024
X005865Y0085725
X00597
X006075
X005884Y00846476
X005875Y0088775
X0081085Y009885
X008288
X0084675
X008647
X0088265
Y01008
X008647
X0084675
X008288
X0081085
X008108Y0102725
X0082875
X008467
X0086465
X008826
X0088265Y01047
X008647
X0084675
X008288
X0081085
Y0106675
X008288
X0084675
X008647
X0088265
T04
X017171Y0043585
Y0046125
Y0048665
X017425Y0047385
Y0044845
Y0042305
Y0049925
Y0052465
X017171Y0051205
T05
X00214Y000345
X00234
X00254
X00274
X0068175Y0087625
X00703
Y0089725
Y009185
Y0093975
X0068175Y0089725
X0063825Y0092075
Y00942
X00617
Y0092075
T07
X017171Y0053745
T08
X0180685Y0070165
Y0072205
Y0074245
X0183225Y0075265
Y0073225
Y0071185
T09
X000615Y000425
X000815Y0032645
Y0035185
Y0037725
Y0040265
Y0042805
Y0045345
Y0047885
Y0050425
Y0052965
Y0055505
Y0058045
Y0060585
Y0063125
Y0065665
Y0068205
Y0070745
Y0073285
Y0075825
X015077Y00771
X015331
X015585
X015839
X0163885
X0166425
X0168965
X0171505
X01431Y0091975
X0150325Y010635
X00274Y0091975
T10
X01855Y00414
Y004394
Y005211
Y005465
T11
X001131Y00134975
X001385
X001639
Y00281025
X001131
Y00824475
X001385
X001639
X0182025Y0078815
Y0066615
X001639Y00970525
X001131
T12
X017755Y004028
Y005577
T14
X001365Y0004125
X0158Y000375
Y010625
X001415Y0106175
T15
X0185025Y0024035
Y0029815
T16
X01403Y0101075
T17
X01816Y0094
Y0099
X01328Y0101075
T18
X01406Y0091975
X00299
T19
X0185525Y0066715
Y0078715
T20
X01806Y004231
Y005374
M30
