G04*
G04 #@! TF.GenerationSoftware,Altium Limited,Altium Designer,24.4.1 (13)*
G04*
G04 Layer_Color=8388736*
%FSLAX26Y26*%
%MOIN*%
G70*
G04*
G04 #@! TF.SameCoordinates,3F108B2F-3CCF-4823-96B3-378CED877835*
G04*
G04*
G04 #@! TF.FilePolarity,Negative*
G04*
G01*
G75*
G04:AMPARAMS|DCode=23|XSize=31.496mil|YSize=37.402mil|CornerRadius=5.197mil|HoleSize=0mil|Usage=FLASHONLY|Rotation=180.000|XOffset=0mil|YOffset=0mil|HoleType=Round|Shape=RoundedRectangle|*
%AMROUNDEDRECTD23*
21,1,0.031496,0.027008,0,0,180.0*
21,1,0.021102,0.037402,0,0,180.0*
1,1,0.010394,-0.010551,0.013504*
1,1,0.010394,0.010551,0.013504*
1,1,0.010394,0.010551,-0.013504*
1,1,0.010394,-0.010551,-0.013504*
%
%ADD23ROUNDEDRECTD23*%
G04:AMPARAMS|DCode=24|XSize=31.496mil|YSize=37.402mil|CornerRadius=5.197mil|HoleSize=0mil|Usage=FLASHONLY|Rotation=270.000|XOffset=0mil|YOffset=0mil|HoleType=Round|Shape=RoundedRectangle|*
%AMROUNDEDRECTD24*
21,1,0.031496,0.027008,0,0,270.0*
21,1,0.021102,0.037402,0,0,270.0*
1,1,0.010394,-0.013504,-0.010551*
1,1,0.010394,-0.013504,0.010551*
1,1,0.010394,0.013504,0.010551*
1,1,0.010394,0.013504,-0.010551*
%
%ADD24ROUNDEDRECTD24*%
G04:AMPARAMS|DCode=25|XSize=74.803mil|YSize=35.039mil|CornerRadius=8.76mil|HoleSize=0mil|Usage=FLASHONLY|Rotation=0.000|XOffset=0mil|YOffset=0mil|HoleType=Round|Shape=RoundedRectangle|*
%AMROUNDEDRECTD25*
21,1,0.074803,0.017520,0,0,0.0*
21,1,0.057283,0.035039,0,0,0.0*
1,1,0.017520,0.028642,-0.008760*
1,1,0.017520,-0.028642,-0.008760*
1,1,0.017520,-0.028642,0.008760*
1,1,0.017520,0.028642,0.008760*
%
%ADD25ROUNDEDRECTD25*%
G04:AMPARAMS|DCode=26|XSize=133.858mil|YSize=78.74mil|CornerRadius=19.685mil|HoleSize=0mil|Usage=FLASHONLY|Rotation=270.000|XOffset=0mil|YOffset=0mil|HoleType=Round|Shape=RoundedRectangle|*
%AMROUNDEDRECTD26*
21,1,0.133858,0.039370,0,0,270.0*
21,1,0.094488,0.078740,0,0,270.0*
1,1,0.039370,-0.019685,-0.047244*
1,1,0.039370,-0.019685,0.047244*
1,1,0.039370,0.019685,0.047244*
1,1,0.039370,0.019685,-0.047244*
%
%ADD26ROUNDEDRECTD26*%
G04:AMPARAMS|DCode=27|XSize=74.803mil|YSize=35.039mil|CornerRadius=8.76mil|HoleSize=0mil|Usage=FLASHONLY|Rotation=270.000|XOffset=0mil|YOffset=0mil|HoleType=Round|Shape=RoundedRectangle|*
%AMROUNDEDRECTD27*
21,1,0.074803,0.017520,0,0,270.0*
21,1,0.057283,0.035039,0,0,270.0*
1,1,0.017520,-0.008760,-0.028642*
1,1,0.017520,-0.008760,0.028642*
1,1,0.017520,0.008760,0.028642*
1,1,0.017520,0.008760,-0.028642*
%
%ADD27ROUNDEDRECTD27*%
G04:AMPARAMS|DCode=28|XSize=133.858mil|YSize=78.74mil|CornerRadius=19.685mil|HoleSize=0mil|Usage=FLASHONLY|Rotation=180.000|XOffset=0mil|YOffset=0mil|HoleType=Round|Shape=RoundedRectangle|*
%AMROUNDEDRECTD28*
21,1,0.133858,0.039370,0,0,180.0*
21,1,0.094488,0.078740,0,0,180.0*
1,1,0.039370,-0.047244,0.019685*
1,1,0.039370,0.047244,0.019685*
1,1,0.039370,0.047244,-0.019685*
1,1,0.039370,-0.047244,-0.019685*
%
%ADD28ROUNDEDRECTD28*%
G04:AMPARAMS|DCode=29|XSize=196.85mil|YSize=118.11mil|CornerRadius=17.716mil|HoleSize=0mil|Usage=FLASHONLY|Rotation=180.000|XOffset=0mil|YOffset=0mil|HoleType=Round|Shape=RoundedRectangle|*
%AMROUNDEDRECTD29*
21,1,0.196850,0.082677,0,0,180.0*
21,1,0.161417,0.118110,0,0,180.0*
1,1,0.035433,-0.080709,0.041339*
1,1,0.035433,0.080709,0.041339*
1,1,0.035433,0.080709,-0.041339*
1,1,0.035433,-0.080709,-0.041339*
%
%ADD29ROUNDEDRECTD29*%
G04:AMPARAMS|DCode=30|XSize=41.732mil|YSize=19.685mil|CornerRadius=1.968mil|HoleSize=0mil|Usage=FLASHONLY|Rotation=0.000|XOffset=0mil|YOffset=0mil|HoleType=Round|Shape=RoundedRectangle|*
%AMROUNDEDRECTD30*
21,1,0.041732,0.015748,0,0,0.0*
21,1,0.037795,0.019685,0,0,0.0*
1,1,0.003937,0.018898,-0.007874*
1,1,0.003937,-0.018898,-0.007874*
1,1,0.003937,-0.018898,0.007874*
1,1,0.003937,0.018898,0.007874*
%
%ADD30ROUNDEDRECTD30*%
%ADD31R,0.051181X0.051181*%
%ADD32R,0.078740X0.051181*%
G04:AMPARAMS|DCode=33|XSize=56.693mil|YSize=23.622mil|CornerRadius=3.898mil|HoleSize=0mil|Usage=FLASHONLY|Rotation=180.000|XOffset=0mil|YOffset=0mil|HoleType=Round|Shape=RoundedRectangle|*
%AMROUNDEDRECTD33*
21,1,0.056693,0.015827,0,0,180.0*
21,1,0.048898,0.023622,0,0,180.0*
1,1,0.007795,-0.024449,0.007913*
1,1,0.007795,0.024449,0.007913*
1,1,0.007795,0.024449,-0.007913*
1,1,0.007795,-0.024449,-0.007913*
%
%ADD33ROUNDEDRECTD33*%
G04:AMPARAMS|DCode=34|XSize=78.74mil|YSize=74.803mil|CornerRadius=12.342mil|HoleSize=0mil|Usage=FLASHONLY|Rotation=0.000|XOffset=0mil|YOffset=0mil|HoleType=Round|Shape=RoundedRectangle|*
%AMROUNDEDRECTD34*
21,1,0.078740,0.050118,0,0,0.0*
21,1,0.054055,0.074803,0,0,0.0*
1,1,0.024685,0.027028,-0.025059*
1,1,0.024685,-0.027028,-0.025059*
1,1,0.024685,-0.027028,0.025059*
1,1,0.024685,0.027028,0.025059*
%
%ADD34ROUNDEDRECTD34*%
G04:AMPARAMS|DCode=35|XSize=56.693mil|YSize=23.622mil|CornerRadius=3.898mil|HoleSize=0mil|Usage=FLASHONLY|Rotation=270.000|XOffset=0mil|YOffset=0mil|HoleType=Round|Shape=RoundedRectangle|*
%AMROUNDEDRECTD35*
21,1,0.056693,0.015827,0,0,270.0*
21,1,0.048898,0.023622,0,0,270.0*
1,1,0.007795,-0.007913,-0.024449*
1,1,0.007795,-0.007913,0.024449*
1,1,0.007795,0.007913,0.024449*
1,1,0.007795,0.007913,-0.024449*
%
%ADD35ROUNDEDRECTD35*%
G04:AMPARAMS|DCode=36|XSize=78.74mil|YSize=74.803mil|CornerRadius=12.342mil|HoleSize=0mil|Usage=FLASHONLY|Rotation=90.000|XOffset=0mil|YOffset=0mil|HoleType=Round|Shape=RoundedRectangle|*
%AMROUNDEDRECTD36*
21,1,0.078740,0.050118,0,0,90.0*
21,1,0.054055,0.074803,0,0,90.0*
1,1,0.024685,0.025059,0.027028*
1,1,0.024685,0.025059,-0.027028*
1,1,0.024685,-0.025059,-0.027028*
1,1,0.024685,-0.025059,0.027028*
%
%ADD36ROUNDEDRECTD36*%
G04:AMPARAMS|DCode=37|XSize=39.37mil|YSize=59.055mil|CornerRadius=6.496mil|HoleSize=0mil|Usage=FLASHONLY|Rotation=180.000|XOffset=0mil|YOffset=0mil|HoleType=Round|Shape=RoundedRectangle|*
%AMROUNDEDRECTD37*
21,1,0.039370,0.046063,0,0,180.0*
21,1,0.026378,0.059055,0,0,180.0*
1,1,0.012992,-0.013189,0.023032*
1,1,0.012992,0.013189,0.023032*
1,1,0.012992,0.013189,-0.023032*
1,1,0.012992,-0.013189,-0.023032*
%
%ADD37ROUNDEDRECTD37*%
G04:AMPARAMS|DCode=38|XSize=51.181mil|YSize=131.89mil|CornerRadius=5.118mil|HoleSize=0mil|Usage=FLASHONLY|Rotation=270.000|XOffset=0mil|YOffset=0mil|HoleType=Round|Shape=RoundedRectangle|*
%AMROUNDEDRECTD38*
21,1,0.051181,0.121654,0,0,270.0*
21,1,0.040945,0.131890,0,0,270.0*
1,1,0.010236,-0.060827,-0.020473*
1,1,0.010236,-0.060827,0.020473*
1,1,0.010236,0.060827,0.020473*
1,1,0.010236,0.060827,-0.020473*
%
%ADD38ROUNDEDRECTD38*%
G04:AMPARAMS|DCode=39|XSize=59.055mil|YSize=94.488mil|CornerRadius=10.335mil|HoleSize=0mil|Usage=FLASHONLY|Rotation=90.000|XOffset=0mil|YOffset=0mil|HoleType=Round|Shape=RoundedRectangle|*
%AMROUNDEDRECTD39*
21,1,0.059055,0.073819,0,0,90.0*
21,1,0.038386,0.094488,0,0,90.0*
1,1,0.020669,0.036910,0.019193*
1,1,0.020669,0.036910,-0.019193*
1,1,0.020669,-0.036910,-0.019193*
1,1,0.020669,-0.036910,0.019193*
%
%ADD39ROUNDEDRECTD39*%
G04:AMPARAMS|DCode=40|XSize=59.055mil|YSize=94.488mil|CornerRadius=10.335mil|HoleSize=0mil|Usage=FLASHONLY|Rotation=180.000|XOffset=0mil|YOffset=0mil|HoleType=Round|Shape=RoundedRectangle|*
%AMROUNDEDRECTD40*
21,1,0.059055,0.073819,0,0,180.0*
21,1,0.038386,0.094488,0,0,180.0*
1,1,0.020669,-0.019193,0.036910*
1,1,0.020669,0.019193,0.036910*
1,1,0.020669,0.019193,-0.036910*
1,1,0.020669,-0.019193,-0.036910*
%
%ADD40ROUNDEDRECTD40*%
G04:AMPARAMS|DCode=41|XSize=65mil|YSize=100mil|CornerRadius=6.5mil|HoleSize=0mil|Usage=FLASHONLY|Rotation=270.000|XOffset=0mil|YOffset=0mil|HoleType=Round|Shape=RoundedRectangle|*
%AMROUNDEDRECTD41*
21,1,0.065000,0.087000,0,0,270.0*
21,1,0.052000,0.100000,0,0,270.0*
1,1,0.013000,-0.043500,-0.026000*
1,1,0.013000,-0.043500,0.026000*
1,1,0.013000,0.043500,0.026000*
1,1,0.013000,0.043500,-0.026000*
%
%ADD41ROUNDEDRECTD41*%
G04:AMPARAMS|DCode=42|XSize=23.622mil|YSize=43.307mil|CornerRadius=7.795mil|HoleSize=0mil|Usage=FLASHONLY|Rotation=270.000|XOffset=0mil|YOffset=0mil|HoleType=Round|Shape=RoundedRectangle|*
%AMROUNDEDRECTD42*
21,1,0.023622,0.027716,0,0,270.0*
21,1,0.008031,0.043307,0,0,270.0*
1,1,0.015591,-0.013858,-0.004016*
1,1,0.015591,-0.013858,0.004016*
1,1,0.015591,0.013858,0.004016*
1,1,0.015591,0.013858,-0.004016*
%
%ADD42ROUNDEDRECTD42*%
G04:AMPARAMS|DCode=43|XSize=78.74mil|YSize=78.74mil|CornerRadius=13.78mil|HoleSize=0mil|Usage=FLASHONLY|Rotation=180.000|XOffset=0mil|YOffset=0mil|HoleType=Round|Shape=RoundedRectangle|*
%AMROUNDEDRECTD43*
21,1,0.078740,0.051181,0,0,180.0*
21,1,0.051181,0.078740,0,0,180.0*
1,1,0.027559,-0.025591,0.025591*
1,1,0.027559,0.025591,0.025591*
1,1,0.027559,0.025591,-0.025591*
1,1,0.027559,-0.025591,-0.025591*
%
%ADD43ROUNDEDRECTD43*%
G04:AMPARAMS|DCode=44|XSize=11.811mil|YSize=39.37mil|CornerRadius=2.067mil|HoleSize=0mil|Usage=FLASHONLY|Rotation=180.000|XOffset=0mil|YOffset=0mil|HoleType=Round|Shape=RoundedRectangle|*
%AMROUNDEDRECTD44*
21,1,0.011811,0.035236,0,0,180.0*
21,1,0.007677,0.039370,0,0,180.0*
1,1,0.004134,-0.003839,0.017618*
1,1,0.004134,0.003839,0.017618*
1,1,0.004134,0.003839,-0.017618*
1,1,0.004134,-0.003839,-0.017618*
%
%ADD44ROUNDEDRECTD44*%
G04:AMPARAMS|DCode=45|XSize=39.37mil|YSize=59.055mil|CornerRadius=6.496mil|HoleSize=0mil|Usage=FLASHONLY|Rotation=270.000|XOffset=0mil|YOffset=0mil|HoleType=Round|Shape=RoundedRectangle|*
%AMROUNDEDRECTD45*
21,1,0.039370,0.046063,0,0,270.0*
21,1,0.026378,0.059055,0,0,270.0*
1,1,0.012992,-0.023032,-0.013189*
1,1,0.012992,-0.023032,0.013189*
1,1,0.012992,0.023032,0.013189*
1,1,0.012992,0.023032,-0.013189*
%
%ADD45ROUNDEDRECTD45*%
G04:AMPARAMS|DCode=46|XSize=31.496mil|YSize=10.236mil|CornerRadius=1.28mil|HoleSize=0mil|Usage=FLASHONLY|Rotation=0.000|XOffset=0mil|YOffset=0mil|HoleType=Round|Shape=RoundedRectangle|*
%AMROUNDEDRECTD46*
21,1,0.031496,0.007677,0,0,0.0*
21,1,0.028937,0.010236,0,0,0.0*
1,1,0.002559,0.014469,-0.003839*
1,1,0.002559,-0.014469,-0.003839*
1,1,0.002559,-0.014469,0.003839*
1,1,0.002559,0.014469,0.003839*
%
%ADD46ROUNDEDRECTD46*%
G04:AMPARAMS|DCode=47|XSize=33.071mil|YSize=10.236mil|CornerRadius=1.28mil|HoleSize=0mil|Usage=FLASHONLY|Rotation=0.000|XOffset=0mil|YOffset=0mil|HoleType=Round|Shape=RoundedRectangle|*
%AMROUNDEDRECTD47*
21,1,0.033071,0.007677,0,0,0.0*
21,1,0.030512,0.010236,0,0,0.0*
1,1,0.002559,0.015256,-0.003839*
1,1,0.002559,-0.015256,-0.003839*
1,1,0.002559,-0.015256,0.003839*
1,1,0.002559,0.015256,0.003839*
%
%ADD47ROUNDEDRECTD47*%
G04:AMPARAMS|DCode=49|XSize=31.496mil|YSize=10.236mil|CornerRadius=1.28mil|HoleSize=0mil|Usage=FLASHONLY|Rotation=90.000|XOffset=0mil|YOffset=0mil|HoleType=Round|Shape=RoundedRectangle|*
%AMROUNDEDRECTD49*
21,1,0.031496,0.007677,0,0,90.0*
21,1,0.028937,0.010236,0,0,90.0*
1,1,0.002559,0.003839,0.014469*
1,1,0.002559,0.003839,-0.014469*
1,1,0.002559,-0.003839,-0.014469*
1,1,0.002559,-0.003839,0.014469*
%
%ADD49ROUNDEDRECTD49*%
G04:AMPARAMS|DCode=50|XSize=33.071mil|YSize=10.236mil|CornerRadius=1.28mil|HoleSize=0mil|Usage=FLASHONLY|Rotation=90.000|XOffset=0mil|YOffset=0mil|HoleType=Round|Shape=RoundedRectangle|*
%AMROUNDEDRECTD50*
21,1,0.033071,0.007677,0,0,90.0*
21,1,0.030512,0.010236,0,0,90.0*
1,1,0.002559,0.003839,0.015256*
1,1,0.002559,0.003839,-0.015256*
1,1,0.002559,-0.003839,-0.015256*
1,1,0.002559,-0.003839,0.015256*
%
%ADD50ROUNDEDRECTD50*%
G04:AMPARAMS|DCode=51|XSize=47.638mil|YSize=28.346mil|CornerRadius=2.835mil|HoleSize=0mil|Usage=FLASHONLY|Rotation=180.000|XOffset=0mil|YOffset=0mil|HoleType=Round|Shape=RoundedRectangle|*
%AMROUNDEDRECTD51*
21,1,0.047638,0.022677,0,0,180.0*
21,1,0.041969,0.028346,0,0,180.0*
1,1,0.005669,-0.020984,0.011339*
1,1,0.005669,0.020984,0.011339*
1,1,0.005669,0.020984,-0.011339*
1,1,0.005669,-0.020984,-0.011339*
%
%ADD51ROUNDEDRECTD51*%
G04:AMPARAMS|DCode=52|XSize=118.11mil|YSize=137.795mil|CornerRadius=11.811mil|HoleSize=0mil|Usage=FLASHONLY|Rotation=180.000|XOffset=0mil|YOffset=0mil|HoleType=Round|Shape=RoundedRectangle|*
%AMROUNDEDRECTD52*
21,1,0.118110,0.114173,0,0,180.0*
21,1,0.094488,0.137795,0,0,180.0*
1,1,0.023622,-0.047244,0.057087*
1,1,0.023622,0.047244,0.057087*
1,1,0.023622,0.047244,-0.057087*
1,1,0.023622,-0.047244,-0.057087*
%
%ADD52ROUNDEDRECTD52*%
G04:AMPARAMS|DCode=53|XSize=127.953mil|YSize=62.992mil|CornerRadius=9.449mil|HoleSize=0mil|Usage=FLASHONLY|Rotation=90.000|XOffset=0mil|YOffset=0mil|HoleType=Round|Shape=RoundedRectangle|*
%AMROUNDEDRECTD53*
21,1,0.127953,0.044094,0,0,90.0*
21,1,0.109055,0.062992,0,0,90.0*
1,1,0.018898,0.022047,0.054528*
1,1,0.018898,0.022047,-0.054528*
1,1,0.018898,-0.022047,-0.054528*
1,1,0.018898,-0.022047,0.054528*
%
%ADD53ROUNDEDRECTD53*%
G04:AMPARAMS|DCode=54|XSize=27.559mil|YSize=36.614mil|CornerRadius=4.547mil|HoleSize=0mil|Usage=FLASHONLY|Rotation=0.000|XOffset=0mil|YOffset=0mil|HoleType=Round|Shape=RoundedRectangle|*
%AMROUNDEDRECTD54*
21,1,0.027559,0.027520,0,0,0.0*
21,1,0.018465,0.036614,0,0,0.0*
1,1,0.009094,0.009232,-0.013760*
1,1,0.009094,-0.009232,-0.013760*
1,1,0.009094,-0.009232,0.013760*
1,1,0.009094,0.009232,0.013760*
%
%ADD54ROUNDEDRECTD54*%
%ADD55R,0.023622X0.043307*%
%ADD56R,0.043307X0.023622*%
G04:AMPARAMS|DCode=57|XSize=23.622mil|YSize=39.37mil|CornerRadius=3.543mil|HoleSize=0mil|Usage=FLASHONLY|Rotation=270.000|XOffset=0mil|YOffset=0mil|HoleType=Round|Shape=RoundedRectangle|*
%AMROUNDEDRECTD57*
21,1,0.023622,0.032283,0,0,270.0*
21,1,0.016535,0.039370,0,0,270.0*
1,1,0.007087,-0.016142,-0.008268*
1,1,0.007087,-0.016142,0.008268*
1,1,0.007087,0.016142,0.008268*
1,1,0.007087,0.016142,-0.008268*
%
%ADD57ROUNDEDRECTD57*%
G04:AMPARAMS|DCode=58|XSize=70.866mil|YSize=27.559mil|CornerRadius=1.929mil|HoleSize=0mil|Usage=FLASHONLY|Rotation=270.000|XOffset=0mil|YOffset=0mil|HoleType=Round|Shape=RoundedRectangle|*
%AMROUNDEDRECTD58*
21,1,0.070866,0.023701,0,0,270.0*
21,1,0.067008,0.027559,0,0,270.0*
1,1,0.003858,-0.011851,-0.033504*
1,1,0.003858,-0.011851,0.033504*
1,1,0.003858,0.011851,0.033504*
1,1,0.003858,0.011851,-0.033504*
%
%ADD58ROUNDEDRECTD58*%
G04:AMPARAMS|DCode=59|XSize=70.866mil|YSize=27.559mil|CornerRadius=1.929mil|HoleSize=0mil|Usage=FLASHONLY|Rotation=180.000|XOffset=0mil|YOffset=0mil|HoleType=Round|Shape=RoundedRectangle|*
%AMROUNDEDRECTD59*
21,1,0.070866,0.023701,0,0,180.0*
21,1,0.067008,0.027559,0,0,180.0*
1,1,0.003858,-0.033504,0.011851*
1,1,0.003858,0.033504,0.011851*
1,1,0.003858,0.033504,-0.011851*
1,1,0.003858,-0.033504,-0.011851*
%
%ADD59ROUNDEDRECTD59*%
%ADD60R,0.088583X0.088583*%
%ADD61O,0.012598X0.040551*%
%ADD62O,0.040551X0.012598*%
G04:AMPARAMS|DCode=63|XSize=78.74mil|YSize=55.118mil|CornerRadius=8.268mil|HoleSize=0mil|Usage=FLASHONLY|Rotation=0.000|XOffset=0mil|YOffset=0mil|HoleType=Round|Shape=RoundedRectangle|*
%AMROUNDEDRECTD63*
21,1,0.078740,0.038583,0,0,0.0*
21,1,0.062205,0.055118,0,0,0.0*
1,1,0.016535,0.031102,-0.019291*
1,1,0.016535,-0.031102,-0.019291*
1,1,0.016535,-0.031102,0.019291*
1,1,0.016535,0.031102,0.019291*
%
%ADD63ROUNDEDRECTD63*%
G04:AMPARAMS|DCode=64|XSize=69.055mil|YSize=31.89mil|CornerRadius=2.232mil|HoleSize=0mil|Usage=FLASHONLY|Rotation=0.000|XOffset=0mil|YOffset=0mil|HoleType=Round|Shape=RoundedRectangle|*
%AMROUNDEDRECTD64*
21,1,0.069055,0.027425,0,0,0.0*
21,1,0.064591,0.031890,0,0,0.0*
1,1,0.004465,0.032295,-0.013713*
1,1,0.004465,-0.032295,-0.013713*
1,1,0.004465,-0.032295,0.013713*
1,1,0.004465,0.032295,0.013713*
%
%ADD64ROUNDEDRECTD64*%
G04:AMPARAMS|DCode=65|XSize=37.559mil|YSize=31.89mil|CornerRadius=2.232mil|HoleSize=0mil|Usage=FLASHONLY|Rotation=0.000|XOffset=0mil|YOffset=0mil|HoleType=Round|Shape=RoundedRectangle|*
%AMROUNDEDRECTD65*
21,1,0.037559,0.027425,0,0,0.0*
21,1,0.033094,0.031890,0,0,0.0*
1,1,0.004465,0.016547,-0.013713*
1,1,0.004465,-0.016547,-0.013713*
1,1,0.004465,-0.016547,0.013713*
1,1,0.004465,0.016547,0.013713*
%
%ADD65ROUNDEDRECTD65*%
%ADD66O,0.086614X0.041339*%
%ADD67O,0.059055X0.039370*%
%ADD68R,0.139764X0.139764*%
%ADD69O,0.035433X0.010236*%
%ADD70O,0.010236X0.035433*%
G04:AMPARAMS|DCode=71|XSize=31.496mil|YSize=31.496mil|CornerRadius=4.724mil|HoleSize=0mil|Usage=FLASHONLY|Rotation=90.000|XOffset=0mil|YOffset=0mil|HoleType=Round|Shape=RoundedRectangle|*
%AMROUNDEDRECTD71*
21,1,0.031496,0.022047,0,0,90.0*
21,1,0.022047,0.031496,0,0,90.0*
1,1,0.009449,0.011024,0.011024*
1,1,0.009449,0.011024,-0.011024*
1,1,0.009449,-0.011024,-0.011024*
1,1,0.009449,-0.011024,0.011024*
%
%ADD71ROUNDEDRECTD71*%
G04:AMPARAMS|DCode=72|XSize=196.85mil|YSize=157.48mil|CornerRadius=25.984mil|HoleSize=0mil|Usage=FLASHONLY|Rotation=0.000|XOffset=0mil|YOffset=0mil|HoleType=Round|Shape=RoundedRectangle|*
%AMROUNDEDRECTD72*
21,1,0.196850,0.105512,0,0,0.0*
21,1,0.144882,0.157480,0,0,0.0*
1,1,0.051968,0.072441,-0.052756*
1,1,0.051968,-0.072441,-0.052756*
1,1,0.051968,-0.072441,0.052756*
1,1,0.051968,0.072441,0.052756*
%
%ADD72ROUNDEDRECTD72*%
G04:AMPARAMS|DCode=73|XSize=118.11mil|YSize=78.74mil|CornerRadius=12.992mil|HoleSize=0mil|Usage=FLASHONLY|Rotation=0.000|XOffset=0mil|YOffset=0mil|HoleType=Round|Shape=RoundedRectangle|*
%AMROUNDEDRECTD73*
21,1,0.118110,0.052756,0,0,0.0*
21,1,0.092126,0.078740,0,0,0.0*
1,1,0.025984,0.046063,-0.026378*
1,1,0.025984,-0.046063,-0.026378*
1,1,0.025984,-0.046063,0.026378*
1,1,0.025984,0.046063,0.026378*
%
%ADD73ROUNDEDRECTD73*%
G04:AMPARAMS|DCode=74|XSize=47.244mil|YSize=75.197mil|CornerRadius=8.268mil|HoleSize=0mil|Usage=FLASHONLY|Rotation=270.000|XOffset=0mil|YOffset=0mil|HoleType=Round|Shape=RoundedRectangle|*
%AMROUNDEDRECTD74*
21,1,0.047244,0.058661,0,0,270.0*
21,1,0.030709,0.075197,0,0,270.0*
1,1,0.016535,-0.029331,-0.015354*
1,1,0.016535,-0.029331,0.015354*
1,1,0.016535,0.029331,0.015354*
1,1,0.016535,0.029331,-0.015354*
%
%ADD74ROUNDEDRECTD74*%
%ADD75R,0.009842X0.027559*%
%ADD76R,0.027559X0.009842*%
%ADD77R,0.078740X0.078740*%
G04:AMPARAMS|DCode=78|XSize=118.11mil|YSize=78.74mil|CornerRadius=12.992mil|HoleSize=0mil|Usage=FLASHONLY|Rotation=90.000|XOffset=0mil|YOffset=0mil|HoleType=Round|Shape=RoundedRectangle|*
%AMROUNDEDRECTD78*
21,1,0.118110,0.052756,0,0,90.0*
21,1,0.092126,0.078740,0,0,90.0*
1,1,0.025984,0.026378,0.046063*
1,1,0.025984,0.026378,-0.046063*
1,1,0.025984,-0.026378,-0.046063*
1,1,0.025984,-0.026378,0.046063*
%
%ADD78ROUNDEDRECTD78*%
G04:AMPARAMS|DCode=79|XSize=196.85mil|YSize=157.48mil|CornerRadius=25.984mil|HoleSize=0mil|Usage=FLASHONLY|Rotation=90.000|XOffset=0mil|YOffset=0mil|HoleType=Round|Shape=RoundedRectangle|*
%AMROUNDEDRECTD79*
21,1,0.196850,0.105512,0,0,90.0*
21,1,0.144882,0.157480,0,0,90.0*
1,1,0.051968,0.052756,0.072441*
1,1,0.051968,0.052756,-0.072441*
1,1,0.051968,-0.052756,-0.072441*
1,1,0.051968,-0.052756,0.072441*
%
%ADD79ROUNDEDRECTD79*%
G04:AMPARAMS|DCode=80|XSize=41.732mil|YSize=19.685mil|CornerRadius=1.968mil|HoleSize=0mil|Usage=FLASHONLY|Rotation=90.000|XOffset=0mil|YOffset=0mil|HoleType=Round|Shape=RoundedRectangle|*
%AMROUNDEDRECTD80*
21,1,0.041732,0.015748,0,0,90.0*
21,1,0.037795,0.019685,0,0,90.0*
1,1,0.003937,0.007874,0.018898*
1,1,0.003937,0.007874,-0.018898*
1,1,0.003937,-0.007874,-0.018898*
1,1,0.003937,-0.007874,0.018898*
%
%ADD80ROUNDEDRECTD80*%
G04:AMPARAMS|DCode=81|XSize=47.244mil|YSize=75.197mil|CornerRadius=8.268mil|HoleSize=0mil|Usage=FLASHONLY|Rotation=0.000|XOffset=0mil|YOffset=0mil|HoleType=Round|Shape=RoundedRectangle|*
%AMROUNDEDRECTD81*
21,1,0.047244,0.058661,0,0,0.0*
21,1,0.030709,0.075197,0,0,0.0*
1,1,0.016535,0.015354,-0.029331*
1,1,0.016535,-0.015354,-0.029331*
1,1,0.016535,-0.015354,0.029331*
1,1,0.016535,0.015354,0.029331*
%
%ADD81ROUNDEDRECTD81*%
G04:AMPARAMS|DCode=82|XSize=127.953mil|YSize=62.992mil|CornerRadius=9.449mil|HoleSize=0mil|Usage=FLASHONLY|Rotation=0.000|XOffset=0mil|YOffset=0mil|HoleType=Round|Shape=RoundedRectangle|*
%AMROUNDEDRECTD82*
21,1,0.127953,0.044094,0,0,0.0*
21,1,0.109055,0.062992,0,0,0.0*
1,1,0.018898,0.054528,-0.022047*
1,1,0.018898,-0.054528,-0.022047*
1,1,0.018898,-0.054528,0.022047*
1,1,0.018898,0.054528,0.022047*
%
%ADD82ROUNDEDRECTD82*%
%ADD83C,0.039370*%
%ADD84R,0.039370X0.039370*%
%ADD85C,0.078740*%
%ADD86C,0.070866*%
%ADD87C,0.059055*%
%ADD88C,0.049528*%
%ADD89O,0.078740X0.118110*%
%ADD90C,0.060000*%
%ADD91C,0.074803*%
%ADD92C,0.236220*%
%ADD93O,0.118110X0.078740*%
%ADD94O,0.062992X0.094488*%
%ADD95O,0.094488X0.062992*%
%ADD96C,0.062992*%
%ADD97C,0.066992*%
%ADD98O,0.106362X0.169354*%
%ADD99O,0.169354X0.106362*%
%ADD100O,0.169354X0.098488*%
%ADD101C,0.196850*%
G04:AMPARAMS|DCode=102|XSize=196.85mil|YSize=196.85mil|CornerRadius=29.528mil|HoleSize=0mil|Usage=FLASHONLY|Rotation=90.000|XOffset=0mil|YOffset=0mil|HoleType=Round|Shape=RoundedRectangle|*
%AMROUNDEDRECTD102*
21,1,0.196850,0.137795,0,0,90.0*
21,1,0.137795,0.196850,0,0,90.0*
1,1,0.059055,0.068898,0.068898*
1,1,0.059055,0.068898,-0.068898*
1,1,0.059055,-0.068898,-0.068898*
1,1,0.059055,-0.068898,0.068898*
%
%ADD102ROUNDEDRECTD102*%
%ADD103O,0.110236X0.062992*%
G04:AMPARAMS|DCode=104|XSize=55.118mil|YSize=55.118mil|CornerRadius=9.646mil|HoleSize=0mil|Usage=FLASHONLY|Rotation=0.000|XOffset=0mil|YOffset=0mil|HoleType=Round|Shape=RoundedRectangle|*
%AMROUNDEDRECTD104*
21,1,0.055118,0.035827,0,0,0.0*
21,1,0.035827,0.055118,0,0,0.0*
1,1,0.019291,0.017913,-0.017913*
1,1,0.019291,-0.017913,-0.017913*
1,1,0.019291,-0.017913,0.017913*
1,1,0.019291,0.017913,0.017913*
%
%ADD104ROUNDEDRECTD104*%
%ADD105C,0.055118*%
%ADD106C,0.051181*%
%ADD107O,0.086614X0.055118*%
G04:AMPARAMS|DCode=108|XSize=157.48mil|YSize=125.984mil|CornerRadius=0mil|HoleSize=0mil|Usage=FLASHONLY|Rotation=135.000|XOffset=0mil|YOffset=0mil|HoleType=Round|Shape=Round|*
%AMOVALD108*
21,1,0.031496,0.125984,0.000000,0.000000,135.0*
1,1,0.125984,0.011136,-0.011136*
1,1,0.125984,-0.011136,0.011136*
%
%ADD108OVALD108*%

%ADD109C,0.098425*%
G04:AMPARAMS|DCode=110|XSize=157.48mil|YSize=125.984mil|CornerRadius=0mil|HoleSize=0mil|Usage=FLASHONLY|Rotation=225.000|XOffset=0mil|YOffset=0mil|HoleType=Round|Shape=Round|*
%AMOVALD110*
21,1,0.031496,0.125984,0.000000,0.000000,225.0*
1,1,0.125984,0.011136,0.011136*
1,1,0.125984,-0.011136,-0.011136*
%
%ADD110OVALD110*%

G36*
X7232971Y116292D02*
X7232971Y116292D01*
X7463229D01*
Y17867D01*
X7463229Y17867D01*
X7232914D01*
Y116236D01*
X7232971Y116292D01*
Y116292D01*
D02*
G37*
D23*
X4873425Y2268701D02*
D03*
X4809646D02*
D03*
X5025901Y2268701D02*
D03*
X5089681D02*
D03*
X1831498Y2961975D02*
D03*
X1767718D02*
D03*
X4578346Y3629383D02*
D03*
X4642126D02*
D03*
X2820866Y3398032D02*
D03*
X2757086D02*
D03*
X5289499Y1506443D02*
D03*
X5225720D02*
D03*
X5684252Y1584941D02*
D03*
X5748032D02*
D03*
X4072047Y3870614D02*
D03*
X4135827D02*
D03*
X4072047Y3803685D02*
D03*
X4135827D02*
D03*
X4226378Y3871294D02*
D03*
X4290158D02*
D03*
Y3809286D02*
D03*
X4226378D02*
D03*
X4290158Y3747278D02*
D03*
X4226378D02*
D03*
X3731496Y3803685D02*
D03*
X3795276D02*
D03*
X3731496Y3870614D02*
D03*
X3795276D02*
D03*
X3948926Y3746598D02*
D03*
X3885147D02*
D03*
Y3808606D02*
D03*
X3948926D02*
D03*
Y3870614D02*
D03*
X3885147D02*
D03*
X5424047Y1506443D02*
D03*
X5360267D02*
D03*
X6466142Y2067913D02*
D03*
X6529921D02*
D03*
X5684646Y1454724D02*
D03*
X5748425D02*
D03*
X5748032Y1521161D02*
D03*
X5684252D02*
D03*
X4836378Y3612205D02*
D03*
X4772599D02*
D03*
X4578346Y3558071D02*
D03*
X4642126D02*
D03*
X1316904Y643332D02*
D03*
X1380683D02*
D03*
X1447441Y604738D02*
D03*
X1511221D02*
D03*
Y538386D02*
D03*
X1447441D02*
D03*
X1447737Y473266D02*
D03*
X1511516D02*
D03*
X1447740Y407360D02*
D03*
X1511520D02*
D03*
X1511221Y341240D02*
D03*
X1447441D02*
D03*
X1447441Y274606D02*
D03*
X1511220D02*
D03*
X1179724Y270669D02*
D03*
X1243504D02*
D03*
Y177165D02*
D03*
X1179724D02*
D03*
X7008268Y1649606D02*
D03*
X6944488D02*
D03*
X4829921Y2751968D02*
D03*
X4766141D02*
D03*
X4579331Y3485236D02*
D03*
X4643110D02*
D03*
X4025787Y3311611D02*
D03*
X4089567D02*
D03*
X2766680Y2704641D02*
D03*
X2702900D02*
D03*
X3381496Y2633858D02*
D03*
X3445276D02*
D03*
X6880315Y3477362D02*
D03*
X6816535D02*
D03*
X6197717Y2682642D02*
D03*
X6261496D02*
D03*
X6370734Y2464763D02*
D03*
X6306954D02*
D03*
X7373032Y641590D02*
D03*
X7309252D02*
D03*
X7373028Y437720D02*
D03*
X7309249D02*
D03*
X6900000Y552165D02*
D03*
X6836221D02*
D03*
X6900000Y621057D02*
D03*
X6836221D02*
D03*
X1767718Y3156101D02*
D03*
X1831498D02*
D03*
X984646Y4166496D02*
D03*
X920866D02*
D03*
X837992D02*
D03*
X774213D02*
D03*
X3717914Y3420565D02*
D03*
X3654134D02*
D03*
X4562008Y3087201D02*
D03*
X4498228D02*
D03*
X3987401Y3456296D02*
D03*
X4051181D02*
D03*
Y3391335D02*
D03*
X3987401D02*
D03*
X5203939Y4195866D02*
D03*
X5140160D02*
D03*
X5078937Y3503252D02*
D03*
X5015157D02*
D03*
X5079134Y2923228D02*
D03*
X5015354D02*
D03*
X2231693Y3399606D02*
D03*
X2167913D02*
D03*
X4025787Y3124603D02*
D03*
X4089567D02*
D03*
X4025787Y3249603D02*
D03*
X4089567D02*
D03*
X3812598Y3269685D02*
D03*
X3876378D02*
D03*
X1561024Y3042913D02*
D03*
X1624803D02*
D03*
X6816535Y3204724D02*
D03*
X6880315D02*
D03*
Y2932938D02*
D03*
X6816535D02*
D03*
X5783858Y3790354D02*
D03*
X5720079D02*
D03*
X6213977Y2464567D02*
D03*
X6150197D02*
D03*
X6032151Y2464767D02*
D03*
X5968372D02*
D03*
X6816535Y2862948D02*
D03*
X6880315D02*
D03*
X6624410Y3380197D02*
D03*
X6688189D02*
D03*
X6624410Y3038661D02*
D03*
X6688189D02*
D03*
Y3312283D02*
D03*
X6624410D02*
D03*
X7137405Y395988D02*
D03*
X7201185D02*
D03*
X7373032Y506221D02*
D03*
X7309252D02*
D03*
X7373032Y574134D02*
D03*
X7309252D02*
D03*
X2167913Y3330709D02*
D03*
X2231693D02*
D03*
X1831498Y3222242D02*
D03*
X1895277D02*
D03*
X2565748Y3397047D02*
D03*
X2501968D02*
D03*
X920866Y4098583D02*
D03*
X984646D02*
D03*
X774213D02*
D03*
X837992D02*
D03*
X4498228Y3024209D02*
D03*
X4562008D02*
D03*
X4089567Y3061611D02*
D03*
X4025787D02*
D03*
X4498228Y3213186D02*
D03*
X4562008D02*
D03*
X4025787Y3187595D02*
D03*
X4089567D02*
D03*
X4498228Y3275791D02*
D03*
X4562008D02*
D03*
X4498228Y3150193D02*
D03*
X4562008D02*
D03*
X5783858Y4195866D02*
D03*
X5720079D02*
D03*
X5394291Y4195866D02*
D03*
X5458071D02*
D03*
X5394291Y3790354D02*
D03*
X5458071D02*
D03*
X3810630Y3571850D02*
D03*
X3874410D02*
D03*
X3810809Y3503837D02*
D03*
X3874588D02*
D03*
X3516535Y3420565D02*
D03*
X3580315D02*
D03*
X1535039Y3324803D02*
D03*
X1598819D02*
D03*
X2846850Y2959702D02*
D03*
X2783071D02*
D03*
X3189370D02*
D03*
X3125591D02*
D03*
X5071065Y4195866D02*
D03*
X5007286D02*
D03*
X5423194Y2510630D02*
D03*
X5359415D02*
D03*
X4983131Y2509653D02*
D03*
X5046910D02*
D03*
X5423194Y2446254D02*
D03*
X5359415D02*
D03*
X5046915Y2442720D02*
D03*
X4983135D02*
D03*
X5423194Y2372835D02*
D03*
X5359415D02*
D03*
X4983131D02*
D03*
X5046910D02*
D03*
X6398425Y3380197D02*
D03*
X6462205D02*
D03*
X6398425Y3038661D02*
D03*
X6462205D02*
D03*
Y3312283D02*
D03*
X6398425D02*
D03*
X6172441Y3380197D02*
D03*
X6236221D02*
D03*
X6172441Y3038661D02*
D03*
X6236221D02*
D03*
Y3312283D02*
D03*
X6172441D02*
D03*
X5720472Y3380197D02*
D03*
X5784252D02*
D03*
X5720472Y3038661D02*
D03*
X5784252D02*
D03*
Y3312283D02*
D03*
X5720472D02*
D03*
X5946457Y3380197D02*
D03*
X6010236D02*
D03*
X5946457Y3038661D02*
D03*
X6010236D02*
D03*
X5494488Y3380197D02*
D03*
X5558268D02*
D03*
X6010236Y3312283D02*
D03*
X5946457D02*
D03*
X5268504Y3380197D02*
D03*
X5332283D02*
D03*
X5268504Y3038661D02*
D03*
X5332283D02*
D03*
X5015354Y3441929D02*
D03*
X5079134D02*
D03*
X5494488Y3038661D02*
D03*
X5558268D02*
D03*
X5105709Y3247047D02*
D03*
X5041929D02*
D03*
X5015354Y3048228D02*
D03*
X5079134D02*
D03*
X5332283Y3312283D02*
D03*
X5268504D02*
D03*
X5079134Y2985236D02*
D03*
X5015354D02*
D03*
X5558268Y3312283D02*
D03*
X5494488D02*
D03*
D24*
X4949788Y2268686D02*
D03*
Y2204906D02*
D03*
X5165778Y2268701D02*
D03*
Y2204922D02*
D03*
X5677264Y1719488D02*
D03*
Y1655708D02*
D03*
X5587500Y1790256D02*
D03*
Y1854035D02*
D03*
X5516732Y1584941D02*
D03*
Y1521161D02*
D03*
X6360512Y1939961D02*
D03*
Y2003740D02*
D03*
Y1870748D02*
D03*
Y1806968D02*
D03*
X4769685Y3277953D02*
D03*
Y3214173D02*
D03*
X3114173Y3634646D02*
D03*
Y3570866D02*
D03*
X1831693Y3028150D02*
D03*
Y3091929D02*
D03*
X1505906Y2723268D02*
D03*
Y2787047D02*
D03*
X2073819Y2666929D02*
D03*
Y2730709D02*
D03*
X2002953Y2730709D02*
D03*
Y2666929D02*
D03*
X1931496Y2730709D02*
D03*
Y2666929D02*
D03*
X1984252Y3025000D02*
D03*
Y2961220D02*
D03*
X1913386Y3024410D02*
D03*
Y2960630D02*
D03*
X2800197Y3724803D02*
D03*
Y3661024D02*
D03*
X4898622Y2482677D02*
D03*
Y2418898D02*
D03*
X4833661D02*
D03*
Y2482677D02*
D03*
X2432480Y3615003D02*
D03*
Y3678783D02*
D03*
X6524606Y755512D02*
D03*
Y819291D02*
D03*
X6394685D02*
D03*
Y755512D02*
D03*
X6329725Y819291D02*
D03*
Y755512D02*
D03*
X6459646D02*
D03*
Y819291D02*
D03*
X5516732Y1988583D02*
D03*
Y1924803D02*
D03*
X5748032Y1854035D02*
D03*
Y1790256D02*
D03*
Y1988583D02*
D03*
Y1924803D02*
D03*
X5677264Y1790256D02*
D03*
Y1854035D02*
D03*
X5587500Y1655708D02*
D03*
Y1719488D02*
D03*
X6209646Y1419685D02*
D03*
Y1355906D02*
D03*
X6276176Y1419507D02*
D03*
Y1355727D02*
D03*
X5516732Y1790256D02*
D03*
Y1854035D02*
D03*
X4887795Y1991732D02*
D03*
Y2055512D02*
D03*
X4951772Y1991732D02*
D03*
Y2055512D02*
D03*
X5516732Y1719488D02*
D03*
Y1655708D02*
D03*
X5748032Y1719488D02*
D03*
Y1655708D02*
D03*
X4835630Y3339961D02*
D03*
Y3276181D02*
D03*
X4770355Y3340472D02*
D03*
Y3404252D02*
D03*
X1199803Y600984D02*
D03*
Y664764D02*
D03*
X1376968Y272835D02*
D03*
Y336614D02*
D03*
X1311024Y337008D02*
D03*
Y273228D02*
D03*
X1132874Y600984D02*
D03*
Y664764D02*
D03*
Y485583D02*
D03*
Y421803D02*
D03*
X6941929Y1414688D02*
D03*
Y1350908D02*
D03*
X4631890Y3275984D02*
D03*
Y3212205D02*
D03*
X4702756D02*
D03*
Y3275984D02*
D03*
X4730315Y3111614D02*
D03*
Y3047835D02*
D03*
X3278969Y3687914D02*
D03*
Y3751693D02*
D03*
X3515189Y3751378D02*
D03*
Y3687599D02*
D03*
X3586614Y3751378D02*
D03*
Y3687598D02*
D03*
X7010827Y1414764D02*
D03*
Y1350984D02*
D03*
X2952756Y3334252D02*
D03*
Y3398032D02*
D03*
X2886811Y3334252D02*
D03*
Y3398032D02*
D03*
X4798425Y3110630D02*
D03*
Y3046850D02*
D03*
X3166483Y2704641D02*
D03*
Y2768420D02*
D03*
X2832624Y2705231D02*
D03*
Y2769011D02*
D03*
X2939961Y4087205D02*
D03*
Y4150984D02*
D03*
X3010827Y4087205D02*
D03*
Y4150984D02*
D03*
X6371324Y2596657D02*
D03*
Y2532878D02*
D03*
X6306364Y2596657D02*
D03*
Y2532878D02*
D03*
X2231693Y3473004D02*
D03*
Y3536784D02*
D03*
X2365551Y3678783D02*
D03*
Y3615003D02*
D03*
X273465Y2595866D02*
D03*
Y2532087D02*
D03*
X273465Y1478740D02*
D03*
Y1414961D02*
D03*
Y1616535D02*
D03*
Y1552756D02*
D03*
Y1754331D02*
D03*
Y1690551D02*
D03*
X273465Y2733661D02*
D03*
Y2669882D02*
D03*
Y2871457D02*
D03*
Y2807677D02*
D03*
X273465Y1340945D02*
D03*
Y1277165D02*
D03*
X273465Y3009252D02*
D03*
Y2945472D02*
D03*
X4357874Y2908658D02*
D03*
Y2972438D02*
D03*
X3654134Y3141929D02*
D03*
Y3205709D02*
D03*
Y3279528D02*
D03*
Y3343307D02*
D03*
X4499212Y3455706D02*
D03*
Y3391926D02*
D03*
X4329331Y3391926D02*
D03*
Y3455705D02*
D03*
X4915354Y4210039D02*
D03*
Y4146260D02*
D03*
X6676181Y1849803D02*
D03*
Y1786024D02*
D03*
X6607441Y1995473D02*
D03*
Y1931693D02*
D03*
X4562008Y2951099D02*
D03*
Y2887320D02*
D03*
X5036364Y2675388D02*
D03*
Y2611609D02*
D03*
X1412402Y2787047D02*
D03*
Y2723268D02*
D03*
X6243110Y2532087D02*
D03*
Y2595866D02*
D03*
X7027169Y547556D02*
D03*
Y483776D02*
D03*
X1108849Y3736468D02*
D03*
Y3800248D02*
D03*
X2652559Y3397047D02*
D03*
Y3333268D02*
D03*
X2167323Y3263189D02*
D03*
Y3199409D02*
D03*
X2298622Y3678783D02*
D03*
Y3615003D02*
D03*
X2231693Y3678783D02*
D03*
Y3615003D02*
D03*
X341378Y2532087D02*
D03*
Y2595866D02*
D03*
X341378Y1414961D02*
D03*
Y1478740D02*
D03*
Y1552756D02*
D03*
Y1616535D02*
D03*
Y1690551D02*
D03*
Y1754331D02*
D03*
X341378Y2669882D02*
D03*
Y2733661D02*
D03*
Y2807677D02*
D03*
Y2871457D02*
D03*
X341378Y1277165D02*
D03*
Y1340945D02*
D03*
X341378Y2945472D02*
D03*
Y3009252D02*
D03*
X1109252Y3373622D02*
D03*
Y3437402D02*
D03*
X4419882Y2972438D02*
D03*
Y2908658D02*
D03*
X4233858Y2972438D02*
D03*
Y2908658D02*
D03*
X4295866Y2972438D02*
D03*
Y2908658D02*
D03*
X4171850Y2972438D02*
D03*
Y2908658D02*
D03*
X3729331Y3206299D02*
D03*
Y3270079D02*
D03*
X3880928Y3342416D02*
D03*
Y3406196D02*
D03*
X3809016Y3406733D02*
D03*
Y3342953D02*
D03*
X4266338Y3391926D02*
D03*
Y3455705D02*
D03*
X4190551Y3391926D02*
D03*
Y3455705D02*
D03*
X4114764Y3391926D02*
D03*
Y3455705D02*
D03*
X1327756Y3497441D02*
D03*
Y3433661D02*
D03*
X1327165Y3058925D02*
D03*
Y3122704D02*
D03*
X3515469Y3504921D02*
D03*
Y3568701D02*
D03*
X1627953Y3709055D02*
D03*
Y3645276D02*
D03*
X3217520Y3421654D02*
D03*
Y3357874D02*
D03*
X3218228Y3503937D02*
D03*
Y3567716D02*
D03*
X4661614Y3046453D02*
D03*
Y3110233D02*
D03*
X5106448Y2675394D02*
D03*
Y2611614D02*
D03*
X5170129Y2675394D02*
D03*
Y2611614D02*
D03*
X5233844Y2675388D02*
D03*
Y2611609D02*
D03*
X5294538Y2675384D02*
D03*
Y2611604D02*
D03*
X4846871Y4146324D02*
D03*
Y4210104D02*
D03*
X6959646Y2754331D02*
D03*
Y2690551D02*
D03*
X6607441Y1849803D02*
D03*
Y1786024D02*
D03*
D25*
X5870079Y1811024D02*
D03*
Y1720472D02*
D03*
Y1629921D02*
D03*
D26*
X6116142Y1720472D02*
D03*
D27*
X5404397Y1850787D02*
D03*
X5313846D02*
D03*
X5223294D02*
D03*
X4226378Y3961614D02*
D03*
X4135827D02*
D03*
X4045276D02*
D03*
X3885827D02*
D03*
X3795276D02*
D03*
X3704724D02*
D03*
D28*
X5313846Y1604725D02*
D03*
X4135827Y4207677D02*
D03*
X3795276D02*
D03*
D29*
X5743563Y1213504D02*
D03*
X5349862D02*
D03*
X5546713Y134764D02*
D03*
D30*
X6402953Y2067913D02*
D03*
X6317520D02*
D03*
X6888779Y2800197D02*
D03*
X6803346D02*
D03*
D31*
X6594488Y1637795D02*
D03*
X6503937D02*
D03*
X3011811Y3725394D02*
D03*
X2921260D02*
D03*
D32*
X6549213Y1421260D02*
D03*
X2966535Y3508858D02*
D03*
D33*
X4711023Y2668307D02*
D03*
Y2609252D02*
D03*
Y2550197D02*
D03*
X1327165Y2978347D02*
D03*
Y2919291D02*
D03*
Y2860236D02*
D03*
X1561024Y3243307D02*
D03*
Y3184252D02*
D03*
Y3125197D02*
D03*
D34*
X4823425Y2609252D02*
D03*
X1439567Y2919291D02*
D03*
X1673426Y3184252D02*
D03*
D35*
X1608268Y2730709D02*
D03*
X1667323D02*
D03*
X1726378D02*
D03*
X2170276Y3056693D02*
D03*
X2111220D02*
D03*
X2052165D02*
D03*
X2081694Y3222242D02*
D03*
X2022639D02*
D03*
X1963584D02*
D03*
X2311024Y3399213D02*
D03*
X2370079D02*
D03*
X2429134D02*
D03*
X6031757Y2539766D02*
D03*
X6090813D02*
D03*
X6149868D02*
D03*
X3931102Y3173819D02*
D03*
X3872047D02*
D03*
X3812992D02*
D03*
D36*
X1667323Y2843110D02*
D03*
X2111220Y2944291D02*
D03*
X2022639Y3334644D02*
D03*
X2370079Y3511615D02*
D03*
X6090813Y2652168D02*
D03*
X3872047Y3061417D02*
D03*
D37*
X4698031Y2436820D02*
D03*
X4768898D02*
D03*
D38*
X6054137Y705706D02*
D03*
Y934052D02*
D03*
X6711623Y472431D02*
D03*
Y700778D02*
D03*
D39*
X5068898Y1831693D02*
D03*
Y1977362D02*
D03*
D40*
X6128937Y1539370D02*
D03*
X6274606D02*
D03*
D41*
X3525197Y3302756D02*
D03*
Y3202756D02*
D03*
Y3102756D02*
D03*
X3325197Y3302756D02*
D03*
Y3202756D02*
D03*
Y3102756D02*
D03*
D42*
X4702756Y3335630D02*
D03*
Y3410433D02*
D03*
X4600394Y3373031D02*
D03*
X4834686Y3473186D02*
D03*
Y3547990D02*
D03*
X4732324Y3510588D02*
D03*
D43*
X4361221Y4028543D02*
D03*
X4770669D02*
D03*
D44*
X4733268Y3930118D02*
D03*
X4713583D02*
D03*
X4693898D02*
D03*
X4674213D02*
D03*
X4654528D02*
D03*
X4634842D02*
D03*
X4615158D02*
D03*
X4595472D02*
D03*
X4575787D02*
D03*
X4556102D02*
D03*
X4536417D02*
D03*
X4516732D02*
D03*
X4497047D02*
D03*
X4477362D02*
D03*
X4457677D02*
D03*
X4437992D02*
D03*
X4418307D02*
D03*
X4398622D02*
D03*
D45*
X4959646Y2609252D02*
D03*
Y2680118D02*
D03*
D46*
X1238167Y458811D02*
D03*
Y529677D02*
D03*
X1360214D02*
D03*
Y458811D02*
D03*
D47*
X1240135Y476528D02*
D03*
Y494244D02*
D03*
Y511961D02*
D03*
X1358242Y511957D02*
D03*
Y494241D02*
D03*
Y476524D02*
D03*
D49*
X1334623Y433221D02*
D03*
X1263757D02*
D03*
Y555268D02*
D03*
X1334623D02*
D03*
D50*
X1316904Y435186D02*
D03*
X1299187D02*
D03*
X1281471D02*
D03*
X1281471Y553296D02*
D03*
X1299187D02*
D03*
X1316904D02*
D03*
D51*
X1450984Y177165D02*
D03*
X1318701D02*
D03*
D52*
X1455512Y831693D02*
D03*
X1199606D02*
D03*
D53*
X959508Y642855D02*
D03*
Y852855D02*
D03*
X958779Y439776D02*
D03*
Y229776D02*
D03*
X6852362Y116457D02*
D03*
Y326457D02*
D03*
X3360236Y3921575D02*
D03*
Y4131575D02*
D03*
X6571850Y326457D02*
D03*
Y116457D02*
D03*
D54*
X1183661Y338277D02*
D03*
X1239567D02*
D03*
D55*
X6976378Y1483268D02*
D03*
X6938976Y1577756D02*
D03*
X7013780D02*
D03*
X952756Y3939961D02*
D03*
X915355Y4034449D02*
D03*
X990158D02*
D03*
X806102Y3939961D02*
D03*
X768701Y4034449D02*
D03*
X843504D02*
D03*
D56*
X3350394Y3719488D02*
D03*
X3444882Y3756890D02*
D03*
Y3682087D02*
D03*
X6448819Y1817913D02*
D03*
X6543307Y1855315D02*
D03*
Y1780512D02*
D03*
X500000Y2563976D02*
D03*
X405512Y2526575D02*
D03*
Y2601378D02*
D03*
X500000Y1446850D02*
D03*
X405512Y1409449D02*
D03*
Y1484252D02*
D03*
X500000Y1584646D02*
D03*
X405512Y1547244D02*
D03*
Y1622047D02*
D03*
X500000Y1722441D02*
D03*
X405512Y1685039D02*
D03*
Y1759842D02*
D03*
X500000Y2701772D02*
D03*
X405512Y2664370D02*
D03*
Y2739173D02*
D03*
X500000Y2839567D02*
D03*
X405512Y2802165D02*
D03*
Y2876968D02*
D03*
X500000Y1309055D02*
D03*
X405512Y1271654D02*
D03*
Y1346457D02*
D03*
X500000Y2977362D02*
D03*
X405512Y2939961D02*
D03*
Y3014764D02*
D03*
D57*
X3208661Y3757205D02*
D03*
X3114173Y3719803D02*
D03*
X3208661Y3682402D02*
D03*
X6543307Y2000984D02*
D03*
X6448819Y1963583D02*
D03*
X6543307Y1926181D02*
D03*
D58*
X2996994Y2617476D02*
D03*
Y2789838D02*
D03*
D59*
X2910813Y2656412D02*
D03*
Y2703657D02*
D03*
Y2750901D02*
D03*
X3083176Y2656412D02*
D03*
Y2703657D02*
D03*
Y2750901D02*
D03*
D60*
X7169291Y542323D02*
D03*
D61*
X7207677Y469882D02*
D03*
X7182087D02*
D03*
X7156496D02*
D03*
X7130906D02*
D03*
Y614764D02*
D03*
X7156496D02*
D03*
X7182087D02*
D03*
X7207677D02*
D03*
D62*
X7096850Y503937D02*
D03*
Y529528D02*
D03*
Y555118D02*
D03*
Y580709D02*
D03*
X7241732D02*
D03*
Y555118D02*
D03*
Y529528D02*
D03*
Y503937D02*
D03*
D63*
X4652756Y2872635D02*
D03*
X4798425D02*
D03*
Y2963186D02*
D03*
X4652756D02*
D03*
D64*
X2950118Y3006947D02*
D03*
D65*
X2935039Y2959702D02*
D03*
Y2912458D02*
D03*
X3037402D02*
D03*
Y2959702D02*
D03*
Y3006947D02*
D03*
D66*
X5967513Y3751968D02*
D03*
Y3868110D02*
D03*
Y4234252D02*
D03*
Y4118110D02*
D03*
D67*
X5907474Y3810039D02*
D03*
Y4176181D02*
D03*
D68*
X4292379Y3182284D02*
D03*
D69*
X4388442Y3251181D02*
D03*
Y3231496D02*
D03*
Y3211811D02*
D03*
Y3192126D02*
D03*
Y3172441D02*
D03*
Y3152756D02*
D03*
Y3133071D02*
D03*
Y3113386D02*
D03*
X4196316D02*
D03*
Y3133071D02*
D03*
Y3152756D02*
D03*
Y3172441D02*
D03*
Y3192126D02*
D03*
Y3211811D02*
D03*
Y3231496D02*
D03*
Y3251181D02*
D03*
D70*
X4361276Y3086221D02*
D03*
X4341591D02*
D03*
X4321906D02*
D03*
X4302221D02*
D03*
X4282536D02*
D03*
X4262851D02*
D03*
X4243166D02*
D03*
X4223481D02*
D03*
Y3278347D02*
D03*
X4243166D02*
D03*
X4262851D02*
D03*
X4282536D02*
D03*
X4302221D02*
D03*
X4321906D02*
D03*
X4341591D02*
D03*
X4361276D02*
D03*
D71*
X4435236Y3455706D02*
D03*
Y3392713D02*
D03*
D72*
X4114173Y2561024D02*
D03*
D73*
X4329173Y2556024D02*
D03*
D74*
X6832677Y3400540D02*
D03*
Y3282036D02*
D03*
Y3008661D02*
D03*
Y3127165D02*
D03*
X6656299Y3116220D02*
D03*
Y3234724D02*
D03*
X6430315Y3116220D02*
D03*
Y3234724D02*
D03*
X6204331Y3116220D02*
D03*
Y3234724D02*
D03*
X5752362Y3116220D02*
D03*
Y3234724D02*
D03*
X5978346Y3116220D02*
D03*
Y3234724D02*
D03*
X5300394Y3116220D02*
D03*
Y3234724D02*
D03*
X5526378Y3116220D02*
D03*
Y3234724D02*
D03*
D75*
X5162663Y2375791D02*
D03*
X5182348D02*
D03*
X5202033D02*
D03*
X5221718D02*
D03*
X5241403D02*
D03*
Y2521460D02*
D03*
X5221718D02*
D03*
X5202033D02*
D03*
X5182348D02*
D03*
X5162663D02*
D03*
D76*
X5274868Y2409256D02*
D03*
Y2428941D02*
D03*
Y2448626D02*
D03*
Y2468311D02*
D03*
Y2487996D02*
D03*
X5129198D02*
D03*
Y2468311D02*
D03*
Y2448626D02*
D03*
Y2428941D02*
D03*
Y2409256D02*
D03*
D77*
X5202033Y2448626D02*
D03*
D78*
X1175276Y3215000D02*
D03*
D79*
X1170276Y3000000D02*
D03*
D80*
X6791929Y3665450D02*
D03*
Y3580017D02*
D03*
X6597047Y3665450D02*
D03*
Y3580017D02*
D03*
Y2753408D02*
D03*
Y2838841D02*
D03*
X6371063Y3665450D02*
D03*
Y3580017D02*
D03*
Y2753408D02*
D03*
Y2838841D02*
D03*
X6145079Y3665450D02*
D03*
Y3580017D02*
D03*
Y2753408D02*
D03*
Y2838841D02*
D03*
X5693110Y3665450D02*
D03*
Y3580017D02*
D03*
Y2753408D02*
D03*
Y2838841D02*
D03*
X5919095Y3665450D02*
D03*
Y3580017D02*
D03*
Y2753408D02*
D03*
Y2838841D02*
D03*
X5241142Y3665450D02*
D03*
Y3580017D02*
D03*
Y2753408D02*
D03*
Y2838841D02*
D03*
X5015157Y3665450D02*
D03*
Y3580017D02*
D03*
Y2753408D02*
D03*
Y2838841D02*
D03*
X5467126Y3665450D02*
D03*
Y3580017D02*
D03*
Y2753408D02*
D03*
Y2838841D02*
D03*
D81*
X6715551Y3477638D02*
D03*
X6597047D02*
D03*
X3718701Y3536417D02*
D03*
X3600197D02*
D03*
X3430118Y3535827D02*
D03*
X3311614D02*
D03*
X6715551Y2941220D02*
D03*
X6597047D02*
D03*
X6489567Y3477638D02*
D03*
X6371063D02*
D03*
X6489567Y2941220D02*
D03*
X6371063D02*
D03*
X6263583Y3477638D02*
D03*
X6145079D02*
D03*
X6263583Y2941220D02*
D03*
X6145079D02*
D03*
X5811614Y3477638D02*
D03*
X5693110D02*
D03*
X5811614Y2941220D02*
D03*
X5693110D02*
D03*
X6037599Y3477638D02*
D03*
X5919095D02*
D03*
X6037599Y2941220D02*
D03*
X5919095D02*
D03*
X5585630Y3477638D02*
D03*
X5467126D02*
D03*
X5359646D02*
D03*
X5241142D02*
D03*
X5359646Y2941220D02*
D03*
X5241142D02*
D03*
X5585630D02*
D03*
X5467126D02*
D03*
X5133661Y3345569D02*
D03*
X5015157D02*
D03*
X5015551Y3147638D02*
D03*
X5134055D02*
D03*
D82*
X3765079Y2814961D02*
D03*
X3975079D02*
D03*
X1843819Y165354D02*
D03*
X2053819D02*
D03*
D83*
X3914370Y4207677D02*
D03*
X4016732Y4207677D02*
D03*
X1759843Y65110D02*
D03*
D84*
X1304112Y494244D02*
D03*
D85*
X5977362Y188976D02*
D03*
X5100276Y331031D02*
D03*
X4974358Y994146D02*
D03*
X4861221Y1107284D02*
D03*
X2957263Y424627D02*
D03*
X2858268Y523622D02*
D03*
X4970628Y428979D02*
D03*
X4857491Y542116D02*
D03*
X3902145Y424627D02*
D03*
X3803150Y523622D02*
D03*
X2037609Y670881D02*
D03*
X1867903Y840587D02*
D03*
X7303150Y3957677D02*
D03*
X2281289Y840758D02*
D03*
X2450995Y671053D02*
D03*
X7303150Y1043307D02*
D03*
Y3458661D02*
D03*
X4443121Y1977569D02*
D03*
X4556258Y2090706D02*
D03*
X3857491Y1977569D02*
D03*
X3970628Y2090706D02*
D03*
X3271861Y1977569D02*
D03*
X3384998Y2090706D02*
D03*
X2686231Y1977569D02*
D03*
X2799368Y2090706D02*
D03*
X2013858Y2015748D02*
D03*
X2253858D02*
D03*
X1768898D02*
D03*
X1618898D02*
D03*
X1344370D02*
D03*
X1234370D02*
D03*
X4276575Y996063D02*
D03*
X4375570Y897068D02*
D03*
X4276575Y523622D02*
D03*
X4375570Y424627D02*
D03*
X3803149Y996063D02*
D03*
X3902144Y897068D02*
D03*
X3330709Y996063D02*
D03*
X3429704Y897068D02*
D03*
X3330709Y523622D02*
D03*
X3429704Y424627D02*
D03*
X2858267Y996063D02*
D03*
X2957262Y897068D02*
D03*
X2428357Y1200995D02*
D03*
X2258651Y1031289D02*
D03*
X2014971Y1200823D02*
D03*
X1845265Y1031117D02*
D03*
D86*
X7187008Y1389764D02*
D03*
X7285433D02*
D03*
X2283852Y4171201D02*
D03*
X2188589Y4116201D02*
D03*
X1695669Y3895669D02*
D03*
X1863189D02*
D03*
X2142717D02*
D03*
X1975197D02*
D03*
X2325787Y3797244D02*
D03*
Y3964764D02*
D03*
X1868460Y4164976D02*
D03*
X1968154Y4118488D02*
D03*
X2977362Y3996063D02*
D03*
Y3828543D02*
D03*
X5100276Y189961D02*
D03*
X4990276D02*
D03*
X1363189Y3355197D02*
D03*
Y3205827D02*
D03*
X1627953Y3532362D02*
D03*
Y3422362D02*
D03*
D87*
X5628937Y2114055D02*
D03*
X5533937Y2099055D02*
D03*
X5628937Y2184055D02*
D03*
X5533937Y2214055D02*
D03*
D88*
X2514764Y3186024D02*
D03*
Y2986024D02*
D03*
X2428150Y3186024D02*
D03*
Y2986024D02*
D03*
X2601378D02*
D03*
Y3186024D02*
D03*
X2302165D02*
D03*
Y2986024D02*
D03*
X2514764Y2913976D02*
D03*
Y2713976D02*
D03*
X2428150Y2913976D02*
D03*
Y2713976D02*
D03*
X2601378D02*
D03*
Y2913976D02*
D03*
X2302165D02*
D03*
Y2713976D02*
D03*
X5636811Y4093110D02*
D03*
Y3893110D02*
D03*
X5550197Y4093110D02*
D03*
Y3893110D02*
D03*
X5723425D02*
D03*
Y4093110D02*
D03*
X5424213D02*
D03*
Y3893110D02*
D03*
X3358268Y2713976D02*
D03*
Y2913976D02*
D03*
X3444882Y2713976D02*
D03*
Y2913976D02*
D03*
X3271653D02*
D03*
Y2713976D02*
D03*
X3570866D02*
D03*
Y2913976D02*
D03*
X1414370Y3793898D02*
D03*
Y3593898D02*
D03*
X1327756Y3793898D02*
D03*
Y3593898D02*
D03*
X1500984D02*
D03*
Y3793898D02*
D03*
X1201772D02*
D03*
Y3593898D02*
D03*
X5226378Y4092126D02*
D03*
Y3892126D02*
D03*
X5139764Y4092126D02*
D03*
Y3892126D02*
D03*
X5312992D02*
D03*
Y4092126D02*
D03*
X5013780D02*
D03*
Y3892126D02*
D03*
X4344488Y2254331D02*
D03*
Y2454331D02*
D03*
X4431102Y2254331D02*
D03*
Y2454331D02*
D03*
X4257874D02*
D03*
Y2254331D02*
D03*
X4557087D02*
D03*
Y2454331D02*
D03*
X3971457D02*
D03*
Y2254331D02*
D03*
X3672244D02*
D03*
Y2454331D02*
D03*
X3845472D02*
D03*
Y2254331D02*
D03*
X3758858Y2454331D02*
D03*
Y2254331D02*
D03*
X1809055Y331102D02*
D03*
Y531102D02*
D03*
X2108268D02*
D03*
Y331102D02*
D03*
X1935040D02*
D03*
Y531102D02*
D03*
X2021654Y331102D02*
D03*
Y531102D02*
D03*
X6601639Y2457878D02*
D03*
Y2657878D02*
D03*
X6688253Y2457878D02*
D03*
Y2657878D02*
D03*
X6515025D02*
D03*
Y2457878D02*
D03*
X6814238D02*
D03*
Y2657878D02*
D03*
X5760104Y2664767D02*
D03*
Y2464767D02*
D03*
X5673490Y2664767D02*
D03*
Y2464767D02*
D03*
X5846718D02*
D03*
Y2664767D02*
D03*
X5547505D02*
D03*
Y2464767D02*
D03*
X1091339Y4117126D02*
D03*
X1291339D02*
D03*
X1091339Y4030512D02*
D03*
X1291339D02*
D03*
Y4203740D02*
D03*
X1091339D02*
D03*
Y3904528D02*
D03*
X1291339D02*
D03*
X1385236Y4117126D02*
D03*
X1585236D02*
D03*
X1385236Y4030512D02*
D03*
X1585236D02*
D03*
Y4203740D02*
D03*
X1385236D02*
D03*
Y3904528D02*
D03*
X1585236D02*
D03*
X2532874Y4119095D02*
D03*
X2732874D02*
D03*
X2532874Y4032480D02*
D03*
X2732874D02*
D03*
Y4205709D02*
D03*
X2532874D02*
D03*
Y3906496D02*
D03*
X2732874D02*
D03*
X803150Y2216535D02*
D03*
Y2416535D02*
D03*
X889764Y2216535D02*
D03*
Y2416535D02*
D03*
X716536D02*
D03*
Y2216535D02*
D03*
X1015748D02*
D03*
Y2416535D02*
D03*
X803150Y1400591D02*
D03*
Y1600591D02*
D03*
X889764Y1400591D02*
D03*
Y1600591D02*
D03*
X716535D02*
D03*
Y1400591D02*
D03*
X1015748D02*
D03*
Y1600591D02*
D03*
X803150Y1672638D02*
D03*
Y1872638D02*
D03*
X889764Y1672638D02*
D03*
Y1872638D02*
D03*
X716535D02*
D03*
Y1672638D02*
D03*
X1015748D02*
D03*
Y1872638D02*
D03*
X803150Y1944291D02*
D03*
Y2144291D02*
D03*
X889764Y1944291D02*
D03*
Y2144291D02*
D03*
X716535D02*
D03*
Y1944291D02*
D03*
X1015748D02*
D03*
Y2144291D02*
D03*
X803150Y2488189D02*
D03*
Y2688189D02*
D03*
X889764Y2488189D02*
D03*
Y2688189D02*
D03*
X716536D02*
D03*
Y2488189D02*
D03*
X1015748D02*
D03*
Y2688189D02*
D03*
X803150Y2760236D02*
D03*
Y2960236D02*
D03*
X889764Y2760236D02*
D03*
Y2960236D02*
D03*
X716535D02*
D03*
Y2760236D02*
D03*
X1015748D02*
D03*
Y2960236D02*
D03*
X803548Y1128385D02*
D03*
Y1328385D02*
D03*
X890162Y1128385D02*
D03*
Y1328385D02*
D03*
X716934D02*
D03*
Y1128385D02*
D03*
X1016146D02*
D03*
Y1328385D02*
D03*
X803150Y3031890D02*
D03*
Y3231890D02*
D03*
X889764Y3031890D02*
D03*
Y3231890D02*
D03*
X716535D02*
D03*
Y3031890D02*
D03*
X1015748D02*
D03*
Y3231890D02*
D03*
X803150Y3575787D02*
D03*
Y3775787D02*
D03*
X889764Y3575787D02*
D03*
Y3775787D02*
D03*
X716536D02*
D03*
Y3575787D02*
D03*
X1015748D02*
D03*
Y3775787D02*
D03*
X803150Y3304134D02*
D03*
Y3504134D02*
D03*
X889764Y3304134D02*
D03*
Y3504134D02*
D03*
X716536D02*
D03*
Y3304134D02*
D03*
X1015748D02*
D03*
Y3504134D02*
D03*
X3173229Y2254331D02*
D03*
Y2454331D02*
D03*
X3259843Y2254331D02*
D03*
Y2454331D02*
D03*
X3086614D02*
D03*
Y2254331D02*
D03*
X3385827D02*
D03*
Y2454331D02*
D03*
X2587599Y2254331D02*
D03*
Y2454331D02*
D03*
X2674213Y2254331D02*
D03*
Y2454331D02*
D03*
X2500984D02*
D03*
Y2254331D02*
D03*
X2800197D02*
D03*
Y2454331D02*
D03*
X2144685Y2253740D02*
D03*
Y2453740D02*
D03*
X2231299Y2253740D02*
D03*
Y2453740D02*
D03*
X2058071D02*
D03*
Y2253740D02*
D03*
X2357284D02*
D03*
Y2453740D02*
D03*
X1731299Y2254331D02*
D03*
Y2454331D02*
D03*
X1817913Y2254331D02*
D03*
Y2454331D02*
D03*
X1644685D02*
D03*
Y2254331D02*
D03*
X1943898D02*
D03*
Y2454331D02*
D03*
X1317914Y2254331D02*
D03*
Y2454331D02*
D03*
X1404528Y2254331D02*
D03*
Y2454331D02*
D03*
X1231299D02*
D03*
Y2254331D02*
D03*
X1530512D02*
D03*
Y2454331D02*
D03*
X4888780Y1723032D02*
D03*
Y1523032D02*
D03*
X4802166Y1723032D02*
D03*
Y1523032D02*
D03*
X4975394D02*
D03*
Y1723032D02*
D03*
X4676181D02*
D03*
Y1523032D02*
D03*
X4803150Y300197D02*
D03*
Y100197D02*
D03*
X4716535Y300197D02*
D03*
Y100197D02*
D03*
X4889764D02*
D03*
Y300197D02*
D03*
X4590551D02*
D03*
Y100197D02*
D03*
X4276575Y1525197D02*
D03*
Y1325197D02*
D03*
X4189961Y1525197D02*
D03*
Y1325197D02*
D03*
X4363189D02*
D03*
Y1525197D02*
D03*
X4063977D02*
D03*
Y1325197D02*
D03*
X4276575Y300788D02*
D03*
Y100788D02*
D03*
X4189961Y300788D02*
D03*
Y100788D02*
D03*
X4363189D02*
D03*
Y300788D02*
D03*
X4063977D02*
D03*
Y100788D02*
D03*
X3803149Y1525197D02*
D03*
Y1325197D02*
D03*
X3716535Y1525197D02*
D03*
Y1325197D02*
D03*
X3889764D02*
D03*
Y1525197D02*
D03*
X3590551D02*
D03*
Y1325197D02*
D03*
X3803150Y300788D02*
D03*
Y100788D02*
D03*
X3716536Y300788D02*
D03*
Y100788D02*
D03*
X3889764D02*
D03*
Y300788D02*
D03*
X3590551D02*
D03*
Y100788D02*
D03*
X3330709Y1525197D02*
D03*
Y1325197D02*
D03*
X3244094Y1525197D02*
D03*
Y1325197D02*
D03*
X3417323D02*
D03*
Y1525197D02*
D03*
X3118110D02*
D03*
Y1325197D02*
D03*
X3330709Y300788D02*
D03*
Y100788D02*
D03*
X3244095Y300788D02*
D03*
Y100788D02*
D03*
X3417323D02*
D03*
Y300788D02*
D03*
X3118110D02*
D03*
Y100788D02*
D03*
X2858267Y1525197D02*
D03*
Y1325197D02*
D03*
X2771653Y1525197D02*
D03*
Y1325197D02*
D03*
X2944882D02*
D03*
Y1525197D02*
D03*
X2645669D02*
D03*
Y1325197D02*
D03*
X2858268Y300788D02*
D03*
Y100788D02*
D03*
X2771654Y300788D02*
D03*
Y100788D02*
D03*
X2944882D02*
D03*
Y300788D02*
D03*
X2645669D02*
D03*
Y100788D02*
D03*
X2410433Y1525197D02*
D03*
Y1325197D02*
D03*
X2323819Y1525197D02*
D03*
Y1325197D02*
D03*
X2497047D02*
D03*
Y1525197D02*
D03*
X2197835D02*
D03*
Y1325197D02*
D03*
X2435039Y531274D02*
D03*
Y331274D02*
D03*
X2348425Y531274D02*
D03*
Y331274D02*
D03*
X2521654D02*
D03*
Y531274D02*
D03*
X2222441D02*
D03*
Y331274D02*
D03*
X1997047Y1524803D02*
D03*
Y1324803D02*
D03*
X1910433Y1524803D02*
D03*
Y1324803D02*
D03*
X2083662D02*
D03*
Y1524803D02*
D03*
X1784449D02*
D03*
Y1324803D02*
D03*
D89*
X5426181Y1383576D02*
D03*
X5323819D02*
D03*
X5221457D02*
D03*
X6048228Y1383858D02*
D03*
X5945866D02*
D03*
X5843504D02*
D03*
D90*
X1162402Y1848425D02*
D03*
X1634843D02*
D03*
X1654528Y1142717D02*
D03*
X1162402D02*
D03*
D91*
X1511811Y1848425D02*
D03*
X1511811Y1142717D02*
D03*
X1285433D02*
D03*
Y1848425D02*
D03*
D92*
X6220473Y4163386D02*
D03*
X6220472Y3877953D02*
D03*
Y413386D02*
D03*
X6220473Y127953D02*
D03*
X557087Y4160434D02*
D03*
X537402Y142717D02*
D03*
X537402Y413386D02*
D03*
Y3877953D02*
D03*
D93*
X2650591Y3503937D02*
D03*
Y3606299D02*
D03*
Y3708661D02*
D03*
D94*
X1577756Y269685D02*
D03*
Y820866D02*
D03*
X750984Y269685D02*
D03*
Y820866D02*
D03*
D95*
X1164370Y41339D02*
D03*
Y1049213D02*
D03*
D96*
X6711614Y1011811D02*
D03*
X107284Y94488D02*
D03*
D97*
X441977Y2279527D02*
D03*
Y2011811D02*
D03*
X343552Y2279527D02*
D03*
Y2011811D02*
D03*
Y2196869D02*
D03*
Y2094469D02*
D03*
D98*
X175197Y2145669D02*
D03*
D99*
X214497Y2415369D02*
D03*
D100*
Y1875984D02*
D03*
D101*
X564961Y724409D02*
D03*
D102*
Y1007874D02*
D03*
D103*
X328740Y600394D02*
D03*
Y1131890D02*
D03*
D104*
X2466535Y151575D02*
D03*
D105*
X2387795D02*
D03*
X2309055D02*
D03*
X2230315D02*
D03*
D106*
X7303150Y3760827D02*
D03*
Y4154528D02*
D03*
X7401575D02*
D03*
Y3760827D02*
D03*
X7106299Y3957677D02*
D03*
Y1043307D02*
D03*
X7401575Y846457D02*
D03*
Y1240158D02*
D03*
X7303150D02*
D03*
Y846457D02*
D03*
X7106299Y3458661D02*
D03*
X7401575Y3261811D02*
D03*
Y3655512D02*
D03*
X7303150D02*
D03*
Y3261811D02*
D03*
D107*
X7106299Y3760827D02*
D03*
Y4154528D02*
D03*
Y4056102D02*
D03*
Y3859252D02*
D03*
Y944882D02*
D03*
Y1141732D02*
D03*
Y1240158D02*
D03*
Y846457D02*
D03*
Y3360236D02*
D03*
Y3557087D02*
D03*
Y3655512D02*
D03*
Y3261811D02*
D03*
D108*
X378937Y3245079D02*
D03*
X89567Y3536417D02*
D03*
D109*
X234252Y3390748D02*
D03*
D110*
X377953Y3537401D02*
D03*
X90551Y3244095D02*
D03*
M02*
