M48
;Layer_Color=9474304
;FILE_FORMAT=2:4
INCH,LZ
;TYPE=PLATED
T01F00S00C0.0118
T02F00S00C0.0197
T03F00S00C0.0276
T04F00S00C0.0295
T05F00S00C0.0315
T07F00S00C0.0374
T08F00S00C0.0394
T09F00S00C0.0433
T10F00S00C0.0472
T11F00S00C0.0512
T12F00S00C0.0551
T15F00S00C0.1181
T16F00S00C0.1260
%
T01
X071585Y000502
X070498Y001694
X070482Y002943
X072589Y00377
X072739Y00471
X072014Y005102
Y005423
Y005744
X071693
X071372
Y005423
Y005102
X071693
Y005423
X072386Y006133
X072126Y006821
X070968
X070666Y007071
X074085Y00641
X074081Y005741
Y005062
X074124Y001772
X068524Y002018
X065718Y002018
X060457Y001078
X059934Y000796
X059173Y003258
Y004803
X056909Y006122
X055433Y006742
X067815Y006264
X052323Y004675
X050006Y006038
X050006Y006943
X047884Y007106
X046978Y007106
X04495Y006701
X044056Y0069
X044056Y005994
X042077Y006447
X041171Y006447
X04064Y004711
X041161Y004085
X042067Y004085
X046437Y004085
X047343Y004085
X045943Y005291
X039321Y005994
X039321Y0069
X037343Y006447
X036437Y006447
X035906Y004711
X036437Y004085
X037343Y004085
X034597Y005994
X034597Y0069
X032618Y006447
X031713Y006447
X031181Y004711
X031703Y004085
X032608Y004085
X029873Y005994
X029873Y0069
X027894Y006447
X026988
X025464Y00612
X026457Y004711
X026978Y004085
X027884
X021742Y0044
X021869Y006351
X022774Y006351
X021024Y006065
X01864Y006274
X017283Y00639
X017005
X017008Y006086
X017285
X017288Y005783
X01701
X015478Y005105
X015115Y004403
X014096Y004838
X013964Y005646
X013593Y006053
X01262Y006189
X012618Y006493
X012623Y005886
X012765Y005173
X012994Y005172
X013222Y005171
X013221Y004943
X012993Y004943
X012764Y004944
X012763Y004715
X012992Y004715
X013221Y004714
X012917Y003868
X012559Y004016
X012401Y004245
X012006Y003762
X011273Y002946
X011025
X010778
X01053
X010492Y001152
X013208Y000792
X013593Y001388
X014084
X014474Y002378
X01311Y002382
X014084Y003868
X013171Y006805
X011329Y006998
X008563Y00443
Y004182
Y003934
Y003687
X008315
Y003934
Y004182
Y00443
Y003439
X008563
Y003191
Y002944
X008315
Y003191
X017598Y001814
Y001496
X01935Y002589
X020464
X003179Y002205
X001368Y002215
X001359Y004301
X00315Y004341
X002126Y006575
Y007244
X000787Y006575
X001476Y009415
X002156Y009715
Y010335
Y010955
X002569Y012267
X00152Y012296
X002104Y013986
X002735Y01378
X003077Y014471
X002735Y015177
X002224Y016545
X001508Y016896
Y017572
X002282Y017574
X003435Y018435
X003789
X004173Y018415
X004587Y018396
X006024Y018291
Y017161
X005419Y017224
X004474Y01685
Y015472
X004543Y015073
Y013986
X004498Y013081
X004545Y012642
X004331Y012362
X005419Y013091
X006028Y012849
Y011719
X006024Y014441
X006545Y014383
Y01501
Y015636
X006024Y015571
X005419Y015846
Y014468
X000892Y014117
X003543Y008986
X006732Y007963
X006831Y00747
X006024Y019878
Y021008
X006024Y0226
X009524Y022161
X009524Y021439
Y019439
Y016722
X009518Y016
X009524Y014002
X009528Y01128
X010591Y009646
X010885Y009646
X013341Y008332
X013881Y007397
X014184Y007399
X014488Y007402
X014791Y007404
X015095Y007407
X015896Y007431
X016575
X01864Y007333
X019722Y008067
X020411Y008927
Y009911
X020837Y011339
X021683Y011319
X022589Y011319
Y012293
X021683Y012293
X018327Y012146
X01832Y011198
X017629Y010511
Y009823
X018909Y009248
X022136Y009199
X021869Y007335
X022774Y007335
X022366Y016112
X020796Y016919
X020837Y018337
X020236Y01877
X019636Y018337
X019035Y01877
X018435Y018337
X017835Y01877
X017186Y017047
X015982Y01716
X014509Y01686
Y017539
X013837Y018419
X014833Y021939
X015835
X018996Y0219
X020031
X021437Y01877
X022037Y018337
X022638Y01877
X019065Y0166
X019104Y015748
X015848Y015502
X015852Y0144
X014513Y013041
Y012362
X011703Y013036
X023238Y015752
X023199Y016604
X023238Y018337
X023839Y01877
X024439Y018337
X025039Y01877
X02564Y018337
X02624Y01877
X026841Y018337
X027441Y01877
X028041Y018337
X028642Y01877
X029242Y018337
X029843Y01877
X030443Y018337
X031043Y01877
X031644Y018337
X032244Y01877
X032844Y018337
X033445Y01877
X034045Y018337
X034646Y01877
X035246Y018337
X035846Y01877
X036447Y018337
X037047Y01877
X037648Y018337
X038248Y01877
X037126Y016604
X037165Y015752
X036293Y016112
X035573Y015815
X03544Y016923
X034132
X032402Y016604
X032441Y015752
X031568Y016112
X030848Y015815
X030716Y016923
X029408
X027677Y016604
X027717Y015752
X026844Y016112
X026238Y016923
X024929
X025326Y012106
X026398
X026988
X027894Y012106
Y011112
X026988Y011112
X027203Y009026
X026988Y007431
X027894
X031713
X032618Y007431
X031927Y009026
X031713Y011092
X032618Y011092
Y012106
X031713Y012106
X031123
X030051
X034775
X035847
X036437
X037343Y012106
Y011112
X036437Y011112
X036652Y009026
X036437Y007431
X037343Y007431
X025335Y008957
X024429Y008957
Y009941
X025335Y009941
X024188Y0219
X02315
X028593Y021909
X02935
X030108
X034132Y0219
X03489
X035648
X04007Y02188
X040828
X041586
X041988Y020915
X04185Y01877
X04125Y018337
X04065Y01877
X040049Y018337
X039449Y01877
X038848Y018337
X038857Y016923
X040297Y015815
X041027Y016112
X0419Y015752
X04186Y016604
X042451Y018337
X043051Y01877
X043652Y018337
X044252Y01877
X044415Y016923
X045994Y016457
Y01523
X045884Y012687
X046474Y012677
X04738Y012677
X046689Y011245
Y009606
X046978Y008091
X047884Y008091
X05248Y009232
X050246Y012638
X050622Y016244
X047797Y016299
X048642Y017913
X049154Y019331
X048878Y020906
X049685Y020994
X05011Y021287
X051658Y020727
X052389Y022118
X05185Y018741
Y018275
X053956Y016933
X053249Y015064
X047411Y018957
X047057Y019228
X047037Y019656
X047037Y01997
X046762Y020187
X046673Y020724
Y021171
X0469Y021407
X047126Y021644
X047351Y021878
X047559Y022115
X047351Y020644
X044812Y012687
X042077Y012106
X041171Y012106
X040581
X039509
X041171Y011112
X042077Y011112
X041386Y009026
X041171Y007431
X042077Y007431
X055433Y008081
X059301Y00813
X061821Y008533
X063297Y008543
X063947
X064596
X065246
X066614Y008386
X066949
X067283
X067618
X068809Y010482
Y01227
X068643Y013818
X067723
X067648Y014333
X068943Y015409
X06683Y015957
X067732Y017372
X068038Y018167
X068642Y01812
X068199Y019849
X067649Y02003
X066909Y019715
X066191Y021486
X065616Y021592
X067649Y021722
X068292Y02248
X068886Y020493
X06937
X064045Y019518
X063225Y020037
X063175Y02103
X061722Y020772
X061639Y019932
X062077Y017927
X062746Y0175
X06331Y017541
X064469Y017295
X06565Y017431
X064409Y013622
X063986Y012147
X063829Y010522
X062762Y013207
X062096Y013209
X061556Y014197
X060089Y016018
X058934Y015916
X058468
X056324Y016557
Y017195
X056327Y017638
X054409
X055959Y01962
X056585
X057652Y021141
X057601Y022443
X056498Y022687
X0546Y021659
X060817Y022293
X061183Y022294
X059916Y01811
X056548Y014952
X057168Y013978
X057139Y013058
X056674
X055876Y013628
X066821Y012403
X070295Y012303
X072793Y011693
X07365
Y013457
Y014537
X072303
X072637Y015354
X070688Y015561
X070649Y016266
Y016941
X070994Y01748
X071585Y017835
X072637Y017592
X073689Y017835
X073492Y01879
X072451Y018789
X072717Y019902
X071696
X070532Y018697
X06998Y017874
Y01744
X071585Y016496
X073689
X072628Y022136
X071014Y022077
X070256Y008957
X071467Y007638
X073691Y00747
Y009346
X072851
X072569Y023573
X073345Y025039
X073553Y026437
X072594Y026063
X072594Y026811
X071722Y025699
X070955Y026437
X070404Y02502
X071295Y03124
X072851
X073212
X073755Y031463
X069213Y032373
X067704Y032116
X067571Y031569
X067232Y030139
X065768Y030387
X064972Y030139
X063508Y030387
X062713Y030131
X062553Y028573
X062802Y028016
X061908Y02805
X060908Y028258
X060293Y028573
X059733Y028412
X060453Y030135
X061264Y031437
X061331Y031855
X059071Y031859
X059004Y031437
X058193Y030135
X057553Y029295
X056282Y028591
X055772Y028576
X055293Y029295
X055933Y030135
X056744Y031437
X056811Y031859
X054554Y031861
X054487Y031439
X055933Y033802
X055405Y034847
X055331Y036074
X056292Y036009
X057543
X058505
X059778Y0358
X059925Y034847
X060453Y033802
X058193
X057665Y034847
X062185
X062713Y033802
X064972
X064445Y034847
X066704
X067232Y033802
X067706Y033301
X069542Y03454
X069045Y038031
X066191Y038081
X065851Y031859
X065783Y031441
X063524
X063591Y031859
X064214Y028324
X064813Y028576
X066635Y028176
X067194Y028002
X067073Y028576
X068166Y028272
X069468Y028524
X069209Y030134
X069508Y025157
Y024095
X068455Y023622
X066821Y023455
X065752Y023728
X065571Y02562
X064795Y025677
X064453Y024996
X063369Y025639
X063258Y023406
X060502Y02374
X060816Y024531
X060908Y026639
X059191Y025813
X058041Y025551
X05613Y024075
X05464Y023728
X054881Y023284
X054652Y025112
Y025731
X054616Y026515
X060107Y022978
X066522Y025276
X067485Y026253
X053329Y026754
X052945Y02577
X052834Y025278
X053265Y025112
X053288Y02409
X053221Y023284
X05227Y02424
X05202Y024486
X052266Y024736
X05177Y024732
X051774Y024236
X051228Y025263
X05082Y025097
X05106Y02577
X051701Y025769
X052343Y025768
X049724Y025651
X048799Y025354
X049343Y024508
X049481Y023728
X048986Y023809
X048632Y023445
X047559Y023082
X050469Y023337
X051292Y023076
X050808Y027222
X049596
X050512Y028465
X050915Y028553
X051594Y028366
X052923Y028625
X053514Y028573
X054016Y028576
X053673Y030135
X051171Y030089
X052224Y031437
X052354Y031861
X050028Y032148
X049685Y031112
X047303Y031467
X046616Y031453
X046319Y031772
X04597Y031502
X04597Y030872
Y030242
X044978Y029854
X044587Y02972
X045232Y029515
X044932Y028929
X044199Y028736
X043579
X042959
X042339
X041719
Y030075
X041246Y030616
X041167Y029593
X040675Y02976
X039907Y030616
Y031246
Y032496
Y033116
X03987Y033526
X0409Y033543
X041551Y033244
X042663Y033569
X042284Y034557
X042042Y035719
X043757Y036092
X045164Y036159
X045433Y035581
X044638Y03511
X045789Y034465
X045624Y033146
X044988Y033144
X044992Y033569
X044352Y033577
X044346Y032264
X044632Y031502
X043307Y03144
X042924Y031281
X042541Y03144
X042382Y031823
X042541Y032206
X042924Y032364
X043307Y032206
X043465Y031823
X042924Y031823
X042959Y030075
X042047Y027096
X043553Y026654
X045138Y025049
X045984Y02752
X047384Y028726
X04798Y02824
X046564Y033701
X047376Y036122
X047107Y036722
X047894Y036843
X048258
X04965Y036654
X048536Y038297
X046264Y037441
X044917Y038294
X044154Y037746
X043757Y037958
X041358Y037411
X040699Y036585
X040344
X039951
X039861Y035697
X039878Y034951
X039096Y035038
X038809Y034412
X038972Y030886
X03872Y030614
X038972Y030343
X039281Y027061
X039281Y025049
X040344Y037951
X04003Y038519
X052697Y038435
X053165Y035989
X054048Y036009
X053145Y034847
X053673Y033802
X051427Y034419
X051165Y035033
X05185Y035295
X03809Y034418
X037628Y03343
X035961Y033587
X03606Y03251
X036543Y031028
X036888Y030545
X03723Y03138
X038468Y030886
Y030343
X037879Y030052
X036888Y02936
X036791Y026998
X037697Y026654
X038494Y027046
X038022Y025049
X037156
X033425
X032165
X031299
X031841Y02662
X031665Y028035
X02997Y027037
X028326Y028037
X027992Y031079
X027305
X026535
X029084Y030768
X02999Y031358
X029326Y032126
X029528Y032992
X028868
X028179Y032677
X030846Y03248
X03186Y032398
X032293Y031181
X031614Y03072
X034277Y030703
X034281Y031636
Y032982
X034455Y034206
X035153Y035984
X034843Y036378
X035869Y036523
X036348Y036126
X037457Y03677
X038455Y03687
X037953Y037411
X033593Y038199
X033415Y038425
X033789
X032182Y036028
X031476Y036644
X029311Y036573
X027916Y035837
X027441Y035876
X025339Y035993
X02502Y035185
X02498Y034459
X02502Y033396
X023953Y035388
X023449
X024823Y03685
X03125Y033848
X027569Y025049
X026309
X025443
Y026303
X024614
X02314Y025043
X02188
X021014
X02063Y026043
X021112Y026669
X021555Y026648
X021112Y027307
X021321Y027776
X02003Y027657
X019591Y02769
X019843Y029262
X019494Y029845
X018999Y031469
X017006Y031587
Y032091
X016734Y031843
X016463Y032094
Y031591
Y032711
X017197Y033236
X01803Y033435
X017608Y032217
X017006Y030839
X016598Y030429
X016421Y028703
X016925
X01813Y028948
X0181Y026654
X01874Y026659
X017421Y026654
X016378Y02624
X01688Y025049
X017746
X019006
X014872
X012488Y025269
X013287Y026654
X013691Y02747
X014124Y028941
Y029445
X014396Y029193
X014667Y028941
Y029445
X014577Y030665
Y031331
X012274Y030719
X011191
X011703Y03
X011191Y029284
X012274Y029281
X011594Y028431
X009524Y027598
Y026878
X009524Y024878
X009585Y030941
X009524Y032315
X009524Y033037
X012612Y032703
X012265Y034052
X012373Y034974
X012667Y036132
X013896Y0353
X014835Y034562
X015766Y036114
X015677Y036957
X017197Y036312
X018559Y036568
Y034788
X019974Y033618
X020478
X021058Y032889
X02111Y032222
X022667Y033313
X021538Y034762
X021678Y036788
X02065Y038238
X017953Y038228
X011604Y037207
X022004Y029049
X006024Y029167
Y028037
X005419Y028396
X004474Y028022
Y0294
X005419Y029774
X005968Y030803
Y032315
X004961Y034547
X005172Y035374
X005228Y036275
X00561Y036919
X006409Y037254
X006501Y036006
X002185Y030502
Y029094
X002735Y029104
Y027726
X002185Y027726
Y026339
X002735Y026348
Y02497
X004474Y025266
X005419Y02564
X006024Y025317
Y026447
X005419Y027018
X004474Y026644
X006024Y02373
X002057Y038563
X002116Y041654
X007392Y041665
X008091Y042372
X008858Y041665
X009567Y042224
X009528Y03898
X008723Y039489
X008061Y03898
X010492Y039656
X012193
X013336Y039675
X014734
X017259Y039962
X017207Y040996
X017815Y038937
X02065Y038957
X020534Y039863
Y040256
X023016Y040611
X022504Y038524
X026225Y039587
X024656Y041516
X02832Y042057
X0294Y04186
X030108
X032411Y041811
X031772Y040817
X031503Y039373
X03061Y039606
X030689Y03872
X032884Y040164
X034376Y040167
X034892Y04122
X034868Y041923
X035333Y042008
X035774Y041827
X036152Y041923
X03703Y041827
X036821Y040167
X03627Y039911
X036565Y039547
X035699
X034104Y041585
Y042008
X038927Y041585
Y040246
X039595Y039449
X040968Y040522
X040419Y041433
X042258
X042677Y040955
X043665Y040922
X043457Y041894
X043107Y042413
X043868
X045433Y04248
X045983Y042184
X045837Y04187
X045476Y041393
X045167Y041594
Y041073
X04497Y040679
X045075Y040287
X046683Y040758
X047261Y040922
Y040437
X047864Y041198
X048465Y041076
X04915Y041075
X048819Y040541
X048789Y039616
X048661Y03908
X048032Y039093
X046486Y041427
X046992Y042187
X05165Y039429
X041843Y038752
X05575Y04034
X058484Y040807
X066211Y041053
X069016Y040945
T02
X066663Y003976
X067116
X067569
T03
X055339Y020991
X056289Y021141
Y021841
X055339Y022141
T04
X038898Y001008
X04064Y001008
X0419
X042766
X043632
Y003008
X042766
X0419
X04064
X038898Y003008
X045906Y003002
X047165
X048032
X048898
Y001002
X048032
X047165
X045906
X038031Y001008
X037165
X035906
X034173
X033307
X032441
X031181
X029449
X028583
X027717
X026457
Y003008
X027717
X028583
X029449
X031181
X032441
X033307
X034173
X035906
X037165
X038031
X025217Y003313
X02435
X023484
Y005313
X02435
X025217
X022224
X021083Y005311
X020217
X01935
X018091
Y003311
X01935
X020217
X021083
X022224Y003313
X007169Y011284
Y013284
X007165Y014006
Y016006
X007165Y016726
Y018726
Y019443
Y021443
X007165Y022165
X008031
X008031Y021443
X008898
X008898Y022165
X010157
X010157Y021443
Y019443
Y018726
X008898
Y019443
X008031
Y018726
Y016726
X008031Y016006
X008898
X008898Y016726
X010157
X010157Y016006
Y014006
X010161Y013284
X008902
X008898Y014006
X008031
X008035Y013284
Y011284
X008902
X010161
X017844Y013248
X019104
X01997
X020837
X021978Y013252
Y015252
X020837Y015248
X01997
X019104
X017844
X018179Y022543
X017313
X016447
X015305
X014045
X013179
X012313
X019439
X020581Y022537
X021447
X022313
X023573
X02501Y022543
X025876
X026742
X028002
X030866
X031732
X032598
X033858
X036722
X037589
X038455
X038031Y015252
X037165
X035906
X034173
X033307
X032441
X031181
X029449
X028583
X027717
X026457
X02497Y015252
X024104
X023238
Y013252
X024104
X02497
X026457Y013252
X027717
X028583
X029449
X031181
X032441
X033307
X034173
X035906
X037165
X038031
X038898
X04064Y013252
X0419
X042766
X043632
Y015252
X042766
X0419
X04064
X038898Y015252
X046762Y01523
X048022
X048888
X049754
Y01723
X048888
X048022
X046762
X045571Y022543
X044311
X043445
X042579
X039715
X055475Y024648
X056735
X057601
X058467
Y026648
X057601
X056735
X055475
X06515Y026579
X066016
X066883
X068142
Y024579
X066883
X066016
X06515
X045571Y024543
X044311
X043445
X042579
X039715
X038455
X037589
X036722
X033858
X032598
X031732
X030866
X028002
X026742
X025876
X02501
X023573Y024537
X024281Y02714
X025148
X026014
Y02914
Y02986
X025148
Y02914
X024281
Y02986
Y03186
X025148
X026014
X032717Y02914
X033583
X034449
X035709
Y02714
X034449
X033583
X032717
X023022
Y02914
Y02986
Y03186
X022313Y024537
X021447
X020581
X019439Y024543
X018179
X017313
X016447
X015305
X014045
X013179
X012313
X010157Y024882
Y024165
X008898
Y024882
X008031
Y024165
Y026882
X008031Y027602
X008898
X008898Y026882
X010157
X010157Y027602
Y029602
Y030319
X008898
Y029602
X008031
Y030319
Y032319
X008031Y033041
X008898
X008898Y032319
X010157
X010157Y033041
Y035041
Y035758
X008898
Y035041
X008031
Y035758
Y037758
X008898
X010157
X012018Y037939
X013278
X014144
X01501
Y035939
X014144
X013278
X012018
X007165Y035758
Y035041
Y033041
X007165Y032319
Y030319
Y029602
Y027602
X007165Y026882
Y024882
Y024165
Y037758
X010913Y039045
Y040305
Y041171
Y042037
X012913
Y041171
Y040305
X013852
Y041171
Y042037
X015852
Y041171
Y040305
Y039045
X013852
X012913
X025329Y039065
Y040325
Y041191
Y042057
X027329
Y041191
Y040325
Y039065
X050138Y038921
X051398
X052264
X05313
X054242Y038931
Y040931
X05313Y040921
X052264
X051398
X050138
X055502Y040931
X056368
X057234
Y038931
X056368
X055502
T05
X049903Y0019
X051003
X024665Y001516
X023878
X023091
X022303
X016545Y011427
X011624
X011624Y018484
X016348
X023258Y037972
X029774Y038285
X021427Y038957
X019752
X018632
X016957
X018685Y04165
X019682Y041185
X021886Y041162
X022839Y041712
X023258Y039648
X029774Y039961
T07
X039021Y004246
X042766Y005236
X043756Y004246
X049706Y00429
X048575Y005421
X038031Y005236
X033307
X034297Y004246
X029573
X028583Y005236
X02451Y006711
X020376Y006709
X018679Y008406
X018453Y010311
X02015Y012008
X022587Y010313
X022813Y008408
X022539Y020157
X020139
X017689
X016189
X013444
X012344
X026862Y019776
X027994Y020907
X032719Y019776
X03385Y020907
X038575Y019776
X038031Y009961
X033307
X034297Y008971
X029573
X028583Y009961
X024284Y01201
X039021Y008971
X042766Y009961
X043756Y008971
X049744Y009941
X048612Y011073
X044431Y019776
X045563Y020907
X039706
T08
X059774Y00189
X051003Y00331
X001073Y000945
X012854Y011427
X015118
X015118Y018484
X012854Y018484
X067116Y010118
X07187Y013898
X072854
X01628Y034224
Y035324
X013632Y033552
Y032058
T09
X003436Y020118
Y020945
Y021969
Y022795
X00442
Y020118
T10
X052215Y013836
X053238
X054262
X058435Y013839
X059459
X060482
X026506Y035039
Y036063
Y037087
X002343Y033907
T11
X071063Y010433
X073032Y012402
X074016
Y008465
X073032
Y032618
X074016
Y036555
X073032
Y037608
X074016
X071063Y034587
Y039577
X073032Y041545
X074016
T12
X073032Y010433
Y034587
Y039577
T15
X00565Y007244
Y010079
T16
X062205Y00128
X062205Y004134
X005374
X005374Y001427
X005374Y03878
X005571Y041604
X062205Y041634
X062205Y03878
M30
