M48
;Layer_Color=9474304
;FILE_FORMAT=2:4
INCH,LZ
;TYPE=PLATED
T06F00S00C0.0315
T13F00S00C0.0591
T14F00S00C0.0866
%
G90
G05
T06
G00X00751Y002854
M15
G01Y002539
M16
G00X011801Y000413
M15
G01X011486
M16
G00X015778Y002854
M15
G01Y002539
M16
G00X003524Y006004
M15
G01X003051
M16
G00X003524Y011319
M15
G01X003051
M16
G00X00751Y008051
M15
G01Y008366
M16
G00X011486Y010492
M15
G01X011801
M16
G00X015778Y008051
M15
G01Y008366
M16
G00X070945Y008465
M15
G01X071181
M16
G00X070945Y009449
M15
G01X071181
M16
G00X070945Y011417
M15
G01X071181
M16
G00X070945Y012402
M15
G01X071181
M16
G00X070945Y032618
M15
G01X071181
M16
G00X070945Y033602
M15
G01X071181
M16
G00X070945Y035571
M15
G01X071181
M16
G00X070945Y036555
M15
G01X071181
M16
G00X070945Y037608
M15
G01X071181
M16
G00X070945Y038593
M15
G01X071181
M16
G00X070945Y040561
M15
G01X071181
M16
G00X070945Y041545
M15
G01X071181
M16
T13
G00X00185Y01876
M15
G01X00244
M16
G00X001752Y021752
M15
G01Y021161
M16
G00X00185Y024154
M15
G01X00244
M16
T14
G00X000794Y03233
M15
G01X001017Y032552
M16
G00X003901Y032339
M15
G01X003678Y032562
M16
G00X003891Y035485
M15
G01X003668Y035263
M16
G00X000784Y035476
M15
G01X001007Y035253
M16
M17
M30
